<?xml version="1.0" encoding="UTF-8"?>
<svg id="Outline" xmlns="http://www.w3.org/2000/svg" width="193.69" height="150" viewBox="0 0 193.69 150">
  <defs>
    <style>
      .cls-1 {
        fill: #9c27b0;
      }

      .cls-2 {
        fill: #ec407a;
      }

      .cls-3 {
        fill: #1e88e5;
      }

      .cls-4 {
        fill: #ff9800;
      }

      .cls-5 {
        fill: #4caf50;
      }

      .cls-6 {
        fill: #fdd835;
      }

      .cls-7 {
        fill: #cddc39;
      }

      .cls-8 {
        fill: #ff6f61;
      }

      .cls-9 {
        fill: #01e88e;
      }

      .cls-10 {
        fill: #00acc1;
      }
    </style>
  </defs>
  <path class="cls-8" d="M122.05,114.8s.03,0,.05-.01c1.72-.54,1.57-3.79,1.72-5.13.24-2.27.43-4.56.57-6.84.27-4.57.31-9.15.13-13.72-.35-9.15-1.58-18.26-3.65-27.17-1.51-6.49-3.54-13.03-5.97-19.31-2.07-5.36-4.55-10.55-6.97-15.76-.19-.42-.43-.87-.86-1.04-.66-.25-1.36.35-1.62,1-.29.75-.25,1.58-.15,2.38.45,3.46,1.93,6.64,3.26,9.83,7.32,17.57,12.71,36.29,13.29,55.41.11,3.71.04,7.42-.24,11.13-.14,1.9-.34,3.8-.59,5.69-.13.94-1.1,4.09,1.03,3.54Z"/>
  <path class="cls-5" d="M81.09,53.62c5.27,2.51,10.19,5.97,14.52,9.55,3.89,3.21,7.42,6.86,10.44,10.9,1.52,2.04,3,4.19,4.15,6.46.57,1.11,2.09,4.26,1.59,5.49-.28.69-.22.38-.87-.03-1.55-.98-2.66-3.03-3.75-4.46-1.29-1.68-2.64-3.32-4.04-4.91-2.81-3.17-5.85-6.15-9.08-8.89-3.79-3.22-7.85-6.12-12.12-8.66-4.15-2.47-9.42-4.04-12.96-7.39-.8-.76-1.73-1.94.12-1.72,4.12.49,8.15,1.82,11.99,3.65Z"/>
  <path class="cls-6" d="M136.91,98.3c0-.07,0-.14-.01-.21-.09-2.1.24-4.19.6-6.26.74-4.22,2.07-8.37,3.46-12.41,2.74-7.98,6.08-15.75,9.64-23.39,2.24-4.81,4.58-9.57,7.05-14.26.65-1.24,1.86-.59,1.99.71.08.8-.27,1.56-.61,2.29-5.97,12.74-12.1,25.42-16.69,38.74-2.35,6.82-3.59,14.02-5.15,21.08.43-1.78-.16-4.39-.27-6.28Z"/>
  <polygon class="cls-2" points="68.58 28.21 70.35 25.74 68.55 23.29 71.45 24.21 73.22 21.75 73.24 24.78 76.13 25.71 73.25 26.66 73.27 29.7 71.47 27.25 68.58 28.21"/>
  <polygon class="cls-6" points="73.01 87.56 74.78 85.09 72.98 82.64 75.88 83.56 77.65 81.1 77.67 84.13 80.56 85.06 77.68 86.01 77.7 89.05 75.9 86.6 73.01 87.56"/>
  <polygon class="cls-6" points="131.68 46.75 133.45 44.28 131.65 41.83 134.55 42.76 136.32 40.29 136.34 43.33 139.23 44.25 136.35 45.2 136.37 48.24 134.57 45.79 131.68 46.75"/>
  <polygon class="cls-4" points="183.39 75.06 184.02 72.08 181.39 70.56 184.41 70.25 185.04 67.27 186.28 70.05 189.3 69.73 187.04 71.77 188.28 74.54 185.65 73.02 183.39 75.06"/>
  <ellipse class="cls-10" cx="133.81" cy="82.79" rx="1.96" ry="2.29"/>
  <circle class="cls-2" cx="113.92" cy="105" r="2.12"/>
  <circle class="cls-7" cx="160.12" cy="111.76" r="2.14"/>
  <circle class="cls-9" cx="167.03" cy="59.76" r="1.23"/>
  <circle class="cls-1" cx="87.64" cy="40.02" r="2.54"/>
  <circle class="cls-5" cx="149.7" cy="34.11" r="1.96"/>
  <circle class="cls-10" cx="55.13" cy="49.58" r="1.78"/>
  <circle class="cls-3" cx="71.95" cy="65.2" r="1.87"/>
  <circle class="cls-8" cx="50.72" cy="88.02" r="2.64"/>
  <path class="cls-3" d="M107.66,117.31c-4.27-8.46-9.25-16.04-17.72-20.88-1.78-1.03-3.66-1.94-5.18-3.32-1.78-1.62-.55-2.34,1.23-2.33,6.35.02,12.76,5.21,16.61,9.91,1.97,2.41,3.58,5.12,4.75,8.01s2.6,6.41,1.72,9.39c-.08.27-.27.6-.55.55-.2-.03-.31-.23-.4-.41-.15-.31-.31-.61-.46-.92Z"/>
  <path class="cls-4" d="M95.81,125.93c-.91-8.69-5.54-17.07-12.86-21.83-5.45-3.54-12.02-4.96-18.49-5.51-.88-.07-1.79-.13-2.61.2-1.79.72-2.32,3.45-.93,4.79.63.61,1.51.9,2.38,1.08,3.56.71,7.25-.2,10.76.87,2.92.89,5.59,2.53,7.91,4.49,4.77,4.03,8.41,9.5,10.81,15.23.46,1.09.94,2.28,1.97,2.85.2.11.43.19.64.13.46-.13.54-.75.5-1.23-.02-.36-.06-.72-.09-1.08Z"/>
  <path class="cls-1" d="M137.7,126.34c.03-.05.06-.11.08-.17,1.71-3.88,3.5-7.68,5.43-11.45,1.68-3.27,3.53-6.5,5.51-9.6,4.14-6.47,9.1-12.41,14.94-17.41,2.4-2.06,5.04-3.82,7.58-5.71,1.87-1.39,4.95-3.23,5.72-5.54.51-1.52-.44-3.61-2.05-3.56-.69.02-1.3.4-1.88.78-14.76,9.74-27.01,23.67-33.25,40.34-.03.08-.06.17-.09.25-1.31,3.51-3,7.55-2.87,11.36,0,.23.03.48.16.68s.42.3.61.16c.04-.03.08-.07.11-.12Z"/>
</svg>