<?xml version="1.0" encoding="UTF-8"?>
<svg id="Layer_1" xmlns="http://www.w3.org/2000/svg" width="322.79" height="365.42" viewBox="0 0 322.79 365.42">
  <defs>
    <style>
      .cls-1 {
        stroke: #f9d423;
      }

      .cls-1, .cls-2, .cls-3, .cls-4, .cls-5, .cls-6, .cls-7, .cls-8 {
        fill: none;
        stroke-linecap: round;
        stroke-miterlimit: 10;
        stroke-width: 6px;
      }

      .cls-2 {
        stroke: #ff8c42;
      }

      .cls-3 {
        stroke: #26c6da;
      }

      .cls-4 {
        stroke: #f72585;
      }

      .cls-5 {
        stroke: #ff6b6b;
      }

      .cls-6 {
        stroke: #58c9f3;
      }

      .cls-7 {
        stroke: #a8e10c;
      }

      .cls-8 {
        stroke: #0c084f;
      }
    </style>
  </defs>
  <path class="cls-1" d="M185.55,293.11c-4.06-13.07-9.51-21.4-16.73-22.87-9.17-1.87-14.8,8.65-23.91,6.33-10.5-2.67-8.84-18.13-20.02-22.17-10.86-3.93-17.99,8.68-29.59,4.95-11.01-3.54-10.58-17.16-21.05-20.32-7.9-2.38-16.62,2.78-23.26,8.15"/>
  <path class="cls-6" d="M319.79,259.52c-6.09-12.26-12.79-19.62-20.16-19.92-9.35-.38-13.24,10.89-22.6,10.05-10.79-.96-11.61-16.49-23.29-18.71-11.35-2.15-16.39,11.43-28.43,9.59-11.44-1.74-13.18-15.26-24.01-16.71-8.18-1.1-15.96,5.39-21.67,11.75"/>
  <path class="cls-5" d="M179.72,193.4c-6.09-12.26-12.79-19.62-20.16-19.92-9.35-.38-13.24,10.89-22.6,10.05-10.79-.96-11.61-16.49-23.29-18.71-11.35-2.15-16.39,11.43-28.43,9.59-11.44-1.74-13.18-15.26-24.01-16.71-8.18-1.1-15.96,5.39-21.67,11.75"/>
  <path class="cls-7" d="M271.83,162.66c-6.09-12.26-12.79-19.62-20.16-19.92-9.35-.38-13.24,10.89-22.6,10.05-10.79-.96-11.61-16.49-23.29-18.71-11.35-2.15-16.39,11.43-28.43,9.59-11.44-1.74-13.18-15.26-24.01-16.71-8.18-1.1-15.96,5.39-21.67,11.75"/>
  <path class="cls-8" d="M216.61,96.5c-6.09-12.26-12.79-19.62-20.16-19.92-9.35-.38-13.24,10.89-22.6,10.05-10.79-.96-11.61-16.49-23.29-18.71-11.35-2.15-16.39,11.43-28.43,9.59-11.44-1.74-13.18-15.26-24.01-16.71-8.18-1.1-15.96,5.39-21.67,11.75"/>
  <path class="cls-2" d="M143.15,44.56c-6.09-12.26-12.79-19.62-20.16-19.92-9.35-.38-13.24,10.89-22.6,10.05-10.79-.96-11.61-16.49-23.29-18.71-11.35-2.15-16.39,11.43-28.43,9.59-11.44-1.74-13.18-15.26-24.01-16.71-8.18-1.1-15.96,5.39-21.67,11.75"/>
  <path class="cls-4" d="M280.42,38.81c-6.09-12.26-12.79-19.62-20.16-19.92-9.35-.38-13.24,10.89-22.6,10.05-10.79-.96-11.61-16.49-23.29-18.71-11.35-2.15-16.39,11.43-28.43,9.59-11.44-1.74-13.18-15.26-24.01-16.71-8.18-1.1-15.96,5.39-21.67,11.75"/>
  <path class="cls-3" d="M309.63,362.42c-4.82-12.81-10.74-20.81-18.03-21.86-9.27-1.33-14.27,9.49-23.5,7.71-10.64-2.05-9.88-17.59-21.27-20.97-11.07-3.29-17.46,9.71-29.25,6.66-11.2-2.89-11.56-16.52-22.2-19.06-8.03-1.92-16.43,3.75-22.75,9.49"/>
</svg>