<?xml version="1.0" encoding="UTF-8"?>
<svg id="Outline" xmlns="http://www.w3.org/2000/svg" width="150" height="150" viewBox="0 0 150 150">
  <defs>
    <style>
      .cls-1 {
        fill: #9c27b0;
      }

      .cls-2 {
        fill: #ec407a;
      }

      .cls-3 {
        fill: #1e88e5;
      }

      .cls-4 {
        fill: #ff9800;
      }

      .cls-5 {
        fill: #4caf50;
      }

      .cls-6 {
        fill: #fdd835;
      }

      .cls-7 {
        fill: #cddc39;
      }

      .cls-8 {
        fill: #ff6f61;
      }

      .cls-9 {
        fill: #01e88e;
      }

      .cls-10 {
        fill: #00acc1;
      }
    </style>
  </defs>
  <path class="cls-8" d="M89.87,108.55s.03-.02.04-.02c1.52-.96.54-4.06.33-5.4-.35-2.26-.76-4.51-1.22-6.75-.93-4.48-2.07-8.92-3.42-13.29-2.71-8.74-6.25-17.23-10.56-25.3-3.13-5.87-6.79-11.67-10.76-17.11-3.39-4.64-7.13-9.01-10.82-13.42-.3-.35-.64-.73-1.1-.78-.7-.07-1.22.69-1.3,1.39-.09.8.17,1.59.47,2.33,1.33,3.22,3.59,5.91,5.69,8.65,11.62,15.08,21.67,31.76,27.18,50.09,1.07,3.55,1.96,7.16,2.65,10.81.35,1.87.66,3.76.9,5.65.12.94,0,4.23,1.91,3.15Z"/>
  <path class="cls-5" d="M34.47,60.05c5.74,1.06,11.39,3.13,16.5,5.46,4.59,2.09,8.95,4.7,12.9,7.83,1.99,1.58,3.98,3.27,5.68,5.16.83.93,3.12,3.58,2.96,4.89-.09.74-.11.43-.84.2-1.75-.54-3.35-2.24-4.78-3.34-1.68-1.29-3.41-2.53-5.17-3.7-3.54-2.34-7.24-4.42-11.07-6.23-4.49-2.12-9.16-3.88-13.94-5.23-4.65-1.31-10.15-1.47-14.43-3.79-.97-.52-2.18-1.42-.33-1.69,4.11-.59,8.34-.35,12.53.42Z"/>
  <path class="cls-6" d="M99.95,88.77c-.02-.07-.04-.13-.06-.2-.63-2-.85-4.1-1.04-6.2-.38-4.27-.17-8.62.12-12.89.58-8.41,1.79-16.78,3.26-25.09.92-5.22,1.95-10.43,3.12-15.6.31-1.37,1.64-1.05,2.1.17.28.75.15,1.58,0,2.37-2.47,13.85-5.11,27.68-6.1,41.74-.5,7.2.17,14.47.48,21.69-.05-1.83-1.29-4.2-1.89-6Z"/>
  <polygon class="cls-2" points="15.81 38.74 16.89 35.9 14.51 34 17.55 34.14 18.62 31.3 19.42 34.23 22.46 34.37 19.92 36.04 20.72 38.97 18.35 37.07 15.81 38.74"/>
  <polygon class="cls-6" points="35.45 94.92 36.53 92.08 34.15 90.18 37.19 90.32 38.26 87.48 39.06 90.41 42.1 90.55 39.56 92.22 40.36 95.15 37.99 93.26 35.45 94.92"/>
  <polygon class="cls-6" points="81.56 40.32 82.64 37.48 80.26 35.58 83.3 35.72 84.37 32.88 85.17 35.81 88.21 35.95 85.67 37.62 86.47 40.55 84.1 38.65 81.56 40.32"/>
  <polygon class="cls-4" points="138.83 54.28 138.68 51.25 135.74 50.46 138.58 49.37 138.42 46.34 140.33 48.7 143.17 47.61 141.51 50.16 143.42 52.52 140.49 51.73 138.83 54.28"/>
  <ellipse class="cls-10" cx="92.94" cy="74.58" rx="1.96" ry="2.29" transform="translate(-16.14 26.6) rotate(-15)"/>
  <circle class="cls-2" cx="79.49" cy="101.18" r="2.12"/>
  <circle class="cls-7" cx="125.86" cy="95.76" r="2.14"/>
  <circle class="cls-9" cx="119.07" cy="43.74" r="1.23"/>
  <circle class="cls-1" cx="37.28" cy="45.22" r="2.54"/>
  <circle class="cls-5" cx="95.7" cy="23.45" r="1.96"/>
  <circle class="cls-10" cx="8.35" cy="62.87" r="1.78"/>
  <circle class="cls-3" cx="28.64" cy="73.6" r="1.87"/>
  <circle class="cls-8" cx="14.04" cy="101.14" r="2.64"/>
  <path class="cls-3" d="M76.62,114.69c-6.32-7.07-13.09-13.1-22.52-15.58-1.98-.53-4.03-.92-5.86-1.86-2.14-1.1-1.14-2.12.58-2.57,6.14-1.62,13.68,1.73,18.61,5.27,2.53,1.82,4.78,4.02,6.66,6.51s4.17,5.52,4.1,8.62c0,.29-.11.65-.39.68-.2.02-.36-.14-.49-.29-.23-.26-.45-.51-.68-.77Z"/>
  <path class="cls-4" d="M67.41,126.08c-3.13-8.16-9.77-15.06-18.07-17.76-6.18-2.01-12.89-1.68-19.29-.54-.87.15-1.76.34-2.47.87-1.54,1.16-1.35,3.94.34,4.87.77.43,1.69.48,2.57.43,3.63-.23,6.95-2.07,10.62-1.94,3.06.11,6.05,1,8.81,2.29,5.65,2.66,10.58,7,14.39,11.91.72.93,1.5,1.96,2.64,2.24.22.05.46.07.65-.04.42-.24.33-.86.17-1.32-.12-.34-.24-.68-.37-1.02Z"/>
  <path class="cls-1" d="M107.98,115.64c.02-.06.03-.12.04-.18.65-4.19,1.39-8.32,2.28-12.47.78-3.59,1.73-7.19,2.84-10.7,2.32-7.32,5.58-14.34,9.92-20.68,1.79-2.61,3.88-5,5.84-7.48,1.44-1.83,3.94-4.4,4.09-6.84.1-1.61-1.36-3.37-2.91-2.91-.66.19-1.15.73-1.61,1.24-11.74,13.23-19.96,29.85-21.68,47.58,0,.09-.02.18-.03.26-.36,3.73-.94,8.07.16,11.72.07.22.15.46.33.61s.49.18.63,0c.03-.04.06-.09.07-.14Z"/>
</svg>