<?xml version="1.0" encoding="UTF-8"?>
<svg id="Outline" xmlns="http://www.w3.org/2000/svg" width="150" height="150" viewBox="0 0 150 150">
  <defs>
    <style>
      .cls-1 {
        fill: #9c27b0;
      }

      .cls-2 {
        fill: #ec407a;
      }

      .cls-3 {
        fill: #1e88e5;
      }

      .cls-4 {
        fill: #ff9800;
      }

      .cls-5 {
        fill: #4caf50;
      }

      .cls-6 {
        fill: #fdd835;
      }

      .cls-7 {
        fill: #cddc39;
      }

      .cls-8 {
        fill: #ff6f61;
      }

      .cls-9 {
        fill: #01e88e;
      }

      .cls-10 {
        fill: #00acc1;
      }
    </style>
  </defs>
  <path class="cls-8" d="M68.99,118.61s.03,0,.05,0c1.8-.07,2.5-3.25,2.98-4.51.82-2.13,1.6-4.29,2.32-6.46,1.44-4.34,2.67-8.76,3.68-13.22,2.03-8.92,3.2-18.04,3.51-27.19.22-6.65-.05-13.5-.77-20.19-.61-5.72-1.66-11.37-2.66-17.03-.08-.45-.19-.95-.56-1.22-.57-.41-1.4-.02-1.82.55-.48.65-.65,1.46-.76,2.26-.46,3.46.15,6.92.61,10.34,2.53,18.87,2.88,38.34-1.51,56.97-.85,3.61-1.88,7.18-3.11,10.69-.63,1.8-1.31,3.58-2.05,5.34-.36.87-2.12,3.66.08,3.69Z"/>
  <path class="cls-5" d="M45.26,48.92c4.44,3.79,8.3,8.41,11.55,12.98,2.93,4.11,5.4,8.54,7.26,13.23.94,2.36,1.81,4.82,2.34,7.31.26,1.22.91,4.66.12,5.71-.45.6-.31.31-.83-.25-1.24-1.34-1.79-3.61-2.47-5.28-.81-1.96-1.69-3.89-2.63-5.79-1.89-3.79-4.06-7.45-6.47-10.94-2.83-4.09-6-7.94-9.46-11.5-3.37-3.46-8.06-6.34-10.6-10.49-.58-.94-1.17-2.32.56-1.63,3.85,1.54,7.4,3.87,10.64,6.63Z"/>
  <path class="cls-6" d="M87.61,106.52c.01-.07.03-.14.04-.2.45-2.05,1.31-3.98,2.2-5.89,1.8-3.89,4.16-7.55,6.55-11.1,4.71-7,9.94-13.64,15.36-20.1,3.41-4.06,6.9-8.06,10.5-11.95.95-1.03,1.95-.09,1.74,1.2-.13.79-.66,1.44-1.18,2.05-9.07,10.76-18.27,21.42-26.15,33.1-4.04,5.98-7.09,12.62-10.43,19.03.87-1.61.98-4.28,1.36-6.14Z"/>
  <polygon class="cls-2" points="39.76 21.13 42.11 19.2 41 16.37 43.56 18.01 45.91 16.09 45.14 19.03 47.7 20.67 44.66 20.84 43.89 23.78 42.79 20.95 39.76 21.13"/>
  <polygon class="cls-6" points="28.67 79.6 31.02 77.68 29.92 74.85 32.48 76.49 34.83 74.56 34.06 77.5 36.62 79.14 33.58 79.32 32.81 82.26 31.71 79.43 28.67 79.6"/>
  <polygon class="cls-6" points="95.91 55.37 98.26 53.44 97.15 50.61 99.71 52.25 102.06 50.33 101.29 53.27 103.85 54.91 100.82 55.08 100.05 58.02 98.94 55.19 95.91 55.37"/>
  <polygon class="cls-4" points="138.53 96.09 139.91 93.39 137.76 91.24 140.76 91.71 142.14 89.01 142.61 92.01 145.62 92.48 142.91 93.86 143.38 96.86 141.23 94.71 138.53 96.09"/>
  <ellipse class="cls-10" cx="88.63" cy="90.73" rx="2.29" ry="1.96" transform="translate(-21.94 152.86) rotate(-75)"/>
  <circle class="cls-2" cx="63.68" cy="107.04" r="2.12"/>
  <circle class="cls-7" cx="106.55" cy="125.52" r="2.14"/>
  <circle class="cls-9" cx="126.68" cy="77.08" r="1.23"/>
  <circle class="cls-1" cx="55.11" cy="37.47" r="2.54"/>
  <circle class="cls-5" cx="116.58" cy="47.83" r="1.96"/>
  <circle class="cls-10" cx="21.24" cy="38.29" r="1.78"/>
  <circle class="cls-3" cx="33.44" cy="57.73" r="1.87"/>
  <circle class="cls-8" cx="7.02" cy="74.28" r="2.64"/>
  <path class="cls-3" d="M54.44,117.3c-1.94-9.28-4.79-17.89-11.71-24.76-1.45-1.45-3.03-2.82-4.14-4.54-1.3-2.03.07-2.4,1.79-1.93,6.13,1.67,10.98,8.33,13.48,13.87,1.28,2.84,2.13,5.88,2.51,8.97.37,2.95.85,6.87-.77,9.52-.15.24-.42.51-.68.39-.18-.08-.24-.3-.28-.5-.07-.34-.14-.67-.21-1.01Z"/>
  <path class="cls-4" d="M40.77,122.57c1.37-8.63-.93-17.93-6.77-24.42-4.35-4.83-10.33-7.9-16.44-10.11-.83-.3-1.7-.59-2.57-.48-1.92.24-3.13,2.74-2.14,4.39.45.76,1.23,1.26,2.02,1.66,3.26,1.61,7.05,1.68,10.17,3.63,2.59,1.62,4.74,3.89,6.48,6.39,3.57,5.13,5.67,11.35,6.5,17.51.16,1.17.32,2.45,1.17,3.26.16.16.36.29.59.29.48,0,.71-.58.8-1.05.07-.36.13-.71.19-1.07Z"/>
  <path class="cls-1" d="M81.12,133.81s.09-.09.13-.14c2.66-3.3,5.37-6.51,8.21-9.66,2.47-2.72,5.09-5.37,7.81-7.85,5.67-5.18,12-9.63,18.93-12.95,2.86-1.37,5.86-2.38,8.8-3.56,2.16-.86,5.61-1.84,6.96-3.87.89-1.34.5-3.6-1.06-3.97-.67-.16-1.36.05-2.02.27-16.78,5.59-32.21,15.87-42.56,30.36-.05.07-.1.14-.15.22-2.17,3.05-4.85,6.52-5.72,10.23-.05.23-.1.47-.02.69s.33.4.55.31c.05-.02.09-.05.13-.09Z"/>
</svg>