<?xml version="1.0" encoding="UTF-8"?>
<svg id="Layer_1" xmlns="http://www.w3.org/2000/svg" width="48.35" height="23.1" viewBox="0 0 48.35 23.1">
  <defs>
    <style>
      .cls-1 {
        fill: #fff;
      }
    </style>
  </defs>
  <path class="cls-1" d="M45.56,2.37c1.85,1.58,2.78,3.8,2.78,6.68,0,.8-.07,1.62-.21,2.47-.66,3.53-2.31,6.35-4.97,8.44-2.66,2.1-5.65,3.15-8.99,3.15-2.54,0-4.68-.57-6.45-1.7-1.76-1.13-3.4-2.66-4.9-4.59-1.65,1.88-3.57,3.4-5.78,4.56-2.21,1.15-4.51,1.73-6.91,1.73-3.1,0-5.57-.78-7.4-2.33-1.83-1.55-2.75-3.77-2.75-6.64,0-.8.07-1.65.21-2.54.61-3.53,2.23-6.35,4.86-8.44C7.7,1.05,10.71,0,14.09,0c2.58,0,4.73.58,6.45,1.73,1.71,1.15,3.25,2.77,4.62,4.84,1.69-1.98,3.66-3.57,5.92-4.77,2.26-1.2,4.6-1.8,7.05-1.8,3.1,0,5.58.79,7.44,2.37ZM16.03,15.12c1.39-.75,2.64-1.77,3.77-3.04-1.08-1.74-2.09-3.05-3.03-3.92-.94-.87-2-1.31-3.17-1.31-1.36,0-2.54.41-3.52,1.24-.99.83-1.62,1.99-1.9,3.5-.09.57-.14.94-.14,1.13,0,1.13.36,2,1.09,2.61.73.61,1.68.92,2.85.92,1.31,0,2.66-.38,4.05-1.13ZM40.24,10.39c0-1.13-.35-2-1.06-2.61-.7-.61-1.64-.92-2.82-.92-1.36,0-2.78.41-4.26,1.24-1.48.83-2.78,1.94-3.91,3.36.99,1.55,1.97,2.74,2.96,3.57.99.83,2.19,1.24,3.59,1.24,1.31,0,2.47-.41,3.45-1.24.99-.82,1.62-1.99,1.9-3.5.1-.56.14-.94.14-1.13Z"/>
</svg>