<?xml version="1.0" encoding="UTF-8"?>
<svg id="Outline" xmlns="http://www.w3.org/2000/svg" width="244.55" height="293.46" viewBox="0 0 244.55 293.46">
  <defs>
    <style>
      .cls-1 {
        stroke-width: 2px;
      }

      .cls-1, .cls-2 {
        fill: #fbae00;
      }

      .cls-1, .cls-2, .cls-3, .cls-4 {
        stroke-linecap: round;
        stroke-linejoin: round;
      }

      .cls-1, .cls-4 {
        stroke: #414042;
      }

      .cls-5, .cls-6 {
        fill: #fff;
      }

      .cls-2, .cls-3 {
        stroke: #fff;
      }

      .cls-7 {
        fill: #4caf50;
      }

      .cls-8 {
        fill: #f1f2f2;
      }

      .cls-3 {
        fill: #414042;
      }

      .cls-4 {
        fill: none;
        stroke-width: 3px;
      }

      .cls-6 {
        font-family: Poppins-Regular, Poppins;
        font-size: 9px;
      }
    </style>
  </defs>
  <g>
    <path class="cls-2" d="M93.04,249.16c.11.31,1.93,6.01-1.81,10.46-2.73,3.25-6.55,3.61-7.32,3.67-1.34.14-3.94.22-6.79-1.03-4.91-2.17-6.79-6.67-7.19-7.7-.51.48-3.52,3.27-8.13,3.04-4.81-.25-7.57-3.59-7.99-4.12.22-1.37.77-3.66,2.35-6.01,2.41-3.58,5.71-5.08,7.05-5.6"/>
    <path class="cls-2" d="M148.8,252.73c-.11.31-1.93,6.01,1.81,10.46,2.73,3.25,6.55,3.61,7.32,3.67,1.34.14,3.94.22,6.79-1.03,4.91-2.17,6.79-6.67,7.19-7.7.51.48,3.52,3.27,8.13,3.04,4.81-.25,7.57-3.59,7.99-4.12-.22-1.37-.77-3.66-2.35-6.01-2.41-3.58-5.71-5.08-7.05-5.6"/>
    <path class="cls-3" d="M182.13,172.53c1.86,8.28,3.43,15.13,4.57,19.98,3.17,13.61,4.05,16.95,4.23,22.88.19,6.22.3,12.6-3.23,19.44-2.72,5.29-6.5,8.68-9.06,10.6-2.31,1.98-6.78,5.27-13.3,7.02-7.35,1.98-13.51.98-16.53.28-7.24-1.69-14.64-3.4-21.71-5.69s-12.57-1.36-19.62-.03c-14.04,2.65-28.68,2.1-42.49-1.58-8.68-2.31-12.89-12.37-14.94-20.51-3.12-12.4.06-22.6,1.48-26.46,2.42-6.01,4.78-13.3,6.39-21.74.85-4.47,1.37-8.68,1.67-12.55-26.28-24.29-38.12-38.27-35.53-41.92,2.26-3.19,15.49,1.47,39.7,13.97.61-21.51,1.1-46.23,13.23-64.87,7.7-11.84,22.01-17.86,35.55-20.04-.34-.68-2.51-5.2-.41-10.06.86-1.99,2.33-3.71,4.11-4.95.16-.11.33-.22.52-.2.17.02.31.15.44.27,2.91,2.83,5.85,5.63,8.78,8.45,1.86-2.09,4.65-4.68,8.53-6.82,1.64-.9,3.21-1.59,4.64-2.09,1.15.33,1.84.9,2.21,1.28,1.64,1.67,1.91,4.57.74,7.35-.98,2.35-1.97,4.69-2.95,7.03,4.53,1.07,19.81,5.29,30.63,20.05,7.09,9.66,9.04,19.44,9.68,24.5,1.04,6.11,1.82,13.89,1.41,22.88-.39,8.54-1.74,15.88-3.23,21.68,4.02-2.23,9.36-5.11,15.72-8.31,15.92-8,23.94-11.96,26.77-9.91,5.67,4.11-33.24,48-37.99,50.08Z"/>
    <path class="cls-5" d="M74.14,112.47c.16,3.38.5,6.75.81,10.04.85,9.19-.01,18.78-1.35,27.91-1.27,8.64-2.57,11.57-5.19,21.23-3.07,11.34-7.08,23.64-6.5,35.5.43,8.74,4.73,18.13,12.08,23.15,5.32,3.63,11.27,5.23,18.5,5.54,5.74.25,11.52.51,17.32.79,6.4.31,12.76.64,19.09.99,9.28.51,18.92,1.28,28.02-1.09,11.29-2.94,16.31-12.53,16.65-23.71.2-6.58-1.32-12.8-2.45-19.22-1.07-6.07-2.12-12.19-3.25-18.27-2.16-11.62-3.82-23.43-3.33-35.28.78-18.74,1.34-41.42-11.03-56.99-4.26-5.36-11.85-8.98-18.62-6.5-6.13,2.24-8.85,8.83-10.67,14.57-.55,1.72-5.32,15.5-3.5,15.75-2.26-.32-2.6.24-4.85-.08,0,0-5.27.28-5.41.28-.72,0-3.1-17.29-3.39-18.72-.58-2.84-1.68-5.74-3.94-7.55-1.61-1.3-3.68-1.92-5.74-2.14-9.32-.98-16.22,6.03-20.05,13.8-3.08,6.25-3.51,13.12-3.19,19.98Z"/>
    <path class="cls-4" d="M82,100.34c.34-1.15,1.33-3.94,4.05-6.02.72-.55,5.06-3.88,9.45-1.88,3.18,1.44,5.16,5.11,4.84,9.11"/>
    <path class="cls-4" d="M129.89,100.34c.34-1.15,1.33-3.94,4.05-6.02.72-.55,5.06-3.88,9.45-1.88,3.18,1.44,5.16,5.11,4.84,9.11"/>
    <path class="cls-1" d="M124.63,107.66c-.16-.77-.87-.92-11.02-1.02-7.05-.07-8.18-.02-8.43,1.02-.53,2.28,3.48,8.33,8.1,9.2,6,1.13,11.86-6.66,11.34-9.2Z"/>
  </g>
  <g>
    <rect class="cls-7" x="1.11" y="105.42" width="51.7" height="22" transform="translate(-10.81 3.05) rotate(-5.39)"/>
    <path class="cls-8" d="M35.45,115.34l-2.11.2,1.48-1.78c.16-.19.13-.48-.06-.63-.19-.16-.47-.13-.63.06l-2.05,2.48-3.25.31c-.04-.1-.09-.19-.15-.27.03-.02.07-.05.1-.08l2.33-2.82,3.2-.3c.25-.02.43-.24.41-.49-.02-.25-.24-.43-.49-.41l-2.31.22,1.29-1.56c.16-.19.13-.47-.06-.63-.19-.16-.47-.13-.63.06l-1.35,1.64-.22-2.31c-.02-.25-.24-.43-.49-.41-.25.02-.43.24-.41.49l.3,3.2-2.27,2.74s-.04.05-.05.08c-.17-.09-.35-.15-.55-.17.03-.06.04-.13.03-.21l-.34-3.64,2.05-2.48c.16-.19.13-.48-.06-.63-.19-.16-.47-.13-.63.06l-1.48,1.78-.19-2.01c-.02-.25-.24-.43-.49-.4s-.43.24-.41.49l.2,2.11-1.78-1.48c-.19-.16-.48-.13-.63.06-.16.19-.13.47.06.63l2.48,2.05.33,3.54c0,.07.03.14.07.2-.16.05-.3.13-.44.22l-2.81-2.33-.3-3.2c-.02-.25-.24-.43-.49-.41-.25.02-.43.24-.41.49l.22,2.31-1.56-1.29c-.19-.16-.47-.13-.63.06-.16.19-.13.47.06.63l1.64,1.35-2.31.22c-.25.02-.43.24-.41.49.02.25.24.43.49.41l3.2-.3,2.73,2.26c-.05.11-.09.22-.12.34l-3.58.34-2.48-2.05c-.19-.16-.48-.13-.63.06-.16.19-.13.47.06.63l1.78,1.48-2.01.19c-.08,0-.27.04-.44.17-.06.05-.24.19-.23.34.01.18.31.36.75.38l2.11-.2-1.48,1.78c-.16.19-.13.48.06.63.19.16.47.13.63-.06l2.05-2.48,3.43-.32c.06.2.16.38.28.54l-2.33,2.81-3.2.3c-.25.02-.43.24-.41.49.02.25.24.43.49.41l2.31-.22-1.29,1.56c-.16.19-.13.47.06.63s.47.13.63-.06l1.35-1.64.22,2.31c.02.25.24.43.49.41.25-.02.43-.24.41-.49l-.3-3.2,2.27-2.74s.01-.02.02-.03c.11.05.23.08.35.1l.32,3.35-2.05,2.48c-.16.19-.13.48.06.63.19.16.47.13.63-.06l1.48-1.78.19,2.01c.02.25.24.43.49.41s.43-.24.41-.49l-.2-2.11,1.78,1.48c.19.16.48.13.63-.06.16-.19.13-.47-.06-.63l-2.48-2.05-.31-3.24c.18-.07.34-.16.48-.28.02.03.04.05.07.08l2.82,2.33.3,3.2c.02.25.24.43.49.41.25-.02.43-.24.41-.49l-.22-2.31,1.56,1.29c.19.16.47.13.63-.06s.13-.47-.06-.63l-1.64-1.35,2.31-.22c.25-.02.43-.24.41-.49-.02-.25-.24-.43-.49-.41l-3.2.3-2.74-2.27s-.09-.06-.14-.08c.06-.14.1-.29.11-.44l3.31-.31,2.48,2.05c.19.16.48.13.63-.06.16-.19.13-.47-.06-.63l-1.78-1.48,2.01-.19c.25-.02.43-.24.41-.49s-.24-.43-.49-.41Z"/>
    <text class="cls-6" transform="translate(3.46 116.29) rotate(-5.39)"><tspan x="0" y="0">1</tspan></text>
    <path class="cls-5" d="M49.08,117.59l-.07-.74,1.68-.16.61,6.48-.82.08-.54-5.73-.86.08Z"/>
    <path class="cls-5" d="M48.35,106.27l-.07-.74,1.68-.16.61,6.48-.82.08-.54-5.73-.86.08Z"/>
    <path class="cls-5" d="M4.35,121.83l-.07-.74,1.68-.16.61,6.48-.82.08-.54-5.73-.86.08Z"/>
  </g>
  <g>
    <rect class="cls-7" x="191.33" y="105.42" width="51.7" height="22" transform="translate(23.52 -35.94) rotate(10)"/>
    <path class="cls-8" d="M225.65,117.63l-2.09-.37,1.9-1.33c.2-.14.25-.42.11-.63-.14-.2-.42-.25-.63-.11l-2.63,1.84-3.22-.57c-.01-.1-.04-.2-.07-.3.04-.01.08-.03.11-.06l3-2.1,3.17.56c.24.04.48-.12.52-.36.04-.24-.12-.48-.36-.52l-2.28-.4,1.66-1.16c.2-.14.25-.42.11-.63-.14-.2-.42-.25-.63-.11l-1.74,1.22.4-2.28c.04-.24-.12-.48-.36-.52-.24-.04-.48.12-.52.36l-.56,3.17-2.91,2.04s-.05.04-.07.06c-.14-.13-.3-.23-.48-.31.04-.05.07-.12.09-.19l.64-3.6,2.63-1.84c.2-.14.25-.42.11-.63-.14-.2-.42-.25-.63-.11l-1.9,1.33.35-1.99c.04-.24-.12-.47-.37-.52s-.48.12-.52.36l-.37,2.09-1.33-1.9c-.14-.2-.42-.25-.63-.11-.2.14-.25.42-.11.63l1.84,2.63-.62,3.5c-.01.07,0,.14.01.21-.17,0-.33.04-.48.1l-2.09-2.99.56-3.17c.04-.24-.12-.48-.36-.52-.24-.04-.48.12-.52.36l-.4,2.28-1.16-1.66c-.14-.2-.42-.25-.63-.11-.2.14-.25.42-.11.63l1.22,1.74-2.28-.4c-.24-.04-.48.12-.52.36-.04.24.12.48.36.52l3.17.56,2.03,2.9c-.08.09-.15.19-.2.3l-3.54-.62-1.84-2.63c-.14-.2-.42-.25-.63-.11-.2.14-.25.42-.11.63l1.33,1.9-1.99-.35c-.08-.01-.27-.03-.47.05-.08.03-.29.12-.31.27-.04.18.21.43.62.57l2.09.37-1.9,1.33c-.2.14-.25.42-.11.63.14.2.42.25.63.11l2.63-1.84,3.4.6c0,.21.05.41.13.59l-2.99,2.09-3.17-.56c-.24-.04-.48.12-.52.36-.04.24.12.48.36.52l2.28.4-1.66,1.16c-.2.14-.25.42-.11.63s.42.25.63.11l1.74-1.22-.4,2.28c-.04.24.12.48.36.52.24.04.48-.12.52-.36l.56-3.17,2.91-2.04s.02-.01.02-.02c.1.07.2.14.32.19l-.58,3.31-2.63,1.84c-.2.14-.25.42-.11.63.14.2.42.25.63.11l1.9-1.33-.35,1.99c-.04.24.12.48.36.52s.48-.12.52-.36l.37-2.09,1.33,1.9c.14.2.42.25.63.11.2-.14.25-.42.11-.63l-1.84-2.63.57-3.21c.19-.02.37-.06.54-.14.01.03.03.06.05.09l2.1,3-.56,3.17c-.04.24.12.48.36.52.24.04.48-.12.52-.36l.4-2.28,1.16,1.66c.14.2.42.25.63.11s.25-.42.11-.63l-1.22-1.74,2.28.4c.24.04.48-.12.52-.36.04-.24-.12-.48-.36-.52l-3.17-.56-2.04-2.91s-.07-.08-.11-.11c.09-.12.17-.25.23-.4l3.27.58,1.84,2.63c.14.2.42.25.63.11.2-.14.25-.42.11-.63l-1.33-1.9,1.99.35c.24.04.48-.12.52-.36s-.12-.48-.36-.52Z"/>
    <text class="cls-6" transform="translate(194.58 109.53) rotate(10)"><tspan x="0" y="0">1</tspan></text>
    <path class="cls-5" d="M238.19,123.42l.13-.74,1.67.29-1.13,6.41-.82-.14,1-5.67-.85-.15Z"/>
    <path class="cls-5" d="M240.5,112.31l.13-.74,1.67.29-1.13,6.41-.82-.14,1-5.67-.85-.15Z"/>
    <path class="cls-5" d="M193.94,115.64l.13-.74,1.67.29-1.13,6.41-.82-.14,1-5.67-.85-.15Z"/>
  </g>
  <g>
    <rect class="cls-7" x="10.85" y="75.28" width="51.7" height="22" transform="translate(6.06 -2.33) rotate(3.97)"/>
    <path class="cls-8" d="M45.25,86.59l-2.12-.15,1.75-1.52c.19-.16.21-.45.04-.63-.16-.19-.45-.21-.63-.04l-2.43,2.11-3.26-.23c-.03-.1-.06-.2-.1-.29.04-.02.08-.04.11-.07l2.76-2.4,3.21.22c.25.02.46-.17.48-.42.02-.25-.17-.46-.42-.48l-2.31-.16,1.52-1.33c.19-.16.21-.45.04-.63-.16-.19-.45-.21-.63-.04l-1.6,1.39.16-2.31c.02-.25-.17-.46-.42-.48-.25-.02-.46.17-.48.42l-.22,3.21-2.68,2.33s-.05.05-.07.07c-.15-.11-.32-.2-.51-.26.04-.06.06-.13.06-.2l.25-3.65,2.43-2.11c.19-.16.21-.45.04-.63-.16-.19-.45-.21-.63-.04l-1.75,1.52.14-2.02c.02-.25-.17-.46-.42-.48s-.46.17-.48.41l-.15,2.12-1.52-1.75c-.16-.19-.45-.21-.63-.04-.19.16-.21.45-.04.63l2.11,2.43-.25,3.55c0,.07,0,.14.04.21-.16.03-.32.08-.47.15l-2.4-2.75.22-3.21c.02-.25-.17-.46-.42-.48-.25-.02-.46.17-.48.42l-.16,2.31-1.33-1.52c-.16-.19-.45-.21-.63-.04-.19.16-.21.45-.04.63l1.39,1.6-2.31-.16c-.25-.02-.46.17-.48.42-.02.25.17.46.42.48l3.21.22,2.33,2.67c-.07.1-.12.21-.17.32l-3.59-.25-2.11-2.43c-.16-.19-.45-.21-.63-.04-.19.16-.21.45-.04.63l1.52,1.75-2.02-.14c-.08,0-.27,0-.46.1-.07.04-.27.15-.28.3-.02.18.25.41.68.5l2.12.15-1.75,1.52c-.19.16-.21.45-.04.63.16.19.45.21.63.04l2.43-2.11,3.44.24c.03.2.1.4.19.57l-2.75,2.4-3.21-.22c-.25-.02-.46.17-.48.42-.02.25.17.46.42.48l2.31.16-1.52,1.33c-.19.16-.21.45-.04.63s.45.21.63.04l1.6-1.39-.16,2.31c-.02.25.17.46.42.48.25.02.46-.17.48-.42l.22-3.21,2.68-2.33s.01-.01.02-.02c.1.06.22.12.33.16l-.23,3.35-2.43,2.11c-.19.16-.21.45-.04.63.16.19.45.21.63.04l1.75-1.52-.14,2.02c-.02.25.17.46.42.48s.46-.17.48-.42l.15-2.12,1.52,1.75c.16.19.45.21.63.04.19-.16.21-.45.04-.63l-2.11-2.43.23-3.25c.19-.04.36-.1.52-.19.02.03.03.06.06.09l2.4,2.76-.22,3.21c-.02.25.17.46.42.48.25.02.46-.17.48-.42l.16-2.31,1.33,1.52c.16.19.45.21.63.04s.21-.45.04-.63l-1.39-1.6,2.31.16c.25.02.46-.17.48-.42.02-.25-.17-.46-.42-.48l-3.21-.22-2.33-2.68s-.08-.07-.12-.1c.08-.13.14-.27.18-.42l3.31.23,2.11,2.43c.16.19.45.21.63.04.19-.16.21-.45.04-.63l-1.52-1.75,2.02.14c.25.02.46-.17.48-.42s-.17-.46-.42-.48Z"/>
    <text class="cls-6" transform="translate(13.5 82.33) rotate(3.97)"><tspan x="0" y="0">1</tspan></text>
    <path class="cls-5" d="M58.33,91.03l.05-.75,1.69.12-.45,6.49-.83-.06.4-5.75-.86-.06Z"/>
    <path class="cls-5" d="M59.46,79.73l.05-.75,1.69.12-.45,6.49-.83-.06.4-5.75-.86-.06Z"/>
    <path class="cls-5" d="M13.51,87.94l.05-.75,1.69.12-.45,6.49-.83-.06.4-5.75-.86-.06Z"/>
  </g>
  <g>
    <rect class="cls-7" x="182.33" y="71.32" width="51.7" height="22" transform="translate(-4.96 13.87) rotate(-3.77)"/>
    <path class="cls-8" d="M216.69,81.48l-2.12.14,1.53-1.74c.16-.19.15-.47-.04-.63-.19-.16-.47-.15-.63.04l-2.12,2.42-3.26.21c-.04-.1-.08-.19-.14-.28.04-.02.07-.05.1-.08l2.41-2.75,3.21-.21c.25-.02.44-.23.42-.48-.02-.25-.23-.44-.48-.42l-2.31.15,1.33-1.52c.16-.19.15-.47-.04-.63-.19-.16-.47-.15-.63.04l-1.4,1.6-.15-2.31c-.02-.25-.23-.44-.48-.42-.25.02-.44.23-.42.48l.21,3.21-2.34,2.67s-.04.05-.05.08c-.17-.09-.35-.16-.54-.19.03-.06.04-.13.04-.21l-.24-3.65,2.12-2.42c.16-.19.15-.47-.04-.63-.19-.16-.47-.14-.63.04l-1.53,1.74-.13-2.02c-.02-.25-.23-.43-.48-.42s-.44.23-.42.47l.14,2.12-1.74-1.53c-.19-.16-.47-.15-.63.04-.16.19-.15.47.04.63l2.42,2.12.23,3.55c0,.07.03.14.06.2-.16.05-.31.12-.44.21l-2.75-2.41-.21-3.21c-.02-.25-.23-.44-.48-.42-.25.02-.44.23-.42.48l.15,2.31-1.52-1.33c-.19-.16-.47-.15-.63.04-.16.19-.15.47.04.63l1.6,1.4-2.31.15c-.25.02-.44.23-.42.48.02.25.23.44.48.42l3.21-.21,2.67,2.34c-.05.11-.1.22-.13.34l-3.59.24-2.42-2.12c-.19-.16-.47-.15-.63.04-.16.19-.14.47.04.63l1.74,1.53-2.02.13c-.08,0-.27.03-.44.16-.07.05-.25.19-.24.33,0,.18.3.37.74.4l2.12-.14-1.53,1.74c-.16.19-.15.47.04.63.19.16.47.15.63-.04l2.12-2.42,3.44-.23c.06.2.15.38.27.54l-2.41,2.75-3.21.21c-.25.02-.44.23-.42.48.02.25.23.44.48.42l2.31-.15-1.33,1.52c-.16.19-.15.47.04.63s.47.15.63-.04l1.4-1.6.15,2.31c.02.25.23.44.48.42.25-.02.44-.23.42-.48l-.21-3.21,2.34-2.67s.01-.02.02-.02c.11.05.23.09.35.11l.22,3.35-2.12,2.42c-.16.19-.15.47.04.63.19.16.47.14.63-.04l1.53-1.74.13,2.02c.02.25.23.44.48.42s.44-.23.42-.48l-.14-2.12,1.74,1.53c.19.16.47.15.63-.04.16-.19.15-.47-.04-.63l-2.42-2.12-.21-3.25c.18-.06.35-.15.49-.26.02.03.04.06.07.08l2.75,2.41.21,3.21c.02.25.23.44.48.42.25-.02.44-.23.42-.48l-.15-2.31,1.52,1.33c.19.16.47.15.63-.04s.15-.47-.04-.63l-1.6-1.4,2.31-.15c.25-.02.44-.23.42-.48-.02-.25-.23-.44-.48-.42l-3.21.21-2.67-2.34s-.09-.06-.13-.08c.06-.14.1-.28.13-.44l3.32-.22,2.42,2.12c.19.16.47.15.63-.04.16-.19.14-.47-.04-.63l-1.74-1.53,2.02-.13c.25-.02.44-.23.42-.48s-.23-.44-.48-.42Z"/>
    <text class="cls-6" transform="translate(184.71 81.46) rotate(-3.77)"><tspan x="0" y="0">1</tspan></text>
    <path class="cls-5" d="M230.25,84.12l-.05-.75,1.69-.11.43,6.49-.83.05-.38-5.75-.86.06Z"/>
    <path class="cls-5" d="M229.85,72.78l-.05-.75,1.69-.11.43,6.49-.83.05-.38-5.75-.86.06Z"/>
    <path class="cls-5" d="M185.42,87.1l-.05-.75,1.69-.11.43,6.49-.83.05-.38-5.75-.86.06Z"/>
  </g>
  <g>
    <rect class="cls-7" x="5.04" y="44.75" width="51.7" height="22" transform="translate(-4.9 3.01) rotate(-5.17)"/>
    <path class="cls-8" d="M39.38,54.7l-2.12.19,1.48-1.78c.16-.19.13-.47-.06-.63-.19-.16-.47-.13-.63.06l-2.06,2.47-3.25.29c-.04-.1-.09-.19-.15-.27.03-.02.07-.05.1-.08l2.34-2.81,3.2-.29c.25-.02.43-.24.41-.49-.02-.25-.24-.43-.49-.41l-2.31.21,1.29-1.55c.16-.19.13-.47-.06-.63-.19-.16-.47-.13-.63.06l-1.36,1.63-.21-2.31c-.02-.25-.24-.43-.49-.41-.25.02-.43.24-.41.49l.29,3.2-2.28,2.73s-.04.05-.05.08c-.17-.09-.35-.15-.55-.17.03-.06.04-.13.03-.21l-.33-3.64,2.06-2.47c.16-.19.13-.47-.06-.63-.19-.16-.47-.13-.63.06l-1.48,1.78-.18-2.01c-.02-.25-.24-.43-.49-.4s-.43.24-.41.48l.19,2.12-1.78-1.48c-.19-.16-.47-.13-.63.06-.16.19-.13.47.06.63l2.47,2.06.32,3.54c0,.07.03.14.07.2-.16.05-.3.13-.44.22l-2.8-2.34-.29-3.2c-.02-.25-.24-.43-.49-.41-.25.02-.43.24-.41.49l.21,2.31-1.55-1.29c-.19-.16-.47-.13-.63.06-.16.19-.13.47.06.63l1.63,1.36-2.31.21c-.25.02-.43.24-.41.49.02.25.24.43.49.41l3.2-.29,2.72,2.27c-.05.11-.09.22-.12.34l-3.58.32-2.47-2.06c-.19-.16-.47-.13-.63.06-.16.19-.13.47.06.63l1.78,1.48-2.01.18c-.08,0-.27.04-.44.17-.06.05-.24.19-.23.34.01.18.31.36.75.38l2.12-.19-1.48,1.78c-.16.19-.13.47.06.63.19.16.47.13.63-.06l2.06-2.47,3.43-.31c.06.2.16.38.28.54l-2.34,2.8-3.2.29c-.25.02-.43.24-.41.49.02.25.24.43.49.41l2.31-.21-1.29,1.55c-.16.19-.13.47.06.63s.47.13.63-.06l1.36-1.63.21,2.31c.02.25.24.43.49.41.25-.02.43-.24.41-.49l-.29-3.2,2.28-2.73s.01-.02.02-.03c.11.05.23.08.35.1l.3,3.35-2.06,2.47c-.16.19-.13.47.06.63.19.16.47.13.63-.06l1.48-1.78.18,2.01c.02.25.24.43.49.41s.43-.24.41-.49l-.19-2.12,1.78,1.48c.19.16.47.13.63-.06.16-.19.13-.47-.06-.63l-2.47-2.06-.29-3.24c.18-.07.34-.16.49-.27.02.03.04.05.07.08l2.81,2.34.29,3.2c.02.25.24.43.49.41.25-.02.43-.24.41-.49l-.21-2.31,1.55,1.29c.19.16.47.13.63-.06s.13-.47-.06-.63l-1.63-1.36,2.31-.21c.25-.02.43-.24.41-.49-.02-.25-.24-.43-.49-.41l-3.2.29-2.73-2.28s-.09-.06-.14-.08c.06-.14.1-.29.12-.44l3.31-.3,2.47,2.06c.19.16.47.13.63-.06.16-.19.13-.47-.06-.63l-1.78-1.48,2.01-.18c.25-.02.43-.24.41-.49s-.24-.43-.49-.41Z"/>
    <text class="cls-6" transform="translate(7.43 55.57) rotate(-5.17)"><tspan x="0" y="0">1</tspan></text>
    <path class="cls-5" d="M53,57l-.07-.74,1.69-.15.59,6.48-.82.07-.52-5.74-.86.08Z"/>
    <path class="cls-5" d="M52.32,45.67l-.07-.74,1.69-.15.59,6.48-.82.07-.52-5.74-.86.08Z"/>
    <path class="cls-5" d="M8.26,61.08l-.07-.74,1.69-.15.59,6.48-.82.07-.52-5.74-.86.08Z"/>
  </g>
  <g>
    <rect class="cls-7" x="187.14" y="41.33" width="51.7" height="22" transform="translate(9.56 -29.65) rotate(8.14)"/>
    <path class="cls-8" d="M221.49,53.27l-2.1-.3,1.85-1.39c.2-.15.24-.43.09-.63-.15-.2-.43-.24-.63-.09l-2.57,1.93-3.23-.46c-.02-.1-.04-.2-.08-.3.04-.01.08-.03.11-.06l2.93-2.19,3.18.46c.25.04.47-.14.51-.38.04-.25-.14-.47-.38-.51l-2.29-.33,1.62-1.21c.2-.15.24-.43.09-.63-.15-.2-.43-.24-.63-.09l-1.7,1.27.33-2.29c.04-.25-.14-.47-.38-.51-.25-.04-.47.14-.51.38l-.46,3.18-2.85,2.13s-.05.04-.07.07c-.14-.12-.31-.22-.49-.3.04-.06.07-.12.08-.19l.52-3.62,2.57-1.93c.2-.15.24-.43.09-.63-.15-.2-.43-.24-.63-.09l-1.85,1.39.29-2c.04-.25-.14-.47-.38-.51s-.47.13-.51.38l-.3,2.1-1.39-1.85c-.15-.2-.43-.24-.63-.09-.2.15-.24.43-.09.63l1.93,2.57-.5,3.52c-.01.07,0,.14.02.21-.17.02-.33.05-.48.11l-2.19-2.92.46-3.18c.04-.25-.14-.47-.38-.51-.25-.04-.47.14-.51.38l-.33,2.29-1.21-1.62c-.15-.2-.43-.24-.63-.09-.2.15-.24.43-.09.63l1.27,1.7-2.29-.33c-.25-.04-.47.14-.51.38-.04.25.14.47.38.51l3.18.46,2.13,2.84c-.07.09-.14.2-.19.31l-3.56-.51-1.93-2.57c-.15-.2-.43-.24-.63-.09-.2.15-.24.43-.09.63l1.39,1.85-2-.29c-.08-.01-.27-.03-.46.07-.07.03-.28.13-.31.28-.03.18.22.42.64.55l2.1.3-1.85,1.39c-.2.15-.24.43-.09.63.15.2.43.24.63.09l2.57-1.93,3.41.49c.01.21.07.4.15.59l-2.92,2.19-3.18-.46c-.25-.04-.47.14-.51.38-.04.25.14.47.38.51l2.29.33-1.62,1.21c-.2.15-.24.43-.09.63s.43.24.63.09l1.7-1.27-.33,2.29c-.04.25.14.47.38.51.25.04.47-.14.51-.38l.46-3.18,2.85-2.13s.01-.01.02-.02c.1.07.21.13.32.18l-.48,3.33-2.57,1.93c-.2.15-.24.43-.09.63.15.2.43.24.63.09l1.85-1.39-.29,2c-.04.25.14.47.38.51s.47-.14.51-.38l.3-2.1,1.39,1.85c.15.2.43.24.63.09.2-.15.24-.43.09-.63l-1.93-2.57.46-3.22c.19-.02.37-.08.54-.16.01.03.03.06.05.09l2.19,2.93-.46,3.18c-.04.25.14.47.38.51.25.04.47-.14.51-.38l.33-2.29,1.21,1.62c.15.2.43.24.63.09s.24-.43.09-.63l-1.27-1.7,2.29.33c.25.04.47-.14.51-.38.04-.25-.14-.47-.38-.51l-3.18-.46-2.13-2.85s-.07-.08-.11-.11c.09-.12.16-.26.21-.4l3.29.47,1.93,2.57c.15.2.43.24.63.09.2-.15.24-.43.09-.63l-1.39-1.85,2,.29c.25.04.47-.14.51-.38s-.14-.47-.38-.51Z"/>
    <text class="cls-6" transform="translate(190.15 46.68) rotate(8.14)"><tspan x="0" y="0">1</tspan></text>
    <path class="cls-5" d="M234.21,58.64l.11-.74,1.68.24-.92,6.44-.82-.12.82-5.7-.86-.12Z"/>
    <path class="cls-5" d="M236.16,47.46l.11-.74,1.68.24-.92,6.44-.82-.12.82-5.7-.86-.12Z"/>
    <path class="cls-5" d="M189.74,52.3l.11-.74,1.68.24-.92,6.44-.82-.12.82-5.7-.86-.12Z"/>
  </g>
</svg>