<?xml version="1.0" encoding="UTF-8"?>
<svg id="Layer_1" xmlns="http://www.w3.org/2000/svg" width="150" height="143.38" viewBox="0 0 150 143.38">
  <defs>
    <style>
      .cls-1 {
        fill: #fff;
      }

      .cls-2 {
        stroke-linejoin: round;
      }

      .cls-2, .cls-3, .cls-4 {
        fill: none;
        stroke: #fff;
      }

      .cls-2, .cls-4 {
        stroke-linecap: round;
        stroke-width: 3px;
      }

      .cls-3 {
        stroke-width: 4px;
      }

      .cls-3, .cls-4 {
        stroke-miterlimit: 10;
      }
    </style>
  </defs>
  <g>
    <g>
      <path class="cls-2" d="M10.05,92.28c0,.85,19.89-.75,19.89,0,0,1-19.91,7.34-19.91,7.95,0,1.04,19.94-.54,19.94,0,0,1.31-19.94,7.28-19.94,8,0,1.01,19.94-1.46,19.94,0,0,.93-19.94,7.08-19.94,8.13,0,.6,19.94-.63,19.94,0,0,.76-19.94,7-19.94,7.88,0,.72,19.94-1.21,19.94,0,0,1.44-19.94,7.35-19.94,8.21,0,1.04,19.94-1.3,19.94,0,0,1.18-19.94,7.05-19.94,7.98,0,1.03,19.94-1.24,19.94,0"/>
      <rect class="cls-4" x="10" y="91.5" width="20" height="50" rx="1" ry="1"/>
    </g>
    <g>
      <path class="cls-2" d="M46.05,67.28c0,1.23,19.89-1.35,19.89,0,0,.72-19.91,6.96-19.91,7.82,0,.68,19.94-.74,19.94,0,0,.91-19.94,7.14-19.94,8.16,0,.62,19.94-.66,19.94,0,0,1.48-19.94,6.53-19.94,7.96,0,1.35,19.94-.76,19.94,0,0,.61-19.94,7.24-19.94,8.21,0,1.17,19.94-1.4,19.94,0,0,1.02-19.94,6.96-19.94,7.88,0,.83,19.94-.53,19.94,0,0,.6-19.94,6.94-19.94,8.13,0,1.39,19.94-.84,19.94,0,0,.9-19.94,6.52-19.94,8.05,0,.72,19.94-.92,19.94,0,0,.54-19.94,6.7-19.94,7.86,0,.97,19.94-1.29,19.94,0s-19.94,6.86-19.94,7.76,19.94-.85,19.94,0"/>
      <rect class="cls-4" x="46" y="66.5" width="20" height="75" rx="1" ry="1"/>
    </g>
    <g>
      <path class="cls-2" d="M82.05,37.28c0,1.25,19.89-1.22,19.89,0s-19.91,6.81-19.91,7.83,19.94-.57,19.94,0c0,1.52-19.94,7.23-19.94,8.21,0,.66,19.94-1.28,19.94,0s-19.94,6.47-19.94,7.82c0,.62,19.94-1.42,19.94,0,0,.88-19.94,6.48-19.94,7.81,0,.69,19.94-.66,19.94,0,0,1.51-19.94,6.87-19.94,8.11,0,1.02,19.94-1.35,19.94,0,0,.77-19.94,7.18-19.94,7.75,0,1.42,19.94-.82,19.94,0,0,1.44-19.94,7.15-19.94,7.95,0,.57,19.94-.53,19.94,0,0,1.58-19.94,7.07-19.94,7.77,0,1.39,19.94-1.4,19.94,0,0,1.1-19.94,6.84-19.94,8,0,.7,19.94-1.2,19.94,0,0,1.54-19.94,6.87-19.94,7.87,0,1.37,19.94-1.03,19.94,0,0,.7-19.94,6.84-19.94,7.82s19.94-1.28,19.94,0c0,.83-19.94,7.05-19.94,8.08,0,.63,19.94-1.06,19.94,0,0,.61-19.94,6.65-19.94,8.19,0,1.18,19.94-1.21,19.94,0"/>
      <rect class="cls-4" x="82" y="36.5" width="20" height="105" rx="1" ry="1"/>
    </g>
    <g>
      <path class="cls-2" d="M120.05,2.28c0,.75,19.89-1.33,19.89,0,0,1.05-19.91,6.87-19.91,8.09,0,.58,19.94-.66,19.94,0,0,1.27-19.94,7.2-19.94,7.86,0,1.06,19.94-.7,19.94,0s-19.94,7.23-19.94,8.2c0,.7,19.94-1.03,19.94,0,0,1.49-19.94,6.37-19.94,7.92,0,1.13,19.94-1.42,19.94,0,0,.91-19.94,6.51-19.94,8.11,0,1.33,19.94-1.29,19.94,0,0,1.57-19.94,6.69-19.94,8.05,0,.66,19.94-1.19,19.94,0,0,1.58-19.94,7.1-19.94,8.2s19.94-1.46,19.94,0c0,1.6-19.94,7.36-19.94,8.08,0,.81,19.94-1.04,19.94,0,0,1.45-19.94,7.39-19.94,8.19,0,.86,19.94-.66,19.94,0,0,1.24-19.94,6.83-19.94,7.85,0,1.44,19.94-.74,19.94,0,0,.91-19.94,6.43-19.94,7.83,0,1.12,19.94-1.36,19.94,0,0,.55-19.94,6.87-19.94,8.12,0,.96,19.94-.58,19.94,0,0,1.43-19.94,7.61-19.94,8.16,0,1.3,19.94-.58,19.94,0,0,.81-19.94,7.08-19.94,7.96,0,1.32,19.94-1.12,19.94,0,0,1.25-19.94,6.79-19.94,7.78s19.94-1.37,19.94,0c0,1.56-19.94,6.86-19.94,8.15,0,1.47,19.94-1.33,19.94,0,0,1.46-19.94,6.7-19.94,8.23,0,.79,19.94-.63,19.94,0"/>
      <rect class="cls-4" x="120" y="1.5" width="20" height="140" rx="1" ry="1"/>
    </g>
  </g>
  <path class="cls-3" d="M0,141.38h150"/>
  <g>
    <path class="cls-4" d="M7.2,76.7S73.48,37.7,97,3.79"/>
    <polygon class="cls-1" points="100.81 18.98 97.83 19.32 96.18 4.62 81.64 7.34 81.09 4.39 98.8 1.08 100.81 18.98"/>
  </g>
</svg>