<?xml version="1.0" encoding="UTF-8"?>
<svg id="Layer_1" xmlns="http://www.w3.org/2000/svg" width="150" height="143.88" viewBox="0 0 150 143.88">
  <defs>
    <style>
      .cls-1, .cls-2 {
        stroke-linecap: round;
      }

      .cls-1, .cls-2, .cls-3 {
        stroke: #43994a;
        stroke-miterlimit: 10;
        stroke-width: 3px;
      }

      .cls-1, .cls-3 {
        fill: none;
      }

      .cls-4 {
        fill: #fff;
      }

      .cls-5 {
        fill: #43994a;
      }

      .cls-2 {
        fill: #4caf50;
      }
    </style>
  </defs>
  <g>
    <rect class="cls-2" x="10" y="91.5" width="20" height="50" rx="1" ry="1"/>
    <rect class="cls-2" x="46" y="66.5" width="20" height="75" rx="1" ry="1"/>
    <rect class="cls-2" x="82" y="36.5" width="20" height="105" rx="1" ry="1"/>
    <rect class="cls-2" x="120" y="1.5" width="20" height="140" rx="1" ry="1"/>
  </g>
  <path class="cls-3" d="M0,142.38h150"/>
  <g>
    <path class="cls-1" d="M7.2,76.7S73.48,37.7,97,3.79"/>
    <polygon class="cls-5" points="100.81 18.98 97.83 19.32 96.18 4.62 81.64 7.34 81.09 4.39 98.8 1.08 100.81 18.98"/>
  </g>
  <path class="cls-4" d="M18.87,129.72v-2.95c-1.7-.03-3.45-.56-4.48-1.29l.7-1.96c1.05.7,2.57,1.26,4.21,1.26,2.08,0,3.48-1.2,3.48-2.87s-1.14-2.6-3.31-3.48c-2.98-1.17-4.83-2.52-4.83-5.06s1.73-4.27,4.42-4.71v-2.96h1.81v2.84c1.75.06,2.95.53,3.8,1.02l-.73,1.93c-.61-.35-1.81-.99-3.69-.99-2.25,0-3.1,1.35-3.1,2.52,0,1.52,1.08,2.28,3.63,3.33,3.01,1.23,4.53,2.75,4.53,5.35,0,2.31-1.61,4.47-4.62,4.97v3.04h-1.84Z"/>
  <path class="cls-4" d="M54.87,114.72v-2.95c-1.7-.03-3.45-.56-4.48-1.29l.7-1.96c1.05.7,2.57,1.26,4.21,1.26,2.08,0,3.48-1.2,3.48-2.87s-1.14-2.6-3.31-3.48c-2.98-1.17-4.83-2.52-4.83-5.06s1.73-4.27,4.42-4.71v-2.96h1.81v2.84c1.75.06,2.95.53,3.8,1.02l-.73,1.93c-.61-.35-1.81-.99-3.69-.99-2.25,0-3.1,1.35-3.1,2.52,0,1.52,1.08,2.28,3.63,3.33,3.01,1.23,4.53,2.75,4.53,5.35,0,2.31-1.61,4.48-4.62,4.97v3.04h-1.84Z"/>
  <path class="cls-4" d="M90.87,94.72v-2.95c-1.7-.03-3.45-.56-4.48-1.29l.7-1.96c1.05.7,2.57,1.26,4.21,1.26,2.08,0,3.48-1.2,3.48-2.87s-1.14-2.6-3.3-3.48c-2.98-1.17-4.83-2.52-4.83-5.06s1.73-4.27,4.42-4.71v-2.96h1.81v2.84c1.75.06,2.96.53,3.8,1.02l-.73,1.93c-.61-.35-1.81-.99-3.69-.99-2.25,0-3.1,1.35-3.1,2.52,0,1.52,1.08,2.28,3.63,3.33,3.01,1.23,4.53,2.75,4.53,5.35,0,2.31-1.61,4.48-4.62,4.97v3.04h-1.84Z"/>
  <path class="cls-4" d="M128.87,74.72v-2.95c-1.7-.03-3.45-.56-4.48-1.29l.7-1.96c1.05.7,2.57,1.26,4.21,1.26,2.08,0,3.48-1.2,3.48-2.87s-1.14-2.6-3.31-3.48c-2.98-1.17-4.83-2.52-4.83-5.06s1.73-4.27,4.42-4.71v-2.96h1.81v2.84c1.75.06,2.95.53,3.8,1.02l-.73,1.93c-.61-.35-1.81-.99-3.69-.99-2.25,0-3.1,1.35-3.1,2.52,0,1.52,1.08,2.28,3.63,3.33,3.01,1.23,4.53,2.75,4.53,5.35,0,2.31-1.61,4.48-4.62,4.97v3.04h-1.84Z"/>
</svg>