<?xml version="1.0" encoding="UTF-8"?>
<svg id="Layer_1" xmlns="http://www.w3.org/2000/svg" width="135.6" height="135.99" viewBox="0 0 135.6 135.99">
  <defs>
    <style>
      .cls-1 {
        fill: #f1f2f2;
      }
    </style>
  </defs>
  <path class="cls-1" d="M90.18,6.25c-1.32-1.32-3.47-1.32-4.79,0l-12.34,12.34V3.36c0-1.87-1.52-3.36-3.39-3.36s-3.39,1.49-3.39,3.36v16l-12.34-12.34c-1.32-1.32-3.47-1.32-4.79,0-1.32,1.32-1.32,3.47,0,4.79l17.13,17.13v26.8c0,1.87,1.52,3.39,3.39,3.39s3.39-1.52,3.39-3.39v-27.57l17.13-17.13c1.32-1.32,1.32-3.47,0-4.79Z"/>
  <path class="cls-1" d="M40.38,11.56c-1.87,0-3.39,1.52-3.39,3.39v17.45s-10.77-10.77-10.77-10.77c-1.32-1.32-3.47-1.32-4.79,0s-1.32,3.47,0,4.79l11.32,11.32H15.29c-1.87,0-3.39,1.52-3.39,3.39,0,1.87,1.52,3.39,3.39,3.39h24.23s18.95,18.95,18.95,18.95c1.32,1.32,3.47,1.32,4.79,0s1.32-3.47,0-4.79l-19.5-19.5V14.95c0-1.87-1.52-3.39-3.39-3.39Z"/>
  <path class="cls-1" d="M8.27,48.77c-1.32,1.32-1.32,3.47,0,4.79l12.34,12.34H5.38c-.64,0-2.02.1-3.39.99-.52.34-1.96,1.29-1.99,2.4-.03,1.36,2.1,2.92,5.38,3.39h16l-12.34,12.34c-1.32,1.32-1.32,3.47,0,4.79,1.32,1.32,3.47,1.32,4.79,0l17.13-17.13h26.8c1.87,0,3.39-1.52,3.39-3.39s-1.52-3.39-3.39-3.39h-27.57s-17.13-17.13-17.13-17.13c-1.32-1.32-3.47-1.32-4.79,0Z"/>
  <path class="cls-1" d="M11.63,99.73c0,1.87,1.52,3.39,3.39,3.39h17.45s-10.77,10.77-10.77,10.77c-1.32,1.32-1.32,3.47,0,4.79s3.47,1.32,4.79,0l11.32-11.32v17.45c0,1.87,1.52,3.39,3.39,3.39,1.87,0,3.39-1.52,3.39-3.39v-24.23s18.95-18.95,18.95-18.95c1.32-1.32,1.32-3.47,0-4.79-1.32-1.32-3.47-1.32-4.79,0l-19.5,19.5H15.02c-1.87,0-3.39,1.52-3.39,3.39Z"/>
  <path class="cls-1" d="M49.13,129.71c1.32,1.32,3.47,1.32,4.79,0l12.34-12.34v15.23c0,1.87,1.52,3.39,3.39,3.39,1.87,0,3.39-1.52,3.39-3.39v-16s12.34,12.34,12.34,12.34c1.32,1.32,3.47,1.32,4.79,0,1.32-1.32,1.32-3.47,0-4.79l-17.13-17.13v-26.8c0-1.87-1.52-3.39-3.39-3.39s-3.39,1.52-3.39,3.39v27.57s-17.13,17.13-17.13,17.13c-1.32,1.32-1.32,3.47,0,4.79Z"/>
  <path class="cls-1" d="M100.25,128.48c1.87,0,3.39-1.52,3.39-3.39v-17.45s10.77,10.77,10.77,10.77c1.32,1.32,3.47,1.32,4.79,0,1.32-1.32,1.32-3.47,0-4.79l-11.32-11.32h17.45c1.87,0,3.39-1.52,3.39-3.39,0-1.87-1.52-3.39-3.39-3.39h-24.23s-18.95-18.95-18.95-18.95c-1.32-1.32-3.47-1.32-4.79,0s-1.32,3.47,0,4.79l19.5,19.5v24.23c0,1.87,1.52,3.39,3.39,3.39Z"/>
  <path class="cls-1" d="M129.32,89.81c1.32-1.32,1.32-3.47,0-4.79l-12.34-12.34h15.23c1.87,0,3.39-1.52,3.39-3.39,0-1.87-1.52-3.39-3.39-3.39h-16s12.34-12.34,12.34-12.34c1.32-1.32,1.32-3.47,0-4.79-1.32-1.32-3.47-1.32-4.79,0l-17.13,17.13h-26.8c-1.87,0-3.39,1.52-3.39,3.39,0,1.87,1.52,3.39,3.39,3.39h27.57s17.13,17.13,17.13,17.13c1.32,1.32,3.47,1.32,4.79,0Z"/>
  <path class="cls-1" d="M129,40.31c0-1.87-1.52-3.39-3.39-3.39h-17.45s10.77-10.77,10.77-10.77c1.32-1.32,1.32-3.47,0-4.79s-3.47-1.32-4.79,0l-11.32,11.32V15.22c0-1.87-1.52-3.39-3.39-3.39-1.87,0-3.39,1.52-3.39,3.39v24.23s-18.95,18.95-18.95,18.95c-1.32,1.32-1.32,3.47,0,4.79,1.32,1.32,3.47,1.32,4.79,0l19.5-19.5h24.23c1.87,0,3.39-1.52,3.39-3.39Z"/>
  <circle class="cls-1" cx="69.66" cy="69.92" r="13"/>
</svg>