<?xml version="1.0" encoding="UTF-8"?>
<svg id="Layer_1" xmlns="http://www.w3.org/2000/svg" width="146.03" height="146.03" viewBox="0 0 146.03 146.03">
  <defs>
    <style>
      .cls-1, .cls-2 {
        fill: #f44335;
      }

      .cls-2 {
        stroke: #fff;
        stroke-linecap: round;
        stroke-miterlimit: 10;
        stroke-width: 15px;
      }
    </style>
  </defs>
  <rect class="cls-1" width="146.03" height="146.03" rx="10" ry="10"/>
  <g>
    <path class="cls-2" d="M39.62,39.62l.62.62-.62-.62Z"/>
    <path class="cls-2" d="M35.77,35.77c-2.99-2.99-6.01-6.01-9.03-9.03l9.03,9.03Z"/>
    <path class="cls-2" d="M39.62,39.62l-3.85-3.85c1.29,1.29,2.57,2.57,3.85,3.85Z"/>
    <path class="cls-2" d="M54.28,54.28l3.4,3.4c-1.13-1.13-2.26-2.26-3.4-3.4Z"/>
    <path class="cls-2" d="M45.97,45.97l5.28,5.28c-1.75-1.75-3.51-3.51-5.28-5.28Z"/>
    <path class="cls-2" d="M54.28,54.28l-3.03-3.03c1.02,1.02,2.03,2.03,3.03,3.03Z"/>
    <path class="cls-2" d="M66.29,66.29l-4.41-4.41c1.49,1.49,2.96,2.96,4.41,4.41Z"/>
    <path class="cls-2" d="M77.59,77.59l-1.71-1.71c.57.57,1.14,1.14,1.71,1.71Z"/>
    <path class="cls-2" d="M45.97,45.97l-5.73-5.73,5.73,5.73Z"/>
    <path class="cls-2" d="M60.36,60.36l-2.68-2.68c.9.9,1.79,1.79,2.68,2.68Z"/>
    <path class="cls-2" d="M60.36,60.36l1.52,1.52c-.5-.5-1.01-1.01-1.52-1.52Z"/>
    <path class="cls-2" d="M66.29,66.29l3.73,3.73c-1.23-1.23-2.48-2.48-3.73-3.73Z"/>
    <path class="cls-2" d="M77.59,77.59l5.7,5.7c-1.85-1.85-3.75-3.75-5.7-5.7Z"/>
    <path class="cls-2" d="M73.92,73.92l1.96,1.96-1.96-1.96Z"/>
    <path class="cls-2" d="M83.29,83.29l36,36-36-36Z"/>
    <path class="cls-2" d="M70.02,76l-3.73,3.73c1.26-1.26,2.5-2.5,3.73-3.73Z"/>
    <path class="cls-2" d="M35.77,110.26l-9.03,9.03c3.02-3.02,6.03-6.03,9.03-9.03Z"/>
    <path class="cls-2" d="M40.24,105.79l-.62.62.62-.62Z"/>
    <path class="cls-2" d="M51.25,94.78l-5.28,5.28c1.77-1.77,3.53-3.53,5.28-5.28Z"/>
    <path class="cls-2" d="M35.77,110.26l3.85-3.85c-1.28,1.28-2.57,2.57-3.85,3.85Z"/>
    <path class="cls-2" d="M61.88,84.15l-1.52,1.52c.51-.51,1.01-1.01,1.52-1.52Z"/>
    <path class="cls-2" d="M57.68,88.35l-3.4,3.4c1.14-1.14,2.27-2.27,3.4-3.4Z"/>
    <path class="cls-2" d="M83.29,62.73l-5.7,5.7c1.95-1.95,3.85-3.85,5.7-5.7Z"/>
    <path class="cls-2" d="M75.88,70.15l-1.96,1.96,1.96-1.96Z"/>
    <path class="cls-2" d="M83.29,62.73l36-36s-14.67,14.67-36,36Z"/>
    <path class="cls-2" d="M73.92,72.11l-.9.9-2.99-2.99c1.01,1.01,2,2,2.99,2.99-.99.99-1.98,1.98-2.99,2.99l2.99-2.99.9.9-.9-.9.9-.9Z"/>
    <path class="cls-2" d="M40.24,105.79l5.73-5.73c-1.9,1.9-3.81,3.81-5.73,5.73Z"/>
    <path class="cls-2" d="M75.88,70.15l1.71-1.71c-.57.57-1.14,1.14-1.71,1.71Z"/>
    <path class="cls-2" d="M51.25,94.78l3.03-3.03c-1.01,1.01-2.02,2.02-3.03,3.03Z"/>
    <path class="cls-2" d="M57.68,88.35l2.68-2.68c-.89.89-1.78,1.78-2.68,2.68Z"/>
    <path class="cls-2" d="M61.88,84.15l4.41-4.41c-1.45,1.46-2.93,2.93-4.41,4.41Z"/>
  </g>
</svg>