<?xml version="1.0" encoding="UTF-8"?>
<svg id="Outline" xmlns="http://www.w3.org/2000/svg" width="244.38" height="338.83" viewBox="0 0 244.38 338.83">
  <defs>
    <style>
      .cls-1 {
        fill: #fff;
      }

      .cls-2 {
        fill: none;
        stroke: #939598;
        stroke-miterlimit: 10;
        stroke-width: 5px;
      }

      .cls-3 {
        fill: #939598;
      }
    </style>
  </defs>
  <rect class="cls-3" x="3.37" width="240.21" height="338.83" rx="5" ry="5"/>
  <rect class="cls-1" x="8.18" y="5.78" width="230.6" height="49.18"/>
  <path class="cls-3" d="M175.18,5.17h64.83v15.76h-61.83c-1.66,0-3-1.34-3-3V5.17h0Z"/>
  <g>
    <path d="M38.07,26.7v21.83h-4.94l-12.95-13.98v13.98h-5.84v-21.83h5.36l12.53,13.34v-13.34h5.84Z"/>
    <path d="M50.97,33.46c2.49,0,4.59.68,6.32,2.03s2.59,3.24,2.59,5.66-.88,4.31-2.64,5.65-3.85,2-6.28,2c-2.63,0-4.78-.71-6.46-2.13-1.67-1.42-2.51-3.27-2.51-5.54s.85-4.17,2.56-5.57c1.71-1.4,3.84-2.1,6.41-2.1ZM50.97,46.06c2.38,0,3.58-1.67,3.58-5.02s-1.19-4.8-3.58-4.8c-1.14,0-2.04.42-2.68,1.27-.64.85-.97,2.06-.97,3.63,0,3.29,1.21,4.93,3.64,4.93Z"/>
    <path d="M74.62,33.77v3.17h-5.78v6.08c0,.73.22,1.3.65,1.73s1.03.63,1.79.63c1.03,0,2.14-.29,3.34-.86v3.36c-1.59.61-3.13.92-4.62.92-1.95,0-3.46-.47-4.53-1.41-1.07-.94-1.61-2.31-1.61-4.12v-6.33h-2.27v-.91l6.63-6.91h.62v4.64h5.78Z"/>
    <path d="M103.45,26.7v4h-10.31v4.88h10.31v4h-10.31v8.95h-5.84v-21.83h16.16Z"/>
    <path d="M114.67,33.46c2.49,0,4.59.68,6.32,2.03s2.6,3.24,2.6,5.66-.88,4.31-2.64,5.65-3.85,2-6.28,2c-2.63,0-4.78-.71-6.46-2.13-1.67-1.42-2.51-3.27-2.51-5.54s.85-4.17,2.56-5.57c1.71-1.4,3.84-2.1,6.41-2.1ZM114.67,46.06c2.38,0,3.58-1.67,3.58-5.02s-1.19-4.8-3.58-4.8c-1.14,0-2.04.42-2.68,1.27-.64.85-.97,2.06-.97,3.63,0,3.29,1.21,4.93,3.64,4.93Z"/>
    <path d="M137.87,48.52v-2.11c-1.47,1.59-3.17,2.39-5.12,2.39-1.72,0-3.12-.49-4.2-1.48-1.07-.99-1.61-2.36-1.61-4.11v-9.44h4.99v9.11c0,1.87.83,2.81,2.5,2.81.94,0,1.74-.34,2.41-1.02s1-1.18,1-1.51v-9.39h5.02v14.75h-4.99Z"/>
    <path d="M151.97,33.77v2.09c1.47-1.6,3.19-2.41,5.16-2.41,1.65,0,3.02.49,4.12,1.47s1.65,2.38,1.65,4.21v9.38h-4.99v-9c0-1.97-.82-2.96-2.47-2.96-1.18,0-2.33.81-3.48,2.44v9.52h-4.99v-14.75h4.99Z"/>
    <path d="M182.99,26.7v21.83h-4.99v-1.19c-1.28.98-2.74,1.47-4.4,1.47-2.12,0-3.88-.73-5.3-2.19-1.42-1.46-2.12-3.29-2.12-5.49s.72-4.09,2.16-5.52c1.44-1.43,3.28-2.14,5.53-2.14,1.4,0,2.78.31,4.13.94v-7.7h4.99ZM178.01,44.48v-7.05c-.91-.57-1.84-.86-2.79-.86-1.25,0-2.23.41-2.93,1.22-.7.81-1.05,1.95-1.05,3.42,0,1.35.35,2.44,1.04,3.26.69.82,1.62,1.23,2.77,1.23,1.02,0,2-.41,2.96-1.22Z"/>
  </g>
  <g>
    <path class="cls-1" d="M188.02,13.18v1.79c-1.1.54-2.25.81-3.45.81-1.56,0-2.8-.4-3.72-1.2s-1.38-1.79-1.38-2.97.49-2.17,1.46-2.99,2.24-1.23,3.81-1.23c1.25,0,2.31.24,3.18.72v1.82c-1.06-.56-2.07-.84-3.02-.84s-1.7.23-2.29.7c-.59.47-.89,1.06-.89,1.78s.29,1.33.88,1.8,1.33.71,2.24.71c.45,0,.89-.06,1.3-.17.42-.11,1.04-.36,1.87-.74Z"/>
    <path class="cls-1" d="M192.6,10.03c.93,0,1.72.25,2.36.76s.97,1.22.97,2.12-.33,1.62-.99,2.12c-.66.5-1.44.75-2.35.75-.98,0-1.79-.27-2.41-.8-.62-.53-.94-1.23-.94-2.08s.32-1.56.96-2.09c.64-.52,1.44-.79,2.39-.79ZM192.6,14.75c.89,0,1.34-.63,1.34-1.88s-.45-1.8-1.34-1.8c-.43,0-.76.16-1,.48-.24.32-.36.77-.36,1.36,0,1.23.45,1.85,1.36,1.85Z"/>
    <path class="cls-1" d="M199.09,10.15v.71c.63-.55,1.32-.83,2.06-.83,1.02,0,1.73.39,2.14,1.18.72-.79,1.5-1.18,2.34-1.18.68,0,1.24.19,1.67.58.43.39.65.89.65,1.51v3.55h-1.86v-3.24c0-.39-.1-.69-.29-.91-.19-.22-.46-.33-.81-.33-.54,0-1.04.31-1.47.94v3.54h-1.86v-3.28c0-.39-.1-.68-.31-.89-.21-.21-.48-.31-.83-.31-.49,0-.96.26-1.42.77v3.71h-1.86v-5.53h1.86Z"/>
    <path class="cls-1" d="M211.4,10.15v.71c.63-.55,1.32-.83,2.06-.83,1.02,0,1.73.39,2.14,1.18.72-.79,1.5-1.18,2.34-1.18.68,0,1.24.19,1.67.58.43.39.65.89.65,1.51v3.55h-1.86v-3.24c0-.39-.1-.69-.29-.91-.19-.22-.46-.33-.81-.33-.54,0-1.04.31-1.47.94v3.54h-1.86v-3.28c0-.39-.1-.68-.31-.89-.21-.21-.48-.31-.83-.31-.49,0-.96.26-1.42.77v3.71h-1.86v-5.53h1.86Z"/>
    <path class="cls-1" d="M224.87,10.03c.93,0,1.72.25,2.36.76s.97,1.22.97,2.12-.33,1.62-.99,2.12c-.66.5-1.44.75-2.35.75-.98,0-1.79-.27-2.41-.8-.62-.53-.94-1.23-.94-2.08s.32-1.56.96-2.09c.64-.52,1.44-.79,2.39-.79ZM224.87,14.75c.89,0,1.34-.63,1.34-1.88s-.45-1.8-1.34-1.8c-.43,0-.76.16-1,.48-.24.32-.36.77-.36,1.36,0,1.23.45,1.85,1.36,1.85Z"/>
    <path class="cls-1" d="M231.31,10.15v.79c.55-.6,1.19-.9,1.93-.9.62,0,1.13.18,1.54.55s.62.89.62,1.58v3.52h-1.86v-3.37c0-.74-.31-1.11-.92-1.11-.44,0-.87.3-1.3.91v3.57h-1.86v-5.53h1.86Z"/>
  </g>
  <line class="cls-2" x1="5.96" y1="54.96" x2="243.59" y2="54.96"/>
  <path d="M102.91,234.81v-6.5c0-6.58.74-12.34,2.24-17.28,1.49-4.94,4.16-9.57,8-13.9,3.84-4.33,9.17-8.83,16-13.51,8.53-5.89,15.2-10.82,20-14.81,4.8-3.98,8.16-7.84,10.08-11.56,1.92-3.72,2.88-8.27,2.88-13.64,0-8.66-3.47-15.37-10.4-20.14-6.93-4.76-16.91-7.15-29.92-7.15-10.67,0-20,1.08-28,3.25-8,2.17-15.63,4.64-22.88,7.41l-8.96-16.89c8.32-3.46,17.54-6.37,27.68-8.7,10.13-2.34,21.49-3.51,34.08-3.51,20.05,0,35.52,4.03,46.39,12.08,10.88,8.06,16.32,19.19,16.32,33.39,0,7.8-1.55,14.47-4.64,20.01-3.1,5.55-7.47,10.61-13.12,15.2-5.65,4.59-12.32,9.48-20,14.68-7.47,5.03-13.07,9.4-16.8,13.12-3.73,3.73-6.19,7.5-7.36,11.3-1.18,3.81-1.76,8.32-1.76,13.51v3.64h-19.84ZM95.87,268.59c0-5.89,1.65-10,4.96-12.34,3.3-2.34,7.62-3.51,12.96-3.51,4.9,0,9.12,1.17,12.64,3.51,3.52,2.34,5.28,6.46,5.28,12.34s-1.76,9.87-5.28,12.47c-3.52,2.6-7.73,3.9-12.64,3.9-5.33,0-9.65-1.3-12.96-3.9-3.31-2.6-4.96-6.76-4.96-12.47Z"/>
</svg>