<?xml version="1.0" encoding="UTF-8"?>
<svg id="Outline" xmlns="http://www.w3.org/2000/svg" width="244.38" height="338.83" viewBox="0 0 244.38 338.83">
  <defs>
    <style>
      .cls-1, .cls-2 {
        fill: #fff;
      }

      .cls-3 {
        fill: none;
        stroke: #939598;
        stroke-miterlimit: 10;
        stroke-width: 5px;
      }

      .cls-4 {
        letter-spacing: -.02em;
      }

      .cls-2 {
        font-size: 12px;
      }

      .cls-2, .cls-5 {
        font-family: GillSansMT-Bold, 'Gill Sans MT';
        font-weight: 700;
      }

      .cls-6 {
        fill: #939598;
      }

      .cls-5 {
        font-size: 32px;
      }

      .cls-7 {
        letter-spacing: -.03em;
      }
    </style>
  </defs>
  <rect class="cls-6" x="3.37" width="240.21" height="338.83" rx="5" ry="5"/>
  <rect class="cls-1" x="8.18" y="5.78" width="230.6" height="49.18"/>
  <path class="cls-6" d="M160.85,5.17h79.16v15.76h-76.16c-1.66,0-3-1.34-3-3V5.17h0Z"/>
  <text class="cls-5" transform="translate(11.68 48.52) scale(1.07 1)"><tspan x="0" y="0">Not </tspan><tspan class="cls-7" x="67.91" y="0">F</tspan><tspan x="86.28" y="0">ound</tspan></text>
  <text class="cls-2" transform="translate(167.13 15.68) scale(1.07 1)"><tspan x="0" y="0">Sec</tspan><tspan class="cls-4" x="19.87" y="0">r</tspan><tspan x="25.01" y="0">et Ra</tspan><tspan class="cls-4" x="54.32" y="0">r</tspan><tspan x="59.46" y="0">e</tspan></text>
  <line class="cls-3" x1="5.96" y1="54.96" x2="243.59" y2="54.96"/>
  <path d="M102.91,234.81v-6.5c0-6.58.74-12.34,2.24-17.28,1.49-4.94,4.16-9.57,8-13.9,3.84-4.33,9.17-8.83,16-13.51,8.53-5.89,15.2-10.82,20-14.81,4.8-3.98,8.16-7.84,10.08-11.56,1.92-3.72,2.88-8.27,2.88-13.64,0-8.66-3.47-15.37-10.4-20.14-6.93-4.76-16.91-7.15-29.92-7.15-10.67,0-20,1.08-28,3.25-8,2.17-15.63,4.64-22.88,7.41l-8.96-16.89c8.32-3.46,17.54-6.37,27.68-8.7,10.13-2.34,21.49-3.51,34.08-3.51,20.05,0,35.52,4.03,46.39,12.08,10.88,8.06,16.32,19.19,16.32,33.39,0,7.8-1.55,14.47-4.64,20.01-3.1,5.55-7.47,10.61-13.12,15.2-5.65,4.59-12.32,9.48-20,14.68-7.47,5.03-13.07,9.4-16.8,13.12-3.73,3.73-6.19,7.5-7.36,11.3-1.18,3.81-1.76,8.32-1.76,13.51v3.64h-19.84ZM95.87,268.59c0-5.89,1.65-10,4.96-12.34,3.3-2.34,7.62-3.51,12.96-3.51,4.9,0,9.12,1.17,12.64,3.51,3.52,2.34,5.28,6.46,5.28,12.34s-1.76,9.87-5.28,12.47c-3.52,2.6-7.73,3.9-12.64,3.9-5.33,0-9.65-1.3-12.96-3.9-3.31-2.6-4.96-6.76-4.96-12.47Z"/>
</svg>