<?xml version="1.0" encoding="UTF-8"?>
<svg id="Outline" xmlns="http://www.w3.org/2000/svg" width="244.38" height="338.83" viewBox="0 0 244.38 338.83">
  <defs>
    <style>
      .cls-1 {
        fill: #fff;
      }

      .cls-2 {
        fill: none;
        stroke: #939598;
        stroke-miterlimit: 10;
        stroke-width: 5px;
      }

      .cls-3 {
        fill: #939598;
      }
    </style>
  </defs>
  <rect class="cls-3" x="3.37" width="240.21" height="338.83" rx="5" ry="5"/>
  <rect class="cls-1" x="8.18" y="5.78" width="230.6" height="49.18"/>
  <path class="cls-3" d="M160.85,5.17h79.16v15.76h-76.16c-1.66,0-3-1.34-3-3V5.17h0Z"/>
  <g>
    <path d="M38.07,26.7v21.83h-4.94l-12.95-13.98v13.98h-5.84v-21.83h5.36l12.53,13.34v-13.34h5.84Z"/>
    <path d="M50.97,33.46c2.49,0,4.59.68,6.32,2.03s2.59,3.24,2.59,5.66-.88,4.31-2.64,5.65-3.85,2-6.28,2c-2.63,0-4.78-.71-6.46-2.13-1.67-1.42-2.51-3.27-2.51-5.54s.85-4.17,2.56-5.57c1.71-1.4,3.84-2.1,6.41-2.1ZM50.97,46.06c2.38,0,3.58-1.67,3.58-5.02s-1.19-4.8-3.58-4.8c-1.14,0-2.04.42-2.68,1.27-.64.85-.97,2.06-.97,3.63,0,3.29,1.21,4.93,3.64,4.93Z"/>
    <path d="M74.62,33.77v3.17h-5.78v6.08c0,.73.22,1.3.65,1.73s1.03.63,1.79.63c1.03,0,2.14-.29,3.34-.86v3.36c-1.59.61-3.13.92-4.62.92-1.95,0-3.46-.47-4.53-1.41-1.07-.94-1.61-2.31-1.61-4.12v-6.33h-2.27v-.91l6.63-6.91h.62v4.64h5.78Z"/>
    <path d="M103.45,26.7v4h-10.31v4.88h10.31v4h-10.31v8.95h-5.84v-21.83h16.16Z"/>
    <path d="M114.67,33.46c2.49,0,4.59.68,6.32,2.03s2.6,3.24,2.6,5.66-.88,4.31-2.64,5.65-3.85,2-6.28,2c-2.63,0-4.78-.71-6.46-2.13-1.67-1.42-2.51-3.27-2.51-5.54s.85-4.17,2.56-5.57c1.71-1.4,3.84-2.1,6.41-2.1ZM114.67,46.06c2.38,0,3.58-1.67,3.58-5.02s-1.19-4.8-3.58-4.8c-1.14,0-2.04.42-2.68,1.27-.64.85-.97,2.06-.97,3.63,0,3.29,1.21,4.93,3.64,4.93Z"/>
    <path d="M137.87,48.52v-2.11c-1.47,1.59-3.17,2.39-5.12,2.39-1.72,0-3.12-.49-4.2-1.48-1.07-.99-1.61-2.36-1.61-4.11v-9.44h4.99v9.11c0,1.87.83,2.81,2.5,2.81.94,0,1.74-.34,2.41-1.02s1-1.18,1-1.51v-9.39h5.02v14.75h-4.99Z"/>
    <path d="M151.97,33.77v2.09c1.47-1.6,3.19-2.41,5.16-2.41,1.65,0,3.02.49,4.12,1.47s1.65,2.38,1.65,4.21v9.38h-4.99v-9c0-1.97-.82-2.96-2.47-2.96-1.18,0-2.33.81-3.48,2.44v9.52h-4.99v-14.75h4.99Z"/>
    <path d="M182.99,26.7v21.83h-4.99v-1.19c-1.28.98-2.74,1.47-4.4,1.47-2.12,0-3.88-.73-5.3-2.19-1.42-1.46-2.12-3.29-2.12-5.49s.72-4.09,2.16-5.52c1.44-1.43,3.28-2.14,5.53-2.14,1.4,0,2.78.31,4.13.94v-7.7h4.99ZM178.01,44.48v-7.05c-.91-.57-1.84-.86-2.79-.86-1.25,0-2.23.41-2.93,1.22-.7.81-1.05,1.95-1.05,3.42,0,1.35.35,2.44,1.04,3.26.69.82,1.62,1.23,2.77,1.23,1.02,0,2-.41,2.96-1.22Z"/>
  </g>
  <g>
    <path class="cls-1" d="M174.06,8.02v1.6c-1.16-.49-2.09-.73-2.78-.73-.39,0-.71.06-.94.18-.23.12-.35.29-.35.49,0,.16.08.3.25.45.17.14.58.32,1.22.54s1.17.43,1.56.62c.39.19.72.46,1.01.81.28.35.42.79.42,1.32,0,.76-.31,1.36-.93,1.81s-1.43.67-2.44.67c-1.09,0-2.14-.26-3.16-.79v-1.76c.59.37,1.1.63,1.56.8s.93.25,1.44.25c.86,0,1.29-.25,1.29-.76,0-.17-.09-.33-.26-.49-.17-.15-.58-.34-1.24-.56-.65-.22-1.17-.42-1.56-.61-.38-.19-.71-.46-.99-.8s-.42-.79-.42-1.34c0-.7.3-1.27.91-1.7.61-.43,1.42-.65,2.43-.65.94,0,1.93.21,2.97.63Z"/>
    <path class="cls-1" d="M181.44,13.96v1.1c-.71.48-1.59.73-2.64.73s-1.88-.26-2.5-.78c-.62-.52-.94-1.21-.94-2.07s.29-1.54.88-2.08,1.33-.82,2.24-.82,1.66.29,2.24.86c.58.57.86,1.34.82,2.3h-4.25c.04.5.23.89.57,1.16.34.27.8.41,1.38.41.7,0,1.43-.26,2.2-.79ZM177.33,12.27h2.57c-.1-.8-.53-1.21-1.29-1.21s-1.2.4-1.29,1.21Z"/>
    <path class="cls-1" d="M187.93,14.17v1.25c-.73.25-1.4.37-2,.37-1.04,0-1.88-.26-2.5-.78-.62-.52-.94-1.21-.94-2.07s.31-1.53.94-2.08,1.43-.82,2.41-.82c.63,0,1.29.12,2,.36v1.29c-.51-.25-1.02-.37-1.52-.37-.56,0-1,.15-1.34.43-.33.29-.5.68-.5,1.16s.16.88.49,1.18c.33.3.75.45,1.29.45.39,0,.95-.13,1.67-.38Z"/>
    <path class="cls-1" d="M191.1,10.15v1.58h.02c.54-1.13,1.17-1.7,1.89-1.7.34,0,.75.17,1.24.5l-.51,1.54c-.46-.27-.83-.41-1.1-.41-.43,0-.79.25-1.09.75-.29.5-.44.79-.44.87v2.39h-1.86v-5.53h1.86Z"/>
    <path class="cls-1" d="M200.47,13.96v1.1c-.71.48-1.59.73-2.64.73s-1.88-.26-2.5-.78c-.62-.52-.94-1.21-.94-2.07s.29-1.54.88-2.08,1.33-.82,2.24-.82,1.66.29,2.24.86c.58.57.86,1.34.82,2.3h-4.25c.04.5.23.89.57,1.16.34.27.8.41,1.38.41.7,0,1.43-.26,2.2-.79ZM196.36,12.27h2.57c-.1-.8-.53-1.21-1.29-1.21s-1.2.4-1.29,1.21Z"/>
    <path class="cls-1" d="M206.03,10.15v1.19h-2.16v2.28c0,.27.08.49.24.65.16.16.38.24.67.24.38,0,.8-.11,1.25-.32v1.26c-.59.23-1.17.35-1.73.35-.73,0-1.29-.18-1.7-.53-.4-.35-.6-.87-.6-1.55v-2.37h-.85v-.34l2.48-2.59h.23v1.74h2.16Z"/>
    <path class="cls-1" d="M210.77,7.49h3.92c.85,0,1.54.23,2.07.69s.8,1.01.8,1.67c0,.9-.5,1.57-1.51,2,.44.19.86.69,1.25,1.51s.78,1.59,1.15,2.32h-2.4c-.14-.27-.39-.78-.75-1.54s-.66-1.24-.91-1.46-.52-.32-.81-.32h-.63v3.32h-2.18V7.49ZM212.96,8.99v1.86h1.16c.37,0,.66-.08.88-.24.22-.16.32-.39.32-.69,0-.62-.42-.93-1.25-.93h-1.1Z"/>
    <path class="cls-1" d="M225.31,14.31v.97c-.62.34-1.2.5-1.75.5-.58,0-.93-.21-1.04-.62-.65.41-1.3.62-1.95.62-.46,0-.85-.14-1.17-.41s-.48-.59-.48-.95c0-.48.17-.87.5-1.17s1.34-.68,3.02-1.14c.04-.62-.3-.93-1.03-.93-.79,0-1.52.31-2.18.93v-1.42c.78-.45,1.63-.67,2.57-.67,1.67,0,2.51.56,2.51,1.68v2.52c0,.26.1.39.31.39.16,0,.39-.1.7-.31ZM222.44,14.33v-1.34c-.62.2-1.05.39-1.28.55s-.35.37-.35.62c0,.16.06.3.18.41.12.12.26.17.43.17.35,0,.69-.14,1.03-.42Z"/>
    <path class="cls-1" d="M228,10.15v1.58h.02c.54-1.13,1.17-1.7,1.89-1.7.34,0,.75.17,1.24.5l-.51,1.54c-.46-.27-.83-.41-1.1-.41-.43,0-.79.25-1.09.75-.29.5-.44.79-.44.87v2.39h-1.86v-5.53h1.86Z"/>
    <path class="cls-1" d="M237.37,13.96v1.1c-.71.48-1.59.73-2.64.73s-1.88-.26-2.5-.78c-.62-.52-.94-1.21-.94-2.07s.29-1.54.88-2.08,1.33-.82,2.24-.82,1.66.29,2.24.86c.58.57.86,1.34.82,2.3h-4.25c.04.5.23.89.57,1.16.34.27.8.41,1.38.41.7,0,1.43-.26,2.2-.79ZM233.26,12.27h2.57c-.1-.8-.53-1.21-1.29-1.21s-1.2.4-1.29,1.21Z"/>
  </g>
  <line class="cls-2" x1="5.96" y1="54.96" x2="243.59" y2="54.96"/>
  <path d="M102.91,234.81v-6.5c0-6.58.74-12.34,2.24-17.28,1.49-4.94,4.16-9.57,8-13.9,3.84-4.33,9.17-8.83,16-13.51,8.53-5.89,15.2-10.82,20-14.81,4.8-3.98,8.16-7.84,10.08-11.56,1.92-3.72,2.88-8.27,2.88-13.64,0-8.66-3.47-15.37-10.4-20.14-6.93-4.76-16.91-7.15-29.92-7.15-10.67,0-20,1.08-28,3.25-8,2.17-15.63,4.64-22.88,7.41l-8.96-16.89c8.32-3.46,17.54-6.37,27.68-8.7,10.13-2.34,21.49-3.51,34.08-3.51,20.05,0,35.52,4.03,46.39,12.08,10.88,8.06,16.32,19.19,16.32,33.39,0,7.8-1.55,14.47-4.64,20.01-3.1,5.55-7.47,10.61-13.12,15.2-5.65,4.59-12.32,9.48-20,14.68-7.47,5.03-13.07,9.4-16.8,13.12-3.73,3.73-6.19,7.5-7.36,11.3-1.18,3.81-1.76,8.32-1.76,13.51v3.64h-19.84ZM95.87,268.59c0-5.89,1.65-10,4.96-12.34,3.3-2.34,7.62-3.51,12.96-3.51,4.9,0,9.12,1.17,12.64,3.51,3.52,2.34,5.28,6.46,5.28,12.34s-1.76,9.87-5.28,12.47c-3.52,2.6-7.73,3.9-12.64,3.9-5.33,0-9.65-1.3-12.96-3.9-3.31-2.6-4.96-6.76-4.96-12.47Z"/>
</svg>