<?xml version="1.0" encoding="UTF-8"?>
<svg id="Outline" xmlns="http://www.w3.org/2000/svg" width="244.38" height="338.83" xmlns:xlink="http://www.w3.org/1999/xlink" viewBox="0 0 244.38 338.83">
  <defs>
    <style>
      .cls-1 {
        fill: url(#radial-gradient);
      }

      .cls-1, .cls-2, .cls-3 {
        stroke: #fff;
      }

      .cls-1, .cls-2, .cls-3, .cls-4, .cls-5 {
        stroke-linecap: round;
        stroke-linejoin: round;
      }

      .cls-2, .cls-5 {
        fill: #fbb040;
      }

      .cls-6 {
        letter-spacing: -.03em;
      }

      .cls-3, .cls-7, .cls-8 {
        fill: #fff;
      }

      .cls-3, .cls-5 {
        stroke-width: 2px;
      }

      .cls-9 {
        fill: #ff6b00;
      }

      .cls-7 {
        font-size: 34px;
      }

      .cls-7, .cls-8 {
        font-family: GillSansMT-Bold, 'Gill Sans MT';
        font-weight: 700;
      }

      .cls-10 {
        letter-spacing: -.02em;
      }

      .cls-11 {
        fill: #ffb347;
      }

      .cls-8 {
        font-size: 12px;
      }

      .cls-4 {
        fill: none;
        stroke-width: 3px;
      }

      .cls-4, .cls-5 {
        stroke: #414042;
      }

      .cls-12 {
        fill: url(#linear-gradient);
      }
    </style>
    <linearGradient id="linear-gradient" x1="3.08" y1="169.42" x2="243.3" y2="169.42" gradientUnits="userSpaceOnUse">
      <stop offset="0" stop-color="#fff33b"/>
      <stop offset=".04" stop-color="#fee62d"/>
      <stop offset=".12" stop-color="#fdd51b"/>
      <stop offset=".2" stop-color="#fdca0f"/>
      <stop offset=".28" stop-color="#fdc70c"/>
      <stop offset=".67" stop-color="#f3903f"/>
      <stop offset=".89" stop-color="#ed753c"/>
      <stop offset="1" stop-color="#e96d3a"/>
    </linearGradient>
    <radialGradient id="radial-gradient" cx="123.48" cy="201.82" fx="123.48" fy="201.82" r="103.8" gradientUnits="userSpaceOnUse">
      <stop offset="0" stop-color="#fff33b"/>
      <stop offset=".04" stop-color="#fee62d"/>
      <stop offset=".12" stop-color="#fdd51b"/>
      <stop offset=".2" stop-color="#fdca0f"/>
      <stop offset=".28" stop-color="#fdc70c"/>
      <stop offset=".67" stop-color="#f3903f"/>
      <stop offset=".89" stop-color="#ed753c"/>
      <stop offset="1" stop-color="#e96d3a"/>
    </radialGradient>
  </defs>
  <rect class="cls-12" x="3.08" y="0" width="240.21" height="338.83" rx="5" ry="5"/>
  <g>
    <path class="cls-9" d="M115.71,121.3c-1.35.05-1.87-.4-2.09-.66-.77-.94-.14-2.64.85-5.25.65-1.69,1.3-3.02,1.78-3.91.05-1.4-.03-3.49-.73-5.9-.77-2.64-1.98-4.59-2.84-5.78-1.13-1.26-2.58-2.67-4.39-4.05-2.44-1.87-4.78-3.11-6.66-3.94-.6-.52-1.38-1.33-2.09-2.47-.8-1.31-1.18-2.53-1.36-3.36-.54.7-1.92,2.7-2.05,5.68-.14,3.16,1.23,5.45,1.71,6.19-3.85-4.79-7.35-8.29-9.89-10.64-3.61-3.35-5.87-4.93-9.18-8.59-2.95-3.27-5.01-6.27-6.3-8.33-.69-1.36-1.49-3.25-2-5.6-.51-2.32-.58-4.33-.53-5.84-2.52,2.01-13.03,10.86-15.11,26.55-1.48,11.13,2.04,19.94,3.73,23.55-.84-.19-2.45-.67-4.02-2.01-1.18-1-1.88-2.1-2.26-2.81-.9,3.12-2.34,9.71-.58,17.82,1.96,9.04,6.79,14.93,9.02,17.35-.37,1.09-1,1.52-1.24,1.66-1.34.78-3.48.23-5.05-1.57,1.65,2.3,7.07,9.25,16.81,12.13,6.89,2.04,12.71,1.07,15.55.39,3.89-.81,10.78-2.81,17.65-8.15,5.72-4.45,9.13-9.43,11.01-12.7,1.42-2.76,3.07-6.77,3.93-11.87.61-3.65.64-6.87.48-9.44-1.39,3.85-2.78,7.71-4.17,11.56ZM112.43,120.79c1.92,7.61-1.5,14.83-5.03,18.65-1.54,1.66-3.52,3.13-4.16,3.61-.57.42-2.88,2.11-6.71,3.95-2.85,1.36-5.34,2.56-8.62,3.22-1.17.24-6.15,1.19-11.02-.18-7.66-2.14-11.84-9.12-14.82-14.08-5.69-9.49-6.78-18.96-6.9-24.68.15.49,1.08,3.43,4.09,4.94,2.43,1.22,4.68.74,5.31.59-1.53-1.89-8.49-10.85-7.71-23.8.73-12.19,7.83-19.68,9.64-21.47.13,1.57.53,4,1.92,6.51,1.73,3.11,4.11,4.79,5.38,5.69,8.28,5.87,14.3,10.14,18.44,14.17,1.91,1.86,4.71,4.94,7.45,9.56-1.03-2.4-1.03-4.21-.81-5.43.34-1.95,1.31-2.97,1.34-5.24.02-1.32-.29-2.41-.56-3.14,1.94,1.46,4.96,4.19,6.99,8.42,1.29,2.7,1.68,4.98,1.77,5.53.37,2.29.26,4.23.08,5.57,2.53,3.07,3.51,5.96,3.93,7.61Z"/>
    <path class="cls-11" d="M108.42,107.6c-.09-.55-.48-2.83-1.77-5.53-2.03-4.23-5.05-6.95-6.99-8.42.27.72.58,1.82.56,3.14-.03,2.26-1,3.29-1.34,5.24-.22,1.23-.22,3.03.81,5.43-2.74-4.62-5.54-7.7-7.45-9.56-4.13-4.03-10.16-8.3-18.44-14.17-1.28-.9-3.66-2.58-5.38-5.69-1.39-2.51-1.8-4.94-1.92-6.51-1.81,1.8-8.9,9.28-9.64,21.47-.78,12.95,6.18,21.92,7.71,23.8-.63.16-2.88.63-5.31-.59-3.01-1.51-3.95-4.45-4.09-4.94.12,5.72,1.21,15.19,6.9,24.68,2.97,4.96,7.16,11.94,14.82,14.08,4.87,1.36,9.85.41,11.02.18,3.28-.66,5.77-1.85,8.62-3.22,3.83-1.83,6.15-3.53,6.71-3.95.64-.48,2.62-1.95,4.16-3.61,3.54-3.82,6.95-11.05,5.03-18.65-.42-1.65-1.39-4.54-3.93-7.61.18-1.34.29-3.27-.08-5.57Z"/>
  </g>
  <g>
    <path class="cls-9" d="M193.27,151.19c-.97-.94-1.01-1.62-.97-1.96.14-1.21,1.8-1.94,4.36-3.03,1.66-.71,3.08-1.16,4.05-1.43,1.04-.94,2.49-2.45,3.74-4.63,1.37-2.39,1.93-4.61,2.18-6.06.12-1.69.13-3.71-.13-5.97-.35-3.06-1.08-5.6-1.8-7.53-.04-.79,0-1.92.33-3.21.38-1.49,1-2.6,1.47-3.31-.88.1-3.28.5-5.51,2.47-2.37,2.1-3.06,4.67-3.26,5.53.77-6.09.85-11.05.78-14.51-.1-4.92-.54-7.65-.2-12.57.3-4.39,1.03-7.96,1.62-10.32.5-1.44,1.31-3.33,2.64-5.33,1.32-1.98,2.71-3.43,3.83-4.44-3.2-.42-16.86-1.82-29.59,7.58-9.03,6.67-12.92,15.33-14.34,19.05-.45-.74-1.22-2.23-1.35-4.28-.1-1.55.21-2.81.45-3.58-2.87,1.52-8.61,5.07-13.22,11.97-5.14,7.69-6.02,15.26-6.21,18.55-1.03.49-1.78.34-2.06.26-1.49-.42-2.58-2.34-2.38-4.72-.51,2.78-1.74,11.51,2.96,20.52,3.33,6.37,8.07,9.88,10.53,11.45,3.29,2.24,9.51,5.8,18.13,7.03,7.17,1.02,13.13.01,16.79-.91,2.97-.9,7.01-2.49,11.26-5.42,3.05-2.09,5.39-4.32,7.12-6.21-3.74,1.68-7.47,3.36-11.21,5.04ZM191.36,148.47c-4.14,6.67-11.71,9.23-16.91,9.34-2.27.05-4.7-.35-5.49-.48-.7-.11-3.52-.61-7.5-2.08-2.96-1.1-5.55-2.06-8.3-3.96-.98-.68-5.13-3.6-7.53-8.05-3.78-7-1.67-14.85-.17-20.44,2.87-10.69,8.92-18.05,12.95-22.11-.25.45-1.71,3.16-.71,6.38.81,2.59,2.72,3.88,3.27,4.23.29-2.41,1.9-13.65,11.76-22.09,9.28-7.95,19.59-8.04,22.14-7.99-1.04,1.18-2.5,3.16-3.34,5.91-1.04,3.4-.59,6.28-.35,7.83,1.53,10.04,2.65,17.33,2.62,23.11-.01,2.66-.27,6.82-1.69,12,1.01-2.41,2.31-3.66,3.34-4.36,1.64-1.11,3.05-1.13,4.69-2.68.96-.9,1.53-1.89,1.87-2.58.29,2.41.44,6.48-1.2,10.88-1.04,2.8-2.41,4.67-2.75,5.12-1.39,1.86-2.86,3.13-3.95,3.93-.45,3.96-1.85,6.67-2.75,8.11Z"/>
    <path class="cls-11" d="M198.05,136.43c.33-.44,1.7-2.32,2.75-5.12,1.64-4.4,1.49-8.47,1.2-10.88-.33.7-.9,1.68-1.87,2.58-1.65,1.55-3.06,1.57-4.69,2.68-1.03.7-2.33,1.95-3.34,4.36,1.42-5.18,1.68-9.34,1.69-12,.02-5.77-1.09-13.07-2.62-23.11-.24-1.55-.68-4.43.35-7.83.84-2.75,2.3-4.72,3.34-5.91-2.55-.05-12.86.04-22.14,7.99-9.85,8.44-11.47,19.67-11.76,22.09-.55-.34-2.46-1.63-3.27-4.23-1.01-3.22.46-5.93.71-6.38-4.03,4.06-10.08,11.43-12.95,22.11-1.5,5.59-3.61,13.44.17,20.44,2.4,4.45,6.55,7.37,7.53,8.05,2.75,1.9,5.34,2.86,8.3,3.96,3.98,1.48,6.81,1.97,7.5,2.08.79.13,3.22.53,5.49.48,5.2-.11,12.77-2.68,16.91-9.34.9-1.45,2.3-4.16,2.75-8.11,1.08-.8,2.55-2.07,3.95-3.93Z"/>
  </g>
  <g>
    <path class="cls-9" d="M156.05,123.78c-1.22-.57-1.49-1.2-1.56-1.53-.26-1.19,1.06-2.42,3.13-4.3,1.34-1.21,2.53-2.1,3.35-2.68.68-1.23,1.55-3.13,2.01-5.6.5-2.71.31-4.99.08-6.44-.44-1.63-1.1-3.55-2.09-5.6-1.33-2.77-2.86-4.93-4.17-6.52-.3-.73-.63-1.81-.75-3.14-.13-1.53.09-2.79.3-3.61-.79.38-2.93,1.54-4.39,4.14-1.55,2.76-1.36,5.41-1.27,6.29-1.27-6.01-2.82-10.72-4.02-13.96-1.71-4.62-3.02-7.05-4.32-11.81-1.16-4.25-1.64-7.86-1.86-10.28,0-1.53.14-3.57.74-5.9.59-2.3,1.43-4.13,2.16-5.45-3.16.66-16.52,3.81-25.46,16.87-6.34,9.27-7.17,18.71-7.3,22.7-.67-.55-1.88-1.71-2.68-3.6-.6-1.43-.73-2.72-.74-3.53-2.21,2.38-6.47,7.61-8.56,15.64-2.33,8.95-.68,16.39.22,19.55-.82.8-1.57.9-1.86.92-1.55.1-3.21-1.36-3.8-3.68.43,2.79,2.13,11.45,9.53,18.41,5.23,4.93,10.86,6.69,13.7,7.36,3.84,1.03,10.88,2.36,19.43.69,7.11-1.39,12.41-4.29,15.56-6.37,2.51-1.82,5.8-4.65,8.86-8.82,2.19-2.98,3.67-5.85,4.69-8.2-2.98,2.81-5.96,5.62-8.94,8.44ZM153.35,121.84c-1.72,7.66-8.03,12.56-12.91,14.38-2.12.79-4.55,1.21-5.34,1.34-.69.12-3.53.58-7.77.49-3.16-.07-5.92-.13-9.14-1.02-1.15-.32-6.02-1.72-9.75-5.13-5.87-5.37-6.45-13.48-6.87-19.25-.79-11.04,2.5-19.98,4.98-25.14-.09.5-.58,3.55,1.42,6.26,1.62,2.18,3.84,2.78,4.47,2.92-.52-2.38-2.68-13.52,3.86-24.72,6.16-10.55,15.87-14.02,18.29-14.81-.59,1.46-1.33,3.81-1.22,6.68.14,3.55,1.51,6.13,2.24,7.51,4.74,8.98,8.19,15.51,10.06,20.97.86,2.52,1.98,6.53,2.34,11.89.16-2.61.98-4.22,1.73-5.22,1.18-1.58,2.51-2.06,3.56-4.07.61-1.17.83-2.29.91-3.05,1.07,2.18,2.54,5.97,2.44,10.67-.07,2.99-.75,5.21-.91,5.74-.7,2.21-1.68,3.89-2.44,5.01.88,3.88.44,6.91.07,8.57Z"/>
    <path class="cls-11" d="M155.72,108.27c.17-.53.85-2.75.91-5.74.1-4.69-1.37-8.49-2.44-10.67-.09.77-.3,1.88-.91,3.05-1.05,2-2.37,2.49-3.56,4.07-.75,1-1.56,2.6-1.73,5.22-.36-5.36-1.47-9.37-2.34-11.89-1.87-5.46-5.32-11.99-10.06-20.97-.73-1.38-2.1-3.96-2.24-7.51-.11-2.87.63-5.22,1.22-6.68-2.42.79-12.13,4.26-18.29,14.81-6.54,11.2-4.38,22.34-3.86,24.72-.63-.14-2.86-.74-4.47-2.92-2-2.71-1.51-5.75-1.42-6.26-2.47,5.16-5.77,14.1-4.98,25.14.41,5.77,1,13.88,6.87,19.25,3.73,3.41,8.6,4.81,9.75,5.13,3.22.89,5.99.95,9.14,1.02,4.24.09,7.08-.37,7.77-.49.79-.14,3.22-.55,5.34-1.34,4.88-1.81,11.19-6.72,12.91-14.38.37-1.66.81-4.68-.07-8.57.76-1.11,1.73-2.79,2.44-5.01Z"/>
  </g>
  <g>
    <path class="cls-9" d="M220.44,196.82c-.97-.94-1.01-1.62-.97-1.96.14-1.21,1.8-1.94,4.36-3.03,1.66-.71,3.08-1.16,4.05-1.43,1.04-.94,2.49-2.45,3.74-4.63,1.37-2.39,1.93-4.61,2.18-6.06.12-1.69.13-3.71-.13-5.97-.35-3.06-1.08-5.6-1.8-7.53-.04-.79,0-1.92.33-3.21.38-1.49,1-2.6,1.47-3.31-.88.1-3.28.5-5.51,2.47-2.37,2.1-3.06,4.67-3.26,5.53.77-6.09.85-11.05.78-14.51-.1-4.92-.54-7.65-.2-12.57.3-4.39,1.03-7.96,1.62-10.32.5-1.44,1.31-3.33,2.64-5.33,1.32-1.98,2.71-3.43,3.83-4.44-3.2-.42-16.86-1.82-29.59,7.58-9.03,6.67-12.92,15.33-14.34,19.05-.45-.74-1.22-2.23-1.35-4.28-.1-1.55.21-2.81.45-3.58-2.87,1.52-8.61,5.07-13.22,11.97-5.14,7.69-6.02,15.26-6.21,18.55-1.03.49-1.78.34-2.06.26-1.49-.42-2.58-2.34-2.38-4.72-.51,2.78-1.74,11.51,2.96,20.52,3.33,6.37,8.07,9.88,10.53,11.45,3.29,2.24,9.51,5.8,18.13,7.03,7.17,1.02,13.13.01,16.79-.91,2.97-.9,7.01-2.49,11.26-5.42,3.05-2.09,5.39-4.32,7.12-6.21-3.74,1.68-7.47,3.36-11.21,5.04ZM218.53,194.1c-4.14,6.67-11.71,9.23-16.91,9.34-2.27.05-4.7-.35-5.49-.48-.7-.11-3.52-.61-7.5-2.08-2.96-1.1-5.55-2.06-8.3-3.96-.98-.68-5.13-3.6-7.53-8.05-3.78-7-1.67-14.85-.17-20.44,2.87-10.69,8.92-18.05,12.95-22.11-.25.45-1.71,3.16-.71,6.38.81,2.59,2.72,3.88,3.27,4.23.29-2.41,1.9-13.65,11.76-22.09,9.28-7.95,19.59-8.04,22.14-7.99-1.04,1.18-2.5,3.16-3.34,5.91-1.04,3.4-.59,6.28-.35,7.83,1.53,10.04,2.65,17.33,2.62,23.11-.01,2.66-.27,6.82-1.69,12,1.01-2.41,2.31-3.66,3.34-4.36,1.64-1.11,3.05-1.13,4.69-2.68.96-.9,1.53-1.89,1.87-2.58.29,2.41.44,6.48-1.2,10.88-1.04,2.8-2.41,4.67-2.75,5.12-1.39,1.86-2.86,3.13-3.95,3.93-.45,3.96-1.85,6.67-2.75,8.11Z"/>
    <path class="cls-11" d="M225.22,182.06c.33-.44,1.7-2.32,2.75-5.12,1.64-4.4,1.49-8.47,1.2-10.88-.33.7-.9,1.68-1.87,2.58-1.65,1.55-3.06,1.57-4.69,2.68-1.03.7-2.33,1.95-3.34,4.36,1.42-5.18,1.68-9.34,1.69-12,.02-5.77-1.09-13.07-2.62-23.11-.24-1.55-.68-4.43.35-7.83.84-2.75,2.3-4.72,3.34-5.91-2.55-.05-12.86.04-22.14,7.99-9.85,8.44-11.47,19.67-11.76,22.09-.55-.34-2.46-1.63-3.27-4.23-1.01-3.22.46-5.93.71-6.38-4.03,4.06-10.08,11.43-12.95,22.11-1.5,5.59-3.61,13.44.17,20.44,2.4,4.45,6.55,7.37,7.53,8.05,2.75,1.9,5.34,2.86,8.3,3.96,3.98,1.48,6.81,1.97,7.5,2.08.79.13,3.22.53,5.49.48,5.2-.11,12.77-2.68,16.91-9.34.9-1.45,2.3-4.16,2.75-8.11,1.08-.8,2.55-2.07,3.95-3.93Z"/>
  </g>
  <path class="cls-2" d="M94.33,307.22c.11.31,1.93,6.01-1.81,10.46-2.73,3.25-6.55,3.61-7.32,3.67-1.34.14-3.94.22-6.79-1.03-4.91-2.17-6.79-6.67-7.19-7.7-.51.48-3.52,3.27-8.13,3.04-4.81-.25-7.57-3.59-7.99-4.12.22-1.37.77-3.66,2.35-6.01,2.41-3.58,5.71-5.08,7.05-5.6"/>
  <path class="cls-2" d="M150.09,309.79c-.11.31-1.93,6.01,1.81,10.46,2.73,3.25,6.55,3.61,7.32,3.67,1.34.14,3.94.22,6.79-1.03,4.91-2.17,6.79-6.67,7.19-7.7.51.48,3.52,3.27,8.13,3.04,4.81-.25,7.57-3.59,7.99-4.12-.22-1.37-.77-3.66-2.35-6.01-2.41-3.58-5.71-5.08-7.05-5.6"/>
  <g>
    <path class="cls-9" d="M81.28,171.67c-1.33-.2-1.77-.73-1.93-1.03-.59-1.07.33-2.62,1.78-5.01.94-1.54,1.82-2.73,2.45-3.52.3-1.37.6-3.44.34-5.94-.28-2.74-1.12-4.87-1.76-6.2-.89-1.44-2.06-3.09-3.59-4.78-2.07-2.28-4.14-3.92-5.85-5.07-.49-.62-1.12-1.56-1.61-2.8-.55-1.43-.7-2.7-.74-3.55-.65.59-2.37,2.31-3.04,5.22-.7,3.08.23,5.58.57,6.39-2.93-5.4-5.74-9.48-7.82-12.25-2.95-3.94-4.89-5.9-7.49-10.1-2.32-3.74-3.8-7.07-4.7-9.33-.43-1.46-.88-3.47-.96-5.87-.08-2.37.2-4.37.53-5.84-2.84,1.53-14.76,8.35-19.63,23.4-3.45,10.68-1.57,19.98-.56,23.84-.79-.34-2.29-1.1-3.59-2.7-.98-1.2-1.47-2.4-1.71-3.17-1.44,2.91-4.04,9.13-3.77,17.43.3,9.25,4,15.91,5.76,18.69-.55,1-1.25,1.31-1.52,1.41-1.46.53-3.46-.4-4.68-2.45,1.21,2.56,5.29,10.37,14.36,14.95,6.42,3.24,12.31,3.33,15.22,3.17,3.98-.1,11.1-.83,18.83-4.85,6.43-3.35,10.68-7.64,13.11-10.52,1.89-2.46,4.24-6.11,6-10.97,1.25-3.48,1.86-6.65,2.17-9.2-2.06,3.54-4.12,7.08-6.18,10.62ZM78.14,170.58c.52,7.83-4.14,14.32-8.3,17.45-1.81,1.36-4.02,2.45-4.74,2.8-.63.31-3.22,1.56-7.31,2.68-3.05.83-5.71,1.56-9.06,1.62-1.19.02-6.26.06-10.81-2.15-7.15-3.48-10.01-11.1-12.05-16.52-3.89-10.36-3.27-19.87-2.36-25.52.06.51.45,3.57,3.14,5.6,2.17,1.63,4.47,1.57,5.12,1.53-1.17-2.13-6.4-12.2-3.31-24.8,2.91-11.86,11.24-17.95,13.34-19.39-.15,1.57-.2,4.03.72,6.75,1.14,3.37,3.18,5.45,4.27,6.57,7.09,7.26,12.25,12.54,15.59,17.25,1.54,2.17,3.75,5.7,5.61,10.74-.58-2.55-.26-4.32.18-5.49.69-1.85,1.82-2.69,2.26-4.91.25-1.3.15-2.43.01-3.19,1.64,1.79,4.13,5.01,5.36,9.54.79,2.89.76,5.21.75,5.76-.05,2.32-.51,4.21-.92,5.49,1.94,3.48,2.38,6.5,2.49,8.19Z"/>
    <path class="cls-11" d="M76.57,156.89c.01-.56.03-2.87-.75-5.76-1.23-4.53-3.72-7.75-5.36-9.54.13.76.24,1.89-.01,3.19-.44,2.22-1.57,3.06-2.26,4.91-.43,1.17-.76,2.94-.18,5.49-1.86-5.04-4.07-8.57-5.61-10.74-3.34-4.71-8.5-9.99-15.59-17.25-1.09-1.12-3.13-3.2-4.27-6.57-.92-2.72-.88-5.18-.72-6.75-2.1,1.44-10.42,7.53-13.34,19.39-3.09,12.6,2.14,22.67,3.31,24.8-.65.04-2.95.1-5.12-1.53-2.69-2.03-3.08-5.09-3.14-5.6-.91,5.65-1.53,15.16,2.36,25.52,2.04,5.42,4.9,13.03,12.05,16.52,4.55,2.21,9.62,2.17,10.81,2.15,3.34-.06,6.01-.79,9.06-1.62,4.09-1.12,6.68-2.37,7.31-2.68.72-.35,2.93-1.44,4.74-2.8,4.16-3.12,8.82-9.62,8.3-17.45-.11-1.7-.55-4.72-2.49-8.19.41-1.28.87-3.17.92-5.49Z"/>
  </g>
  <path class="cls-1" d="M183.42,229.59c1.86,8.28,3.43,15.13,4.57,19.98,3.17,13.61,4.05,16.95,4.23,22.88.19,6.22.3,12.6-3.23,19.44-2.72,5.29-6.5,8.68-9.06,10.6-2.31,1.98-6.78,5.27-13.3,7.02-7.35,1.98-13.51.98-16.53.28-10.21-2.7-20.43-5.4-30.64-8.1-4.65,1.46-10.5,2.88-17.33,3.57-6.33.65-11.31.4-15.45.2-3.33-.15-7.25-.35-12.36-1.22-5.16-.87-9.44-2.06-12.63-3.1-6.85-7.58-9.26-14.86-10.35-19.18-3.12-12.4.06-22.6,1.48-26.46,2.42-6.01,4.78-13.3,6.39-21.74.85-4.47,1.37-8.68,1.67-12.55-26.28-24.29-38.12-38.27-35.53-41.92,2.26-3.19,15.49,1.47,39.7,13.97.3-10.47.94-18.96,1.51-24.99.5-5.26.86-7.76,1.11-9.43.52-3.46,2.22-14.24,5.44-20.66.25-.49,1.79-3.52,3.9-7.42.93-1.73,1.87-3.44,2.15-3.92,3.23-5.65,10.5-9.71,13.5-11.34,4.28-2.33,11.4-5.57,21.16-7.15-.34-.68-2.51-5.2-.41-10.06,1.32-3.07,3.66-4.68,4.64-5.27,3.07,2.95,6.14,5.89,9.21,8.84,1.86-2.09,4.65-4.68,8.53-6.82,1.64-.9,3.21-1.59,4.64-2.09,1.15.33,1.84.9,2.21,1.28,1.64,1.67,1.91,4.57.74,7.35-.98,2.35-1.97,4.69-2.95,7.03,4.53,1.07,19.81,5.29,30.63,20.05,7.09,9.66,9.04,19.44,9.68,24.5,1.04,6.11,1.82,13.89,1.41,22.88-.39,8.54-1.74,15.88-3.23,21.68,4.02-2.23,9.36-5.11,15.72-8.31,15.92-8,23.94-11.96,26.77-9.91,5.67,4.11-33.24,48-37.99,50.08Z"/>
  <path class="cls-3" d="M76.14,167.96c1.59,16.26.52,29.28-.79,38.25-1.27,8.71-2.57,11.66-5.19,21.4-.5,1.87-3.1,10.54-4.85,20.25-.76,4.21-1.51,9.37-1.97,15.34.57,4.63,2.75,16.87,12.39,23.51,5.32,3.66,11.27,5.27,18.49,5.58,5.74.25,11.51.51,17.31.8,6.4.31,12.76.65,19.08,1,7.24.16,18.57.27,26.36-.4.42-.04.97-.09,1.65-.18,0,0,.68-.1,1.3-.22,1.08-.21,5.49-2.94,11.02-7.37,2.31-4.57,4.6-10.83,4.72-18.33.07-4.45-.76-7.19-2.56-16.94-1.19-6.44-2.35-12.89-3.54-19.33-1.35-7.33-2.99-18.06-3.93-31.88,1.52-8.09,2.92-21.39-.59-37.06-2.26-10.08-5.87-18.13-9.05-23.91-3-3.25-6.08-4.83-7.87-5.58-2.5-1.05-8.04-3.38-13.38-.8-2.7,1.3-4.31,3.36-5.12,4.58-1.3,2.4-2.6,5.19-3.74,8.37-2.37,6.63-3.21,12.66-3.46,17.3-2.26-.32-4.51-.64-6.77-.96h-3.54c-.06-3.72-.44-8.27-1.57-13.35-.87-3.91-2.01-7.31-3.15-10.16-1.09-.91-4.6-3.57-9.84-3.79-5.04-.21-8.64,1.98-9.84,2.79-2.36,1.95-5.98,5.48-8.66,10.96-4.26,8.73-3.44,16.92-2.95,20.12Z"/>
  <path class="cls-5" d="M125.92,162.72c-.16-.77-.87-.92-11.02-1.02-7.05-.07-8.18-.02-8.43,1.02-.53,2.28,3.48,8.33,8.1,9.2,6,1.13,11.86-6.66,11.34-9.2Z"/>
  <text class="cls-7" transform="translate(38.88 44.04) scale(1.07 1)"><tspan class="cls-6" x="0" y="0">P</tspan><tspan x="21.28" y="0">ar</tspan><tspan class="cls-6" x="54.57" y="0">k</tspan><tspan x="72.32" y="0">er</tspan></text>
  <text class="cls-8" transform="translate(169.13 13.68) scale(1.07 1)"><tspan x="0" y="0">Sec</tspan><tspan class="cls-10" x="19.87" y="0">r</tspan><tspan x="25.01" y="0">et Ra</tspan><tspan class="cls-10" x="54.32" y="0">r</tspan><tspan x="59.46" y="0">e</tspan></text>
  <line class="cls-4" x1="149.48" y1="152.32" x2="133.61" y2="158.45"/>
  <line class="cls-4" x1="84.47" y1="151.3" x2="100.34" y2="157.42"/>
</svg>