<?xml version="1.0" encoding="UTF-8"?>
<svg id="Outline" xmlns="http://www.w3.org/2000/svg" width="244.38" height="338.83" xmlns:xlink="http://www.w3.org/1999/xlink" viewBox="0 0 244.38 338.83">
  <defs>
    <style>
      .cls-1 {
        font-size: 34px;
      }

      .cls-1, .cls-2 {
        font-family: GillSansMT-Bold, 'Gill Sans MT';
        font-weight: 700;
      }

      .cls-3, .cls-2, .cls-4 {
        fill: #fff;
      }

      .cls-5, .cls-6 {
        stroke: #fff;
      }

      .cls-5, .cls-6, .cls-7, .cls-4, .cls-8 {
        stroke-linecap: round;
        stroke-linejoin: round;
      }

      .cls-5, .cls-8 {
        fill: #fbb040;
      }

      .cls-6 {
        fill: url(#linear-gradient-2);
      }

      .cls-9 {
        stroke: #939598;
        stroke-miterlimit: 10;
        stroke-width: 5px;
      }

      .cls-9, .cls-7 {
        fill: none;
      }

      .cls-2 {
        font-size: 12px;
      }

      .cls-10 {
        fill: #939598;
      }

      .cls-7 {
        stroke-width: 3px;
      }

      .cls-7, .cls-8 {
        stroke: #414042;
      }

      .cls-4 {
        stroke: url(#linear-gradient-3);
      }

      .cls-4, .cls-8 {
        stroke-width: 2px;
      }

      .cls-11 {
        fill: url(#linear-gradient);
      }
    </style>
    <linearGradient id="linear-gradient" x1="8.18" y1="194.01" x2="238.78" y2="194.01" gradientUnits="userSpaceOnUse">
      <stop offset="0" stop-color="#b2d8b2"/>
      <stop offset="1" stop-color="#a7f192"/>
    </linearGradient>
    <linearGradient id="linear-gradient-2" x1="24.99" y1="186.82" x2="221.97" y2="186.82" gradientUnits="userSpaceOnUse">
      <stop offset="0" stop-color="#d8ae7e"/>
      <stop offset="1" stop-color="#ffe0b5"/>
    </linearGradient>
    <linearGradient id="linear-gradient-3" x1="59.61" y1="198.9" x2="176.7" y2="198.9" gradientUnits="userSpaceOnUse">
      <stop offset="0" stop-color="#d8ae7e"/>
      <stop offset=".57" stop-color="#edc99b"/>
      <stop offset="1" stop-color="#ffe0b5"/>
    </linearGradient>
  </defs>
  <rect class="cls-10" x="3.37" width="240.21" height="338.83" rx="5" ry="5"/>
  <rect class="cls-11" x="8.18" y="54.96" width="230.6" height="278.1"/>
  <path class="cls-5" d="M94.33,292.22c.11.31,1.93,6.01-1.81,10.46-2.73,3.25-6.55,3.61-7.32,3.67-1.34.14-3.94.22-6.79-1.03-4.91-2.17-6.79-6.67-7.19-7.7-.51.48-3.52,3.27-8.13,3.04-4.81-.25-7.57-3.59-7.99-4.12.22-1.37.77-3.66,2.35-6.01,2.41-3.58,5.71-5.08,7.05-5.6"/>
  <path class="cls-5" d="M150.09,294.79c-.11.31-1.93,6.01,1.81,10.46,2.73,3.25,6.55,3.61,7.32,3.67,1.34.14,3.94.22,6.79-1.03,4.91-2.17,6.79-6.67,7.19-7.7.51.48,3.52,3.27,8.13,3.04,4.81-.25,7.57-3.59,7.99-4.12-.22-1.37-.77-3.66-2.35-6.01-2.41-3.58-5.71-5.08-7.05-5.6"/>
  <path class="cls-6" d="M183.42,214.59c1.86,8.28,3.43,15.13,4.57,19.98,3.17,13.61,4.05,16.95,4.23,22.88.19,6.22.3,12.6-3.23,19.44-2.72,5.29-6.5,8.68-9.06,10.6-2.31,1.98-6.78,5.27-13.3,7.02-7.35,1.98-13.51.98-16.53.28-10.21-2.7-20.43-5.4-30.64-8.1-4.65,1.46-10.5,2.88-17.33,3.57-6.33.65-11.31.4-15.45.2-3.33-.15-7.25-.35-12.36-1.22-5.16-.87-9.44-2.06-12.63-3.1-6.85-7.58-9.26-14.86-10.35-19.18-3.12-12.4.06-22.6,1.48-26.46,2.42-6.01,4.78-13.3,6.39-21.74.85-4.47,1.37-8.68,1.67-12.55-26.28-24.29-38.12-38.27-35.53-41.92,2.26-3.19,15.49,1.47,39.7,13.97.3-10.47.94-18.96,1.51-24.99.5-5.26.86-7.76,1.11-9.43.52-3.46,2.22-14.24,5.44-20.66.25-.49,1.79-3.52,3.9-7.42.93-1.73,1.87-3.44,2.15-3.92,3.23-5.65,10.5-9.71,13.5-11.34,4.28-2.33,11.4-5.57,21.16-7.15-.34-.68-2.51-5.2-.41-10.06,1.32-3.07,3.66-4.68,4.64-5.27,3.07,2.95,6.14,5.89,9.21,8.84,1.86-2.09,4.65-4.68,8.53-6.82,1.64-.9,3.21-1.59,4.64-2.09,1.15.33,1.84.9,2.21,1.28,1.64,1.67,1.91,4.57.74,7.35-.98,2.35-1.97,4.69-2.95,7.03,4.53,1.07,19.81,5.29,30.63,20.05,7.09,9.66,9.04,19.44,9.68,24.5,1.04,6.11,1.82,13.89,1.41,22.88-.39,8.54-1.74,15.88-3.23,21.68,4.02-2.23,9.36-5.11,15.72-8.31,15.92-8,23.94-11.96,26.77-9.91,5.67,4.11-33.24,48-37.99,50.08Z"/>
  <path class="cls-4" d="M73.71,153.57c1.63,16.53.53,29.76-.81,38.88-1.3,8.85-2.63,11.85-5.31,21.75-.51,1.9-3.17,10.71-4.97,20.58-.78,4.28-1.54,9.53-2.02,15.59.59,4.71,2.82,17.15,12.7,23.9,5.45,3.72,11.54,5.35,18.94,5.67,5.88.25,11.8.52,17.74.81,6.55.32,13.07.66,19.55,1.01,7.42.16,19.02.27,27.01-.41.43-.04,1-.09,1.69-.18,0,0,.69-.1,1.33-.22,1.11-.21,5.62-2.99,11.29-7.49,2.37-4.65,4.71-11.01,4.84-18.63.07-4.52-.78-7.31-2.62-17.21-1.22-6.55-2.41-13.1-3.63-19.64-1.38-7.45-3.07-18.36-4.03-32.4,1.55-8.22,2.99-21.74-.6-37.67-2.31-10.24-6.02-18.42-9.27-24.3-3.08-3.3-6.23-4.9-8.06-5.67-2.56-1.07-8.24-3.43-13.7-.81-2.76,1.33-4.41,3.42-5.24,4.66-1.33,2.43-2.66,5.27-3.83,8.51-2.43,6.74-3.29,12.87-3.54,17.59-2.31-.33-4.62-.65-6.94-.98h-3.63c-.06-3.78-.45-8.41-1.61-13.57-.89-3.97-2.06-7.43-3.22-10.33-1.12-.92-4.71-3.63-10.08-3.85-5.16-.21-8.85,2.02-10.08,2.84-2.41,1.98-6.13,5.57-8.87,11.14-4.37,8.87-3.53,17.2-3.02,20.45Z"/>
  <path class="cls-7" d="M82.3,142.4c.34-1.15,1.33-3.94,4.05-6.02.72-.55,5.06-3.88,9.45-1.88,3.18,1.44,5.16,5.11,4.84,9.11"/>
  <path class="cls-7" d="M131.93,143.27c.34-1.15,1.33-3.94,4.05-6.02.72-.55,5.06-3.88,9.45-1.88,3.18,1.44,5.16,5.11,4.84,9.11"/>
  <path class="cls-8" d="M125.92,149.72c-.16-.77-.87-.92-11.02-1.02-7.05-.07-8.18-.02-8.43,1.02-.53,2.28,3.48,8.33,8.1,9.2,6,1.13,11.86-6.66,11.34-9.2Z"/>
  <rect class="cls-3" x="8.18" y="5.78" width="230.6" height="49.18"/>
  <path class="cls-10" d="M165.11,5.17h74.9v15.76h-71.9c-1.66,0-3-1.34-3-3V5.17h0Z"/>
  <text class="cls-1" transform="translate(49.96 44.04) scale(1.07 1)"><tspan x="0" y="0">Leela</tspan></text>
  <text class="cls-2" transform="translate(167.57 15.04) scale(1.07 1)"><tspan x="0" y="0">Uncommon</tspan></text>
  <line class="cls-9" x1="5.96" y1="54.96" x2="243.59" y2="54.96"/>
</svg>