<?xml version="1.0" encoding="UTF-8"?>
<svg id="Outline" xmlns="http://www.w3.org/2000/svg" width="240" height="338" xmlns:xlink="http://www.w3.org/1999/xlink" viewBox="0 0 240 338">
  <defs>
    <style>
      .cls-1 {
        stroke-width: 2px;
      }

      .cls-1, .cls-2 {
        fill: #fbae00;
      }

      .cls-1, .cls-2, .cls-3, .cls-4 {
        stroke-linecap: round;
        stroke-linejoin: round;
      }

      .cls-1, .cls-4 {
        stroke: #414042;
      }

      .cls-5 {
        fill: #fff;
      }

      .cls-2, .cls-3 {
        stroke: #fff;
      }

      .cls-6 {
        stroke: #9ccfb1;
        stroke-miterlimit: 10;
        stroke-width: 5px;
      }

      .cls-6, .cls-4 {
        fill: none;
      }

      .cls-3 {
        fill: url(#Romana);
      }

      .cls-7 {
        fill: #9ccfb1;
      }

      .cls-4 {
        stroke-width: 3px;
      }

      .cls-8 {
        fill: url(#linear-gradient);
      }
    </style>
    <linearGradient id="linear-gradient" x1="5" y1="143.17" x2="235" y2="143.17" gradientTransform="translate(0 337.17) scale(1 -1)" gradientUnits="userSpaceOnUse">
      <stop offset="0" stop-color="#4682e4"/>
      <stop offset="1" stop-color="#1e90ff"/>
    </linearGradient>
    <linearGradient id="Romana" x1="21.8" y1="186.41" x2="218.78" y2="186.41" gradientUnits="userSpaceOnUse">
      <stop offset="0" stop-color="#ffcce5"/>
      <stop offset=".5" stop-color="#c5cae9"/>
      <stop offset="1" stop-color="#e0bbe4"/>
    </linearGradient>
  </defs>
  <path class="cls-7" d="M5,0h230.01c2.76,0,5,2.23,5,4.99v328.02c0,2.75-2.24,4.99-5,4.99H5c-2.76,0-5-2.23-5-4.99V4.99C0,2.23,2.24,0,5,0Z"/>
  <rect class="cls-8" x="5" y="55" width="230" height="278"/>
  <g>
    <path class="cls-2" d="M91.13,290.81c.11.31,1.93,6.01-1.81,10.46-2.73,3.25-6.55,3.61-7.32,3.67-1.34.14-3.94.22-6.79-1.03-4.91-2.17-6.79-6.67-7.19-7.7-.51.48-3.52,3.27-8.13,3.04-4.81-.25-7.57-3.59-7.99-4.12.22-1.37.77-3.66,2.35-6.01,2.41-3.58,5.71-5.08,7.05-5.6"/>
    <path class="cls-2" d="M146.89,294.38c-.11.31-1.93,6.01,1.81,10.46,2.73,3.25,6.55,3.61,7.32,3.67,1.34.14,3.94.22,6.79-1.03,4.91-2.17,6.79-6.67,7.19-7.7.51.48,3.52,3.27,8.13,3.04,4.81-.25,7.57-3.59,7.99-4.12-.22-1.37-.77-3.66-2.35-6.01-2.41-3.58-5.71-5.08-7.05-5.6"/>
    <path class="cls-3" d="M180.22,214.18c1.86,8.28,3.43,15.13,4.57,19.98,3.17,13.61,4.05,16.95,4.23,22.88.19,6.22.3,12.6-3.23,19.44-2.72,5.29-6.5,8.68-9.06,10.6-2.31,1.98-6.78,5.27-13.3,7.02-7.35,1.98-13.51.98-16.53.28-7.24-1.69-14.64-3.4-21.71-5.69s-12.57-1.36-19.62-.03c-14.04,2.65-28.68,2.1-42.49-1.58-8.68-2.31-12.89-12.37-14.94-20.51-3.12-12.4.06-22.6,1.48-26.46,2.42-6.01,4.78-13.3,6.39-21.74.85-4.47,1.37-8.68,1.67-12.55-26.28-24.29-38.12-38.27-35.53-41.92,2.26-3.19,15.49,1.47,39.7,13.97.61-21.51,1.1-46.23,13.23-64.87,7.7-11.84,22.01-17.86,35.55-20.04-.34-.68-2.51-5.2-.41-10.06.86-1.99,2.33-3.71,4.11-4.95.16-.11.33-.22.52-.2.17.02.31.15.44.27,2.91,2.83,5.85,5.63,8.78,8.45,1.86-2.09,4.65-4.68,8.53-6.82,1.64-.9,3.21-1.59,4.64-2.09,1.15.33,1.84.9,2.21,1.28,1.64,1.67,1.91,4.57.74,7.35-.98,2.35-1.97,4.69-2.95,7.03,4.53,1.07,19.81,5.29,30.63,20.05,7.09,9.66,9.04,19.44,9.68,24.5,1.04,6.11,1.82,13.89,1.41,22.88-.39,8.54-1.74,15.88-3.23,21.68,4.02-2.23,9.36-5.11,15.72-8.31,15.92-8,23.94-11.96,26.77-9.91,5.67,4.11-33.24,48-37.99,50.08h-.01Z"/>
    <path class="cls-5" d="M72.23,154.12c.16,3.38.5,6.75.81,10.04.85,9.19-.01,18.78-1.35,27.91-1.27,8.64-2.57,11.57-5.19,21.23-3.07,11.34-7.08,23.64-6.5,35.5.43,8.74,4.73,18.13,12.08,23.15,5.32,3.63,11.27,5.23,18.5,5.54,5.74.25,11.52.51,17.32.79,6.4.31,12.76.64,19.09.99,9.28.51,18.92,1.28,28.02-1.09,11.29-2.94,16.31-12.53,16.65-23.71.2-6.58-1.32-12.8-2.45-19.22-1.07-6.07-2.12-12.19-3.25-18.27-2.16-11.62-3.82-23.43-3.33-35.28.78-18.74,1.34-41.42-11.03-56.99-4.26-5.36-11.85-8.98-18.62-6.5-6.13,2.24-8.85,8.83-10.67,14.57-.55,1.72-5.32,15.5-3.5,15.75-2.26-.32-2.6.24-4.85-.08,0,0-5.27.28-5.41.28-.72,0-3.1-17.29-3.39-18.72-.58-2.84-1.68-5.74-3.94-7.55-1.61-1.3-3.68-1.92-5.74-2.14-9.32-.98-16.22,6.03-20.05,13.8-3.08,6.25-3.51,13.12-3.19,19.98v.02Z"/>
    <path class="cls-4" d="M80.1,141.99c.34-1.15,1.33-3.94,4.05-6.02.72-.55,5.06-3.88,9.45-1.88,3.18,1.44,5.16,5.11,4.84,9.11"/>
    <path class="cls-4" d="M127.98,141.99c.34-1.15,1.33-3.94,4.05-6.02.72-.55,5.06-3.88,9.45-1.88,3.18,1.44,5.16,5.11,4.84,9.11"/>
    <path class="cls-1" d="M122.72,149.31c-.16-.77-.87-.92-11.02-1.02-7.05-.07-8.18-.02-8.43,1.02-.53,2.28,3.48,8.33,8.1,9.2,6,1.13,11.86-6.66,11.34-9.2h.01Z"/>
  </g>
  <rect class="cls-5" x="5" y="5.5" width="230" height="49"/>
  <path class="cls-7" d="M148.5,5h87v16h-83.3c-2.05,0-3.7-1.36-3.7-3.05V5h0Z"/>
  <line class="cls-6" x1="2.5" y1="54" x2="237.5" y2="54"/>
  <g>
    <path d="M28.7,44.94l-4.63-8.48h-1.3v8.48h-5.43v-22.46h9.11c1.76,0,3.25.31,4.49.93,1.24.62,2.16,1.47,2.78,2.54.61,1.08.92,2.28.92,3.6,0,1.49-.42,2.83-1.25,4-.84,1.17-2.07,2.01-3.7,2.5l5.14,8.9h-6.13ZM22.77,32.59h3.36c.99,0,1.74-.25,2.24-.74.5-.49.75-1.18.75-2.08s-.25-1.52-.75-2.02c-.5-.49-1.24-.74-2.24-.74h-3.36v5.57Z"/>
    <path d="M41.42,44.08c-1.39-.75-2.48-1.81-3.27-3.2-.79-1.39-1.19-3.01-1.19-4.86s.4-3.45,1.21-4.85c.8-1.4,1.9-2.47,3.3-3.22,1.4-.75,2.96-1.12,4.7-1.12s3.3.37,4.7,1.12c1.4.75,2.5,1.82,3.3,3.22.8,1.4,1.21,3.01,1.21,4.85s-.41,3.45-1.22,4.85c-.81,1.4-1.93,2.47-3.33,3.22-1.41.75-2.98,1.12-4.71,1.12s-3.3-.37-4.68-1.12ZM48.75,39.31c.73-.77,1.1-1.87,1.1-3.3s-.35-2.53-1.06-3.3-1.58-1.15-2.62-1.15-1.94.38-2.63,1.14c-.7.76-1.05,1.86-1.05,3.31s.34,2.53,1.03,3.3c.69.77,1.55,1.15,2.59,1.15s1.92-.38,2.65-1.15Z"/>
    <path d="M86.11,28.91c1.3,1.34,1.95,3.21,1.95,5.6v10.43h-5.4v-9.7c0-1.15-.3-2.04-.9-2.67-.6-.63-1.43-.94-2.49-.94s-1.89.31-2.49.94c-.6.63-.9,1.52-.9,2.67v9.7h-5.4v-9.7c0-1.15-.3-2.04-.9-2.67-.6-.63-1.44-.94-2.49-.94s-1.89.31-2.49.94c-.6.63-.9,1.52-.9,2.67v9.7h-5.43v-17.86h5.43v2.24c.55-.75,1.27-1.34,2.16-1.78.89-.44,1.89-.66,3.02-.66,1.33,0,2.52.29,3.57.86,1.05.58,1.87,1.4,2.46,2.46.61-.98,1.45-1.78,2.51-2.4,1.06-.62,2.21-.93,3.46-.93,2.2,0,3.95.67,5.25,2.02Z"/>
    <path d="M91.83,31.15c.69-1.39,1.62-2.45,2.81-3.2,1.19-.75,2.51-1.12,3.97-1.12,1.25,0,2.34.26,3.29.77.94.51,1.67,1.18,2.17,2.02v-2.53h5.43v17.86h-5.43v-2.53c-.53.83-1.26,1.5-2.21,2.02-.94.51-2.04.77-3.29.77-1.44,0-2.75-.38-3.94-1.14-1.18-.76-2.12-1.83-2.81-3.23-.69-1.4-1.03-3.01-1.03-4.85s.34-3.44,1.03-4.83ZM102.94,32.78c-.75-.79-1.67-1.18-2.75-1.18s-2,.39-2.75,1.17-1.13,1.85-1.13,3.22.38,2.45,1.13,3.25c.75.8,1.67,1.2,2.75,1.2s1.99-.39,2.75-1.18c.75-.79,1.13-1.87,1.13-3.23s-.38-2.44-1.13-3.23Z"/>
    <path d="M129.19,28.93c1.24,1.35,1.86,3.22,1.86,5.58v10.43h-5.4v-9.7c0-1.19-.31-2.12-.92-2.78-.61-.66-1.44-.99-2.48-.99s-1.86.33-2.48.99c-.61.66-.92,1.59-.92,2.78v9.7h-5.43v-17.86h5.43v2.37c.55-.79,1.29-1.41,2.22-1.87.93-.46,1.98-.69,3.14-.69,2.07,0,3.73.68,4.97,2.03Z"/>
    <path d="M134.78,31.15c.69-1.39,1.62-2.45,2.81-3.2,1.19-.75,2.51-1.12,3.97-1.12,1.25,0,2.34.26,3.29.77.94.51,1.67,1.18,2.17,2.02v-2.53h5.43v17.86h-5.43v-2.53c-.53.83-1.26,1.5-2.21,2.02-.94.51-2.04.77-3.29.77-1.44,0-2.75-.38-3.94-1.14-1.18-.76-2.12-1.83-2.81-3.23-.69-1.4-1.03-3.01-1.03-4.85s.34-3.44,1.03-4.83ZM145.89,32.78c-.75-.79-1.67-1.18-2.75-1.18s-2,.39-2.75,1.17-1.13,1.85-1.13,3.22.38,2.45,1.13,3.25c.75.8,1.67,1.2,2.75,1.2s1.99-.39,2.75-1.18c.75-.79,1.13-1.87,1.13-3.23s-.38-2.44-1.13-3.23Z"/>
  </g>
  <g>
    <path class="cls-5" d="M156.18,5.9v5.88c0,.59.14,1.04.43,1.36.29.32.71.48,1.26.48s.98-.16,1.28-.48.44-.77.44-1.36v-5.88h2.38v5.87c0,.88-.19,1.62-.56,2.23-.37.61-.87,1.06-1.49,1.37-.62.31-1.32.46-2.09.46s-1.46-.15-2.06-.46-1.09-.76-1.44-1.37-.53-1.36-.53-2.23v-5.87h2.38Z"/>
    <path class="cls-5" d="M170.54,8.72c.54.59.81,1.41.81,2.44v4.56h-2.36v-4.24c0-.52-.13-.93-.4-1.22-.27-.29-.63-.43-1.08-.43s-.81.15-1.08.43c-.27.29-.4.7-.4,1.22v4.24h-2.38v-7.81h2.38v1.04c.24-.35.57-.62.97-.82.41-.2.87-.3,1.38-.3.91,0,1.63.3,2.17.89Z"/>
    <path class="cls-5" d="M173.02,9.69c.33-.61.79-1.07,1.38-1.4s1.26-.49,2.02-.49c.97,0,1.78.26,2.44.77.65.51,1.08,1.24,1.28,2.17h-2.53c-.21-.6-.62-.9-1.24-.9-.43,0-.78.17-1.04.51-.26.34-.39.83-.39,1.46s.13,1.12.39,1.46c.26.34.61.51,1.04.51.61,0,1.02-.3,1.24-.9h2.53c-.2.92-.63,1.63-1.29,2.16-.66.52-1.47.78-2.43.78-.76,0-1.43-.16-2.02-.49s-1.05-.79-1.38-1.4c-.33-.61-.49-1.32-.49-2.13s.16-1.52.49-2.13Z"/>
    <path class="cls-5" d="M182.88,15.35c-.61-.33-1.08-.79-1.43-1.4-.35-.61-.52-1.32-.52-2.13s.18-1.51.53-2.12c.35-.61.83-1.08,1.44-1.41.61-.33,1.3-.49,2.06-.49s1.44.16,2.06.49,1.09.8,1.44,1.41.53,1.32.53,2.12-.18,1.51-.53,2.12c-.36.61-.84,1.08-1.46,1.41-.62.33-1.3.49-2.06.49s-1.44-.16-2.05-.49ZM186.09,13.26c.32-.34.48-.82.48-1.44s-.16-1.11-.47-1.44c-.31-.34-.69-.5-1.15-.5s-.85.17-1.15.5c-.31.33-.46.81-.46,1.45s.15,1.11.45,1.44c.3.34.68.5,1.13.5s.84-.17,1.16-.5Z"/>
    <path class="cls-5" d="M202.44,8.71c.57.59.86,1.4.86,2.45v4.56h-2.36v-4.24c0-.5-.13-.89-.4-1.17-.26-.27-.63-.41-1.09-.41s-.83.14-1.09.41c-.26.28-.4.67-.4,1.17v4.24h-2.36v-4.24c0-.5-.13-.89-.4-1.17-.26-.27-.63-.41-1.09-.41s-.83.14-1.09.41c-.26.28-.4.67-.4,1.17v4.24h-2.38v-7.81h2.38v.98c.24-.33.56-.59.94-.78.39-.19.83-.29,1.32-.29.58,0,1.1.13,1.56.38.46.25.82.61,1.08,1.08.27-.43.63-.78,1.1-1.05.46-.27.97-.41,1.51-.41.96,0,1.73.29,2.3.88Z"/>
    <path class="cls-5" d="M217.14,8.71c.57.59.85,1.4.85,2.45v4.56h-2.36v-4.24c0-.5-.13-.89-.4-1.17-.26-.27-.63-.41-1.09-.41s-.83.14-1.09.41c-.26.28-.4.67-.4,1.17v4.24h-2.36v-4.24c0-.5-.13-.89-.4-1.17-.26-.27-.63-.41-1.09-.41s-.83.14-1.09.41c-.26.28-.4.67-.4,1.17v4.24h-2.38v-7.81h2.38v.98c.24-.33.55-.59.94-.78.39-.19.83-.29,1.32-.29.58,0,1.1.13,1.56.38.46.25.82.61,1.08,1.08.27-.43.63-.78,1.1-1.05.46-.27.97-.41,1.51-.41.96,0,1.73.29,2.3.88Z"/>
    <path class="cls-5" d="M221.14,15.35c-.61-.33-1.08-.79-1.43-1.4-.35-.61-.52-1.32-.52-2.13s.18-1.51.53-2.12c.35-.61.83-1.08,1.44-1.41.61-.33,1.3-.49,2.05-.49s1.44.16,2.06.49,1.09.8,1.44,1.41.53,1.32.53,2.12-.18,1.51-.54,2.12c-.36.61-.84,1.08-1.46,1.41-.62.33-1.3.49-2.06.49s-1.44-.16-2.05-.49ZM224.35,13.26c.32-.34.48-.82.48-1.44s-.16-1.11-.46-1.44c-.31-.34-.69-.5-1.15-.5s-.85.17-1.15.5c-.31.33-.46.81-.46,1.45s.15,1.11.45,1.44.68.5,1.13.5.84-.17,1.16-.5Z"/>
    <path class="cls-5" d="M235.41,8.72c.54.59.81,1.41.81,2.44v4.56h-2.36v-4.24c0-.52-.13-.93-.4-1.22-.27-.29-.63-.43-1.08-.43s-.81.15-1.08.43c-.27.29-.4.7-.4,1.22v4.24h-2.38v-7.81h2.38v1.04c.24-.35.56-.62.97-.82.41-.2.87-.3,1.38-.3.91,0,1.63.3,2.17.89Z"/>
  </g>
</svg>