<?xml version="1.0" encoding="UTF-8"?>
<svg id="Outline" xmlns="http://www.w3.org/2000/svg" width="244.38" height="338.83" xmlns:xlink="http://www.w3.org/1999/xlink" viewBox="0 0 244.38 338.83">
  <defs>
    <style>
      .cls-1 {
        stroke-width: 2px;
      }

      .cls-1, .cls-2 {
        fill: #fbae00;
      }

      .cls-1, .cls-2, .cls-3, .cls-4 {
        stroke-linecap: round;
        stroke-linejoin: round;
      }

      .cls-1, .cls-4 {
        stroke: #414042;
      }

      .cls-5 {
        fill: #fff;
      }

      .cls-2, .cls-3 {
        stroke: #fff;
      }

      .cls-3 {
        fill: url(#linear-gradient-2);
      }

      .cls-6 {
        stroke: #939598;
        stroke-miterlimit: 10;
        stroke-width: 5px;
      }

      .cls-6, .cls-4 {
        fill: none;
      }

      .cls-7 {
        fill: #939598;
      }

      .cls-4 {
        stroke-width: 3px;
      }

      .cls-8 {
        fill: url(#linear-gradient);
      }
    </style>
    <linearGradient id="linear-gradient" x1="8.18" y1="194.01" x2="238.78" y2="194.01" gradientUnits="userSpaceOnUse">
      <stop offset="0" stop-color="#4682e4"/>
      <stop offset=".33" stop-color="#3d84e9"/>
      <stop offset=".85" stop-color="#268df9"/>
      <stop offset="1" stop-color="#1e90ff"/>
    </linearGradient>
    <linearGradient id="linear-gradient-2" x1="24.99" y1="186.82" x2="221.97" y2="186.82" gradientUnits="userSpaceOnUse">
      <stop offset="0" stop-color="blue"/>
      <stop offset=".5" stop-color="#87ceeb"/>
      <stop offset="1" stop-color="#fff"/>
    </linearGradient>
  </defs>
  <rect class="cls-7" x="3.37" width="240.21" height="338.83" rx="5" ry="5"/>
  <rect class="cls-8" x="8.18" y="54.96" width="230.6" height="278.1"/>
  <g>
    <path class="cls-2" d="M94.33,291.22c.11.31,1.93,6.01-1.81,10.46-2.73,3.25-6.55,3.61-7.32,3.67-1.34.14-3.94.22-6.79-1.03-4.91-2.17-6.79-6.67-7.19-7.7-.51.48-3.52,3.27-8.13,3.04-4.81-.25-7.57-3.59-7.99-4.12.22-1.37.77-3.66,2.35-6.01,2.41-3.58,5.71-5.08,7.05-5.6"/>
    <path class="cls-2" d="M150.09,294.79c-.11.31-1.93,6.01,1.81,10.46,2.73,3.25,6.55,3.61,7.32,3.67,1.34.14,3.94.22,6.79-1.03,4.91-2.17,6.79-6.67,7.19-7.7.51.48,3.52,3.27,8.13,3.04,4.81-.25,7.57-3.59,7.99-4.12-.22-1.37-.77-3.66-2.35-6.01-2.41-3.58-5.71-5.08-7.05-5.6"/>
    <path class="cls-3" d="M183.42,214.59c1.86,8.28,3.43,15.13,4.57,19.98,3.17,13.61,4.05,16.95,4.23,22.88.19,6.22.3,12.6-3.23,19.44-2.72,5.29-6.5,8.68-9.06,10.6-2.31,1.98-6.78,5.27-13.3,7.02-7.35,1.98-13.51.98-16.53.28-7.24-1.69-14.64-3.4-21.71-5.69s-12.57-1.36-19.62-.03c-14.04,2.65-28.68,2.1-42.49-1.58-8.68-2.31-12.89-12.37-14.94-20.51-3.12-12.4.06-22.6,1.48-26.46,2.42-6.01,4.78-13.3,6.39-21.74.85-4.47,1.37-8.68,1.67-12.55-26.28-24.29-38.12-38.27-35.53-41.92,2.26-3.19,15.49,1.47,39.7,13.97.61-21.51,1.1-46.23,13.23-64.87,7.7-11.84,22.01-17.86,35.55-20.04-.34-.68-2.51-5.2-.41-10.06.86-1.99,2.33-3.71,4.11-4.95.16-.11.33-.22.52-.2.17.02.31.15.44.27,2.91,2.83,5.85,5.63,8.78,8.45,1.86-2.09,4.65-4.68,8.53-6.82,1.64-.9,3.21-1.59,4.64-2.09,1.15.33,1.84.9,2.21,1.28,1.64,1.67,1.91,4.57.74,7.35-.98,2.35-1.97,4.69-2.95,7.03,4.53,1.07,19.81,5.29,30.63,20.05,7.09,9.66,9.04,19.44,9.68,24.5,1.04,6.11,1.82,13.89,1.41,22.88-.39,8.54-1.74,15.88-3.23,21.68,4.02-2.23,9.36-5.11,15.72-8.31,15.92-8,23.94-11.96,26.77-9.91,5.67,4.11-33.24,48-37.99,50.08Z"/>
    <path class="cls-5" d="M75.43,154.53c.16,3.38.5,6.75.81,10.04.85,9.19-.01,18.78-1.35,27.91-1.27,8.64-2.57,11.57-5.19,21.23-3.07,11.34-7.08,23.64-6.5,35.5.43,8.74,4.73,18.13,12.08,23.15,5.32,3.63,11.27,5.23,18.5,5.54,5.74.25,11.52.51,17.32.79,6.4.31,12.76.64,19.09.99,9.28.51,18.92,1.28,28.02-1.09,11.29-2.94,16.31-12.53,16.65-23.71.2-6.58-1.32-12.8-2.45-19.22-1.07-6.07-2.12-12.19-3.25-18.27-2.16-11.62-3.82-23.43-3.33-35.28.78-18.74,1.34-41.42-11.03-56.99-4.26-5.36-11.85-8.98-18.62-6.5-6.13,2.24-8.85,8.83-10.67,14.57-.55,1.72-5.32,15.5-3.5,15.75-2.26-.32-2.6.24-4.85-.08,0,0-5.27.28-5.41.28-.72,0-3.1-17.29-3.39-18.72-.58-2.84-1.68-5.74-3.94-7.55-1.61-1.3-3.68-1.92-5.74-2.14-9.32-.98-16.22,6.03-20.05,13.8-3.08,6.25-3.51,13.12-3.19,19.98Z"/>
    <path class="cls-4" d="M83.3,142.4c.34-1.15,1.33-3.94,4.05-6.02.72-.55,5.06-3.88,9.45-1.88,3.18,1.44,5.16,5.11,4.84,9.11"/>
    <path class="cls-4" d="M131.18,142.4c.34-1.15,1.33-3.94,4.05-6.02.72-.55,5.06-3.88,9.45-1.88,3.18,1.44,5.16,5.11,4.84,9.11"/>
    <path class="cls-1" d="M125.92,149.72c-.16-.77-.87-.92-11.02-1.02-7.05-.07-8.18-.02-8.43,1.02-.53,2.28,3.48,8.33,8.1,9.2,6,1.13,11.86-6.66,11.34-9.2Z"/>
  </g>
  <rect class="cls-5" x="8.18" y="5.78" width="230.6" height="49.18"/>
  <path class="cls-7" d="M158.79,5.17h81.22v15.76h-78.22c-1.66,0-3-1.34-3-3V5.17h0Z"/>
  <line class="cls-6" x1="5.96" y1="54.96" x2="243.59" y2="54.96"/>
  <g>
    <path d="M19.59,41.07c-1.58-1.17-2.43-2.84-2.55-5.02h6.27c.06.74.28,1.28.66,1.62.38.34.87.51,1.47.51.54,0,.98-.14,1.33-.41.35-.27.52-.65.52-1.12,0-.62-.29-1.1-.87-1.44-.58-.34-1.52-.72-2.82-1.14-1.38-.46-2.5-.9-3.35-1.33s-1.59-1.06-2.22-1.89c-.63-.83-.95-1.92-.95-3.25s.34-2.52,1.02-3.5c.68-.97,1.62-1.71,2.82-2.21,1.2-.5,2.56-.75,4.08-.75,2.46,0,4.43.58,5.9,1.73,1.47,1.15,2.25,2.77,2.35,4.84h-6.39c-.02-.64-.22-1.12-.58-1.44-.37-.32-.85-.48-1.43-.48-.44,0-.8.13-1.08.39-.28.26-.42.63-.42,1.11,0,.4.15.75.47,1.04.31.29.69.54,1.15.75.46.21,1.14.48,2.04.79,1.34.46,2.44.92,3.31,1.37.87.45,1.62,1.08,2.25,1.89s.94,1.84.94,3.08-.31,2.39-.94,3.39-1.54,1.79-2.73,2.37c-1.19.58-2.6.87-4.21.87-2.46,0-4.48-.58-6.06-1.75Z"/>
    <path d="M36.39,29.63c.72-1.3,1.73-2.3,3.02-3,1.29-.7,2.76-1.05,4.43-1.05,2.14,0,3.94.58,5.4,1.75,1.46,1.17,2.4,2.81,2.82,4.91h-6.24c-.36-1.1-1.06-1.65-2.1-1.65-.74,0-1.33.31-1.75.91-.43.61-.65,1.51-.65,2.69s.21,2.08.65,2.7c.43.62,1.01.93,1.75.93,1.06,0,1.76-.55,2.1-1.65h6.24c-.42,2.08-1.36,3.71-2.82,4.89-1.46,1.18-3.26,1.77-5.4,1.77-1.66,0-3.14-.35-4.43-1.05s-2.29-1.7-3.02-3c-.72-1.3-1.08-2.83-1.08-4.59s.36-3.26,1.08-4.56Z"/>
    <path d="M54.47,29.63c.63-1.3,1.49-2.3,2.58-3,1.09-.7,2.3-1.05,3.65-1.05,1.16,0,2.16.23,3,.69.84.46,1.49,1.08,1.95,1.86v-2.34h5.88v16.83h-5.88v-2.34c-.46.78-1.12,1.4-1.96,1.86-.85.46-1.85.69-2.98.69-1.34,0-2.56-.35-3.65-1.05-1.09-.7-1.95-1.71-2.58-3.02-.63-1.31-.94-2.83-.94-4.58s.31-3.26.94-4.56ZM64.76,31.64c-.59-.62-1.32-.93-2.18-.93s-1.61.31-2.19.92c-.58.61-.87,1.47-.87,2.56s.29,1.94.87,2.56c.58.63,1.31.95,2.19.95s1.58-.31,2.18-.93c.59-.62.88-1.48.88-2.58s-.29-1.93-.88-2.55Z"/>
    <path d="M83.16,26.48c.94-.56,1.95-.84,3.03-.84v6.27h-1.65c-1.28,0-2.23.25-2.85.75-.62.5-.93,1.37-.93,2.61v7.35h-5.88v-16.83h5.88v2.97c.66-.96,1.46-1.72,2.4-2.28Z"/>
    <path d="M94.17,20.42v22.2h-5.88v-22.2h5.88Z"/>
    <path d="M98,23.37c-.63-.57-.94-1.28-.94-2.15s.31-1.61.94-2.19c.63-.58,1.46-.87,2.5-.87s1.85.29,2.48.87c.63.58.94,1.31.94,2.19s-.31,1.58-.94,2.15c-.63.57-1.46.85-2.48.85s-1.88-.28-2.5-.85ZM103.41,25.79v16.83h-5.88v-16.83h5.88Z"/>
    <path d="M110.09,41.78c-1.33-.7-2.38-1.7-3.13-3-.76-1.3-1.14-2.83-1.14-4.59s.38-3.26,1.16-4.56c.77-1.3,1.82-2.3,3.15-3,1.33-.7,2.83-1.05,4.51-1.05s3.18.35,4.51,1.05c1.33.7,2.38,1.7,3.15,3,.77,1.3,1.16,2.82,1.16,4.56s-.39,3.27-1.16,4.58c-.77,1.31-1.83,2.31-3.17,3.02s-2.85,1.05-4.53,1.05-3.18-.35-4.51-1.05ZM116.66,36.81c.55-.61.82-1.48.82-2.62s-.27-2.01-.82-2.61c-.55-.6-1.23-.9-2.03-.9s-1.47.3-2.01.9-.81,1.47-.81,2.61.26,2.04.78,2.64c.52.6,1.19.9,2.01.9s1.5-.3,2.06-.92Z"/>
    <path d="M141.48,27.57c1.14,1.29,1.71,3.04,1.71,5.23v9.81h-5.88v-9.03c0-.96-.25-1.71-.75-2.27-.5-.55-1.17-.83-2.01-.83s-1.57.28-2.07.83c-.5.55-.75,1.3-.75,2.27v9.03h-5.88v-16.83h5.88v2.4c.52-.76,1.22-1.37,2.1-1.84.88-.47,1.89-.71,3.03-.71,1.94,0,3.48.65,4.62,1.94Z"/>
    <path d="M146.9,23.37c-.63-.57-.94-1.28-.94-2.15s.31-1.61.94-2.19c.63-.58,1.46-.87,2.51-.87s1.84.29,2.47.87c.63.58.95,1.31.95,2.19s-.32,1.58-.95,2.15c-.63.57-1.46.85-2.47.85s-1.88-.28-2.51-.85ZM152.31,25.79v16.83h-5.88v-16.83h5.88Z"/>
  </g>
  <g>
    <path class="cls-5" d="M164.73,6.23v5.32c0,.49.12.88.34,1.14.23.27.58.4,1.05.4s.82-.14,1.06-.41.36-.65.36-1.14v-5.32h2.55v5.32c0,.84-.18,1.56-.53,2.15s-.84,1.04-1.45,1.34c-.61.3-1.29.45-2.04.45s-1.41-.15-2-.45c-.58-.3-1.04-.74-1.38-1.33-.33-.59-.5-1.31-.5-2.16v-5.32h2.54Z"/>
    <path class="cls-5" d="M178.26,8.87c.49.56.74,1.32.74,2.27v4.25h-2.55v-3.91c0-.42-.11-.74-.32-.98-.22-.24-.51-.36-.87-.36-.38,0-.68.12-.9.36s-.33.57-.33.98v3.91h-2.55v-7.29h2.55v1.04c.23-.33.53-.6.91-.8.38-.2.82-.31,1.31-.31.84,0,1.51.28,2,.84Z"/>
    <path class="cls-5" d="M180.46,9.76c.31-.56.75-1,1.31-1.3.56-.3,1.2-.45,1.92-.45.93,0,1.71.25,2.34.76s1.04,1.22,1.22,2.13h-2.7c-.16-.48-.46-.71-.91-.71-.32,0-.57.13-.76.4s-.28.65-.28,1.16.09.9.28,1.17.44.4.76.4c.46,0,.76-.24.91-.71h2.7c-.18.9-.59,1.61-1.22,2.12-.63.51-1.41.77-2.34.77-.72,0-1.36-.15-1.92-.45-.56-.3-.99-.74-1.31-1.3-.31-.56-.47-1.23-.47-1.99s.16-1.41.47-1.98Z"/>
    <path class="cls-5" d="M189.73,15.03c-.58-.3-1.03-.74-1.36-1.3-.33-.56-.49-1.23-.49-1.99s.17-1.41.5-1.98c.33-.56.79-1,1.37-1.3.58-.3,1.23-.45,1.96-.45s1.38.15,1.96.45c.58.3,1.03.74,1.37,1.3s.5,1.22.5,1.98-.17,1.42-.5,1.98c-.33.57-.79,1-1.37,1.31-.58.3-1.24.45-1.96.45s-1.38-.15-1.96-.45ZM192.58,12.88c.24-.26.36-.64.36-1.14s-.12-.87-.36-1.13c-.24-.26-.53-.39-.88-.39s-.64.13-.87.39c-.23.26-.35.64-.35,1.13s.11.88.34,1.14c.22.26.52.39.87.39s.65-.13.89-.4Z"/>
    <path class="cls-5" d="M208.26,8.87c.52.55.79,1.31.79,2.27v4.25h-2.55v-3.91c0-.39-.11-.69-.33-.91-.22-.22-.51-.32-.88-.32s-.67.11-.88.32c-.22.22-.33.52-.33.91v3.91h-2.55v-3.91c0-.39-.11-.69-.32-.91-.21-.22-.5-.32-.88-.32s-.68.11-.9.32c-.22.22-.33.52-.33.91v3.91h-2.55v-7.29h2.55v.96c.23-.31.52-.56.88-.75.36-.19.77-.28,1.24-.28.54,0,1.02.12,1.44.35.42.23.75.56.99.99.26-.4.6-.72,1.03-.97.42-.25.89-.37,1.4-.37.92,0,1.64.28,2.17.83Z"/>
    <path class="cls-5" d="M222.13,8.87c.52.55.79,1.31.79,2.27v4.25h-2.55v-3.91c0-.39-.11-.69-.33-.91-.22-.22-.51-.32-.88-.32s-.67.11-.88.32c-.22.22-.32.52-.32.91v3.91h-2.55v-3.91c0-.39-.11-.69-.32-.91-.21-.22-.5-.32-.88-.32s-.68.11-.9.32c-.22.22-.33.52-.33.91v3.91h-2.55v-7.29h2.55v.96c.23-.31.52-.56.88-.75.36-.19.77-.28,1.24-.28.54,0,1.02.12,1.44.35.42.23.75.56,1,.99.26-.4.6-.72,1.03-.97.42-.25.89-.37,1.4-.37.92,0,1.64.28,2.16.83Z"/>
    <path class="cls-5" d="M225.74,15.03c-.58-.3-1.03-.74-1.36-1.3-.33-.56-.49-1.23-.49-1.99s.17-1.41.5-1.98c.33-.56.79-1,1.37-1.3.58-.3,1.23-.45,1.96-.45s1.38.15,1.96.45c.58.3,1.03.74,1.37,1.3s.5,1.22.5,1.98-.17,1.42-.5,1.98c-.33.57-.79,1-1.37,1.31-.58.3-1.24.45-1.96.45s-1.38-.15-1.96-.45ZM228.59,12.88c.24-.26.36-.64.36-1.14s-.12-.87-.36-1.13c-.24-.26-.53-.39-.88-.39s-.64.13-.87.39c-.23.26-.35.64-.35,1.13s.11.88.34,1.14c.22.26.52.39.87.39s.65-.13.89-.4Z"/>
    <path class="cls-5" d="M239.35,8.87c.49.56.74,1.32.74,2.27v4.25h-2.55v-3.91c0-.42-.11-.74-.32-.98-.22-.24-.51-.36-.87-.36-.38,0-.68.12-.9.36s-.33.57-.33.98v3.91h-2.55v-7.29h2.55v1.04c.23-.33.53-.6.91-.8.38-.2.82-.31,1.31-.31.84,0,1.51.28,2,.84Z"/>
  </g>
</svg>