<?xml version="1.0" encoding="UTF-8"?>
<svg id="Outline" xmlns="http://www.w3.org/2000/svg" width="244.38" height="338.83" viewBox="0 0 244.38 338.83">
  <defs>
    <style>
      .cls-1 {
        stroke: #231f20;
        stroke-width: 2px;
      }

      .cls-1, .cls-2 {
        fill: #fff;
      }

      .cls-1, .cls-3 {
        stroke-miterlimit: 10;
      }

      .cls-3 {
        fill: none;
        stroke: #939598;
        stroke-width: 5px;
      }

      .cls-4 {
        fill: #939598;
      }
    </style>
  </defs>
  <rect class="cls-4" x="3.37" width="240.21" height="338.83" rx="5" ry="5"/>
  <rect class="cls-2" x="8.18" y="5.78" width="230.6" height="49.18"/>
  <path class="cls-4" d="M191.1,5.17h48.91v15.76h-45.91c-1.66,0-3-1.34-3-3V5.17h0Z"/>
  <line class="cls-3" x1="5.96" y1="54.96" x2="243.59" y2="54.96"/>
  <g>
    <path class="cls-2" d="M204.32,17.01l-2.24-4.16h-.34v4.16h-3.14V5.74h4.94c.91,0,1.67.16,2.3.47s1.1.75,1.42,1.3c.32.55.48,1.17.48,1.85,0,.77-.21,1.44-.63,2.02-.42.58-1.04,1-1.85,1.24l2.54,4.4h-3.5ZM201.75,10.71h1.55c.43,0,.75-.1.96-.3.21-.2.32-.5.32-.88,0-.36-.11-.65-.33-.86-.22-.21-.54-.31-.95-.31h-1.55v2.35Z"/>
    <path class="cls-2" d="M209.18,10.09c.34-.69.79-1.23,1.38-1.6s1.23-.56,1.94-.56c.62,0,1.15.12,1.6.37.45.25.79.58,1.04.99v-1.25h3.14v8.98h-3.14v-1.25c-.25.42-.59.75-1.05.99-.45.25-.98.37-1.59.37-.71,0-1.36-.19-1.94-.56-.58-.37-1.04-.91-1.38-1.61-.34-.7-.5-1.51-.5-2.44s.17-1.74.5-2.43ZM214.67,11.16c-.32-.33-.7-.5-1.16-.5s-.86.16-1.17.49c-.31.33-.46.78-.46,1.37s.15,1.03.46,1.37.7.5,1.17.5.84-.17,1.16-.5c.31-.33.47-.79.47-1.38s-.16-1.03-.47-1.36Z"/>
    <path class="cls-2" d="M224.48,8.41c.5-.3,1.04-.45,1.62-.45v3.34h-.88c-.68,0-1.19.13-1.52.4-.33.27-.5.73-.5,1.39v3.92h-3.14v-8.98h3.14v1.58c.35-.51.78-.92,1.28-1.22Z"/>
    <path class="cls-2" d="M235.74,13.16h-5.94c.03.49.17.86.41,1.1.24.24.55.36.92.36.52,0,.9-.23,1.12-.7h3.34c-.14.62-.41,1.17-.81,1.66-.4.49-.9.87-1.51,1.14-.61.28-1.28.42-2.02.42-.88,0-1.67-.19-2.36-.56-.69-.37-1.23-.91-1.62-1.6s-.58-1.51-.58-2.45.19-1.75.58-2.44.92-1.22,1.61-1.59c.69-.37,1.48-.56,2.38-.56s1.67.18,2.35.54,1.22.88,1.6,1.56.58,1.47.58,2.39c0,.25-.02.49-.05.74ZM232.59,11.64c0-.38-.13-.69-.38-.9s-.58-.33-.96-.33-.7.1-.94.31c-.25.21-.41.51-.48.92h2.77Z"/>
  </g>
  <g>
    <path d="M32.53,47.99h-5.88l-7.83-11.82v11.82h-5.88v-21.15h5.88l7.83,11.97v-11.97h5.88v21.15Z"/>
    <path d="M39.21,47.15c-1.33-.7-2.38-1.7-3.14-3-.76-1.3-1.14-2.83-1.14-4.59s.38-3.26,1.15-4.56c.77-1.3,1.82-2.3,3.15-3,1.33-.7,2.83-1.05,4.52-1.05s3.18.35,4.52,1.05c1.33.7,2.38,1.7,3.15,3,.77,1.3,1.15,2.82,1.15,4.56s-.39,3.27-1.15,4.58c-.77,1.31-1.83,2.31-3.17,3.02-1.34.7-2.85,1.05-4.53,1.05s-3.19-.35-4.51-1.05ZM45.78,42.19c.55-.61.83-1.48.83-2.62s-.28-2.01-.83-2.61c-.55-.6-1.23-.9-2.02-.9s-1.47.3-2.01.9c-.54.6-.81,1.47-.81,2.61s.26,2.04.78,2.64c.52.6,1.19.9,2.01.9s1.5-.3,2.06-.92Z"/>
    <path d="M64.9,42.98v5.01h-2.55c-4.3,0-6.45-2.13-6.45-6.39v-5.55h-2.07v-4.89h2.07v-4.08h5.91v4.08h3.06v4.89h-3.06v5.64c0,.46.1.79.31.99.21.2.56.3,1.06.3h1.71Z"/>
    <path d="M87.67,26.84v4.68h-8.46v3.72h6.24v4.47h-6.24v8.28h-5.88v-21.15h14.34Z"/>
    <path d="M93.48,47.15c-1.33-.7-2.38-1.7-3.14-3-.76-1.3-1.14-2.83-1.14-4.59s.38-3.26,1.15-4.56c.77-1.3,1.82-2.3,3.15-3,1.33-.7,2.83-1.05,4.52-1.05s3.18.35,4.51,1.05c1.33.7,2.38,1.7,3.15,3,.77,1.3,1.16,2.82,1.16,4.56s-.39,3.27-1.16,4.58c-.77,1.31-1.83,2.31-3.17,3.02s-2.85,1.05-4.53,1.05-3.19-.35-4.51-1.05ZM100.04,42.19c.55-.61.83-1.48.83-2.62s-.27-2.01-.83-2.61c-.55-.6-1.22-.9-2.02-.9s-1.47.3-2.01.9c-.54.6-.81,1.47-.81,2.61s.26,2.04.78,2.64c.52.6,1.19.9,2.01.9s1.5-.3,2.05-.92Z"/>
    <path d="M126.46,31.16v16.83h-5.91v-2.4c-.5.76-1.19,1.38-2.07,1.84-.88.47-1.89.71-3.03.71-1.96,0-3.5-.65-4.63-1.94s-1.7-3.04-1.7-5.26v-9.78h5.85v9.03c0,.96.25,1.71.76,2.26.51.55,1.19.83,2.03.83s1.54-.27,2.04-.83c.5-.55.75-1.3.75-2.26v-9.03h5.91Z"/>
    <path d="M145.45,32.95c1.14,1.29,1.71,3.04,1.71,5.23v9.81h-5.88v-9.03c0-.96-.25-1.71-.75-2.27-.5-.55-1.17-.83-2.01-.83s-1.57.28-2.07.83c-.5.55-.75,1.3-.75,2.27v9.03h-5.88v-16.83h5.88v2.4c.52-.76,1.22-1.37,2.1-1.84.88-.47,1.89-.71,3.03-.71,1.94,0,3.48.65,4.62,1.94Z"/>
    <path d="M150.38,35c.63-1.3,1.5-2.3,2.59-3,1.1-.7,2.32-1.05,3.66-1.05,1.08,0,2.04.23,2.9.67.85.45,1.51,1.07,1.99,1.85v-7.68h5.91v22.2h-5.91v-2.34c-.46.78-1.11,1.4-1.95,1.86-.84.46-1.83.69-2.97.69-1.34,0-2.55-.35-3.64-1.05-1.09-.7-1.95-1.71-2.58-3.02-.63-1.31-.95-2.83-.95-4.58s.32-3.26.95-4.56ZM160.67,37.01c-.59-.62-1.32-.93-2.17-.93s-1.61.31-2.19.92c-.58.61-.87,1.47-.87,2.56s.29,1.94.87,2.56c.58.63,1.31.95,2.19.95s1.58-.31,2.17-.93c.59-.62.88-1.48.88-2.58s-.29-1.93-.88-2.55Z"/>
  </g>
  <path class="cls-1" d="M175.31,104.85c11.4,9.67,17.09,23.48,17.09,41.44,0,15.71-5.22,28.15-15.67,37.3-10.45,9.15-24.22,13.9-41.31,14.25l-1.29,18.91h-44.81l-1.55-51.54h18.65c11.74,0,20.72-1.34,26.94-4.01,6.21-2.67,9.32-7.47,9.32-14.37,0-4.66-1.26-8.33-3.76-11.01-2.51-2.68-5.92-4.01-10.23-4.01-4.84,0-8.51,1.42-11.01,4.27-2.51,2.85-3.76,6.69-3.76,11.53h-47.91c-.35-10.53,1.85-20.16,6.6-28.88,4.75-8.72,11.95-15.62,21.63-20.72,9.67-5.09,21.58-7.64,35.74-7.64,18.82,0,33.93,4.84,45.32,14.5ZM90.49,281.1c-5.44-4.92-8.16-11.18-8.16-18.78s2.72-13.9,8.16-18.91c5.44-5.01,12.65-7.51,21.63-7.51s15.93,2.5,21.37,7.51c5.44,5.01,8.16,11.31,8.16,18.91s-2.72,13.64-8.16,18.65c-5.44,5.01-12.56,7.51-21.37,7.51s-16.19-2.46-21.63-7.38Z"/>
</svg>