<?xml version="1.0" encoding="UTF-8"?>
<svg id="Outline" xmlns="http://www.w3.org/2000/svg" width="240" height="338" viewBox="0 0 240 338">
  <defs>
    <style>
      .cls-1 {
        stroke: #231f20;
        stroke-width: 2px;
      }

      .cls-1, .cls-2 {
        fill: #fff;
      }

      .cls-1, .cls-3 {
        stroke-miterlimit: 10;
      }

      .cls-3 {
        fill: none;
        stroke: #939598;
        stroke-width: 5px;
      }

      .cls-4 {
        fill: #939598;
      }
    </style>
  </defs>
  <rect class="cls-4" width="240" height="338" rx="4.99" ry="4.99"/>
  <rect class="cls-2" x="5" y="5.5" width="230" height="49"/>
  <path class="cls-4" d="M200.5,5h35v16h-33.51c-.82,0-1.49-1.36-1.49-3.05V5h0Z"/>
  <line class="cls-3" x1="2.5" y1="54" x2="237.5" y2="54"/>
  <g>
    <path d="M30.9,44.7h-5.09l-8.51-12.99v12.99h-5.09v-21.06h5.09l8.51,13.05v-13.05h5.09v21.06Z"/>
    <path d="M37.76,43.89c-1.3-.7-2.32-1.7-3.07-3-.74-1.3-1.12-2.82-1.12-4.56s.38-3.23,1.13-4.54c.75-1.31,1.79-2.31,3.09-3.02,1.31-.7,2.78-1.05,4.4-1.05s3.1.35,4.4,1.05c1.31.7,2.34,1.71,3.1,3.02.75,1.31,1.13,2.83,1.13,4.54s-.38,3.24-1.15,4.54c-.76,1.31-1.81,2.32-3.12,3.02-1.32.7-2.79,1.05-4.42,1.05s-3.09-.35-4.39-1.05ZM44.64,39.42c.68-.72,1.03-1.75,1.03-3.09s-.33-2.37-1-3.09c-.67-.72-1.48-1.08-2.46-1.08s-1.82.36-2.47,1.06c-.65.71-.98,1.75-.98,3.1s.32,2.37.97,3.09c.64.72,1.45,1.08,2.43,1.08s1.8-.36,2.48-1.08Z"/>
    <path d="M62.81,40.35v4.35h-2.59c-1.85,0-3.28-.45-4.31-1.37-1.03-.91-1.55-2.39-1.55-4.45v-6.66h-2.02v-4.26h2.02v-4.08h5.09v4.08h3.33v4.26h-3.33v6.72c0,.5.12.86.36,1.08.24.22.63.33,1.19.33h1.82Z"/>
    <path d="M85.54,23.64v4.11h-8.51v4.44h6.37v3.99h-6.37v8.52h-5.09v-21.06h13.6Z"/>
    <path d="M91.39,43.89c-1.3-.7-2.32-1.7-3.07-3-.74-1.3-1.12-2.82-1.12-4.56s.38-3.23,1.13-4.54c.75-1.31,1.79-2.31,3.1-3.02,1.31-.7,2.78-1.05,4.4-1.05s3.09.35,4.4,1.05c1.31.7,2.34,1.71,3.09,3.02.75,1.31,1.13,2.83,1.13,4.54s-.38,3.24-1.15,4.54c-.76,1.31-1.81,2.32-3.12,3.02-1.32.7-2.79,1.05-4.42,1.05s-3.09-.35-4.39-1.05ZM98.27,39.42c.68-.72,1.03-1.75,1.03-3.09s-.33-2.37-1-3.09c-.67-.72-1.48-1.08-2.46-1.08s-1.82.36-2.47,1.06c-.66.71-.98,1.75-.98,3.1s.32,2.37.97,3.09c.64.72,1.45,1.08,2.43,1.08s1.8-.36,2.49-1.08Z"/>
    <path d="M123.58,27.96v16.74h-5.09v-2.28c-.52.74-1.22,1.33-2.1,1.78-.88.45-1.86.68-2.93.68-1.27,0-2.39-.29-3.36-.85-.97-.57-1.73-1.4-2.26-2.48-.54-1.08-.8-2.35-.8-3.81v-9.78h5.06v9.09c0,1.12.29,1.99.86,2.61.58.62,1.35.93,2.32.93s1.78-.31,2.35-.93c.58-.62.86-1.49.86-2.61v-9.09h5.09Z"/>
    <path d="M142.01,29.68c1.16,1.27,1.74,3.02,1.74,5.24v9.78h-5.06v-9.09c0-1.12-.29-1.99-.86-2.61-.58-.62-1.35-.93-2.32-.93s-1.75.31-2.32.93c-.58.62-.86,1.49-.86,2.61v9.09h-5.09v-16.74h5.09v2.22c.52-.74,1.21-1.32,2.08-1.75s1.85-.65,2.95-.65c1.94,0,3.5.64,4.66,1.9Z"/>
    <path d="M147.25,31.77c.64-1.3,1.52-2.3,2.63-3,1.11-.7,2.35-1.05,3.72-1.05,1.09,0,2.09.23,2.99.69.9.46,1.61,1.08,2.13,1.86v-7.77h5.09v22.2h-5.09v-2.4c-.48.8-1.16,1.44-2.04,1.92s-1.91.72-3.08.72c-1.37,0-2.61-.35-3.72-1.07-1.11-.71-1.99-1.72-2.63-3.03-.65-1.31-.97-2.82-.97-4.54s.32-3.23.97-4.53ZM157.67,33.3c-.71-.74-1.56-1.11-2.57-1.11s-1.87.36-2.57,1.09c-.71.73-1.06,1.74-1.06,3.02s.35,2.29,1.06,3.04c.7.75,1.56,1.12,2.57,1.12s1.87-.37,2.57-1.11c.7-.74,1.06-1.75,1.06-3.03s-.35-2.29-1.06-3.03Z"/>
  </g>
  <g>
    <path class="cls-2" d="M209.31,15.73l-2.03-3.71h-.57v3.71h-2.38V5.9h3.99c.77,0,1.42.14,1.96.41.54.27.95.64,1.22,1.11.27.47.4,1,.4,1.58,0,.65-.18,1.24-.55,1.75-.37.51-.9.88-1.62,1.09l2.25,3.89h-2.68ZM206.71,10.32h1.47c.43,0,.76-.11.98-.32.22-.21.33-.52.33-.91s-.11-.67-.33-.88c-.22-.21-.54-.32-.98-.32h-1.47v2.44Z"/>
    <path class="cls-2" d="M213.37,9.69c.3-.61.71-1.07,1.23-1.4s1.1-.49,1.74-.49c.55,0,1.03.11,1.44.34s.73.52.95.88v-1.11h2.38v7.81h-2.38v-1.11c-.23.36-.55.66-.96.88-.41.22-.89.34-1.44.34-.63,0-1.2-.17-1.72-.5-.52-.33-.93-.8-1.23-1.41-.3-.61-.45-1.32-.45-2.12s.15-1.51.45-2.11ZM218.23,10.41c-.33-.35-.73-.52-1.2-.52s-.87.17-1.2.51c-.33.34-.49.81-.49,1.41s.16,1.07.49,1.42c.33.35.73.52,1.2.52s.87-.17,1.2-.52c.33-.35.49-.82.49-1.41s-.16-1.07-.49-1.41Z"/>
    <path class="cls-2" d="M226.24,8.2c.42-.25.88-.37,1.39-.37v2.53h-.65c-.59,0-1.04.13-1.33.38-.3.26-.44.71-.44,1.35v3.63h-2.38v-7.81h2.38v1.3c.28-.43.62-.77,1.04-1.02Z"/>
    <path class="cls-2" d="M236.03,12.39h-5.37c.04.49.19.86.46,1.11.27.26.61.39,1.01.39.59,0,1-.25,1.24-.76h2.53c-.13.51-.36.98-.7,1.39-.34.41-.76.73-1.27.97-.51.23-1.08.35-1.71.35-.76,0-1.43-.16-2.03-.49s-1.06-.79-1.39-1.4c-.33-.61-.5-1.32-.5-2.13s.16-1.52.49-2.13c.33-.61.79-1.07,1.38-1.4.59-.33,1.27-.49,2.04-.49s1.42.16,2,.48c.58.32,1.04.77,1.37,1.36.33.59.49,1.27.49,2.06,0,.22-.01.46-.04.7ZM233.64,11.06c0-.41-.14-.74-.42-.98-.28-.24-.62-.36-1.04-.36s-.73.12-1.01.35c-.27.23-.44.56-.51.99h2.97Z"/>
  </g>
  <path class="cls-1" d="M173.12,104.44c11.4,9.67,17.09,23.48,17.09,41.44,0,15.71-5.22,28.15-15.67,37.3-10.45,9.15-24.22,13.9-41.31,14.25l-1.29,18.91h-44.81l-1.55-51.54h18.65c11.74,0,20.72-1.34,26.94-4.01,6.21-2.67,9.32-7.47,9.32-14.37,0-4.66-1.26-8.33-3.76-11.01-2.51-2.68-5.92-4.01-10.23-4.01-4.84,0-8.51,1.42-11.01,4.27-2.51,2.85-3.76,6.69-3.76,11.53h-47.91c-.35-10.53,1.85-20.16,6.6-28.88,4.75-8.72,11.95-15.62,21.63-20.72,9.67-5.09,21.58-7.64,35.74-7.64,18.82,0,33.93,4.84,45.32,14.5ZM88.3,280.69c-5.44-4.92-8.16-11.18-8.16-18.78s2.72-13.9,8.16-18.91c5.44-5.01,12.65-7.51,21.63-7.51s15.93,2.5,21.37,7.51c5.44,5.01,8.16,11.31,8.16,18.91s-2.72,13.64-8.16,18.65c-5.44,5.01-12.56,7.51-21.37,7.51s-16.19-2.46-21.63-7.38Z"/>
</svg>