<?xml version="1.0" encoding="UTF-8"?>
<svg id="Outline" xmlns="http://www.w3.org/2000/svg" width="244.38" height="338.83" viewBox="0 0 244.38 338.83">
  <defs>
    <style>
      .cls-1 {
        stroke: #231f20;
        stroke-width: 2px;
      }

      .cls-1, .cls-2 {
        fill: #fff;
      }

      .cls-1, .cls-3 {
        stroke-miterlimit: 10;
      }

      .cls-3 {
        fill: none;
        stroke: #939598;
        stroke-width: 5px;
      }

      .cls-4 {
        fill: #939598;
      }
    </style>
  </defs>
  <rect class="cls-4" x="3.37" width="240.21" height="338.83" rx="5" ry="5"/>
  <rect class="cls-2" x="8.18" y="5.78" width="230.6" height="49.18"/>
  <path class="cls-4" d="M157.44,5.17h82.57v15.76h-79.57c-1.66,0-3-1.34-3-3V5.17h0Z"/>
  <line class="cls-3" x1="5.96" y1="54.96" x2="243.59" y2="54.96"/>
  <g>
    <path class="cls-2" d="M164.16,14.25c-.68-.51-1.05-1.23-1.1-2.18h2.72c.03.32.12.55.29.7.16.15.38.22.64.22.23,0,.43-.06.58-.18.15-.12.23-.28.23-.49,0-.27-.12-.48-.38-.62-.25-.15-.66-.31-1.22-.49-.6-.2-1.08-.39-1.45-.58-.37-.19-.69-.46-.96-.82-.27-.36-.41-.83-.41-1.41s.15-1.09.44-1.51.7-.74,1.22-.96c.52-.22,1.11-.33,1.77-.33,1.07,0,1.92.25,2.55.75.64.5.98,1.2,1.02,2.1h-2.77c0-.28-.09-.49-.25-.62-.16-.14-.37-.21-.62-.21-.19,0-.35.06-.47.17-.12.11-.18.27-.18.48,0,.17.07.32.2.45.13.13.3.23.5.32.2.09.49.21.88.34.58.2,1.06.4,1.44.59.38.2.7.47.97.82.27.35.41.79.41,1.33s-.14,1.04-.41,1.47c-.27.43-.67.78-1.18,1.03-.52.25-1.12.38-1.83.38-1.07,0-1.94-.25-2.63-.76Z"/>
    <path class="cls-2" d="M178.32,11.79h-4.82c.03.4.14.7.33.89.19.2.44.29.75.29.42,0,.73-.19.91-.57h2.72c-.11.5-.33.95-.66,1.35-.33.39-.73.7-1.23.93-.49.23-1.04.34-1.64.34-.72,0-1.36-.15-1.92-.45-.56-.3-1-.74-1.31-1.3-.32-.56-.47-1.23-.47-1.99s.16-1.42.47-1.98c.31-.56.75-.99,1.31-1.29.56-.3,1.2-.45,1.93-.45s1.36.15,1.91.44c.55.29.99.72,1.3,1.27.31.55.47,1.2.47,1.94,0,.2-.01.4-.04.6ZM175.76,10.55c0-.31-.1-.56-.31-.73s-.47-.27-.78-.27-.57.08-.77.25c-.2.17-.33.42-.39.75h2.25Z"/>
    <path class="cls-2" d="M179.45,9.29c.31-.56.75-1,1.31-1.3.56-.3,1.2-.45,1.92-.45.93,0,1.71.25,2.34.76.63.51,1.04,1.22,1.22,2.13h-2.7c-.16-.48-.46-.71-.91-.71-.32,0-.57.13-.76.4s-.28.65-.28,1.16.09.9.28,1.17.44.4.76.4c.46,0,.76-.24.91-.71h2.7c-.18.9-.59,1.61-1.22,2.12-.63.51-1.41.77-2.34.77-.72,0-1.36-.15-1.92-.45-.56-.3-1-.74-1.31-1.3-.31-.56-.47-1.23-.47-1.99s.16-1.41.47-1.98Z"/>
    <path class="cls-2" d="M190.88,7.92c.41-.24.85-.36,1.31-.36v2.72h-.71c-.55,0-.97.11-1.24.33s-.4.59-.4,1.13v3.19h-2.55v-7.29h2.55v1.29c.29-.42.63-.75,1.04-.99Z"/>
    <path class="cls-2" d="M200.03,11.79h-4.82c.03.4.14.7.33.89.2.2.44.29.75.29.42,0,.73-.19.91-.57h2.72c-.11.5-.33.95-.66,1.35-.32.39-.73.7-1.23.93-.49.23-1.04.34-1.64.34-.72,0-1.36-.15-1.92-.45-.56-.3-1-.74-1.31-1.3-.32-.56-.47-1.23-.47-1.99s.16-1.42.47-1.98c.31-.56.75-.99,1.31-1.29.56-.3,1.2-.45,1.93-.45s1.36.15,1.91.44.99.72,1.3,1.27c.31.55.47,1.2.47,1.94,0,.2-.01.4-.04.6ZM197.47,10.55c0-.31-.1-.56-.31-.73s-.47-.27-.78-.27-.57.08-.77.25c-.2.17-.33.42-.39.75h2.25Z"/>
    <path class="cls-2" d="M205.41,12.75v2.17h-1.11c-1.86,0-2.79-.92-2.79-2.77v-2.4h-.9v-2.12h.9v-1.77h2.56v1.77h1.33v2.12h-1.33v2.44c0,.2.04.34.14.43.09.09.24.13.46.13h.74Z"/>
    <path class="cls-2" d="M213.71,14.92l-1.82-3.38h-.27v3.38h-2.55V5.75h4.02c.74,0,1.36.13,1.87.38.51.26.9.61,1.16,1.05.26.45.39.95.39,1.5,0,.62-.17,1.17-.51,1.64-.34.47-.84.81-1.5,1.01l2.07,3.58h-2.85ZM211.61,9.8h1.26c.35,0,.61-.08.78-.25.17-.16.26-.4.26-.71,0-.29-.09-.53-.27-.7-.18-.17-.44-.25-.77-.25h-1.26v1.91Z"/>
    <path class="cls-2" d="M217.65,9.29c.27-.56.65-1,1.12-1.3.47-.3,1-.45,1.58-.45.5,0,.94.1,1.3.3s.65.47.84.81v-1.01h2.55v7.29h-2.55v-1.01c-.2.34-.48.61-.85.81-.37.2-.8.3-1.29.3-.58,0-1.11-.15-1.58-.45-.47-.3-.84-.74-1.12-1.31-.27-.57-.41-1.23-.41-1.98s.14-1.41.41-1.98ZM222.11,10.16c-.26-.27-.57-.4-.94-.4s-.7.13-.95.4c-.25.26-.38.64-.38,1.11s.12.84.38,1.11c.25.27.57.41.95.41s.69-.13.94-.4c.25-.27.38-.64.38-1.12s-.13-.84-.38-1.1Z"/>
    <path class="cls-2" d="M230.09,7.92c.41-.24.84-.36,1.31-.36v2.72h-.71c-.55,0-.97.11-1.23.33-.27.22-.4.59-.4,1.13v3.19h-2.55v-7.29h2.55v1.29c.29-.42.63-.75,1.04-.99Z"/>
    <path class="cls-2" d="M239.24,11.79h-4.82c.03.4.14.7.33.89.19.2.44.29.75.29.42,0,.73-.19.91-.57h2.72c-.11.5-.33.95-.66,1.35-.33.39-.73.7-1.23.93-.49.23-1.04.34-1.64.34-.72,0-1.36-.15-1.92-.45-.56-.3-1-.74-1.31-1.3-.32-.56-.47-1.23-.47-1.99s.16-1.42.47-1.98c.31-.56.75-.99,1.31-1.29.56-.3,1.2-.45,1.93-.45s1.36.15,1.91.44c.55.29.99.72,1.3,1.27.31.55.47,1.2.47,1.94,0,.2-.01.4-.04.6ZM236.68,10.55c0-.31-.1-.56-.31-.73s-.47-.27-.78-.27-.57.08-.77.25c-.2.17-.33.42-.39.75h2.25Z"/>
  </g>
  <g>
    <path d="M32.53,47.99h-5.88l-7.83-11.82v11.82h-5.88v-21.15h5.88l7.83,11.97v-11.97h5.88v21.15Z"/>
    <path d="M39.21,47.15c-1.33-.7-2.38-1.7-3.14-3-.76-1.3-1.14-2.83-1.14-4.59s.38-3.26,1.15-4.56c.77-1.3,1.82-2.3,3.15-3,1.33-.7,2.83-1.05,4.52-1.05s3.18.35,4.52,1.05c1.33.7,2.38,1.7,3.15,3,.77,1.3,1.15,2.82,1.15,4.56s-.39,3.27-1.15,4.58c-.77,1.31-1.83,2.31-3.17,3.02-1.34.7-2.85,1.05-4.53,1.05s-3.19-.35-4.51-1.05ZM45.78,42.19c.55-.61.83-1.48.83-2.62s-.28-2.01-.83-2.61c-.55-.6-1.23-.9-2.02-.9s-1.47.3-2.01.9c-.54.6-.81,1.47-.81,2.61s.26,2.04.78,2.64c.52.6,1.19.9,2.01.9s1.5-.3,2.06-.92Z"/>
    <path d="M64.9,42.98v5.01h-2.55c-4.3,0-6.45-2.13-6.45-6.39v-5.55h-2.07v-4.89h2.07v-4.08h5.91v4.08h3.06v4.89h-3.06v5.64c0,.46.1.79.31.99.21.2.56.3,1.06.3h1.71Z"/>
    <path d="M87.67,26.84v4.68h-8.46v3.72h6.24v4.47h-6.24v8.28h-5.88v-21.15h14.34Z"/>
    <path d="M93.48,47.15c-1.33-.7-2.38-1.7-3.14-3-.76-1.3-1.14-2.83-1.14-4.59s.38-3.26,1.15-4.56c.77-1.3,1.82-2.3,3.15-3,1.33-.7,2.83-1.05,4.52-1.05s3.18.35,4.51,1.05c1.33.7,2.38,1.7,3.15,3,.77,1.3,1.16,2.82,1.16,4.56s-.39,3.27-1.16,4.58c-.77,1.31-1.83,2.31-3.17,3.02s-2.85,1.05-4.53,1.05-3.19-.35-4.51-1.05ZM100.04,42.19c.55-.61.83-1.48.83-2.62s-.27-2.01-.83-2.61c-.55-.6-1.22-.9-2.02-.9s-1.47.3-2.01.9c-.54.6-.81,1.47-.81,2.61s.26,2.04.78,2.64c.52.6,1.19.9,2.01.9s1.5-.3,2.05-.92Z"/>
    <path d="M126.46,31.16v16.83h-5.91v-2.4c-.5.76-1.19,1.38-2.07,1.84-.88.47-1.89.71-3.03.71-1.96,0-3.5-.65-4.63-1.94s-1.7-3.04-1.7-5.26v-9.78h5.85v9.03c0,.96.25,1.71.76,2.26.51.55,1.19.83,2.03.83s1.54-.27,2.04-.83c.5-.55.75-1.3.75-2.26v-9.03h5.91Z"/>
    <path d="M145.45,32.95c1.14,1.29,1.71,3.04,1.71,5.23v9.81h-5.88v-9.03c0-.96-.25-1.71-.75-2.27-.5-.55-1.17-.83-2.01-.83s-1.57.28-2.07.83c-.5.55-.75,1.3-.75,2.27v9.03h-5.88v-16.83h5.88v2.4c.52-.76,1.22-1.37,2.1-1.84.88-.47,1.89-.71,3.03-.71,1.94,0,3.48.65,4.62,1.94Z"/>
    <path d="M150.38,35c.63-1.3,1.5-2.3,2.59-3,1.1-.7,2.32-1.05,3.66-1.05,1.08,0,2.04.23,2.9.67.85.45,1.51,1.07,1.99,1.85v-7.68h5.91v22.2h-5.91v-2.34c-.46.78-1.11,1.4-1.95,1.86-.84.46-1.83.69-2.97.69-1.34,0-2.55-.35-3.64-1.05-1.09-.7-1.95-1.71-2.58-3.02-.63-1.31-.95-2.83-.95-4.58s.32-3.26.95-4.56ZM160.67,37.01c-.59-.62-1.32-.93-2.17-.93s-1.61.31-2.19.92c-.58.61-.87,1.47-.87,2.56s.29,1.94.87,2.56c.58.63,1.31.95,2.19.95s1.58-.31,2.17-.93c.59-.62.88-1.48.88-2.58s-.29-1.93-.88-2.55Z"/>
  </g>
  <path class="cls-1" d="M175.31,104.85c11.4,9.67,17.09,23.48,17.09,41.44,0,15.71-5.22,28.15-15.67,37.3-10.45,9.15-24.22,13.9-41.31,14.25l-1.29,18.91h-44.81l-1.55-51.54h18.65c11.74,0,20.72-1.34,26.94-4.01,6.21-2.67,9.32-7.47,9.32-14.37,0-4.66-1.26-8.33-3.76-11.01-2.51-2.68-5.92-4.01-10.23-4.01-4.84,0-8.51,1.42-11.01,4.27-2.51,2.85-3.76,6.69-3.76,11.53h-47.91c-.35-10.53,1.85-20.16,6.6-28.88,4.75-8.72,11.95-15.62,21.63-20.72,9.67-5.09,21.58-7.64,35.74-7.64,18.82,0,33.93,4.84,45.32,14.5ZM90.49,281.1c-5.44-4.92-8.16-11.18-8.16-18.78s2.72-13.9,8.16-18.91c5.44-5.01,12.65-7.51,21.63-7.51s15.93,2.5,21.37,7.51c5.44,5.01,8.16,11.31,8.16,18.91s-2.72,13.64-8.16,18.65c-5.44,5.01-12.56,7.51-21.37,7.51s-16.19-2.46-21.63-7.38Z"/>
</svg>