<?xml version="1.0" encoding="UTF-8"?>
<svg id="Outline" xmlns="http://www.w3.org/2000/svg" width="244.38" height="338.83" viewBox="0 0 244.38 338.83">
  <defs>
    <style>
      .cls-1 {
        stroke: #231f20;
        stroke-width: 2px;
      }

      .cls-1, .cls-2 {
        fill: #fff;
      }

      .cls-1, .cls-3 {
        stroke-miterlimit: 10;
      }

      .cls-3 {
        fill: none;
        stroke: #939598;
        stroke-width: 5px;
      }

      .cls-4 {
        fill: #939598;
      }
    </style>
  </defs>
  <rect class="cls-4" x="3.37" width="240.21" height="338.83" rx="5" ry="5"/>
  <rect class="cls-2" x="8.18" y="5.78" width="230.6" height="49.18"/>
  <path class="cls-4" d="M155.31,5.17h84.7v15.76h-81.7c-1.66,0-3-1.34-3-3V5.17h0Z"/>
  <line class="cls-3" x1="5.96" y1="54.96" x2="243.59" y2="54.96"/>
  <g>
    <path class="cls-2" d="M163.13,6.8v5.32c0,.49.12.88.34,1.14.23.27.58.4,1.05.4s.82-.14,1.06-.41.36-.65.36-1.14v-5.32h2.55v5.32c0,.84-.18,1.56-.53,2.15s-.84,1.04-1.45,1.34c-.61.3-1.29.45-2.04.45s-1.41-.15-2-.45c-.58-.3-1.04-.74-1.38-1.33-.33-.59-.5-1.31-.5-2.16v-5.32h2.54Z"/>
    <path class="cls-2" d="M176.66,9.45c.49.56.74,1.32.74,2.27v4.25h-2.55v-3.91c0-.42-.11-.74-.32-.98-.22-.24-.51-.36-.87-.36-.38,0-.68.12-.9.36s-.33.57-.33.98v3.91h-2.55v-7.29h2.55v1.04c.23-.33.53-.6.91-.8.38-.2.82-.31,1.31-.31.84,0,1.51.28,2,.84Z"/>
    <path class="cls-2" d="M178.86,10.34c.31-.56.75-1,1.31-1.3.56-.3,1.2-.45,1.92-.45.93,0,1.71.25,2.34.76s1.04,1.22,1.22,2.13h-2.7c-.16-.48-.46-.71-.91-.71-.32,0-.57.13-.76.4s-.28.65-.28,1.16.09.9.28,1.17.44.4.76.4c.46,0,.76-.24.91-.71h2.7c-.18.9-.59,1.61-1.22,2.12-.63.51-1.41.77-2.34.77-.72,0-1.36-.15-1.92-.45-.56-.3-.99-.74-1.31-1.3-.31-.56-.47-1.23-.47-1.99s.16-1.41.47-1.98Z"/>
    <path class="cls-2" d="M188.13,15.61c-.58-.3-1.03-.74-1.36-1.3-.33-.56-.49-1.23-.49-1.99s.17-1.41.5-1.98c.33-.56.79-1,1.37-1.3.58-.3,1.23-.45,1.96-.45s1.38.15,1.96.45c.58.3,1.03.74,1.37,1.3s.5,1.22.5,1.98-.17,1.42-.5,1.98c-.33.57-.79,1-1.37,1.31-.58.3-1.24.45-1.96.45s-1.38-.15-1.96-.45ZM190.98,13.45c.24-.26.36-.64.36-1.14s-.12-.87-.36-1.13c-.24-.26-.53-.39-.88-.39s-.64.13-.87.39c-.23.26-.35.64-.35,1.13s.11.88.34,1.14c.22.26.52.39.87.39s.65-.13.89-.4Z"/>
    <path class="cls-2" d="M206.66,9.44c.52.55.79,1.31.79,2.27v4.25h-2.55v-3.91c0-.39-.11-.69-.33-.91-.22-.22-.51-.32-.88-.32s-.67.11-.88.32c-.22.22-.33.52-.33.91v3.91h-2.55v-3.91c0-.39-.11-.69-.32-.91-.21-.22-.5-.32-.88-.32s-.68.11-.9.32c-.22.22-.33.52-.33.91v3.91h-2.55v-7.29h2.55v.96c.23-.31.52-.56.88-.75.36-.19.77-.28,1.24-.28.54,0,1.02.12,1.44.35.42.23.75.56.99.99.26-.4.6-.72,1.03-.97.42-.25.89-.37,1.4-.37.92,0,1.64.28,2.17.83Z"/>
    <path class="cls-2" d="M220.53,9.44c.52.55.79,1.31.79,2.27v4.25h-2.55v-3.91c0-.39-.11-.69-.33-.91-.22-.22-.51-.32-.88-.32s-.67.11-.88.32c-.22.22-.32.52-.32.91v3.91h-2.55v-3.91c0-.39-.11-.69-.32-.91-.21-.22-.5-.32-.88-.32s-.68.11-.9.32c-.22.22-.33.52-.33.91v3.91h-2.55v-7.29h2.55v.96c.23-.31.52-.56.88-.75.36-.19.77-.28,1.24-.28.54,0,1.02.12,1.44.35.42.23.75.56,1,.99.26-.4.6-.72,1.03-.97.42-.25.89-.37,1.4-.37.92,0,1.64.28,2.16.83Z"/>
    <path class="cls-2" d="M224.14,15.61c-.58-.3-1.03-.74-1.36-1.3-.33-.56-.49-1.23-.49-1.99s.17-1.41.5-1.98c.33-.56.79-1,1.37-1.3.58-.3,1.23-.45,1.96-.45s1.38.15,1.96.45c.58.3,1.03.74,1.37,1.3s.5,1.22.5,1.98-.17,1.42-.5,1.98c-.33.57-.79,1-1.37,1.31-.58.3-1.24.45-1.96.45s-1.38-.15-1.96-.45ZM226.99,13.45c.24-.26.36-.64.36-1.14s-.12-.87-.36-1.13c-.24-.26-.53-.39-.88-.39s-.64.13-.87.39c-.23.26-.35.64-.35,1.13s.11.88.34,1.14c.22.26.52.39.87.39s.65-.13.89-.4Z"/>
    <path class="cls-2" d="M237.75,9.45c.49.56.74,1.32.74,2.27v4.25h-2.55v-3.91c0-.42-.11-.74-.32-.98-.22-.24-.51-.36-.87-.36-.38,0-.68.12-.9.36s-.33.57-.33.98v3.91h-2.55v-7.29h2.55v1.04c.23-.33.53-.6.91-.8.38-.2.82-.31,1.31-.31.84,0,1.51.28,2,.84Z"/>
  </g>
  <g>
    <path d="M32.53,47.99h-5.88l-7.83-11.82v11.82h-5.88v-21.15h5.88l7.83,11.97v-11.97h5.88v21.15Z"/>
    <path d="M39.21,47.15c-1.33-.7-2.38-1.7-3.14-3-.76-1.3-1.14-2.83-1.14-4.59s.38-3.26,1.15-4.56c.77-1.3,1.82-2.3,3.15-3,1.33-.7,2.83-1.05,4.52-1.05s3.18.35,4.52,1.05c1.33.7,2.38,1.7,3.15,3,.77,1.3,1.15,2.82,1.15,4.56s-.39,3.27-1.15,4.58c-.77,1.31-1.83,2.31-3.17,3.02-1.34.7-2.85,1.05-4.53,1.05s-3.19-.35-4.51-1.05ZM45.78,42.19c.55-.61.83-1.48.83-2.62s-.28-2.01-.83-2.61c-.55-.6-1.23-.9-2.02-.9s-1.47.3-2.01.9c-.54.6-.81,1.47-.81,2.61s.26,2.04.78,2.64c.52.6,1.19.9,2.01.9s1.5-.3,2.06-.92Z"/>
    <path d="M64.9,42.99v5.01h-2.55c-4.3,0-6.45-2.13-6.45-6.39v-5.55h-2.07v-4.89h2.07v-4.08h5.91v4.08h3.06v4.89h-3.06v5.64c0,.46.1.79.31.99.21.2.56.3,1.06.3h1.71Z"/>
    <path d="M87.67,26.84v4.68h-8.46v3.72h6.24v4.47h-6.24v8.28h-5.88v-21.15h14.34Z"/>
    <path d="M93.48,47.15c-1.33-.7-2.38-1.7-3.14-3-.76-1.3-1.14-2.83-1.14-4.59s.38-3.26,1.15-4.56c.77-1.3,1.82-2.3,3.15-3,1.33-.7,2.83-1.05,4.52-1.05s3.18.35,4.51,1.05c1.33.7,2.38,1.7,3.15,3,.77,1.3,1.16,2.82,1.16,4.56s-.39,3.27-1.16,4.58c-.77,1.31-1.83,2.31-3.17,3.02s-2.85,1.05-4.53,1.05-3.19-.35-4.51-1.05ZM100.04,42.19c.55-.61.83-1.48.83-2.62s-.27-2.01-.83-2.61c-.55-.6-1.22-.9-2.02-.9s-1.47.3-2.01.9c-.54.6-.81,1.47-.81,2.61s.26,2.04.78,2.64c.52.6,1.19.9,2.01.9s1.5-.3,2.05-.92Z"/>
    <path d="M126.46,31.16v16.83h-5.91v-2.4c-.5.76-1.19,1.38-2.07,1.84-.88.47-1.89.71-3.03.71-1.96,0-3.5-.65-4.63-1.94s-1.7-3.04-1.7-5.26v-9.78h5.85v9.03c0,.96.25,1.71.76,2.26.51.55,1.19.83,2.03.83s1.54-.27,2.04-.83c.5-.55.75-1.3.75-2.26v-9.03h5.91Z"/>
    <path d="M145.45,32.95c1.14,1.29,1.71,3.04,1.71,5.23v9.81h-5.88v-9.03c0-.96-.25-1.71-.75-2.27-.5-.55-1.17-.83-2.01-.83s-1.57.28-2.07.83c-.5.55-.75,1.3-.75,2.27v9.03h-5.88v-16.83h5.88v2.4c.52-.76,1.22-1.37,2.1-1.84.88-.47,1.89-.71,3.03-.71,1.94,0,3.48.65,4.62,1.94Z"/>
    <path d="M150.38,35c.63-1.3,1.5-2.3,2.59-3,1.1-.7,2.32-1.05,3.66-1.05,1.08,0,2.04.23,2.9.67.85.45,1.51,1.07,1.99,1.85v-7.68h5.91v22.2h-5.91v-2.34c-.46.78-1.11,1.4-1.95,1.86-.84.46-1.83.69-2.97.69-1.34,0-2.55-.35-3.64-1.05-1.09-.7-1.95-1.71-2.58-3.02-.63-1.31-.95-2.83-.95-4.58s.32-3.26.95-4.56ZM160.67,37.01c-.59-.62-1.32-.93-2.17-.93s-1.61.31-2.19.92c-.58.61-.87,1.47-.87,2.56s.29,1.94.87,2.56c.58.63,1.31.95,2.19.95s1.58-.31,2.17-.93c.59-.62.88-1.48.88-2.58s-.29-1.93-.88-2.55Z"/>
  </g>
  <path class="cls-1" d="M175.31,104.85c11.4,9.67,17.09,23.48,17.09,41.44,0,15.71-5.22,28.15-15.67,37.3-10.45,9.15-24.22,13.9-41.31,14.25l-1.29,18.91h-44.81l-1.55-51.54h18.65c11.74,0,20.72-1.34,26.94-4.01,6.21-2.67,9.32-7.47,9.32-14.37,0-4.66-1.26-8.33-3.76-11.01-2.51-2.68-5.92-4.01-10.23-4.01-4.84,0-8.51,1.42-11.01,4.27-2.51,2.85-3.76,6.69-3.76,11.53h-47.91c-.35-10.53,1.85-20.16,6.6-28.88,4.75-8.72,11.95-15.62,21.63-20.72,9.67-5.09,21.58-7.64,35.74-7.64,18.82,0,33.93,4.84,45.32,14.5ZM90.49,281.1c-5.44-4.92-8.16-11.18-8.16-18.78s2.72-13.9,8.16-18.91c5.44-5.01,12.65-7.51,21.63-7.51s15.93,2.5,21.37,7.51c5.44,5.01,8.16,11.31,8.16,18.91s-2.72,13.64-8.16,18.65c-5.44,5.01-12.56,7.51-21.37,7.51s-16.19-2.46-21.63-7.38Z"/>
</svg>