<?xml version="1.0" encoding="UTF-8"?>
<svg id="Outline" xmlns="http://www.w3.org/2000/svg" width="285.02" height="368.18" xmlns:xlink="http://www.w3.org/1999/xlink" viewBox="0 0 285.02 368.18">
  <defs>
    <style>
      .cls-1 {
        fill: url(#linear-gradient);
        stroke-width: 5px;
      }

      .cls-1, .cls-2 {
        stroke: #231f20;
        stroke-miterlimit: 10;
      }

      .cls-2 {
        fill: none;
        stroke-width: 4px;
      }

      .cls-3 {
        font-family: GillSansMT, 'Gill Sans MT';
        font-size: 60px;
      }
    </style>
    <linearGradient id="linear-gradient" x1="2.5" y1="187.07" x2="282.5" y2="187.07" gradientUnits="userSpaceOnUse">
      <stop offset="0" stop-color="red"/>
      <stop offset=".18" stop-color="#ff3200"/>
      <stop offset=".37" stop-color="#ff5e00"/>
      <stop offset=".55" stop-color="#ff8100"/>
      <stop offset=".72" stop-color="#ff9a00"/>
      <stop offset=".87" stop-color="#ffa900"/>
      <stop offset="1" stop-color="#ffaf00"/>
    </linearGradient>
  </defs>
  <path class="cls-1" d="M2.77,14.88l279.73-1.34c-.02,2.64-.48,6.74-2.89,11.35-1.98,3.8-4.6,6.64-6.64,8.52-1.64,102.25-3.27,204.5-4.91,306.75,2.07,2.54,4.29,5.69,6.22,9.44,1.72,3.34,2.85,6.43,3.6,9.1-91.57.64-183.14,1.28-274.71,1.92.1-2,.52-4.58,1.73-7.46,1.93-4.55,5.01-7.83,7.22-9.8,1.16-102.46,2.31-204.92,3.47-307.38-2.25-1.12-7.84-4.24-10.98-10.01-2.61-4.81-2.21-9.07-1.84-11.08Z"/>
  <line class="cls-2" x1="25.86" y1="38.34" x2="139.05" y2="38.34"/>
  <path class="cls-2" d="M68.45,55.59l159.34-3.16"/>
  <path class="cls-2" d="M152.26,38.34l113.89-1.89"/>
  <text class="cls-3" transform="translate(57.22 162.47)"><tspan x="0" y="0">Classic</tspan></text>
  <text class="cls-3" transform="translate(86.27 214.1)"><tspan x="0" y="0">Pack</tspan></text>
  <line class="cls-2" x1="18.77" y1="343.76" x2="131.96" y2="343.76"/>
  <path class="cls-2" d="M148.11,344.7l113.89-1.89"/>
  <path class="cls-2" d="M68.45,330.38l159.34-3.16"/>
</svg>