<?xml version="1.0" encoding="UTF-8"?>
<svg id="Outline" xmlns="http://www.w3.org/2000/svg" width="285.02" height="368.18" xmlns:xlink="http://www.w3.org/1999/xlink" viewBox="0 0 285.02 368.18">
  <defs>
    <style>
      .cls-1 {
        fill: url(#linear-gradient);
        stroke-width: 5px;
      }

      .cls-1, .cls-2, .cls-3 {
        stroke: #231f20;
        stroke-miterlimit: 10;
      }

      .cls-4, .cls-2 {
        stroke-width: 2px;
      }

      .cls-4, .cls-5 {
        fill: #fbae00;
      }

      .cls-4, .cls-5, .cls-6, .cls-7 {
        stroke-linecap: round;
        stroke-linejoin: round;
      }

      .cls-4, .cls-7 {
        stroke: #414042;
      }

      .cls-2, .cls-8 {
        fill: #fff;
      }

      .cls-5, .cls-6 {
        stroke: #fff;
      }

      .cls-9 {
        filter: url(#drop-shadow-1);
      }

      .cls-6 {
        fill: #414042;
      }

      .cls-10 {
        opacity: .2;
      }

      .cls-7, .cls-3 {
        fill: none;
        stroke-width: 3px;
      }
    </style>
    <linearGradient id="linear-gradient" x1="2.5" y1="187.07" x2="282.5" y2="187.07" gradientUnits="userSpaceOnUse">
      <stop offset="0" stop-color="#ff2000"/>
      <stop offset=".37" stop-color="#ff5f00"/>
      <stop offset="1" stop-color="#ffd100"/>
    </linearGradient>
    <filter id="drop-shadow-1" x="25.5" y="104.09" width="248" height="134" filterUnits="userSpaceOnUse">
      <feOffset dx="7" dy="7"/>
      <feGaussianBlur result="blur" stdDeviation="5"/>
      <feFlood flood-color="#000" flood-opacity=".75"/>
      <feComposite in2="blur" operator="in"/>
      <feComposite in="SourceGraphic"/>
    </filter>
  </defs>
  <path class="cls-1" d="M2.77,14.88l279.73-1.34c-.02,2.64-.48,6.74-2.89,11.35-1.98,3.8-4.6,6.64-6.64,8.52-1.64,102.25-3.27,204.5-4.91,306.75,2.07,2.54,4.29,5.69,6.22,9.44,1.72,3.34,2.85,6.43,3.6,9.1-91.57.64-183.14,1.28-274.71,1.92.1-2,.52-4.58,1.73-7.46,1.93-4.55,5.01-7.83,7.22-9.8,1.16-102.46,2.31-204.92,3.47-307.38-2.25-1.12-7.84-4.24-10.98-10.01-2.61-4.81-2.21-9.07-1.84-11.08Z"/>
  <line class="cls-3" x1="25.86" y1="38.34" x2="139.05" y2="38.34"/>
  <path class="cls-3" d="M68.45,55.59l159.34-3.16"/>
  <path class="cls-3" d="M152.26,38.34l113.89-1.89"/>
  <g class="cls-10">
    <path class="cls-5" d="M109.3,299.39c.12.34,2.11,6.58-1.99,11.46-2.99,3.56-7.18,3.95-8.02,4.02-1.47.16-4.32.24-7.43-1.13-5.38-2.38-7.44-7.31-7.88-8.43-.55.53-3.86,3.59-8.91,3.33-5.26-.27-8.3-3.94-8.76-4.51.24-1.5.85-4.01,2.58-6.58,2.64-3.92,6.26-5.56,7.73-6.14"/>
    <path class="cls-5" d="M170.4,303.3c-.12.34-2.11,6.58,1.99,11.46,2.99,3.56,7.18,3.95,8.02,4.02,1.47.16,4.32.24,7.43-1.13,5.38-2.38,7.44-7.31,7.88-8.43.55.53,3.86,3.59,8.91,3.33,5.26-.27,8.3-3.94,8.76-4.51-.24-1.5-.85-4.01-2.58-6.58-2.64-3.92-6.26-5.56-7.73-6.14"/>
    <path class="cls-6" d="M206.91,215.43c2.04,9.07,3.76,16.57,5.01,21.9,3.47,14.92,4.44,18.57,4.63,25.07.21,6.81.33,13.8-3.53,21.3-2.99,5.79-7.12,9.51-9.93,11.61-2.53,2.17-7.43,5.77-14.58,7.69-8.05,2.17-14.8,1.07-18.11.3-7.93-1.85-16.04-3.72-23.78-6.24-7.57-2.45-13.77-1.49-21.5-.03-15.39,2.9-31.42,2.3-46.55-1.73-9.51-2.53-14.12-13.56-16.37-22.48-3.42-13.58.06-24.76,1.62-28.99,2.65-6.58,5.24-14.57,7-23.82.93-4.9,1.5-9.51,1.83-13.75-28.79-26.62-41.77-41.93-38.93-45.93,2.47-3.49,16.98,1.61,43.5,15.31.67-23.57,1.2-50.65,14.5-71.08,8.44-12.97,24.12-19.57,38.95-21.96-.37-.75-2.75-5.7-.45-11.02.94-2.18,2.55-4.06,4.5-5.42.17-.12.37-.24.57-.21.19.02.34.16.48.3,3.19,3.1,6.41,6.17,9.62,9.25,2.04-2.29,5.1-5.12,9.35-7.47,1.79-.99,3.51-1.74,5.08-2.29,1.26.36,2.02.98,2.42,1.4,1.79,1.83,2.09,5.01.81,8.06-1.08,2.57-2.16,5.14-3.23,7.7,4.97,1.18,21.71,5.79,33.56,21.97,7.76,10.58,9.9,21.3,10.61,26.84,1.14,6.7,1.99,15.22,1.54,25.07-.43,9.35-1.91,17.4-3.54,23.75,4.41-2.44,10.25-5.6,17.23-9.1,17.44-8.77,26.23-13.11,29.33-10.86,6.21,4.5-36.42,52.6-41.62,54.87Z"/>
    <path class="cls-8" d="M88.6,149.62c.17,3.7.55,7.4.88,11,.93,10.07-.01,20.58-1.48,30.58-1.39,9.47-2.82,12.67-5.68,23.26-3.36,12.42-7.76,25.91-7.12,38.89.47,9.58,5.18,19.86,13.24,25.37,5.83,3.98,12.35,5.73,20.27,6.07,6.29.27,12.62.56,18.97.87,7.01.34,13.98.7,20.91,1.08,10.17.56,20.73,1.4,30.7-1.19,12.37-3.22,17.87-13.73,18.24-25.97.22-7.2-1.45-14.02-2.68-21.05-1.17-6.65-2.33-13.36-3.57-20.02-2.37-12.74-4.19-25.67-3.65-38.66.85-20.54,1.47-45.38-12.08-62.44-4.67-5.87-12.98-9.84-20.4-7.12-6.71,2.46-9.69,9.67-11.69,15.97-.6,1.89-5.83,16.98-3.83,17.26-2.47-.35-2.84.27-5.32-.08,0,0-5.78.3-5.93.3-.78,0-3.4-18.95-3.71-20.51-.63-3.11-1.84-6.29-4.31-8.28-1.77-1.42-4.03-2.1-6.29-2.34-10.22-1.07-17.77,6.61-21.97,15.12-3.37,6.85-3.85,14.38-3.5,21.89Z"/>
    <path class="cls-7" d="M97.21,136.33c.37-1.26,1.46-4.31,4.44-6.59.79-.61,5.55-4.25,10.36-2.06,3.48,1.58,5.65,5.6,5.3,9.98"/>
    <path class="cls-7" d="M149.68,136.33c.37-1.26,1.46-4.31,4.44-6.59.79-.61,5.55-4.25,10.36-2.06,3.48,1.58,5.65,5.6,5.3,9.98"/>
    <path class="cls-4" d="M143.91,144.35c-.17-.85-.96-1.01-12.07-1.12-7.72-.08-8.97-.02-9.23,1.12-.58,2.5,3.81,9.13,8.88,10.09,6.57,1.24,12.99-7.3,12.43-10.09Z"/>
  </g>
  <line class="cls-3" x1="18.77" y1="343.76" x2="131.96" y2="343.76"/>
  <path class="cls-3" d="M148.11,344.7l113.89-1.89"/>
  <path class="cls-3" d="M68.45,330.38l159.34-3.16"/>
  <g class="cls-9">
    <path class="cls-2" d="M74.02,145.22h-12.16c-.96,1.5-2.15,2.65-3.59,3.46-1.43.81-2.99,1.21-4.68,1.21-2.18,0-3.89-.68-5.14-2.04-1.24-1.36-1.86-3.23-1.86-5.61,0-.92.08-1.79.23-2.59.54-3.11,1.74-5.59,3.61-7.43,1.87-1.84,4.11-2.76,6.71-2.76,1.68,0,3.1.4,4.25,1.21,1.15.81,1.95,1.96,2.41,3.46h12.11c-.11-3.07-.86-5.74-2.24-8-1.38-2.26-3.31-4.01-5.8-5.24-2.49-1.23-5.39-1.84-8.72-1.84-3.98,0-7.65.87-11.02,2.62-3.37,1.75-6.16,4.19-8.38,7.31-2.22,3.13-3.67,6.69-4.36,10.68-.27,1.46-.4,2.94-.4,4.43,0,3.23.67,6.07,2.01,8.52,1.34,2.46,3.28,4.36,5.82,5.7,2.54,1.34,5.56,2.02,9.04,2.02,5.05,0,9.54-1.35,13.48-4.06,3.94-2.71,6.83-6.38,8.66-11.03Z"/>
    <polygon class="cls-2" points="95.48 117.41 84.17 117.41 76.66 160.02 87.96 160.02 95.48 117.41"/>
    <path class="cls-2" d="M95.02,147.87c0,3.88,1.01,6.94,3.04,9.19,2.03,2.25,4.72,3.37,8.09,3.37,2.18,0,4.17-.44,5.97-1.32,1.8-.88,3.25-2.07,4.36-3.57l-.8,4.49h11.25l5.68-32.31h-11.25l-.8,4.49c-.57-1.5-1.59-2.69-3.04-3.57-1.45-.88-3.29-1.32-5.51-1.32-2.56,0-5,.67-7.32,2.02-2.32,1.34-4.29,3.26-5.94,5.76-1.64,2.5-2.77,5.41-3.39,8.75-.23,1.42-.34,2.76-.34,4.03ZM106.84,143.84c.34-2.11,1.19-3.75,2.52-4.92,1.34-1.17,2.85-1.76,4.53-1.76,1.41,0,2.57.44,3.47,1.32.9.88,1.35,2.13,1.35,3.74,0,.5-.06,1.04-.17,1.61-.34,2.11-1.19,3.76-2.52,4.95-1.34,1.19-2.85,1.79-4.53,1.79-1.42,0-2.57-.44-3.47-1.32-.9-.88-1.35-2.13-1.35-3.74,0-.54.06-1.09.17-1.67Z"/>
    <path class="cls-2" d="M140.23,159.22c2.1.81,4.49,1.21,7.17,1.21,4.4,0,7.98-.91,10.73-2.74,2.76-1.82,4.13-4.33,4.13-7.52,0-1.88-.52-3.43-1.55-4.64s-2.27-2.15-3.7-2.82c-1.43-.67-3.22-1.35-5.36-2.04-1.95-.65-3.34-1.19-4.16-1.61-.82-.42-1.23-1-1.23-1.73,0-.61.29-1.11.86-1.5.57-.38,1.3-.58,2.18-.58,1.22,0,2.16.3,2.81.89.65.6.96,1.41.92,2.45h10.1c.12-2.11-.35-4.03-1.4-5.76-1.05-1.73-2.64-3.08-4.76-4.06-2.12-.98-4.64-1.47-7.55-1.47-2.72,0-5.11.43-7.17,1.3-2.07.86-3.66,2.06-4.79,3.6-1.13,1.54-1.69,3.26-1.69,5.18s.53,3.63,1.58,4.9c1.05,1.27,2.29,2.23,3.7,2.88,1.41.65,3.21,1.32,5.39,2.02,1.87.61,3.21,1.12,4.02,1.53.8.4,1.2.97,1.2,1.7,0,.61-.32,1.11-.95,1.5-.63.38-1.43.58-2.38.58-1.23,0-2.18-.29-2.87-.86-.69-.58-1.01-1.4-.98-2.48h-10.84c-.08.69-.11,1.21-.11,1.56,0,1.92.59,3.62,1.78,5.1,1.19,1.48,2.83,2.62,4.93,3.43Z"/>
    <path class="cls-2" d="M172.82,159.22c2.1.81,4.49,1.21,7.17,1.21,4.4,0,7.98-.91,10.73-2.74,2.75-1.82,4.13-4.33,4.13-7.52,0-1.88-.52-3.43-1.55-4.64-1.03-1.21-2.27-2.15-3.7-2.82-1.43-.67-3.22-1.35-5.37-2.04-1.95-.65-3.34-1.19-4.16-1.61-.82-.42-1.23-1-1.23-1.73,0-.61.29-1.11.86-1.5.57-.38,1.3-.58,2.18-.58,1.22,0,2.16.3,2.81.89.65.6.96,1.41.92,2.45h10.1c.11-2.11-.35-4.03-1.41-5.76-1.05-1.73-2.64-3.08-4.76-4.06-2.12-.98-4.64-1.47-7.54-1.47-2.72,0-5.11.43-7.17,1.3-2.07.86-3.66,2.06-4.79,3.6-1.13,1.54-1.69,3.26-1.69,5.18s.52,3.63,1.58,4.9c1.05,1.27,2.29,2.23,3.7,2.88,1.41.65,3.21,1.32,5.39,2.02,1.87.61,3.21,1.12,4.02,1.53.8.4,1.2.97,1.2,1.7,0,.61-.31,1.11-.95,1.5-.63.38-1.42.58-2.38.58-1.22,0-2.18-.29-2.87-.86-.69-.58-1.01-1.4-.98-2.48h-10.84c-.08.69-.11,1.21-.11,1.56,0,1.92.59,3.62,1.78,5.1,1.19,1.48,2.83,2.62,4.93,3.43Z"/>
    <path class="cls-2" d="M210.47,124.72c1.41,0,2.72-.31,3.9-.92,1.19-.61,2.11-1.44,2.78-2.48.67-1.04,1-2.17,1-3.4,0-1.42-.51-2.58-1.52-3.48-1.01-.9-2.4-1.35-4.16-1.35-1.45,0-2.76.32-3.93.95-1.17.63-2.09,1.48-2.75,2.53-.67,1.06-1,2.2-1,3.43,0,1.38.51,2.51,1.52,3.4,1.01.88,2.4,1.32,4.16,1.32Z"/>
    <polygon class="cls-2" points="215.51 127.72 204.27 127.72 198.53 160.02 209.83 160.02 215.51 127.72"/>
    <path class="cls-2" d="M232.1,150.81c-1.11,0-1.99-.39-2.64-1.18-.65-.79-.98-1.95-.98-3.48,0-.77.08-1.54.23-2.3.38-2.26,1.09-3.98,2.12-5.15,1.03-1.17,2.26-1.76,3.67-1.76,2.03,0,3.19,1.06,3.5,3.17h11.99c-.11-4.03-1.38-7.17-3.79-9.42-2.41-2.25-5.66-3.37-9.75-3.37-3.18,0-6.11.67-8.81,2.02-2.7,1.34-4.95,3.25-6.77,5.73-1.82,2.48-3.03,5.4-3.64,8.78-.23,1.27-.34,2.48-.34,3.63,0,4.03,1.23,7.2,3.7,9.5,2.47,2.3,5.8,3.46,10.01,3.46s7.79-1.13,10.99-3.4c3.19-2.26,5.54-5.39,7.03-9.39h-11.99c-.96,2.11-2.47,3.17-4.53,3.17Z"/>
    <path class="cls-2" d="M100.79,176.99c-2.22-1.94-5.45-2.91-9.7-2.91h-16.81l-7.17,40.6h11.3l2.41-13.71h5.57c3.29,0,6.18-.6,8.66-1.81,2.49-1.21,4.47-2.82,5.94-4.84,1.47-2.02,2.42-4.25,2.84-6.71.19-1.07.29-2.02.29-2.82,0-3.26-1.11-5.86-3.33-7.8ZM92.41,187.62c-.5,2.96-2.33,4.43-5.51,4.43h-4.48l1.55-8.93h4.48c1.38,0,2.4.3,3.07.89.67.6,1,1.41,1,2.45,0,.23-.04.61-.11,1.15Z"/>
    <path class="cls-2" d="M129.82,186.87c-.57-1.5-1.59-2.69-3.04-3.57-1.45-.88-3.29-1.32-5.51-1.32-2.56,0-5,.67-7.32,2.02-2.31,1.34-4.29,3.26-5.94,5.76-1.64,2.5-2.77,5.41-3.39,8.75-.23,1.42-.34,2.76-.34,4.03,0,3.88,1.01,6.94,3.04,9.19,2.03,2.25,4.72,3.37,8.09,3.37,2.18,0,4.17-.44,5.97-1.32,1.8-.88,3.25-2.07,4.36-3.57l-.8,4.49h11.25l5.68-32.31h-11.25l-.8,4.49ZM127.81,198.5c-.34,2.11-1.19,3.76-2.52,4.95-1.34,1.19-2.85,1.79-4.53,1.79-1.42,0-2.57-.44-3.47-1.32-.9-.88-1.35-2.13-1.35-3.74,0-.54.06-1.09.17-1.67.34-2.11,1.19-3.75,2.52-4.92,1.34-1.17,2.85-1.76,4.53-1.76,1.41,0,2.57.44,3.47,1.32.9.88,1.35,2.13,1.35,3.74,0,.5-.06,1.04-.17,1.61Z"/>
    <path class="cls-2" d="M157.25,193.35c1.03-1.17,2.26-1.76,3.67-1.76,2.03,0,3.19,1.06,3.5,3.17h11.99c-.11-4.03-1.38-7.17-3.79-9.42-2.41-2.25-5.66-3.37-9.75-3.37-3.18,0-6.11.67-8.81,2.02-2.7,1.34-4.95,3.25-6.77,5.73-1.82,2.48-3.03,5.4-3.64,8.78-.23,1.27-.34,2.48-.34,3.63,0,4.03,1.23,7.2,3.7,9.5,2.47,2.3,5.8,3.46,10.01,3.46s7.79-1.13,10.99-3.4c3.19-2.26,5.54-5.39,7.03-9.39h-11.99c-.96,2.11-2.47,3.17-4.53,3.17-1.11,0-1.99-.39-2.64-1.18-.65-.79-.98-1.95-.98-3.48,0-.77.08-1.54.23-2.3.38-2.26,1.09-3.98,2.12-5.15Z"/>
    <polygon class="cls-2" points="203.32 182.38 192.25 194.99 196.26 172.07 184.96 172.07 177.44 214.68 188.75 214.68 191.1 201.5 197.58 214.68 211.3 214.68 201.26 198.62 216.81 182.38 203.32 182.38"/>
  </g>
</svg>