<?xml version="1.0" encoding="UTF-8"?>
<svg id="Outline" xmlns="http://www.w3.org/2000/svg" width="285.02" height="368.18" xmlns:xlink="http://www.w3.org/1999/xlink" viewBox="0 0 285.02 368.18">
  <defs>
    <style>
      .cls-1 {
        fill: url(#linear-gradient);
        stroke-width: 5px;
      }

      .cls-1, .cls-2 {
        stroke: #231f20;
        stroke-miterlimit: 10;
      }

      .cls-2 {
        fill: none;
        stroke-width: 4px;
      }
    </style>
    <linearGradient id="linear-gradient" x1="2.5" y1="187.07" x2="282.5" y2="187.07" gradientUnits="userSpaceOnUse">
      <stop offset="0" stop-color="red"/>
      <stop offset=".18" stop-color="#ff3200"/>
      <stop offset=".37" stop-color="#ff5e00"/>
      <stop offset=".55" stop-color="#ff8100"/>
      <stop offset=".72" stop-color="#ff9a00"/>
      <stop offset=".87" stop-color="#ffa900"/>
      <stop offset="1" stop-color="#ffaf00"/>
    </linearGradient>
  </defs>
  <path class="cls-1" d="M2.77,14.88l279.73-1.34c-.02,2.64-.48,6.74-2.89,11.35-1.98,3.8-4.6,6.64-6.64,8.52-1.64,102.25-3.27,204.5-4.91,306.75,2.07,2.54,4.29,5.69,6.22,9.44,1.72,3.34,2.85,6.43,3.6,9.1-91.57.64-183.14,1.28-274.71,1.92.1-2,.52-4.58,1.73-7.46,1.93-4.55,5.01-7.83,7.22-9.8,1.16-102.46,2.31-204.92,3.47-307.38-2.25-1.12-7.84-4.24-10.98-10.01-2.61-4.81-2.21-9.07-1.84-11.08Z"/>
  <line class="cls-2" x1="25.86" y1="38.34" x2="139.05" y2="38.34"/>
  <path class="cls-2" d="M68.45,55.59l159.34-3.16"/>
  <path class="cls-2" d="M152.26,38.34l113.89-1.89"/>
  <g>
    <path d="M97,152.98v6.45c-4.3,2.34-9.26,3.52-14.88,3.52-4.57,0-8.45-.92-11.63-2.75-3.18-1.84-5.7-4.37-7.56-7.59-1.86-3.22-2.78-6.71-2.78-10.46,0-5.96,2.12-10.97,6.37-15.03,4.25-4.06,9.49-6.09,15.72-6.09,4.3,0,9.07,1.12,14.33,3.37v6.3c-4.79-2.73-9.46-4.1-14.03-4.1s-8.58,1.48-11.67,4.44c-3.1,2.96-4.64,6.67-4.64,11.12s1.52,8.18,4.57,11.07c3.05,2.89,6.94,4.34,11.69,4.34s9.8-1.52,14.53-4.57Z"/>
    <path d="M103.59,121.54h5.33v40.93h-5.33v-40.93Z"/>
    <path d="M133.56,146.27v11.46c0,.92.31,1.38.94,1.38s1.65-.48,3.02-1.44v3.25c-1.21.78-2.18,1.31-2.92,1.6s-1.5.42-2.3.42c-2.29,0-3.63-.9-4.04-2.7-2.27,1.76-4.68,2.64-7.24,2.64-1.88,0-3.44-.62-4.69-1.86-1.25-1.24-1.88-2.8-1.88-4.67,0-1.7.61-3.22,1.83-4.56,1.22-1.34,2.95-2.4,5.2-3.18l6.83-2.34v-1.44c0-3.24-1.62-4.86-4.86-4.86-2.91,0-5.74,1.5-8.5,4.51v-5.83c2.07-2.44,5.05-3.66,8.94-3.66,2.91,0,5.24.76,7,2.29.59.49,1.11,1.14,1.58,1.95.47.81.77,1.62.89,2.43.13.81.19,2.35.19,4.61ZM128.32,157.14v-8l-3.57,1.38c-1.82.72-3.1,1.45-3.85,2.18s-1.13,1.65-1.13,2.74.36,2.02,1.07,2.72,1.64,1.05,2.77,1.05c1.7,0,3.27-.69,4.72-2.08Z"/>
    <path d="M140.92,160.54v-5.74c1.5,1.05,3.04,1.91,4.61,2.56,1.57.65,2.9.98,3.97.98s2.07-.27,2.87-.82c.8-.55,1.2-1.2,1.2-1.96s-.26-1.43-.78-1.95c-.52-.52-1.64-1.26-3.35-2.24-3.44-1.91-5.69-3.55-6.75-4.91-1.06-1.36-1.6-2.84-1.6-4.44,0-2.07.81-3.76,2.42-5.07,1.61-1.31,3.69-1.96,6.23-1.96s5.34.74,8.12,2.23v5.27c-3.16-1.91-5.75-2.87-7.76-2.87-1.04,0-1.87.22-2.5.66s-.95,1.02-.95,1.75c0,.63.29,1.22.86,1.79.58.57,1.59,1.25,3.03,2.05l1.91,1.08c4.49,2.54,6.74,5.35,6.74,8.44,0,2.21-.86,4.02-2.59,5.43s-3.95,2.12-6.67,2.12c-1.6,0-3.03-.17-4.28-.51s-2.82-.97-4.72-1.89Z"/>
    <path d="M164,160.54v-5.74c1.5,1.05,3.04,1.91,4.61,2.56,1.57.65,2.9.98,3.97.98s2.07-.27,2.87-.82c.8-.55,1.2-1.2,1.2-1.96s-.26-1.43-.78-1.95c-.52-.52-1.64-1.26-3.35-2.24-3.44-1.91-5.69-3.55-6.75-4.91-1.06-1.36-1.6-2.84-1.6-4.44,0-2.07.81-3.76,2.42-5.07,1.61-1.31,3.69-1.96,6.23-1.96s5.34.74,8.12,2.23v5.27c-3.16-1.91-5.75-2.87-7.76-2.87-1.04,0-1.87.22-2.5.66s-.95,1.02-.95,1.75c0,.63.29,1.22.86,1.79.58.57,1.59,1.25,3.03,2.05l1.91,1.08c4.49,2.54,6.74,5.35,6.74,8.44,0,2.21-.86,4.02-2.59,5.43s-3.95,2.12-6.67,2.12c-1.6,0-3.03-.17-4.28-.51s-2.82-.97-4.72-1.89Z"/>
    <path d="M191.16,124.18c.88,0,1.63.3,2.26.91.62.61.94,1.35.94,2.23s-.31,1.6-.94,2.23c-.62.63-1.38.94-2.26.94-.82,0-1.54-.32-2.17-.95-.62-.63-.94-1.37-.94-2.21s.31-1.55.94-2.18c.62-.63,1.35-.95,2.17-.95ZM188.52,135.52h5.33v26.95h-5.33v-26.95Z"/>
    <path d="M221.78,156.17v5.27c-2.68,1-5.29,1.49-7.85,1.49-4.22,0-7.58-1.25-10.09-3.75-2.51-2.5-3.76-5.85-3.76-10.05s1.22-7.66,3.66-10.25c2.44-2.6,5.65-3.9,9.64-3.9,1.39,0,2.63.13,3.74.4s2.47.76,4.09,1.48v5.68c-2.7-1.72-5.2-2.58-7.5-2.58s-4.38.85-5.92,2.53c-1.54,1.69-2.31,3.84-2.31,6.46,0,2.75.83,4.94,2.5,6.56,1.67,1.62,3.92,2.43,6.75,2.43,2.05,0,4.4-.6,7.06-1.79Z"/>
  </g>
  <g>
    <path d="M90.45,214.1v-40.99h12.98c3.91,0,7.02,1.05,9.35,3.16,2.32,2.11,3.49,4.94,3.49,8.5,0,2.38-.6,4.49-1.79,6.33-1.19,1.84-2.82,3.17-4.89,4-2.07.83-5.04,1.25-8.91,1.25h-4.34v17.75h-5.89ZM102.41,178.33h-6.06v12.8h6.42c2.38,0,4.22-.56,5.51-1.68s1.93-2.73,1.93-4.82c0-4.2-2.6-6.3-7.79-6.3Z"/>
    <path d="M137.56,197.9v11.46c0,.92.31,1.38.94,1.38s1.65-.48,3.02-1.44v3.25c-1.21.78-2.18,1.31-2.91,1.6-.73.28-1.5.42-2.3.42-2.28,0-3.63-.9-4.04-2.7-2.27,1.76-4.68,2.64-7.24,2.64-1.88,0-3.44-.62-4.69-1.86-1.25-1.24-1.88-2.8-1.88-4.67,0-1.7.61-3.22,1.83-4.56,1.22-1.34,2.95-2.4,5.2-3.18l6.83-2.34v-1.44c0-3.24-1.62-4.86-4.86-4.86-2.91,0-5.74,1.5-8.5,4.51v-5.83c2.07-2.44,5.05-3.66,8.94-3.66,2.91,0,5.24.76,7,2.29.59.49,1.11,1.14,1.58,1.95s.77,1.62.89,2.43.19,2.35.19,4.61ZM132.32,208.77v-8l-3.57,1.38c-1.82.72-3.1,1.45-3.85,2.18-.75.73-1.13,1.65-1.13,2.74s.36,2.02,1.07,2.72c.71.7,1.64,1.05,2.77,1.05,1.7,0,3.27-.69,4.72-2.08Z"/>
    <path d="M166.45,207.8v5.27c-2.68,1-5.29,1.49-7.85,1.49-4.22,0-7.58-1.25-10.09-3.75s-3.76-5.85-3.76-10.05,1.22-7.66,3.66-10.25,5.65-3.9,9.64-3.9c1.39,0,2.63.13,3.74.4s2.47.76,4.09,1.48v5.68c-2.7-1.72-5.2-2.58-7.5-2.58s-4.38.84-5.92,2.53-2.31,3.84-2.31,6.46c0,2.75.83,4.94,2.5,6.56s3.92,2.43,6.75,2.43c2.05,0,4.4-.6,7.06-1.79Z"/>
    <path d="M172.51,173.17h5.33v40.93h-5.33v-40.93ZM190.06,187.14h6.33l-11.5,13.18,13.84,13.77h-7.15l-13.5-13.75,11.98-13.2Z"/>
  </g>
  <line class="cls-2" x1="18.77" y1="343.76" x2="131.96" y2="343.76"/>
  <path class="cls-2" d="M148.11,344.7l113.89-1.89"/>
  <path class="cls-2" d="M68.45,330.38l159.34-3.16"/>
</svg>