<?xml version="1.0" encoding="UTF-8"?>
<svg id="Outline" xmlns="http://www.w3.org/2000/svg" width="285.02" height="368.18" xmlns:xlink="http://www.w3.org/1999/xlink" viewBox="0 0 285.02 368.18">
  <defs>
    <style>
      .cls-1 {
        fill: url(#linear-gradient);
        stroke-width: 5px;
      }

      .cls-1, .cls-2 {
        stroke: #231f20;
        stroke-miterlimit: 10;
      }

      .cls-2 {
        fill: none;
        stroke-width: 4px;
      }
    </style>
    <linearGradient id="linear-gradient" x1="2.5" y1="187.07" x2="282.5" y2="187.07" gradientUnits="userSpaceOnUse">
      <stop offset="0" stop-color="#0cf"/>
      <stop offset="0" stop-color="#ff69b4"/>
      <stop offset=".16" stop-color="#fa65b2"/>
      <stop offset=".34" stop-color="#ec59ac"/>
      <stop offset=".54" stop-color="#d546a2"/>
      <stop offset=".74" stop-color="#b52c95"/>
      <stop offset=".94" stop-color="#8c0a85"/>
      <stop offset="1" stop-color="purple"/>
    </linearGradient>
  </defs>
  <path class="cls-1" d="M2.77,14.88l279.73-1.34c-.02,2.64-.48,6.74-2.89,11.35-1.98,3.8-4.6,6.64-6.64,8.52-1.64,102.25-3.27,204.5-4.91,306.75,2.07,2.54,4.29,5.69,6.22,9.44,1.72,3.34,2.85,6.43,3.6,9.1-91.57.64-183.14,1.28-274.71,1.92.1-2,.52-4.58,1.73-7.46,1.93-4.55,5.01-7.83,7.22-9.8,1.16-102.46,2.31-204.92,3.47-307.38-2.25-1.12-7.84-4.24-10.98-10.01-2.61-4.81-2.21-9.07-1.84-11.08Z"/>
  <line class="cls-2" x1="25.86" y1="38.34" x2="139.05" y2="38.34"/>
  <path class="cls-2" d="M68.45,55.59l159.34-3.16"/>
  <path class="cls-2" d="M152.26,38.34l113.89-1.89"/>
  <g>
    <path d="M94.5,121.54h23.2v5.21h-17.34v12.48h16.76v5.24h-16.76v12.71h17.9v5.21h-23.76v-40.87Z"/>
    <path d="M123.88,121.54h5.33v40.93h-5.33v-40.93Z"/>
    <path d="M139.67,124.18c.88,0,1.63.3,2.26.91.62.61.94,1.35.94,2.23s-.31,1.6-.94,2.23c-.62.63-1.38.94-2.26.94-.82,0-1.54-.32-2.17-.95-.63-.63-.94-1.37-.94-2.21s.31-1.55.94-2.18c.62-.63,1.35-.95,2.17-.95ZM137.04,135.52h5.33v26.95h-5.33v-26.95Z"/>
    <path d="M146.29,139.8l10.02-9.84v5.57h8.53v4.8h-8.53v13.19c0,3.08,1.28,4.62,3.84,4.62,1.91,0,3.94-.63,6.06-1.9v4.98c-2.05,1.15-4.29,1.73-6.71,1.73s-4.47-.71-6.09-2.14c-.51-.43-.93-.91-1.26-1.45-.33-.54-.61-1.24-.83-2.11-.22-.87-.34-2.52-.34-4.97v-11.95h-4.69v-.53Z"/>
    <path d="M193.02,149.46h-18.96c.14,2.58,1,4.63,2.59,6.15s3.65,2.29,6.17,2.29c3.52,0,6.76-1.09,9.73-3.28v5.21c-1.64,1.09-3.27,1.88-4.88,2.34s-3.5.7-5.67.7c-2.97,0-5.37-.62-7.21-1.85s-3.31-2.89-4.41-4.97-1.66-4.49-1.66-7.22c0-4.1,1.16-7.44,3.49-10,2.32-2.57,5.34-3.85,9.05-3.85s6.43,1.25,8.55,3.75c2.13,2.5,3.19,5.85,3.19,10.05v.67ZM174.18,146.27h13.56c-.14-2.13-.77-3.77-1.9-4.92-1.13-1.15-2.66-1.73-4.57-1.73s-3.48.58-4.7,1.73c-1.22,1.15-2.02,2.79-2.39,4.92Z"/>
  </g>
  <g>
    <path d="M90.45,214.1v-40.99h12.98c3.91,0,7.02,1.05,9.35,3.16,2.32,2.11,3.49,4.94,3.49,8.5,0,2.38-.6,4.49-1.79,6.33-1.19,1.84-2.82,3.17-4.89,4-2.07.83-5.04,1.25-8.91,1.25h-4.34v17.75h-5.89ZM102.41,178.33h-6.06v12.8h6.42c2.38,0,4.22-.56,5.51-1.68s1.93-2.73,1.93-4.82c0-4.2-2.6-6.3-7.79-6.3Z"/>
    <path d="M137.56,197.9v11.46c0,.92.31,1.38.94,1.38s1.65-.48,3.02-1.44v3.25c-1.21.78-2.18,1.31-2.91,1.6-.73.28-1.5.42-2.3.42-2.28,0-3.63-.9-4.04-2.7-2.27,1.76-4.68,2.64-7.24,2.64-1.88,0-3.44-.62-4.69-1.86-1.25-1.24-1.88-2.8-1.88-4.67,0-1.7.61-3.22,1.83-4.56,1.22-1.34,2.95-2.4,5.2-3.18l6.83-2.34v-1.44c0-3.24-1.62-4.86-4.86-4.86-2.91,0-5.74,1.5-8.5,4.51v-5.83c2.07-2.44,5.05-3.66,8.94-3.66,2.91,0,5.24.76,7,2.29.59.49,1.11,1.14,1.58,1.95s.77,1.62.89,2.43.19,2.35.19,4.61ZM132.32,208.77v-8l-3.57,1.38c-1.82.72-3.1,1.45-3.85,2.18-.75.73-1.13,1.65-1.13,2.74s.36,2.02,1.07,2.72c.71.7,1.64,1.05,2.77,1.05,1.7,0,3.27-.69,4.72-2.08Z"/>
    <path d="M166.45,207.8v5.27c-2.68,1-5.29,1.49-7.85,1.49-4.22,0-7.58-1.25-10.09-3.75s-3.76-5.85-3.76-10.05,1.22-7.66,3.66-10.25,5.65-3.9,9.64-3.9c1.39,0,2.63.13,3.74.4s2.47.76,4.09,1.48v5.68c-2.7-1.72-5.2-2.58-7.5-2.58s-4.38.84-5.92,2.53-2.31,3.84-2.31,6.46c0,2.75.83,4.94,2.5,6.56s3.92,2.43,6.75,2.43c2.05,0,4.4-.6,7.06-1.79Z"/>
    <path d="M172.51,173.17h5.33v40.93h-5.33v-40.93ZM190.06,187.14h6.33l-11.5,13.18,13.84,13.77h-7.15l-13.5-13.75,11.98-13.2Z"/>
  </g>
  <line class="cls-2" x1="18.77" y1="343.76" x2="131.96" y2="343.76"/>
  <path class="cls-2" d="M148.11,344.7l113.89-1.89"/>
  <path class="cls-2" d="M68.45,330.38l159.34-3.16"/>
</svg>