<?xml version="1.0" encoding="UTF-8"?>
<svg id="Outline" xmlns="http://www.w3.org/2000/svg" width="285.02" height="368.18" xmlns:xlink="http://www.w3.org/1999/xlink" viewBox="0 0 285.02 368.18">
  <defs>
    <style>
      .cls-1 {
        fill: url(#linear-gradient);
        stroke-width: 5px;
      }

      .cls-1, .cls-2, .cls-3 {
        stroke: #231f20;
        stroke-miterlimit: 10;
      }

      .cls-4, .cls-2 {
        stroke-width: 2px;
      }

      .cls-4, .cls-5 {
        fill: #fbae00;
      }

      .cls-4, .cls-5, .cls-6, .cls-7 {
        stroke-linecap: round;
        stroke-linejoin: round;
      }

      .cls-4, .cls-7 {
        stroke: #414042;
      }

      .cls-2, .cls-8 {
        fill: #fff;
      }

      .cls-5, .cls-6 {
        stroke: #fff;
      }

      .cls-9 {
        filter: url(#drop-shadow-1);
      }

      .cls-6 {
        fill: #414042;
      }

      .cls-10 {
        opacity: .2;
      }

      .cls-7, .cls-3 {
        fill: none;
        stroke-width: 3px;
      }
    </style>
    <linearGradient id="linear-gradient" x1="2.5" y1="187.07" x2="282.5" y2="187.07" gradientUnits="userSpaceOnUse">
      <stop offset="0" stop-color="#0cf"/>
      <stop offset="0" stop-color="#ff7ada"/>
      <stop offset=".24" stop-color="#e761cc"/>
      <stop offset=".75" stop-color="#aa21a9"/>
      <stop offset="1" stop-color="#8a0097"/>
    </linearGradient>
    <filter id="drop-shadow-1" x="45.5" y="105.09" width="210" height="132" filterUnits="userSpaceOnUse">
      <feOffset dx="7" dy="7"/>
      <feGaussianBlur result="blur" stdDeviation="5"/>
      <feFlood flood-color="#000" flood-opacity=".75"/>
      <feComposite in2="blur" operator="in"/>
      <feComposite in="SourceGraphic"/>
    </filter>
  </defs>
  <path class="cls-1" d="M2.77,14.88l279.73-1.34c-.02,2.64-.48,6.74-2.89,11.35-1.98,3.8-4.6,6.64-6.64,8.52-1.64,102.25-3.27,204.5-4.91,306.75,2.07,2.54,4.29,5.69,6.22,9.44,1.72,3.34,2.85,6.43,3.6,9.1-91.57.64-183.14,1.28-274.71,1.92.1-2,.52-4.58,1.73-7.46,1.93-4.55,5.01-7.83,7.22-9.8,1.16-102.46,2.31-204.92,3.47-307.38-2.25-1.12-7.84-4.24-10.98-10.01-2.61-4.81-2.21-9.07-1.84-11.08Z"/>
  <line class="cls-3" x1="25.86" y1="38.34" x2="139.05" y2="38.34"/>
  <path class="cls-3" d="M68.45,55.59l159.34-3.16"/>
  <path class="cls-3" d="M152.26,38.34l113.89-1.89"/>
  <line class="cls-3" x1="18.77" y1="343.76" x2="131.96" y2="343.76"/>
  <path class="cls-3" d="M148.11,344.7l113.89-1.89"/>
  <path class="cls-3" d="M68.45,330.38l159.34-3.16"/>
  <g class="cls-10">
    <path class="cls-5" d="M109.3,293.64c.12.34,2.11,6.58-1.99,11.46-2.99,3.56-7.18,3.95-8.02,4.02-1.47.16-4.32.24-7.43-1.13-5.38-2.38-7.44-7.31-7.88-8.43-.55.53-3.86,3.59-8.91,3.33-5.26-.27-8.3-3.94-8.76-4.51.24-1.5.85-4.01,2.58-6.58,2.64-3.92,6.26-5.56,7.73-6.14"/>
    <path class="cls-5" d="M170.4,297.55c-.12.34-2.11,6.58,1.99,11.46,2.99,3.56,7.18,3.95,8.02,4.02,1.47.16,4.32.24,7.43-1.13,5.38-2.38,7.44-7.31,7.88-8.43.55.53,3.86,3.59,8.91,3.33,5.26-.27,8.3-3.94,8.76-4.51-.24-1.5-.85-4.01-2.58-6.58-2.64-3.92-6.26-5.56-7.73-6.14"/>
    <path class="cls-6" d="M206.91,209.68c2.04,9.07,3.76,16.57,5.01,21.9,3.47,14.92,4.44,18.57,4.63,25.07.21,6.81.33,13.8-3.53,21.3-2.99,5.79-7.12,9.51-9.93,11.61-2.53,2.17-7.43,5.77-14.58,7.69-8.05,2.17-14.8,1.07-18.11.3-7.93-1.85-16.04-3.72-23.78-6.24-7.57-2.45-13.77-1.49-21.5-.03-15.39,2.9-31.42,2.3-46.55-1.73-9.51-2.53-14.12-13.56-16.37-22.48-3.42-13.58.06-24.76,1.62-28.99,2.65-6.58,5.24-14.57,7-23.82.93-4.9,1.5-9.51,1.83-13.75-28.79-26.62-41.77-41.93-38.93-45.93,2.47-3.49,16.98,1.61,43.5,15.31.67-23.57,1.2-50.65,14.5-71.08,8.44-12.97,24.12-19.57,38.95-21.96-.37-.75-2.75-5.7-.45-11.02.94-2.18,2.55-4.06,4.5-5.42.17-.12.37-.24.57-.21.19.02.34.16.48.3,3.19,3.1,6.41,6.17,9.62,9.25,2.04-2.29,5.1-5.12,9.35-7.47,1.79-.99,3.51-1.74,5.08-2.29,1.26.36,2.02.98,2.42,1.4,1.79,1.83,2.09,5.01.81,8.06-1.08,2.57-2.16,5.14-3.23,7.7,4.97,1.18,21.71,5.79,33.56,21.97,7.76,10.58,9.9,21.3,10.61,26.84,1.14,6.7,1.99,15.22,1.54,25.07-.43,9.35-1.91,17.4-3.54,23.75,4.41-2.44,10.25-5.6,17.23-9.1,17.44-8.77,26.23-13.11,29.33-10.86,6.21,4.5-36.42,52.6-41.62,54.87Z"/>
    <path class="cls-8" d="M88.6,143.87c.17,3.7.55,7.4.88,11,.93,10.07-.01,20.58-1.48,30.58-1.39,9.47-2.82,12.67-5.68,23.26-3.36,12.42-7.76,25.91-7.12,38.89.47,9.58,5.18,19.86,13.24,25.37,5.83,3.98,12.35,5.73,20.27,6.07,6.29.27,12.62.56,18.97.87,7.01.34,13.98.7,20.91,1.08,10.17.56,20.73,1.4,30.7-1.19,12.37-3.22,17.87-13.73,18.24-25.97.22-7.2-1.45-14.02-2.68-21.05-1.17-6.65-2.33-13.36-3.57-20.02-2.37-12.74-4.19-25.67-3.65-38.66.85-20.54,1.47-45.38-12.08-62.44-4.67-5.87-12.98-9.84-20.4-7.12-6.71,2.46-9.69,9.67-11.69,15.97-.6,1.89-5.83,16.98-3.83,17.26-2.47-.35-2.84.27-5.32-.08,0,0-5.78.3-5.93.3-.78,0-3.4-18.95-3.71-20.51-.63-3.11-1.84-6.29-4.31-8.28-1.77-1.42-4.03-2.1-6.29-2.34-10.22-1.07-17.77,6.61-21.97,15.12-3.37,6.85-3.85,14.38-3.5,21.89Z"/>
    <path class="cls-7" d="M97.21,130.58c.37-1.26,1.46-4.31,4.44-6.59.79-.61,5.55-4.25,10.36-2.06,3.48,1.58,5.65,5.6,5.3,9.98"/>
    <path class="cls-7" d="M149.68,130.58c.37-1.26,1.46-4.31,4.44-6.59.79-.61,5.55-4.25,10.36-2.06,3.48,1.58,5.65,5.6,5.3,9.98"/>
    <path class="cls-4" d="M143.91,138.6c-.17-.85-.96-1.01-12.07-1.12-7.72-.08-8.97-.02-9.23,1.12-.58,2.5,3.81,9.13,8.88,10.09,6.57,1.24,12.99-7.3,12.43-10.09Z"/>
  </g>
  <g class="cls-9">
    <polygon class="cls-2" points="100.98 152.68 83.88 152.68 85.42 145.19 100.51 145.19 102.32 136.46 87.23 136.46 88.57 129.61 105.68 129.61 107.49 120.53 77.24 120.53 68.85 161.82 99.17 161.82 100.98 152.68"/>
    <polygon class="cls-2" points="118.82 161.82 127.61 118.48 114.4 118.48 105.61 161.82 118.82 161.82"/>
    <path class="cls-2" d="M140.22,125.92c1.65,0,3.17-.31,4.56-.94,1.39-.62,2.47-1.46,3.25-2.52.78-1.05,1.17-2.21,1.17-3.46,0-1.44-.59-2.63-1.78-3.54-1.18-.92-2.81-1.38-4.86-1.38-1.7,0-3.23.32-4.59.97-1.37.64-2.44,1.5-3.22,2.58-.78,1.07-1.17,2.24-1.17,3.48,0,1.41.59,2.56,1.78,3.46,1.18.9,2.81,1.35,4.86,1.35Z"/>
    <polygon class="cls-2" points="139.48 161.82 146.12 128.96 132.98 128.96 126.27 161.82 139.48 161.82"/>
    <path class="cls-2" d="M153.77,138.51l-2.21,10.83c-.27,1.29-.4,2.44-.4,3.46,0,6.01,4.09,9.02,12.28,9.02h5.77l2.01-9.78h-3.82c-.98,0-1.69-.15-2.11-.44-.43-.29-.64-.75-.64-1.38,0-.27.02-.51.07-.7l2.28-11.01h6.77l1.94-9.55h-6.77l1.61-7.96h-13.21l-1.61,7.96h-4.63l-1.94,9.55h4.63Z"/>
    <path class="cls-2" d="M192.07,162.23c3.09,0,6-.51,8.75-1.52,2.75-1.02,5.14-2.41,7.18-4.19s3.56-3.8,4.59-6.06h-13.95c-1.3,1.72-3.04,2.58-5.23,2.58-1.39,0-2.49-.35-3.32-1.05-.83-.7-1.24-1.8-1.24-3.28,0-.47.02-.82.07-1.05h24.89c.27-.55.54-1.44.81-2.69.22-1.02.34-2.19.34-3.51,0-3.98-1.44-7.12-4.33-9.43-2.88-2.3-6.79-3.46-11.7-3.46-3.76,0-7.21.68-10.36,2.05-3.15,1.37-5.79,3.31-7.92,5.83-2.12,2.52-3.54,5.5-4.26,8.93-.27,1.29-.4,2.52-.4,3.69,0,4.1,1.45,7.32,4.36,9.66,2.91,2.34,6.82,3.51,11.74,3.51ZM192.67,138.86c1.21-.82,2.64-1.23,4.29-1.23,1.43,0,2.59.32,3.49.97.89.64,1.34,1.59,1.34,2.84,0,.16-.05.51-.13,1.05h-11.67c.58-1.6,1.48-2.81,2.68-3.63Z"/>
    <path class="cls-2" d="M94.37,175.35c-2.59-1.97-6.37-2.96-11.34-2.96h-19.65l-8.39,41.29h13.21l2.82-13.94h6.51c3.85,0,7.22-.61,10.13-1.84,2.91-1.23,5.22-2.87,6.94-4.92,1.72-2.05,2.83-4.32,3.32-6.82.22-1.09.34-2.05.34-2.87,0-3.32-1.3-5.96-3.89-7.94ZM84.58,186.15c-.58,3.01-2.73,4.51-6.44,4.51h-5.23l1.81-9.08h5.23c1.61,0,2.81.3,3.59.91.78.61,1.17,1.43,1.17,2.49,0,.23-.05.63-.13,1.17Z"/>
    <path class="cls-2" d="M128.31,185.39c-.67-1.52-1.86-2.73-3.56-3.63-1.7-.9-3.85-1.35-6.44-1.35-3,0-5.85.68-8.55,2.05-2.71,1.37-5.02,3.32-6.94,5.86-1.92,2.54-3.24,5.5-3.96,8.9-.27,1.44-.4,2.81-.4,4.1,0,3.94,1.18,7.06,3.56,9.34,2.37,2.28,5.52,3.43,9.46,3.43,2.55,0,4.87-.45,6.98-1.35,2.1-.9,3.8-2.11,5.1-3.63l-.94,4.57h13.15l6.64-32.85h-13.15l-.94,4.57ZM125.97,197.22c-.4,2.15-1.39,3.83-2.95,5.04-1.57,1.21-3.33,1.82-5.3,1.82-1.65,0-3.01-.45-4.06-1.35-1.05-.9-1.58-2.17-1.58-3.81,0-.55.07-1.11.2-1.7.4-2.15,1.39-3.82,2.95-5.01,1.56-1.19,3.33-1.79,5.3-1.79,1.65,0,3.01.45,4.06,1.35,1.05.9,1.58,2.17,1.58,3.81,0,.51-.07,1.05-.2,1.64Z"/>
    <path class="cls-2" d="M160.38,191.98c1.21-1.19,2.64-1.79,4.29-1.79,2.37,0,3.73,1.07,4.09,3.22h14.02c-.13-4.1-1.61-7.29-4.43-9.58-2.82-2.28-6.62-3.43-11.4-3.43-3.71,0-7.14.68-10.3,2.05-3.15,1.37-5.79,3.31-7.92,5.83-2.12,2.52-3.54,5.5-4.26,8.93-.27,1.29-.4,2.52-.4,3.69,0,4.1,1.44,7.32,4.33,9.66,2.88,2.34,6.79,3.51,11.7,3.51s9.11-1.15,12.84-3.46c3.73-2.3,6.47-5.49,8.22-9.55h-14.02c-1.12,2.15-2.88,3.22-5.3,3.22-1.3,0-2.33-.4-3.08-1.2-.76-.8-1.14-1.98-1.14-3.54,0-.78.09-1.56.27-2.34.45-2.3,1.27-4.05,2.48-5.24Z"/>
    <polygon class="cls-2" points="230 180.82 214.24 180.82 201.29 193.65 205.99 170.34 192.77 170.34 183.99 213.68 197.2 213.68 199.95 200.27 207.53 213.68 223.56 213.68 211.82 197.34 230 180.82"/>
  </g>
</svg>