<?xml version="1.0" encoding="UTF-8"?>
<svg id="Outline" xmlns="http://www.w3.org/2000/svg" width="285.02" height="368.18" xmlns:xlink="http://www.w3.org/1999/xlink" viewBox="0 0 285.02 368.18">
  <defs>
    <style>
      .cls-1 {
        fill: url(#linear-gradient);
        stroke-width: 5px;
      }

      .cls-1, .cls-2, .cls-3 {
        stroke: #231f20;
        stroke-miterlimit: 10;
      }

      .cls-4 {
        filter: url(#drop-shadow-2);
      }

      .cls-5, .cls-2 {
        stroke-width: 2px;
      }

      .cls-5, .cls-6 {
        fill: #fbae00;
      }

      .cls-5, .cls-6, .cls-7, .cls-8 {
        stroke-linecap: round;
        stroke-linejoin: round;
      }

      .cls-5, .cls-8 {
        stroke: #414042;
      }

      .cls-2, .cls-9 {
        fill: #fff;
      }

      .cls-6, .cls-7 {
        stroke: #fff;
      }

      .cls-10 {
        filter: url(#drop-shadow-1);
      }

      .cls-7 {
        fill: #414042;
      }

      .cls-11 {
        opacity: .2;
      }

      .cls-8, .cls-3 {
        fill: none;
        stroke-width: 3px;
      }
    </style>
    <linearGradient id="linear-gradient" x1="2.5" y1="187.07" x2="282.5" y2="187.07" gradientUnits="userSpaceOnUse">
      <stop offset="0" stop-color="#0049ff"/>
      <stop offset=".11" stop-color="#0063ff"/>
      <stop offset=".31" stop-color="#008fff"/>
      <stop offset=".51" stop-color="#00b2ff"/>
      <stop offset=".69" stop-color="#00cbff"/>
      <stop offset=".86" stop-color="#00daff"/>
      <stop offset="1" stop-color="#00e0ff"/>
    </linearGradient>
    <filter id="drop-shadow-1" x="25.5" y="106.09" width="248" height="75" filterUnits="userSpaceOnUse">
      <feOffset dx="7" dy="7"/>
      <feGaussianBlur result="blur" stdDeviation="5"/>
      <feFlood flood-color="#000" flood-opacity=".75"/>
      <feComposite in2="blur" operator="in"/>
      <feComposite in="SourceGraphic"/>
    </filter>
    <filter id="drop-shadow-2" x="55.5" y="159.09" width="188" height="77" filterUnits="userSpaceOnUse">
      <feOffset dx="7" dy="7"/>
      <feGaussianBlur result="blur-2" stdDeviation="5"/>
      <feFlood flood-color="#000" flood-opacity=".75"/>
      <feComposite in2="blur-2" operator="in"/>
      <feComposite in="SourceGraphic"/>
    </filter>
  </defs>
  <path class="cls-1" d="M2.77,14.88l279.73-1.34c-.02,2.64-.48,6.74-2.89,11.35-1.98,3.8-4.6,6.64-6.64,8.52-1.64,102.25-3.27,204.5-4.91,306.75,2.07,2.54,4.29,5.69,6.22,9.44,1.72,3.34,2.85,6.43,3.6,9.1-91.57.64-183.14,1.28-274.71,1.92.1-2,.52-4.58,1.73-7.46,1.93-4.55,5.01-7.83,7.22-9.8,1.16-102.46,2.31-204.92,3.47-307.38-2.25-1.12-7.84-4.24-10.98-10.01-2.61-4.81-2.21-9.07-1.84-11.08Z"/>
  <line class="cls-3" x1="25.86" y1="38.34" x2="139.05" y2="38.34"/>
  <path class="cls-3" d="M68.45,55.59l159.34-3.16"/>
  <path class="cls-3" d="M152.26,38.34l113.89-1.89"/>
  <line class="cls-3" x1="18.77" y1="343.76" x2="131.96" y2="343.76"/>
  <path class="cls-3" d="M148.11,344.7l113.89-1.89"/>
  <path class="cls-3" d="M68.45,330.38l159.34-3.16"/>
  <g class="cls-11">
    <path class="cls-6" d="M110.56,297.12c.12.34,2.11,6.58-1.99,11.46-2.99,3.56-7.18,3.95-8.02,4.02-1.47.16-4.32.24-7.43-1.13-5.38-2.38-7.44-7.31-7.88-8.43-.55.53-3.86,3.59-8.91,3.33-5.26-.27-8.3-3.94-8.76-4.51.24-1.5.85-4.01,2.58-6.58,2.64-3.92,6.26-5.56,7.73-6.14"/>
    <path class="cls-6" d="M171.66,301.03c-.12.34-2.11,6.58,1.99,11.46,2.99,3.56,7.18,3.95,8.02,4.02,1.47.16,4.32.24,7.43-1.13,5.38-2.38,7.44-7.31,7.88-8.43.55.53,3.86,3.59,8.91,3.33,5.26-.27,8.3-3.94,8.76-4.51-.24-1.5-.85-4.01-2.58-6.58-2.64-3.92-6.26-5.56-7.73-6.14"/>
    <path class="cls-7" d="M208.17,213.16c2.04,9.07,3.76,16.57,5.01,21.9,3.47,14.92,4.44,18.57,4.63,25.07.21,6.81.33,13.8-3.53,21.3-2.99,5.79-7.12,9.51-9.93,11.61-2.53,2.17-7.43,5.77-14.58,7.69-8.05,2.17-14.8,1.07-18.11.3-7.93-1.85-16.04-3.72-23.78-6.24s-13.77-1.49-21.5-.03c-15.39,2.9-31.42,2.3-46.55-1.73-9.51-2.53-14.12-13.56-16.37-22.48-3.42-13.58.06-24.76,1.62-28.99,2.65-6.58,5.24-14.57,7-23.82.93-4.9,1.5-9.51,1.83-13.75-28.79-26.62-41.77-41.93-38.93-45.93,2.47-3.49,16.98,1.61,43.5,15.31.67-23.57,1.2-50.65,14.5-71.08,8.44-12.97,24.12-19.57,38.95-21.96-.37-.75-2.75-5.7-.45-11.02.94-2.18,2.55-4.06,4.5-5.42.17-.12.37-.24.57-.21.19.02.34.16.48.3,3.19,3.1,6.41,6.17,9.62,9.25,2.04-2.29,5.1-5.12,9.35-7.47,1.79-.99,3.51-1.74,5.08-2.29,1.26.36,2.02.98,2.42,1.4,1.79,1.83,2.09,5.01.81,8.06-1.08,2.57-2.16,5.14-3.23,7.7,4.97,1.18,21.71,5.79,33.56,21.97,7.76,10.58,9.9,21.3,10.61,26.84,1.14,6.7,1.99,15.22,1.54,25.07-.43,9.35-1.91,17.4-3.54,23.75,4.41-2.44,10.25-5.6,17.23-9.1,17.44-8.77,26.23-13.11,29.33-10.86,6.21,4.5-36.42,52.6-41.62,54.87Z"/>
    <path class="cls-9" d="M89.86,147.35c.17,3.7.55,7.4.88,11,.93,10.07-.01,20.58-1.48,30.58-1.39,9.47-2.82,12.67-5.68,23.26-3.36,12.42-7.76,25.91-7.12,38.89.47,9.58,5.18,19.86,13.24,25.37,5.83,3.98,12.35,5.73,20.27,6.07,6.29.27,12.62.56,18.97.87,7.01.34,13.98.7,20.91,1.08,10.17.56,20.73,1.4,30.7-1.19,12.37-3.22,17.87-13.73,18.24-25.97.22-7.2-1.45-14.02-2.68-21.05-1.17-6.65-2.33-13.36-3.57-20.02-2.37-12.74-4.19-25.67-3.65-38.66.85-20.54,1.47-45.38-12.08-62.44-4.67-5.87-12.98-9.84-20.4-7.12-6.71,2.46-9.69,9.67-11.69,15.97-.6,1.89-5.83,16.98-3.83,17.26-2.47-.35-2.84.27-5.32-.08,0,0-5.78.3-5.93.3-.78,0-3.4-18.95-3.71-20.51-.63-3.11-1.84-6.29-4.31-8.28-1.77-1.42-4.03-2.1-6.29-2.34-10.22-1.07-17.77,6.61-21.97,15.12-3.37,6.85-3.85,14.38-3.5,21.89Z"/>
    <path class="cls-8" d="M98.47,134.06c.37-1.26,1.46-4.31,4.44-6.59.79-.61,5.55-4.25,10.36-2.06,3.48,1.58,5.65,5.6,5.3,9.98"/>
    <path class="cls-8" d="M150.94,134.06c.37-1.26,1.46-4.31,4.44-6.59.79-.61,5.55-4.25,10.36-2.06,3.48,1.58,5.65,5.6,5.3,9.98"/>
    <path class="cls-5" d="M145.17,142.08c-.17-.85-.96-1.01-12.07-1.12-7.72-.08-8.97-.02-9.23,1.12-.58,2.5,3.81,9.13,8.88,10.09,6.57,1.24,12.99-7.3,12.43-10.09Z"/>
  </g>
  <g>
    <g class="cls-10">
      <path class="cls-2" d="M39.45,154.85c-2.9-1.97-4.36-4.84-4.36-8.63,0-.31.04-.86.12-1.64h12.11c-.12,1.33.16,2.36.82,3.1.66.74,1.68,1.11,3.04,1.11,1.13,0,2.04-.25,2.72-.76.68-.51,1.02-1.23,1.02-2.16,0-1.09-.5-1.99-1.49-2.69s-2.6-1.52-4.83-2.46-4.06-1.82-5.5-2.66c-1.44-.84-2.69-1.99-3.74-3.45-1.05-1.46-1.58-3.28-1.58-5.47,0-2.85.7-5.29,2.11-7.34,1.4-2.05,3.36-3.61,5.88-4.68,2.52-1.07,5.39-1.61,8.63-1.61,2.92,0,5.52.46,7.78,1.37,2.26.92,4.03,2.23,5.29,3.95,1.27,1.72,1.9,3.74,1.9,6.08,0,.62-.02,1.09-.06,1.4h-12.34c.04-.19.06-.47.06-.82,0-.94-.29-1.67-.88-2.19-.58-.53-1.38-.79-2.4-.79s-1.9.26-2.54.79c-.64.53-.97,1.26-.97,2.19,0,1.01.5,1.88,1.49,2.6.99.72,2.54,1.57,4.65,2.54,2.26,1.05,4.12,2.04,5.59,2.95,1.46.92,2.72,2.13,3.77,3.66s1.58,3.39,1.58,5.61c0,2.46-.66,4.67-1.99,6.64-1.33,1.97-3.22,3.51-5.67,4.62-2.46,1.11-5.36,1.67-8.71,1.67-4.76,0-8.59-.98-11.49-2.95Z"/>
      <path class="cls-2" d="M86.32,145.11c-.04.2-.06.43-.06.7,0,.62.18,1.08.56,1.37.37.29.98.44,1.84.44h3.33l-1.75,9.77h-5.03c-7.13,0-10.7-3-10.7-9.01,0-1.01.12-2.16.35-3.45l1.93-10.82h-4.04l1.7-9.53h4.04l1.4-7.95h11.52l-1.4,7.95h5.91l-1.7,9.53h-5.91l-1.99,11Z"/>
      <path class="cls-2" d="M99.95,132.07c1.68-2.53,3.69-4.48,6.05-5.85,2.36-1.36,4.84-2.05,7.46-2.05,2.26,0,4.13.45,5.62,1.35,1.48.9,2.51,2.11,3.1,3.63l.82-4.56h11.46l-5.79,32.81h-11.46l.82-4.56c-1.13,1.52-2.61,2.73-4.44,3.63-1.83.9-3.86,1.35-6.08,1.35-3.43,0-6.18-1.14-8.25-3.42-2.07-2.28-3.1-5.39-3.1-9.33,0-1.29.12-2.65.35-4.09.62-3.39,1.77-6.36,3.45-8.89ZM120.3,139.32c0-1.64-.46-2.9-1.37-3.8-.92-.9-2.1-1.35-3.54-1.35-1.72,0-3.26.6-4.62,1.78-1.37,1.19-2.22,2.86-2.57,5-.12.58-.18,1.15-.18,1.7,0,1.64.46,2.91,1.37,3.8.92.9,2.1,1.35,3.54,1.35,1.72,0,3.26-.6,4.62-1.81,1.36-1.21,2.22-2.88,2.57-5.03.12-.58.18-1.13.18-1.64Z"/>
      <path class="cls-2" d="M156.92,125.98c2.03-1.13,4.09-1.7,6.2-1.7l-2.11,12.22h-3.22c-2.42,0-4.31.45-5.67,1.35-1.37.9-2.28,2.46-2.75,4.68l-2.63,14.86h-11.52l5.85-32.81h11.46l-1.05,5.97c1.6-1.91,3.41-3.43,5.44-4.56Z"/>
      <path class="cls-2" d="M176.86,145.11c-.04.2-.06.43-.06.7,0,.62.18,1.08.56,1.37.37.29.98.44,1.84.44h3.33l-1.75,9.77h-5.03c-7.13,0-10.7-3-10.7-9.01,0-1.01.12-2.16.35-3.45l1.93-10.82h-4.03l1.7-9.53h4.04l1.4-7.95h11.52l-1.4,7.95h5.91l-1.7,9.53h-5.91l-1.99,11Z"/>
      <path class="cls-2" d="M216.89,127.62c2.52,2.3,3.77,5.44,3.77,9.42,0,1.33-.1,2.5-.29,3.51-.23,1.25-.47,2.14-.7,2.69h-21.7c-.04.23-.06.58-.06,1.05,0,1.48.36,2.57,1.08,3.28.72.7,1.69,1.05,2.89,1.05,1.91,0,3.43-.86,4.56-2.57h12.17c-.9,2.26-2.23,4.28-4.01,6.05-1.77,1.77-3.86,3.17-6.26,4.18-2.4,1.01-4.94,1.52-7.63,1.52-4.29,0-7.7-1.17-10.24-3.51s-3.8-5.56-3.8-9.65c0-1.17.12-2.4.35-3.68.62-3.43,1.86-6.4,3.71-8.92,1.85-2.52,4.15-4.45,6.9-5.82,2.75-1.36,5.76-2.05,9.04-2.05,4.29,0,7.69,1.15,10.21,3.45ZM209.2,137.04c0-1.25-.39-2.19-1.17-2.84-.78-.64-1.79-.96-3.04-.96-1.44,0-2.69.41-3.74,1.23-1.05.82-1.83,2.03-2.34,3.63h10.18c.08-.55.12-.9.12-1.05Z"/>
      <path class="cls-2" d="M243.71,125.98c2.03-1.13,4.09-1.7,6.2-1.7l-2.11,12.22h-3.22c-2.42,0-4.31.45-5.67,1.35-1.37.9-2.28,2.46-2.75,4.68l-2.63,14.86h-11.52l5.85-32.81h11.46l-1.05,5.97c1.6-1.91,3.41-3.43,5.44-4.56Z"/>
    </g>
    <g class="cls-4">
      <path class="cls-2" d="M100.13,191.58c-1.5,2.05-3.52,3.68-6.05,4.91-2.54,1.23-5.48,1.84-8.83,1.84h-5.67l-2.46,13.92h-11.52l7.31-41.23h17.14c4.33,0,7.62.99,9.88,2.95,2.26,1.97,3.39,4.61,3.39,7.92,0,.82-.1,1.78-.29,2.87-.43,2.5-1.39,4.77-2.9,6.81ZM91.38,184.76c.08-.55.12-.94.12-1.17,0-1.05-.34-1.88-1.02-2.49-.68-.6-1.73-.91-3.13-.91h-4.56l-1.58,9.07h4.56c3.24,0,5.11-1.5,5.61-4.5Z"/>
      <path class="cls-2" d="M107.29,186.93c1.68-2.53,3.69-4.48,6.05-5.85,2.36-1.36,4.84-2.05,7.46-2.05,2.26,0,4.13.45,5.62,1.35,1.48.9,2.51,2.11,3.1,3.63l.82-4.56h11.46l-5.79,32.81h-11.46l.82-4.56c-1.13,1.52-2.61,2.73-4.44,3.63-1.83.9-3.86,1.35-6.08,1.35-3.43,0-6.18-1.14-8.25-3.42-2.07-2.28-3.1-5.39-3.1-9.33,0-1.29.12-2.65.35-4.09.62-3.39,1.77-6.36,3.45-8.89ZM127.64,194.18c0-1.64-.46-2.9-1.37-3.8-.92-.9-2.1-1.35-3.54-1.35-1.72,0-3.26.6-4.62,1.78-1.37,1.19-2.22,2.86-2.57,5-.12.58-.18,1.15-.18,1.7,0,1.64.46,2.91,1.37,3.8.92.9,2.1,1.35,3.54,1.35,1.72,0,3.26-.6,4.62-1.81,1.36-1.21,2.22-2.88,2.57-5.03.12-.58.18-1.13.18-1.64Z"/>
      <path class="cls-2" d="M147.32,186.9c1.85-2.52,4.15-4.45,6.9-5.82,2.75-1.36,5.74-2.05,8.98-2.05,4.17,0,7.49,1.14,9.94,3.42,2.46,2.28,3.74,5.47,3.86,9.56h-12.22c-.31-2.14-1.5-3.22-3.57-3.22-1.44,0-2.69.59-3.74,1.78-1.05,1.19-1.78,2.93-2.16,5.23-.16.78-.23,1.56-.23,2.34,0,1.56.33,2.74.99,3.54.66.8,1.56,1.2,2.69,1.2,2.11,0,3.65-1.07,4.62-3.22h12.22c-1.52,4.06-3.91,7.23-7.16,9.53-3.26,2.3-6.99,3.45-11.2,3.45s-7.69-1.17-10.21-3.51c-2.52-2.34-3.77-5.56-3.77-9.65,0-1.17.12-2.4.35-3.68.62-3.43,1.86-6.4,3.71-8.92Z"/>
      <path class="cls-2" d="M202.33,195.94l10.24,16.32h-13.98l-6.61-13.39-2.4,13.39h-11.52l7.66-43.28h11.52l-4.09,23.28,11.29-12.81h13.74l-15.85,16.49Z"/>
    </g>
  </g>
</svg>