<?xml version="1.0" encoding="UTF-8"?>
<svg id="Outline" xmlns="http://www.w3.org/2000/svg" width="244.38" height="338.83" xmlns:xlink="http://www.w3.org/1999/xlink" viewBox="0 0 244.38 338.83">
  <defs>
    <style>
      .cls-1, .cls-2 {
        fill: #fff;
      }

      .cls-3, .cls-4 {
        stroke: #fff;
      }

      .cls-3, .cls-4, .cls-5, .cls-2, .cls-6 {
        stroke-linecap: round;
        stroke-linejoin: round;
      }

      .cls-3, .cls-6 {
        fill: #fbb040;
      }

      .cls-4 {
        fill: #bbabb6;
      }

      .cls-7 {
        stroke: #939598;
        stroke-miterlimit: 10;
        stroke-width: 5px;
      }

      .cls-7, .cls-5 {
        fill: none;
      }

      .cls-8 {
        fill: #939598;
      }

      .cls-5 {
        stroke-width: 3px;
      }

      .cls-5, .cls-6 {
        stroke: #414042;
      }

      .cls-2 {
        stroke: #bbabb6;
      }

      .cls-2, .cls-6 {
        stroke-width: 2px;
      }

      .cls-9 {
        fill: url(#linear-gradient);
      }
    </style>
    <linearGradient id="linear-gradient" x1="8.18" y1="194.01" x2="238.78" y2="194.01" gradientUnits="userSpaceOnUse">
      <stop offset="0" stop-color="#27aae1"/>
      <stop offset="1" stop-color="#2b7dff"/>
    </linearGradient>
  </defs>
  <rect class="cls-8" x="3.37" width="240.21" height="338.83" rx="5" ry="5"/>
  <rect class="cls-9" x="8.18" y="54.96" width="230.6" height="278.1"/>
  <path class="cls-3" d="M94.33,292.22c.11.31,1.93,6.01-1.81,10.46-2.73,3.25-6.55,3.61-7.32,3.67-1.34.14-3.94.22-6.79-1.03-4.91-2.17-6.79-6.67-7.19-7.7-.51.48-3.52,3.27-8.13,3.04-4.81-.25-7.57-3.59-7.99-4.12.22-1.37.77-3.66,2.35-6.01,2.41-3.58,5.71-5.08,7.05-5.6"/>
  <path class="cls-3" d="M150.09,294.79c-.11.31-1.93,6.01,1.81,10.46,2.73,3.25,6.55,3.61,7.32,3.67,1.34.14,3.94.22,6.79-1.03,4.91-2.17,6.79-6.67,7.19-7.7.51.48,3.52,3.27,8.13,3.04,4.81-.25,7.57-3.59,7.99-4.12-.22-1.37-.77-3.66-2.35-6.01-2.41-3.58-5.71-5.08-7.05-5.6"/>
  <path class="cls-4" d="M183.42,214.59c1.86,8.28,3.43,15.13,4.57,19.98,3.17,13.61,4.05,16.95,4.23,22.88.19,6.22.3,12.6-3.23,19.44-2.72,5.29-6.5,8.68-9.06,10.6-2.31,1.98-6.78,5.27-13.3,7.02-7.35,1.98-13.51.98-16.53.28-10.21-2.7-20.43-5.4-30.64-8.1-4.65,1.46-10.5,2.88-17.33,3.57-6.33.65-11.31.4-15.45.2-3.33-.15-7.25-.35-12.36-1.22-5.16-.87-9.44-2.06-12.63-3.1-6.85-7.58-9.26-14.86-10.35-19.18-3.12-12.4.06-22.6,1.48-26.46,2.42-6.01,4.78-13.3,6.39-21.74.85-4.47,1.37-8.68,1.67-12.55-26.28-24.29-38.12-38.27-35.53-41.92,2.26-3.19,15.49,1.47,39.7,13.97.3-10.47.94-18.96,1.51-24.99.5-5.26.86-7.76,1.11-9.43.52-3.46,2.22-14.24,5.44-20.66.25-.49,1.79-3.52,3.9-7.42.93-1.73,1.87-3.44,2.15-3.92,3.23-5.65,10.5-9.71,13.5-11.34,4.28-2.33,11.4-5.57,21.16-7.15-.34-.68-2.51-5.2-.41-10.06,1.32-3.07,3.66-4.68,4.64-5.27,3.07,2.95,6.14,5.89,9.21,8.84,1.86-2.09,4.65-4.68,8.53-6.82,1.64-.9,3.21-1.59,4.64-2.09,1.15.33,1.84.9,2.21,1.28,1.64,1.67,1.91,4.57.74,7.35-.98,2.35-1.97,4.69-2.95,7.03,4.53,1.07,19.81,5.29,30.63,20.05,7.09,9.66,9.04,19.44,9.68,24.5,1.04,6.11,1.82,13.89,1.41,22.88-.39,8.54-1.74,15.88-3.23,21.68,4.02-2.23,9.36-5.11,15.72-8.31,15.92-8,23.94-11.96,26.77-9.91,5.67,4.11-33.24,48-37.99,50.08Z"/>
  <path class="cls-2" d="M73.71,153.57c1.63,16.53.53,29.76-.81,38.88-1.3,8.85-2.63,11.85-5.31,21.75-.51,1.9-3.17,10.71-4.97,20.58-.78,4.28-1.54,9.53-2.02,15.59.59,4.71,2.82,17.15,12.7,23.9,5.45,3.72,11.54,5.35,18.94,5.67,5.88.25,11.8.52,17.74.81,6.55.32,13.07.66,19.55,1.01,7.42.16,19.02.27,27.01-.41.43-.04,1-.09,1.69-.18,0,0,.69-.1,1.33-.22,1.11-.21,5.62-2.99,11.29-7.49,2.37-4.65,4.71-11.01,4.84-18.63.07-4.52-.78-7.31-2.62-17.21-1.22-6.55-2.41-13.1-3.63-19.64-1.38-7.45-3.07-18.36-4.03-32.4,1.55-8.22,2.99-21.74-.6-37.67-2.31-10.24-6.02-18.42-9.27-24.3-3.08-3.3-6.23-4.9-8.06-5.67-2.56-1.07-8.24-3.43-13.7-.81-2.76,1.33-4.41,3.42-5.24,4.66-1.33,2.43-2.66,5.27-3.83,8.51-2.43,6.74-3.29,12.87-3.54,17.59-2.31-.33-4.62-.65-6.94-.98h-3.63c-.06-3.78-.45-8.41-1.61-13.57-.89-3.97-2.06-7.43-3.22-10.33-1.12-.92-4.71-3.63-10.08-3.85-5.16-.21-8.85,2.02-10.08,2.84-2.41,1.98-6.13,5.57-8.87,11.14-4.37,8.87-3.53,17.2-3.02,20.45Z"/>
  <path class="cls-5" d="M82.3,142.4c.34-1.15,1.33-3.94,4.05-6.02.72-.55,5.06-3.88,9.45-1.88,3.18,1.44,5.16,5.11,4.84,9.11"/>
  <path class="cls-5" d="M131.93,143.27c.34-1.15,1.33-3.94,4.05-6.02.72-.55,5.06-3.88,9.45-1.88,3.18,1.44,5.16,5.11,4.84,9.11"/>
  <path class="cls-6" d="M125.92,149.72c-.16-.77-.87-.92-11.02-1.02-7.05-.07-8.18-.02-8.43,1.02-.53,2.28,3.48,8.33,8.1,9.2,6,1.13,11.86-6.66,11.34-9.2Z"/>
  <rect class="cls-1" x="8.18" y="5.78" width="230.6" height="49.18"/>
  <path class="cls-8" d="M175.18,5.17h64.83v15.76h-61.83c-1.66,0-3-1.34-3-3V5.17h0Z"/>
  <g>
    <path class="cls-1" d="M188.02,13.18v1.79c-1.1.54-2.25.81-3.45.81-1.56,0-2.8-.4-3.72-1.2s-1.38-1.79-1.38-2.97.49-2.17,1.46-2.99,2.24-1.23,3.81-1.23c1.25,0,2.31.24,3.18.72v1.82c-1.06-.56-2.07-.84-3.02-.84s-1.7.23-2.29.7c-.59.47-.89,1.06-.89,1.78s.29,1.33.88,1.8,1.33.71,2.24.71c.45,0,.89-.06,1.3-.17.42-.11,1.04-.36,1.87-.74Z"/>
    <path class="cls-1" d="M192.6,10.03c.93,0,1.72.25,2.36.76s.97,1.22.97,2.12-.33,1.62-.99,2.12c-.66.5-1.44.75-2.35.75-.98,0-1.79-.27-2.41-.8-.62-.53-.94-1.23-.94-2.08s.32-1.56.96-2.09c.64-.52,1.44-.79,2.39-.79ZM192.6,14.75c.89,0,1.34-.63,1.34-1.88s-.45-1.8-1.34-1.8c-.43,0-.76.16-1,.48-.24.32-.36.77-.36,1.36,0,1.23.45,1.85,1.36,1.85Z"/>
    <path class="cls-1" d="M199.09,10.15v.71c.63-.55,1.32-.83,2.06-.83,1.02,0,1.73.39,2.14,1.18.72-.79,1.5-1.18,2.34-1.18.68,0,1.24.19,1.67.58.43.39.65.89.65,1.51v3.55h-1.86v-3.24c0-.39-.1-.69-.29-.91-.19-.22-.46-.33-.81-.33-.54,0-1.04.31-1.47.94v3.54h-1.86v-3.28c0-.39-.1-.68-.31-.89-.21-.21-.48-.31-.83-.31-.49,0-.96.26-1.42.77v3.71h-1.86v-5.53h1.86Z"/>
    <path class="cls-1" d="M211.4,10.15v.71c.63-.55,1.32-.83,2.06-.83,1.02,0,1.73.39,2.14,1.18.72-.79,1.5-1.18,2.34-1.18.68,0,1.24.19,1.67.58.43.39.65.89.65,1.51v3.55h-1.86v-3.24c0-.39-.1-.69-.29-.91-.19-.22-.46-.33-.81-.33-.54,0-1.04.31-1.47.94v3.54h-1.86v-3.28c0-.39-.1-.68-.31-.89-.21-.21-.48-.31-.83-.31-.49,0-.96.26-1.42.77v3.71h-1.86v-5.53h1.86Z"/>
    <path class="cls-1" d="M224.87,10.03c.93,0,1.72.25,2.36.76s.97,1.22.97,2.12-.33,1.62-.99,2.12c-.66.5-1.44.75-2.35.75-.98,0-1.79-.27-2.41-.8-.62-.53-.94-1.23-.94-2.08s.32-1.56.96-2.09c.64-.52,1.44-.79,2.39-.79ZM224.87,14.75c.89,0,1.34-.63,1.34-1.88s-.45-1.8-1.34-1.8c-.43,0-.76.16-1,.48-.24.32-.36.77-.36,1.36,0,1.23.45,1.85,1.36,1.85Z"/>
    <path class="cls-1" d="M231.31,10.15v.79c.55-.6,1.19-.9,1.93-.9.62,0,1.13.18,1.54.55s.62.89.62,1.58v3.52h-1.86v-3.37c0-.74-.31-1.11-.92-1.11-.44,0-.87.3-1.3.91v3.57h-1.86v-5.53h1.86Z"/>
  </g>
  <line class="cls-7" x1="5.96" y1="54.96" x2="243.59" y2="54.96"/>
  <g>
    <path d="M72.31,38.69v5.06c-2.9,1.54-5.94,2.31-9.11,2.31-4.12,0-7.4-1.14-9.84-3.41s-3.66-5.08-3.66-8.41,1.29-6.16,3.86-8.48,5.94-3.49,10.09-3.49c3.31,0,6.11.68,8.4,2.04v5.16c-2.81-1.58-5.47-2.37-7.99-2.37s-4.49.66-6.05,1.98c-1.57,1.32-2.35,3.01-2.35,5.06s.77,3.76,2.32,5.1c1.54,1.34,3.52,2.01,5.94,2.01,1.2,0,2.35-.16,3.45-.47,1.11-.32,2.76-1.01,4.95-2.08Z"/>
    <path d="M92.36,41.9v2.74c-1.64.95-3.18,1.43-4.62,1.43-1.55,0-2.47-.59-2.76-1.76-1.72,1.17-3.44,1.76-5.16,1.76-1.22,0-2.25-.39-3.1-1.16-.85-.77-1.28-1.67-1.28-2.69,0-1.36.44-2.46,1.32-3.3s3.54-1.92,7.99-3.23c.11-1.75-.8-2.62-2.72-2.62-2.09,0-4.02.87-5.78,2.62v-4.02c2.06-1.27,4.32-1.91,6.79-1.91,4.43,0,6.64,1.59,6.64,4.77v7.15c0,.73.27,1.1.81,1.1.41,0,1.03-.29,1.86-.88ZM84.76,41.96v-3.8c-1.65.58-2.78,1.1-3.4,1.56s-.92,1.05-.92,1.76c0,.46.15.85.46,1.17.31.33.69.49,1.13.49.93,0,1.84-.39,2.72-1.18Z"/>
    <path d="M99.44,22.57v23.19h-4.93v-23.19h4.93Z"/>
    <path d="M118.91,40.9v3.1c-1.88,1.37-4.21,2.06-6.99,2.06s-4.96-.74-6.61-2.22c-1.65-1.48-2.47-3.44-2.47-5.88s.77-4.36,2.32-5.9c1.55-1.54,3.52-2.31,5.93-2.31s4.39.81,5.94,2.43c1.54,1.62,2.27,3.79,2.17,6.52h-11.26c.1,1.42.6,2.52,1.51,3.28.91.77,2.12,1.15,3.65,1.15,1.85,0,3.79-.75,5.81-2.24ZM108.04,36.12h6.81c-.27-2.28-1.4-3.42-3.4-3.42s-3.16,1.14-3.4,3.42Z"/>
    <path d="M127.24,22.57v8.38c1.29-.8,2.64-1.2,4.03-1.2,2.26,0,4.1.75,5.52,2.26s2.13,3.46,2.13,5.85-.68,4.37-2.05,5.9-3.12,2.29-5.25,2.29c-1.55,0-3.01-.5-4.38-1.49v1.2h-4.93v-23.19h4.93ZM127.24,34.16v7.27c1,.89,1.97,1.33,2.92,1.33,1.17,0,2.09-.44,2.76-1.32s1-2.09,1-3.64-.35-2.67-1.05-3.49c-.7-.82-1.63-1.24-2.78-1.24-.9,0-1.85.37-2.86,1.1Z"/>
  </g>
</svg>