<?xml version="1.0" encoding="UTF-8"?>
<svg id="Outline" xmlns="http://www.w3.org/2000/svg" width="240" height="338" xmlns:xlink="http://www.w3.org/1999/xlink" viewBox="0 0 240 338">
  <defs>
    <style>
      .cls-1 {
        stroke-width: 2px;
      }

      .cls-1, .cls-2 {
        fill: #fbae00;
      }

      .cls-1, .cls-2, .cls-3, .cls-4 {
        stroke-linecap: round;
        stroke-linejoin: round;
      }

      .cls-1, .cls-4 {
        stroke: #414042;
      }

      .cls-5 {
        fill: #fff;
      }

      .cls-2, .cls-3 {
        stroke: #fff;
      }

      .cls-6 {
        stroke: #939598;
        stroke-miterlimit: 10;
        stroke-width: 5px;
      }

      .cls-6, .cls-4 {
        fill: none;
      }

      .cls-3 {
        fill: #36454f;
      }

      .cls-7 {
        fill: #939598;
      }

      .cls-4 {
        stroke-width: 3px;
      }

      .cls-8 {
        fill: url(#linear-gradient);
      }
    </style>
    <linearGradient id="linear-gradient" x1="5" y1="144.34" x2="235" y2="144.34" gradientTransform="translate(0 338.34) scale(1 -1)" gradientUnits="userSpaceOnUse">
      <stop offset="0" stop-color="#4682e4"/>
      <stop offset="1" stop-color="#1e90ff"/>
    </linearGradient>
  </defs>
  <path class="cls-7" d="M5,0h230.01c2.76,0,5,2.23,5,4.99v328.02c0,2.75-2.24,4.99-5,4.99H5c-2.76,0-5-2.23-5-4.99V4.99C0,2.23,2.24,0,5,0Z"/>
  <rect class="cls-8" x="5" y="55" width="230" height="278"/>
  <g>
    <path class="cls-2" d="M91.13,290.81c.11.31,1.93,6.01-1.81,10.46-2.73,3.25-6.55,3.61-7.32,3.67-1.34.14-3.94.22-6.79-1.03-4.91-2.17-6.79-6.67-7.19-7.7-.51.48-3.52,3.27-8.13,3.04-4.81-.25-7.57-3.59-7.99-4.12.22-1.37.77-3.66,2.35-6.01,2.41-3.58,5.71-5.08,7.05-5.6"/>
    <path class="cls-2" d="M146.89,294.38c-.11.31-1.93,6.01,1.81,10.46,2.73,3.25,6.55,3.61,7.32,3.67,1.34.14,3.94.22,6.79-1.03,4.91-2.17,6.79-6.67,7.19-7.7.51.48,3.52,3.27,8.13,3.04,4.81-.25,7.57-3.59,7.99-4.12-.22-1.37-.77-3.66-2.35-6.01-2.41-3.58-5.71-5.08-7.05-5.6"/>
    <path class="cls-3" d="M180.22,214.18c1.86,8.28,3.43,15.13,4.57,19.98,3.17,13.61,4.05,16.95,4.23,22.88.19,6.22.3,12.6-3.23,19.44-2.72,5.29-6.5,8.68-9.06,10.6-2.31,1.98-6.78,5.27-13.3,7.02-7.35,1.98-13.51.98-16.53.28-7.24-1.69-14.64-3.4-21.71-5.69s-12.57-1.36-19.62-.03c-14.04,2.65-28.68,2.1-42.49-1.58-8.68-2.31-12.89-12.37-14.94-20.51-3.12-12.4.06-22.6,1.48-26.46,2.42-6.01,4.78-13.3,6.39-21.74.85-4.47,1.37-8.68,1.67-12.55-26.28-24.29-38.12-38.27-35.53-41.92,2.26-3.19,15.49,1.47,39.7,13.97.61-21.51,1.1-46.23,13.23-64.87,7.7-11.84,22.01-17.86,35.55-20.04-.34-.68-2.51-5.2-.41-10.06.86-1.99,2.33-3.71,4.11-4.95.16-.11.33-.22.52-.2.17.02.31.15.44.27,2.91,2.83,5.85,5.63,8.78,8.45,1.86-2.09,4.65-4.68,8.53-6.82,1.64-.9,3.21-1.59,4.64-2.09,1.15.33,1.84.9,2.21,1.28,1.64,1.67,1.91,4.57.74,7.35-.98,2.35-1.97,4.69-2.95,7.03,4.53,1.07,19.81,5.29,30.63,20.05,7.09,9.66,9.04,19.44,9.68,24.5,1.04,6.11,1.82,13.89,1.41,22.88-.39,8.54-1.74,15.88-3.23,21.68,4.02-2.23,9.36-5.11,15.72-8.31,15.92-8,23.94-11.96,26.77-9.91,5.67,4.11-33.24,48-37.99,50.08h-.01Z"/>
    <path class="cls-5" d="M72.23,154.12c.16,3.38.5,6.75.81,10.04.85,9.19-.01,18.78-1.35,27.91-1.27,8.64-2.57,11.57-5.19,21.23-3.07,11.34-7.08,23.64-6.5,35.5.43,8.74,4.73,18.13,12.08,23.15,5.32,3.63,11.27,5.23,18.5,5.54,5.74.25,11.52.51,17.32.79,6.4.31,12.76.64,19.09.99,9.28.51,18.92,1.28,28.02-1.09,11.29-2.94,16.31-12.53,16.65-23.71.2-6.58-1.32-12.8-2.45-19.22-1.07-6.07-2.12-12.19-3.25-18.27-2.16-11.62-3.82-23.43-3.33-35.28.78-18.74,1.34-41.42-11.03-56.99-4.26-5.36-11.85-8.98-18.62-6.5-6.13,2.24-8.85,8.83-10.67,14.57-.55,1.72-5.32,15.5-3.5,15.75-2.26-.32-2.6.24-4.85-.08,0,0-5.27.28-5.41.28-.72,0-3.1-17.29-3.39-18.72-.58-2.84-1.68-5.74-3.94-7.55-1.61-1.3-3.68-1.92-5.74-2.14-9.32-.98-16.22,6.03-20.05,13.8-3.08,6.25-3.51,13.12-3.19,19.98v.02Z"/>
    <path class="cls-4" d="M80.1,141.99c.34-1.15,1.33-3.94,4.05-6.02.72-.55,5.06-3.88,9.45-1.88,3.18,1.44,5.16,5.11,4.84,9.11"/>
    <path class="cls-4" d="M127.98,141.99c.34-1.15,1.33-3.94,4.05-6.02.72-.55,5.06-3.88,9.45-1.88,3.18,1.44,5.16,5.11,4.84,9.11"/>
    <path class="cls-1" d="M122.72,149.31c-.16-.77-.87-.92-11.02-1.02-7.05-.07-8.18-.02-8.43,1.02-.53,2.28,3.48,8.33,8.1,9.2,6,1.13,11.86-6.66,11.34-9.2h.01Z"/>
  </g>
  <rect class="cls-5" x="5" y="5.5" width="230" height="49"/>
  <path class="cls-7" d="M166,5h70v16h-67.02c-1.65,0-2.98-1.36-2.98-3.05V5h0Z"/>
  <line class="cls-6" x1="2.5" y1="54" x2="237.5" y2="54"/>
  <g>
    <path d="M35.37,22.48v4.38h-5.9v18.08h-5.43v-18.08h-5.9v-4.38h17.24Z"/>
    <path d="M41.48,44.08c-1.39-.75-2.48-1.81-3.27-3.2-.79-1.39-1.19-3.01-1.19-4.86s.4-3.45,1.21-4.85c.8-1.4,1.9-2.47,3.3-3.22,1.4-.75,2.96-1.12,4.7-1.12s3.3.37,4.7,1.12c1.4.75,2.5,1.82,3.3,3.22.8,1.4,1.21,3.01,1.21,4.85s-.41,3.45-1.22,4.85c-.81,1.4-1.93,2.47-3.33,3.22-1.41.75-2.98,1.12-4.71,1.12s-3.3-.37-4.68-1.12ZM48.81,39.31c.73-.77,1.1-1.87,1.1-3.3s-.35-2.53-1.06-3.3-1.58-1.15-2.62-1.15-1.94.38-2.63,1.14c-.7.76-1.05,1.86-1.05,3.31s.34,2.53,1.03,3.3c.69.77,1.55,1.15,2.59,1.15s1.92-.38,2.65-1.15Z"/>
    <path d="M65.94,27.6c.95-.51,2.04-.77,3.27-.77,1.46,0,2.78.37,3.97,1.12,1.19.75,2.12,1.81,2.81,3.2.69,1.39,1.03,3,1.03,4.83s-.34,3.45-1.03,4.85c-.69,1.4-1.62,2.47-2.81,3.23s-2.51,1.14-3.97,1.14c-1.25,0-2.34-.25-3.27-.75-.93-.5-1.66-1.17-2.19-2v2.5h-5.43v-23.68h5.43v8.35c.51-.83,1.24-1.5,2.19-2.02ZM70.37,32.77c-.75-.78-1.68-1.17-2.78-1.17s-2,.4-2.75,1.18c-.75.79-1.13,1.87-1.13,3.23s.38,2.44,1.13,3.23c.75.79,1.67,1.18,2.75,1.18s2-.4,2.76-1.2c.76-.8,1.14-1.88,1.14-3.25s-.38-2.44-1.13-3.22Z"/>
    <path d="M80.27,24.38c-.6-.56-.91-1.26-.91-2.1s.3-1.56.91-2.13c.6-.56,1.38-.85,2.33-.85s1.7.28,2.3.85c.6.57.9,1.28.9,2.13s-.3,1.53-.9,2.1c-.6.57-1.37.85-2.3.85s-1.73-.28-2.33-.85ZM85.3,27.09v17.86h-5.43v-17.86h5.43Z"/>
    <path d="M89.19,31.15c.69-1.39,1.62-2.45,2.81-3.2,1.19-.75,2.51-1.12,3.97-1.12,1.25,0,2.34.26,3.29.77.94.51,1.67,1.18,2.17,2.02v-2.53h5.43v17.86h-5.43v-2.53c-.53.83-1.26,1.5-2.21,2.02-.94.51-2.04.77-3.29.77-1.44,0-2.75-.38-3.94-1.14-1.18-.76-2.12-1.83-2.81-3.23-.69-1.4-1.03-3.01-1.03-4.85s.34-3.44,1.03-4.83ZM100.3,32.78c-.75-.79-1.67-1.18-2.75-1.18s-2,.39-2.75,1.17-1.13,1.85-1.13,3.22.38,2.45,1.13,3.25c.75.8,1.67,1.2,2.75,1.2s1.99-.39,2.75-1.18c.75-.79,1.13-1.87,1.13-3.23s-.38-2.44-1.13-3.23Z"/>
    <path d="M113.87,44.4c-1.21-.53-2.16-1.26-2.86-2.19-.7-.93-1.09-1.97-1.17-3.12h5.37c.06.62.35,1.12.86,1.5.51.38,1.13.58,1.87.58.68,0,1.2-.13,1.57-.4s.56-.61.56-1.04c0-.51-.26-.89-.79-1.14-.53-.25-1.39-.52-2.57-.82-1.27-.3-2.33-.61-3.17-.94-.85-.33-1.58-.85-2.19-1.57-.61-.71-.92-1.68-.92-2.9,0-1.02.28-1.96.84-2.8.56-.84,1.39-1.51,2.48-2,1.09-.49,2.39-.74,3.89-.74,2.22,0,3.97.55,5.25,1.66,1.28,1.11,2.02,2.58,2.21,4.42h-5.02c-.08-.62-.35-1.11-.81-1.47s-1.05-.54-1.79-.54c-.63,0-1.12.12-1.46.37-.34.25-.51.58-.51,1.01,0,.51.27.9.81,1.15.54.26,1.38.51,2.52.77,1.31.34,2.38.68,3.21,1.01.83.33,1.55.86,2.17,1.6s.95,1.72.97,2.96c0,1.05-.29,1.98-.87,2.8-.58.82-1.42,1.47-2.51,1.94-1.09.47-2.35.7-3.79.7-1.54,0-2.92-.27-4.13-.8Z"/>
  </g>
  <g>
    <path class="cls-5" d="M170.56,8.2c.42-.76,1-1.35,1.74-1.78.75-.42,1.59-.64,2.53-.64,1.16,0,2.15.31,2.97.92.82.62,1.38,1.46,1.65,2.52h-2.61c-.19-.41-.47-.72-.83-.94-.36-.21-.76-.32-1.21-.32-.73,0-1.32.26-1.78.77-.45.51-.68,1.2-.68,2.06s.23,1.54.68,2.06c.45.51,1.05.77,1.78.77.45,0,.86-.11,1.21-.32s.63-.53.83-.94h2.61c-.28,1.06-.83,1.9-1.65,2.51-.82.61-1.82.92-2.97.92-.94,0-1.79-.21-2.53-.64s-1.33-1.02-1.74-1.77c-.42-.76-.62-1.62-.62-2.59s.21-1.84.62-2.6Z"/>
    <path class="cls-5" d="M182.4,15.35c-.61-.33-1.08-.79-1.43-1.4-.35-.61-.52-1.32-.52-2.13s.18-1.51.53-2.12c.35-.61.83-1.08,1.44-1.41s1.3-.49,2.06-.49,1.44.16,2.05.49c.61.33,1.09.8,1.44,1.41.35.61.53,1.32.53,2.12s-.18,1.51-.54,2.12c-.36.61-.84,1.08-1.46,1.41s-1.3.49-2.06.49-1.44-.16-2.05-.49ZM185.61,13.26c.32-.34.48-.82.48-1.44s-.16-1.11-.46-1.44c-.31-.34-.69-.5-1.15-.5s-.85.17-1.15.5c-.31.33-.46.81-.46,1.45s.15,1.11.45,1.44.68.5,1.13.5.84-.17,1.16-.5Z"/>
    <path class="cls-5" d="M201.95,8.71c.57.59.85,1.4.85,2.45v4.56h-2.36v-4.24c0-.5-.13-.89-.4-1.17-.26-.27-.63-.41-1.09-.41s-.83.14-1.09.41c-.26.28-.4.67-.4,1.17v4.24h-2.36v-4.24c0-.5-.13-.89-.4-1.17-.26-.27-.63-.41-1.09-.41s-.83.14-1.09.41c-.26.28-.4.67-.4,1.17v4.24h-2.38v-7.81h2.38v.98c.24-.33.56-.59.94-.78s.83-.29,1.32-.29c.58,0,1.1.13,1.56.38s.82.61,1.08,1.08c.27-.43.63-.78,1.1-1.05.46-.27.97-.41,1.51-.41.96,0,1.73.29,2.3.88Z"/>
    <path class="cls-5" d="M216.66,8.71c.57.59.86,1.4.86,2.45v4.56h-2.36v-4.24c0-.5-.13-.89-.4-1.17-.26-.27-.63-.41-1.09-.41s-.83.14-1.09.41c-.26.28-.4.67-.4,1.17v4.24h-2.36v-4.24c0-.5-.13-.89-.4-1.17-.26-.27-.63-.41-1.09-.41s-.83.14-1.09.41c-.26.28-.4.67-.4,1.17v4.24h-2.38v-7.81h2.38v.98c.24-.33.56-.59.94-.78.39-.19.83-.29,1.32-.29.58,0,1.1.13,1.56.38.46.25.82.61,1.08,1.08.27-.43.63-.78,1.1-1.05.46-.27.97-.41,1.51-.41.96,0,1.73.29,2.3.88Z"/>
    <path class="cls-5" d="M220.66,15.35c-.61-.33-1.08-.79-1.43-1.4-.35-.61-.52-1.32-.52-2.13s.18-1.51.53-2.12c.35-.61.83-1.08,1.44-1.41.61-.33,1.3-.49,2.05-.49s1.44.16,2.06.49,1.09.8,1.44,1.41.53,1.32.53,2.12-.18,1.51-.54,2.12c-.36.61-.84,1.08-1.46,1.41-.62.33-1.3.49-2.06.49s-1.44-.16-2.05-.49ZM223.87,13.26c.32-.34.48-.82.48-1.44s-.16-1.11-.46-1.44c-.31-.34-.69-.5-1.15-.5s-.85.17-1.15.5c-.31.33-.46.81-.46,1.45s.15,1.11.45,1.44.68.5,1.13.5.84-.17,1.16-.5Z"/>
    <path class="cls-5" d="M234.92,8.72c.54.59.81,1.41.81,2.44v4.56h-2.36v-4.24c0-.52-.13-.93-.4-1.22-.27-.29-.63-.43-1.08-.43s-.81.15-1.08.43c-.27.29-.4.7-.4,1.22v4.24h-2.38v-7.81h2.38v1.04c.24-.35.56-.62.97-.82.41-.2.87-.3,1.38-.3.91,0,1.63.3,2.17.89Z"/>
  </g>
</svg>