<?xml version="1.0" encoding="UTF-8"?>
<svg id="Layer_1" xmlns="http://www.w3.org/2000/svg" width="100.01" height="100.3" viewBox="0 0 100.01 100.3">
  <defs>
    <style>
      .cls-1 {
        fill: #f1f2f2;
      }
    </style>
  </defs>
  <path class="cls-1" d="M66.51,4.61c-.98-.98-2.56-.98-3.54,0l-9.1,9.1V2.48c0-1.38-1.12-2.48-2.5-2.48s-2.5,1.1-2.5,2.48v11.8l-9.1-9.1c-.98-.98-2.56-.98-3.54,0-.98.98-.98,2.56,0,3.54l12.64,12.64v19.76c0,1.38,1.12,2.5,2.5,2.5s2.5-1.12,2.5-2.5v-20.34l12.64-12.64c.98-.98.98-2.56,0-3.54Z"/>
  <path class="cls-1" d="M29.78,8.53c-1.38,0-2.5,1.12-2.5,2.5v12.87s-7.94-7.94-7.94-7.94c-.98-.98-2.56-.98-3.54,0s-.98,2.56,0,3.54l8.35,8.35h-12.87c-1.38,0-2.5,1.12-2.5,2.5,0,1.38,1.12,2.5,2.5,2.5h17.87s13.98,13.98,13.98,13.98c.98.98,2.56.98,3.54,0s.98-2.56,0-3.54l-14.38-14.38V11.03c0-1.38-1.12-2.5-2.5-2.5Z"/>
  <path class="cls-1" d="M6.1,35.97c-.98.98-.98,2.56,0,3.54l9.1,9.1H3.97c-.47,0-1.49.07-2.5.73-.38.25-1.45.95-1.46,1.77-.02,1.01,1.55,2.15,3.97,2.5h11.8l-9.1,9.1c-.98.98-.98,2.56,0,3.54.98.98,2.56.98,3.54,0l12.64-12.64h19.76c1.38,0,2.5-1.12,2.5-2.5s-1.12-2.5-2.5-2.5h-20.34s-12.64-12.64-12.64-12.64c-.98-.98-2.56-.98-3.54,0Z"/>
  <path class="cls-1" d="M8.57,73.56c0,1.38,1.12,2.5,2.5,2.5h12.87s-7.94,7.94-7.94,7.94c-.98.98-.98,2.56,0,3.54s2.56.98,3.54,0l8.35-8.35v12.87c0,1.38,1.12,2.5,2.5,2.5,1.38,0,2.5-1.12,2.5-2.5v-17.87s13.98-13.98,13.98-13.98c.98-.98.98-2.56,0-3.54s-2.56-.98-3.54,0l-14.38,14.38H11.07c-1.38,0-2.5,1.12-2.5,2.5Z"/>
  <path class="cls-1" d="M36.24,95.67c.98.98,2.56.98,3.54,0l9.1-9.1v11.23c0,1.38,1.12,2.5,2.5,2.5s2.5-1.12,2.5-2.5v-11.8s9.1,9.1,9.1,9.1c.98.98,2.56.98,3.54,0,.98-.98.98-2.56,0-3.54l-12.64-12.64v-19.76c0-1.38-1.12-2.5-2.5-2.5s-2.5,1.12-2.5,2.5v20.34s-12.64,12.64-12.64,12.64c-.98.98-.98,2.56,0,3.54Z"/>
  <path class="cls-1" d="M73.94,94.76c1.38,0,2.5-1.12,2.5-2.5v-12.87s7.94,7.94,7.94,7.94c.98.98,2.56.98,3.54,0s.98-2.56,0-3.54l-8.35-8.35h12.87c1.38,0,2.5-1.12,2.5-2.5,0-1.38-1.12-2.5-2.5-2.5h-17.87s-13.98-13.98-13.98-13.98c-.98-.98-2.56-.98-3.54,0s-.98,2.56,0,3.54l14.38,14.38v17.87c0,1.38,1.12,2.5,2.5,2.5Z"/>
  <path class="cls-1" d="M95.38,66.24c.98-.98.98-2.56,0-3.54l-9.1-9.1h11.23c1.38,0,2.5-1.12,2.5-2.5s-1.12-2.5-2.5-2.5h-11.8s9.1-9.1,9.1-9.1c.98-.98.98-2.56,0-3.54-.98-.98-2.56-.98-3.54,0l-12.64,12.64h-19.76c-1.38,0-2.5,1.12-2.5,2.5s1.12,2.5,2.5,2.5h20.34s12.64,12.64,12.64,12.64c.98.98,2.56.98,3.54,0Z"/>
  <path class="cls-1" d="M95.15,29.73c0-1.38-1.12-2.5-2.5-2.5h-12.87s7.94-7.94,7.94-7.94c.98-.98.98-2.56,0-3.54s-2.56-.98-3.54,0l-8.35,8.35v-12.87c0-1.38-1.12-2.5-2.5-2.5-1.38,0-2.5,1.12-2.5,2.5v17.87s-13.98,13.98-13.98,13.98c-.98.98-.98,2.56,0,3.54s2.56.98,3.54,0l14.38-14.38h17.87c1.38,0,2.5-1.12,2.5-2.5Z"/>
  <circle class="cls-1" cx="51.38" cy="51.57" r="9.59"/>
</svg>