<?xml version="1.0" encoding="UTF-8"?>
<svg id="Outline" xmlns="http://www.w3.org/2000/svg" width="244.38" height="338.83" xmlns:xlink="http://www.w3.org/1999/xlink" viewBox="0 0 244.38 338.83">
  <defs>
    <style>
      .cls-1, .cls-2 {
        fill: #fff;
      }

      .cls-3, .cls-2, .cls-4, .cls-5 {
        stroke-linecap: round;
        stroke-linejoin: round;
      }

      .cls-3, .cls-4 {
        stroke: #fff;
      }

      .cls-3, .cls-5 {
        fill: #fbb040;
      }

      .cls-6 {
        fill: #6d6e80;
      }

      .cls-6, .cls-7, .cls-8, .cls-9 {
        stroke-miterlimit: 10;
      }

      .cls-6, .cls-8, .cls-9 {
        stroke: #231f20;
      }

      .cls-2 {
        stroke: #58595b;
      }

      .cls-2, .cls-8, .cls-5 {
        stroke-width: 2px;
      }

      .cls-7 {
        fill: none;
        stroke: #939598;
        stroke-width: 5px;
      }

      .cls-8, .cls-9 {
        fill: #231f20;
      }

      .cls-10 {
        fill: #939598;
      }

      .cls-4 {
        fill: #58595b;
      }

      .cls-11 {
        fill: url(#linear-gradient);
      }

      .cls-5 {
        stroke: #414042;
      }
    </style>
    <linearGradient id="linear-gradient" x1="8.18" y1="194.01" x2="238.78" y2="194.01" gradientUnits="userSpaceOnUse">
      <stop offset="0" stop-color="gold"/>
      <stop offset="1" stop-color="#ffb14e"/>
    </linearGradient>
  </defs>
  <rect class="cls-10" x="3.37" width="240.21" height="338.83" rx="5" ry="5"/>
  <rect class="cls-11" x="8.18" y="54.96" width="230.6" height="278.1"/>
  <path class="cls-3" d="M94.33,292.22c.11.31,1.93,6.01-1.81,10.46-2.73,3.25-6.55,3.61-7.32,3.67-1.34.14-3.94.22-6.79-1.03-4.91-2.17-6.79-6.67-7.19-7.7-.51.48-3.52,3.27-8.13,3.04-4.81-.25-7.57-3.59-7.99-4.12.22-1.37.77-3.66,2.35-6.01,2.41-3.58,5.71-5.08,7.05-5.6"/>
  <path class="cls-3" d="M150.09,294.79c-.11.31-1.93,6.01,1.81,10.46,2.73,3.25,6.55,3.61,7.32,3.67,1.34.14,3.94.22,6.79-1.03,4.91-2.17,6.79-6.67,7.19-7.7.51.48,3.52,3.27,8.13,3.04,4.81-.25,7.57-3.59,7.99-4.12-.22-1.37-.77-3.66-2.35-6.01-2.41-3.58-5.71-5.08-7.05-5.6"/>
  <path class="cls-4" d="M183.42,214.59c1.86,8.28,3.43,15.13,4.57,19.98,3.17,13.61,4.05,16.95,4.23,22.88.19,6.22.3,12.6-3.23,19.44-2.72,5.29-6.5,8.68-9.06,10.6-2.31,1.98-6.78,5.27-13.3,7.02-7.35,1.98-13.51.98-16.53.28-10.21-2.7-20.43-5.4-30.64-8.1-4.65,1.46-10.5,2.88-17.33,3.57-6.33.65-11.31.4-15.45.2-3.33-.15-7.25-.35-12.36-1.22-5.16-.87-9.44-2.06-12.63-3.1-6.85-7.58-9.26-14.86-10.35-19.18-3.12-12.4.06-22.6,1.48-26.46,2.42-6.01,4.78-13.3,6.39-21.74.85-4.47,1.37-8.68,1.67-12.55-26.28-24.29-38.12-38.27-35.53-41.92,2.26-3.19,15.49,1.47,39.7,13.97.3-10.47.94-18.96,1.51-24.99.5-5.26.86-7.76,1.11-9.43.52-3.46,2.22-14.24,5.44-20.66.25-.49,1.79-3.52,3.9-7.42.93-1.73,1.87-3.44,2.15-3.92,3.23-5.65,10.5-9.71,13.5-11.34,4.28-2.33,11.4-5.57,21.16-7.15-.34-.68-2.51-5.2-.41-10.06,1.32-3.07,3.66-4.68,4.64-5.27,3.07,2.95,6.14,5.89,9.21,8.84,1.86-2.09,4.65-4.68,8.53-6.82,1.64-.9,3.21-1.59,4.64-2.09,1.15.33,1.84.9,2.21,1.28,1.64,1.67,1.91,4.57.74,7.35-.98,2.35-1.97,4.69-2.95,7.03,4.53,1.07,19.81,5.29,30.63,20.05,7.09,9.66,9.04,19.44,9.68,24.5,1.04,6.11,1.82,13.89,1.41,22.88-.39,8.54-1.74,15.88-3.23,21.68,4.02-2.23,9.36-5.11,15.72-8.31,15.92-8,23.94-11.96,26.77-9.91,5.67,4.11-33.24,48-37.99,50.08Z"/>
  <path class="cls-2" d="M73.71,153.57c1.63,16.53.53,29.76-.81,38.88-1.3,8.85-2.63,11.85-5.31,21.75-.51,1.9-3.17,10.71-4.97,20.58-.78,4.28-1.54,9.53-2.02,15.59.59,4.71,2.82,17.15,12.7,23.9,5.45,3.72,11.54,5.35,18.94,5.67,5.88.25,11.8.52,17.74.81,6.55.32,13.07.66,19.55,1.01,7.42.16,19.02.27,27.01-.41.43-.04,1-.09,1.69-.18,0,0,.69-.1,1.33-.22,1.11-.21,5.62-2.99,11.29-7.49,2.37-4.65,4.71-11.01,4.84-18.63.07-4.52-.78-7.31-2.62-17.21-1.22-6.55-2.41-13.1-3.63-19.64-1.38-7.45-3.07-18.36-4.03-32.4,1.55-8.22,2.99-21.74-.6-37.67-2.31-10.24-6.02-18.42-9.27-24.3-3.08-3.3-6.23-4.9-8.06-5.67-2.56-1.07-8.24-3.43-13.7-.81-2.76,1.33-4.41,3.42-5.24,4.66-1.33,2.43-2.66,5.27-3.83,8.51-2.43,6.74-3.29,12.87-3.54,17.59-2.31-.33-4.62-.65-6.94-.98h-3.63c-.06-3.78-.45-8.41-1.61-13.57-.89-3.97-2.06-7.43-3.22-10.33-1.12-.92-4.71-3.63-10.08-3.85-5.16-.21-8.85,2.02-10.08,2.84-2.41,1.98-6.13,5.57-8.87,11.14-4.37,8.87-3.53,17.2-3.02,20.45Z"/>
  <path class="cls-5" d="M125.92,149.72c-.16-.77-.87-.92-11.02-1.02-7.05-.07-8.18-.02-8.43,1.02-.53,2.28,3.48,8.33,8.1,9.2,6,1.13,11.86-6.66,11.34-9.2Z"/>
  <rect class="cls-1" x="8.18" y="5.78" width="230.6" height="49.18"/>
  <path class="cls-10" d="M194.51,5.17h45.5v15.76h-42.5c-1.66,0-3-1.34-3-3V5.17h0Z"/>
  <g>
    <path d="M66.19,20.84l11.07,23.19h-6.68l-2.05-4.58h-11.16l-1.86,4.58h-6.58l10.07-23.19h7.2ZM66.72,35.4l-4.04-9.01-3.66,9.01h7.7Z"/>
    <path d="M96.5,20.84v23.19h-5.3v-1.26c-1.36,1.04-2.92,1.56-4.68,1.56-2.25,0-4.13-.78-5.63-2.33-1.5-1.55-2.26-3.5-2.26-5.83s.76-4.35,2.29-5.87,3.49-2.28,5.88-2.28c1.49,0,2.95.33,4.39,1v-8.18h5.3ZM91.2,39.74v-7.49c-.96-.61-1.95-.91-2.96-.91-1.33,0-2.37.43-3.11,1.29-.74.86-1.12,2.08-1.12,3.64,0,1.44.37,2.59,1.11,3.46.74.87,1.72,1.3,2.94,1.3,1.08,0,2.13-.43,3.14-1.29Z"/>
    <path d="M106.3,28.36v4.48h.07c1.53-3.21,3.32-4.81,5.37-4.81.98,0,2.15.48,3.52,1.43l-1.46,4.37c-1.31-.77-2.36-1.16-3.14-1.16-1.23,0-2.26.71-3.1,2.12-.84,1.41-1.26,2.24-1.26,2.47v6.78h-5.3v-15.67h5.3Z"/>
    <path d="M117.06,23.27c0-.75.29-1.39.86-1.93.57-.53,1.25-.8,2.05-.8s1.5.27,2.07.8.86,1.17.86,1.93-.29,1.38-.86,1.92c-.57.54-1.26.81-2.07.81s-1.48-.27-2.05-.81c-.57-.54-.86-1.18-.86-1.92ZM122.64,28.36v15.67h-5.3v-15.67h5.3Z"/>
    <path d="M141.86,39.75v3.54c-2.07.7-3.97,1.05-5.69,1.05-2.96,0-5.33-.74-7.1-2.22s-2.66-3.44-2.66-5.88.9-4.35,2.69-5.89c1.79-1.55,4.07-2.32,6.84-2.32,1.78,0,3.68.34,5.67,1.03v3.67c-1.46-.7-2.9-1.05-4.32-1.05-1.58,0-2.85.41-3.8,1.23-.95.82-1.43,1.92-1.43,3.29s.46,2.5,1.39,3.35,2.15,1.27,3.66,1.27c1.12,0,2.7-.36,4.75-1.08Z"/>
  </g>
  <g>
    <path class="cls-1" d="M204.53,7.49h3.92c.85,0,1.54.23,2.07.69s.8,1.01.8,1.67c0,.9-.5,1.57-1.51,2,.44.19.86.69,1.25,1.51s.78,1.59,1.15,2.32h-2.4c-.14-.27-.39-.78-.75-1.54s-.66-1.24-.91-1.46-.52-.32-.81-.32h-.63v3.32h-2.18V7.49ZM206.71,8.99v1.86h1.16c.37,0,.66-.08.88-.24.22-.16.32-.39.32-.69,0-.62-.42-.93-1.25-.93h-1.1Z"/>
    <path class="cls-1" d="M219.07,14.31v.97c-.62.34-1.2.5-1.75.5-.58,0-.93-.21-1.04-.62-.65.41-1.3.62-1.95.62-.46,0-.85-.14-1.17-.41s-.48-.59-.48-.95c0-.48.17-.87.5-1.17s1.34-.68,3.02-1.14c.04-.62-.3-.93-1.03-.93-.79,0-1.52.31-2.18.93v-1.42c.78-.45,1.63-.67,2.57-.67,1.67,0,2.51.56,2.51,1.68v2.52c0,.26.1.39.31.39.16,0,.39-.1.7-.31ZM216.2,14.33v-1.34c-.62.2-1.05.39-1.28.55s-.35.37-.35.62c0,.16.06.3.18.41.12.12.26.17.43.17.35,0,.69-.14,1.03-.42Z"/>
    <path class="cls-1" d="M221.76,10.15v1.58h.02c.54-1.13,1.17-1.7,1.89-1.7.34,0,.75.17,1.24.5l-.51,1.54c-.46-.27-.83-.41-1.1-.41-.43,0-.79.25-1.09.75-.29.5-.44.79-.44.87v2.39h-1.86v-5.53h1.86Z"/>
    <path class="cls-1" d="M231.13,13.96v1.1c-.71.48-1.59.73-2.64.73s-1.88-.26-2.5-.78c-.62-.52-.94-1.21-.94-2.07s.29-1.54.88-2.08,1.33-.82,2.24-.82,1.66.29,2.24.86c.58.57.86,1.34.82,2.3h-4.25c.04.5.23.89.57,1.16.34.27.8.41,1.38.41.7,0,1.43-.26,2.2-.79ZM227.02,12.27h2.57c-.1-.8-.53-1.21-1.29-1.21s-1.2.4-1.29,1.21Z"/>
  </g>
  <path class="cls-9" d="M80.77,129.87h28.44v7.27c0,7.85-6.37,14.22-14.22,14.22h0c-7.85,0-14.22-6.37-14.22-14.22v-7.27h0Z"/>
  <line class="cls-7" x1="5.96" y1="54.96" x2="243.59" y2="54.96"/>
  <path class="cls-8" d="M157.41,131.72c-26.86-.02-53.73-.05-80.59-.07-.31-.59-.62-1.18-.92-1.77h82.58c-.35.61-.71,1.23-1.06,1.84Z"/>
  <path class="cls-9" d="M125.5,129.87h28.44v7.27c0,7.85-6.37,14.22-14.22,14.22h0c-7.85,0-14.22-6.37-14.22-14.22v-7.27h0Z"/>
  <rect class="cls-9" x="109.21" y="134.91" width="16.29" height="1.63"/>
  <path class="cls-6" d="M138.64,148.31c-5.81-.55-10.14-5.66-10.14-11.5v-2.2c0-.96.78-1.74,1.74-1.74h18.96c.96,0,1.74.78,1.74,1.74v2.52c0,6.54-5.63,11.8-12.3,11.17Z"/>
  <path class="cls-6" d="M94.07,148.31c-5.81-.55-10.14-5.66-10.14-11.5v-2.2c0-.96.78-1.74,1.74-1.74h18.96c.96,0,1.74.78,1.74,1.74v2.52c0,6.54-5.63,11.8-12.3,11.17Z"/>
</svg>