<?xml version="1.0" encoding="UTF-8"?>
<svg id="Outline" xmlns="http://www.w3.org/2000/svg" width="240" height="338" xmlns:xlink="http://www.w3.org/1999/xlink" viewBox="0 0 240 338">
  <defs>
    <style>
      .cls-1 {
        fill: #b39ddb;
      }

      .cls-2 {
        stroke: #fbae00;
      }

      .cls-2, .cls-3, .cls-4, .cls-5, .cls-6 {
        fill: none;
      }

      .cls-2, .cls-4, .cls-5, .cls-6 {
        stroke-linecap: round;
        stroke-linejoin: round;
        stroke-width: 3px;
      }

      .cls-7 {
        fill: #fff;
      }

      .cls-3 {
        stroke: #b39ddb;
        stroke-miterlimit: 10;
        stroke-width: 5px;
      }

      .cls-4 {
        stroke: #87ceeb;
      }

      .cls-5 {
        stroke: #fff;
      }

      .cls-6 {
        stroke: #414042;
      }

      .cls-8 {
        fill: url(#linear-gradient);
      }
    </style>
    <linearGradient id="linear-gradient" x1="5" y1="144.34" x2="235" y2="144.34" gradientTransform="translate(0 338.34) scale(1 -1)" gradientUnits="userSpaceOnUse">
      <stop offset="0" stop-color="#4682e4"/>
      <stop offset="1" stop-color="#1e90ff"/>
    </linearGradient>
  </defs>
  <path class="cls-1" d="M5,0h230.01c2.76,0,5,2.23,5,4.99v328.02c0,2.75-2.24,4.99-5,4.99H5c-2.76,0-5-2.23-5-4.99V4.99C0,2.23,2.24,0,5,0Z"/>
  <rect class="cls-8" x="5" y="55" width="230" height="278"/>
  <rect class="cls-7" x="5" y="5.5" width="230" height="49"/>
  <path class="cls-1" d="M200,5h36v16h-34.47c-.85,0-1.53-1.36-1.53-3.05V5h0Z"/>
  <line class="cls-3" x1="2.5" y1="54" x2="237.5" y2="54"/>
  <g>
    <path d="M37.21,40.98h-8.32l-1.33,3.97h-5.68l8.06-22.46h6.29l8.06,22.46h-5.75l-1.33-3.97ZM35.81,36.75l-2.76-8.22-2.73,8.22h5.49Z"/>
    <path d="M46.69,31.15c.69-1.39,1.62-2.45,2.81-3.2,1.19-.75,2.51-1.12,3.97-1.12,1.16,0,2.23.25,3.19.74.96.49,1.72,1.15,2.27,1.98v-8.29h5.43v23.68h-5.43v-2.56c-.51.85-1.23,1.54-2.17,2.05-.94.51-2.04.77-3.29.77-1.46,0-2.78-.38-3.97-1.14-1.19-.76-2.12-1.83-2.81-3.23-.69-1.4-1.03-3.01-1.03-4.85s.34-3.44,1.03-4.83ZM57.8,32.78c-.75-.79-1.67-1.18-2.75-1.18s-2,.39-2.75,1.17c-.75.78-1.13,1.85-1.13,3.22s.38,2.45,1.13,3.25c.75.8,1.67,1.2,2.75,1.2s1.99-.39,2.75-1.18c.75-.79,1.13-1.87,1.13-3.23s-.38-2.44-1.13-3.23Z"/>
    <path d="M76.1,27.74c.95-.56,2.01-.85,3.17-.85v5.79h-1.49c-1.35,0-2.37.29-3.05.88-.68.59-1.02,1.62-1.02,3.09v8.29h-5.43v-17.86h5.43v2.98c.63-.98,1.43-1.75,2.38-2.32Z"/>
    <path d="M82.27,24.38c-.6-.56-.91-1.26-.91-2.1s.3-1.56.91-2.13c.6-.56,1.38-.85,2.33-.85s1.7.28,2.3.85c.6.57.9,1.28.9,2.13s-.3,1.53-.9,2.1c-.6.57-1.37.85-2.3.85s-1.73-.28-2.33-.85ZM87.3,27.09v17.86h-5.43v-17.86h5.43Z"/>
    <path d="M91.29,31.15c.75-1.39,1.8-2.45,3.14-3.2,1.34-.75,2.88-1.12,4.62-1.12,2.22,0,4.08.59,5.57,1.76,1.49,1.17,2.47,2.83,2.94,4.96h-5.78c-.49-1.36-1.43-2.05-2.83-2.05-.99,0-1.79.39-2.38,1.17-.59.78-.89,1.89-.89,3.34s.3,2.57.89,3.34c.59.78,1.39,1.17,2.38,1.17,1.4,0,2.34-.68,2.83-2.05h5.78c-.47,2.09-1.45,3.73-2.95,4.93-1.5,1.2-3.35,1.79-5.55,1.79-1.74,0-3.28-.37-4.62-1.12s-2.39-1.81-3.14-3.2c-.75-1.39-1.13-3.01-1.13-4.86s.38-3.48,1.13-4.86Z"/>
  </g>
  <g>
    <path class="cls-7" d="M209.34,15.73l-2.03-3.71h-.57v3.71h-2.38V5.9h3.99c.77,0,1.42.14,1.96.41s.95.64,1.21,1.11c.27.47.4,1,.4,1.58,0,.65-.18,1.24-.55,1.75-.37.51-.91.88-1.62,1.09l2.25,3.89h-2.68ZM206.74,10.32h1.47c.44,0,.76-.11.98-.32.22-.21.33-.52.33-.91s-.11-.67-.33-.88c-.22-.21-.54-.32-.98-.32h-1.47v2.44Z"/>
    <path class="cls-7" d="M213.4,9.69c.3-.61.71-1.07,1.23-1.4s1.1-.49,1.74-.49c.55,0,1.03.11,1.44.34s.73.52.95.88v-1.11h2.37v7.81h-2.37v-1.11c-.23.36-.55.66-.97.88s-.89.34-1.44.34c-.63,0-1.2-.17-1.72-.5-.52-.33-.93-.8-1.23-1.41s-.45-1.32-.45-2.12.15-1.51.45-2.11ZM218.26,10.41c-.33-.35-.73-.52-1.2-.52s-.87.17-1.2.51c-.33.34-.49.81-.49,1.41s.17,1.07.49,1.42c.33.35.73.52,1.2.52s.87-.17,1.2-.52c.33-.35.49-.82.49-1.41s-.17-1.07-.49-1.41Z"/>
    <path class="cls-7" d="M226.27,8.2c.42-.25.88-.37,1.39-.37v2.53h-.65c-.59,0-1.04.13-1.33.38-.3.26-.44.71-.44,1.35v3.63h-2.38v-7.81h2.38v1.3c.28-.43.62-.77,1.04-1.02Z"/>
    <path class="cls-7" d="M236.06,12.39h-5.38c.04.49.19.86.47,1.11.27.26.61.39,1.01.39.59,0,1-.25,1.24-.76h2.53c-.13.51-.36.98-.7,1.39-.34.41-.76.73-1.27.97s-1.08.35-1.71.35c-.76,0-1.44-.16-2.03-.49-.59-.33-1.06-.79-1.39-1.4-.33-.61-.5-1.32-.5-2.13s.17-1.52.49-2.13c.33-.61.79-1.07,1.38-1.4s1.27-.49,2.04-.49,1.42.16,2,.48c.58.32,1.04.77,1.37,1.36.33.59.49,1.27.49,2.06,0,.22-.01.46-.04.7ZM233.67,11.06c0-.41-.14-.74-.42-.98s-.62-.36-1.04-.36-.73.12-1.01.35c-.27.23-.44.56-.51.99h2.97Z"/>
  </g>
  <g>
    <g>
      <path class="cls-2" d="M57.58,287.8c.11.2,3.25-2.07,3.33-1.92.09.16-4.65,7.74-4.55,7.91.27.46,13.64-8.5,13.91-8.03.24.41-13.99,13.09-13.75,13.52s20.76-12.54,21-12.12c.16.27-10.01,10.57-9.82,10.89.21.36,16.74-10.33,17.03-9.83.23.39-13.87,13.31-13.59,13.8s21.72-13.23,22.02-12.71-20.2,16.84-19.92,17.33c.25.43,17.31-10.49,17.53-10.12"/>
      <path class="cls-5" d="M88.67,294s5.92-3.44,5.93-3.42c.1.17-2.59,6.77-2.48,6.96.02.03.54-.35.56-.32"/>
      <path class="cls-5" d="M57.26,287.42c.11.2,3.2-2.05,3.29-1.9.14.24-8.82,10.05-8.68,10.3.02.03,1.08-.67,1.1-.64.06.1,2.45,4.02,2.52,4.13,0,.02,2.49-1.47,2.5-1.45.07.12,6.28,1.41,6.36,1.55s6.73-4.15,6.85-3.95c.08.13-.93,6.27-.83,6.43.01.02,4.76-2.78,4.77-2.75.09.16-3.06,7.39-2.97,7.55.01.03,2.26-1.34,2.28-1.31.06.11,5.33,2.21,5.39,2.31.03.05,2.29-1.39,2.32-1.34"/>
    </g>
    <g>
      <path class="cls-2" d="M168.48,302.94c.22.37,18.06-10.79,18.22-10.52.2.34-9.76,10.66-9.55,11.04.14.24,9.1-5.56,9.24-5.33"/>
      <path class="cls-2" d="M147.01,296.66c.05.09,2.82-1.72,2.86-1.65.05.08,1.16,4.5,1.21,4.59.3.52,15.75-9.8,16.06-9.27s-17.91,15.22-17.61,15.75c.38.66,30.75-18.6,31.12-17.96.34.58-25,18.75-24.61,19.43.36.63,28.83-17.79,29.33-16.93"/>
      <path class="cls-5" d="M174.65,290.05s5.49-3.21,5.51-3.18c.05.09,1.6,4.93,1.67,5.06,0,.02.83-.51.84-.49.07.12,2.49,4.22,2.57,4.34,0,.02.13-.1.14-.08"/>
      <path class="cls-5" d="M171.2,302.32s.89-.55.9-.52c.06.1,2.75,4.02,2.82,4.15.02.04,3.37-2.01,3.4-1.96"/>
      <path class="cls-5" d="M167,303.28s6.59-3.85,6.61-3.82"/>
      <path class="cls-5" d="M146.57,296.34s1.12-.68,1.14-.66c.06.11-1.3,5.89-1.24,6,0,.02.84-.52.86-.49.06.11,1.37,4.64,1.44,4.75,0,.02,2.36-1.39,2.37-1.37.05.09,3.71,2.94,3.77,3.04,0,.02,1.05-.65,1.07-.62.06.11,4.32,2.95,4.4,3.09.12.21,11.46-6.91,11.59-6.69"/>
    </g>
    <g>
      <path class="cls-4" d="M22.2,166.01c.05.09,3.09-1.91,3.15-1.82.11.18-4.08,7.83-3.95,8.06.11.19,10.3-6.29,10.45-6.03.17.29-7.77,9.92-7.64,10.15.2.35,11.86-7.29,12.05-6.96.14.24-5.63,8.6-5.49,8.85.24.42,17.42-10.46,17.6-10.16.3.51-18.17,14.98-17.84,15.54.27.47,20.52-12.39,20.76-11.98.29.49-17.11,15.19-16.88,15.6.28.49,21.16-12.87,21.45-12.38.3.52-17.66,15.23-17.33,15.8s23.59-14.36,23.91-13.81c.21.37-15.28,13.9-15.05,14.29,2.2,3.81,123.49-75.19,125.17-72.27,1.94,3.36-128.81,75.32-126.89,78.64,1.64,2.85,129.98-78.99,131.69-76.03,1.59,2.75-130.12,76.39-128.26,79.61,2.01,3.48,122.15-75.14,124.15-71.68s-122.82,71.6-120.81,75.08c1.44,2.49,124.13-75.98,126-72.74,2,3.46-124.99,74.91-123.5,77.5s118.76-72.32,120.38-69.5c2.01,3.48-115.91,69.09-114.28,71.91,1.94,3.35,119.51-73.06,121.27-70.02s-125.41,74.14-123.74,77.04c1.82,3.16,122.11-74.31,123.76-71.45S51.65,223.81,53.58,227.14s120.71-74.07,122.6-70.79c1.53,2.65-123.09,73.46-121.58,76.08,1.87,3.24,120.65-74.07,122.56-70.76,1.54,2.66-125.06,73.45-123.19,76.68s120.47-73.02,121.97-70.42c2.19,3.79-131.68,77.85-129.92,80.9,1.53,2.64,126.88-77.92,128.9-74.42,1.63,2.83-127.56,75.51-125.97,78.26,2.04,3.53,125.51-76.53,127.27-73.48,2.26,3.92-131.87,77.62-129.89,81.06,2.36,4.08,152.97-94.37,155.59-89.83,2.19,3.8-156.14,91.57-154.06,95.17,2.64,4.58,164.6-101.19,167.27-96.57,2.18,3.77-170.6,99.18-168.46,102.89,1.94,3.35,162.43-99.72,165-95.26,2.31,4-167.09,97.21-164.99,100.85,1.94,3.35,156.17-95.59,158.52-91.52,1.94,3.36-154,89.5-151.9,93.12,2.31,4,148.99-91.21,151.24-87.32,1.94,3.36-155.29,89.75-152.88,93.92,1.93,3.34,141.42-85.64,143.15-82.65,1.99,3.45-138.01,81.32-136.17,84.49,1.98,3.43,116.92-72.18,118.95-68.67,1.7,2.94-116.22,68.61-114.58,71.46,1.78,3.09,117.42-72.33,119.39-68.93,1.59,2.75-111.67,66.74-110.11,69.46s106.33-65.33,108.04-62.37c1.32,2.28-100.43,60.05-98.98,62.55,1.57,2.73,103.62-63.26,105.11-60.69,1.69,2.93-100.68,61.28-99.42,63.47,1.61,2.79,98.73-60.63,100.3-57.91,1.18,2.04-85.74,52.13-84.6,54.11s81.2-49.65,82.4-47.57c.98,1.7-71.44,44.86-70.3,46.84.83,1.44,71.21-43.36,72.18-41.68s-61.75,38.8-60.85,40.35,64.49-39.35,65.41-37.76c.98,1.69-59.88,38.27-58.86,40.03.71,1.23,58.84-36.06,59.75-34.5.79,1.36-59.42,37.98-58.55,39.48.78,1.35,57.69-35.09,58.46-33.75.73,1.27-50.79,33.87-50.06,35.14.55.95,43.47-26.64,44.13-25.48.4.69-31.06,22.31-30.57,23.15.41.71,27.85-17.01,28.25-16.31.22.39-15.69,14.56-15.45,14.98.21.36,9.03-5.63,9.21-5.32"/>
      <path class="cls-4" d="M79.84,107.9c.25.43,19.85-11.88,20.03-11.56.44.76-25.72,19.26-25.24,20.1.94,1.62,63.6-38.78,64.49-37.24,1.01,1.75-66.83,42.1-65.9,43.71.85,1.47,71-43.31,72-41.57,1.08,1.87-76.8,47.6-75.86,49.25,1.04,1.8,72.3-44.15,73.34-42.34,1.13,1.95-79.37,48.38-78.06,50.66,1.2,2.08,73.07-44.84,74.22-42.85s-77.36,47.72-76.4,49.38c1.24,2.15,82.2-50.16,83.37-48.13,1.43,2.47-85.04,51.31-83.57,53.86,1.29,2.24,83.97-50.97,85.05-49.1s-81.98,49.84-80.76,51.96c1.33,2.31,89.63-54.39,90.77-52.41,1.34,2.33-96.83,58.76-95.35,61.33,1.32,2.28,95.49-58.64,97.01-56.01,1.31,2.26-98.99,59.62-97.4,62.39s104.81-64.48,106.53-61.51c1.5,2.6-105.37,62.56-103.79,65.31s103.85-63.31,105.31-60.8"/>
      <path class="cls-4" d="M113.95,80.49c.06.11.23-.24.28-.16.06.1-.54,5.46-.48,5.56.15.26,6.68-4.21,6.83-3.94.18.31-9.88,10.85-9.69,11.18.16.27,13.64-8.22,13.79-7.96"/>
      <path class="cls-5" d="M113.73,81.13s4.68-2.73,4.69-2.71c.09.15-2.88,6.81-2.79,6.97.01.02.33-.22.34-.2.09.15,4.74,3.09,4.81,3.21.21.37,21.16-12.74,21.39-12.35.07.13-1.71,6.01-1.63,6.15,0,.02.76-.47.77-.45.06.11,1.28,4.46,1.34,4.56.02.03,1.72-1.04,1.74-1.01.18.31-8.73,9.91-8.53,10.25.02.03,6.65-3.87,6.66-3.85.08.14.4,5.95.47,6.07,0,.03,5.59-3.26,5.6-3.23.09.15-2.58,6.56-2.51,6.69,0,.02,4.06-2.38,4.08-2.35.06.11,1.41,5.15,1.47,5.27,0,.03,6.19-3.6,6.2-3.58.1.17-2.18,7.13-2.09,7.3,0,.02,2.25-1.32,2.26-1.3.09.16,5.5,2.97,5.58,3.1,0,.02.77-.47.78-.45.09.15-.22,5.98-.14,6.12,0,.02,6.26-3.64,6.27-3.62.09.16-.5,6.22-.4,6.39,0,.02.75-.46.76-.44.06.1,1.54,4.63,1.6,4.73,0,.02.75-.46.76-.44.07.12,1.09,4.74,1.15,4.85,0,.02.76-.46.77-.45.07.12.86,5.64.94,5.78,0,.02.78-.47.79-.46.08.13.25,5.59.32,5.72,0,.02.81-.49.82-.47.08.14-2.52,7.14-2.42,7.3,0,.02.86-.52.87-.5.07.12,2.87,4.05,2.94,4.17,0,.02,3.08-1.81,3.09-1.78.14.24-6.82,9.7-6.69,9.93,0,.02,3.4-1.99,3.42-1.97.08.13-.36,5.43-.3,5.53,0,.02.88-.53.89-.51.09.15-1.29,6.42-1.21,6.55.02.03.91-.56.93-.54.08.14-.85,5.62-.79,5.73,0,.02,2.35-1.39,2.36-1.36.16.29-6.46,8.97-6.3,9.23,0,.03,3.42-2.01,3.43-1.98.12.21,8.35,1.24,8.46,1.43.21.37,7.81-5.05,8.04-4.64.34.59,23.4-8.21,23.7-7.69,0,.02.75-.47.77-.44.12.21-3.38,7.91-3.29,8.07.02.04,1.44-.87,1.46-.84.22.38-10.81,11.82-10.6,12.18.03.06,6.87-4.04,6.9-3.99.2.35-11.85,11.79-11.61,12.19.03.06,5.06-2.98,5.08-2.93.28.48-17.95,15.8-17.64,16.32.04.07,2.78-1.69,2.82-1.63.2.35-13.81,13.26-13.52,13.75,0,.02,2.49-1.47,2.5-1.44.1.17-2.55,7.5-2.44,7.67,0,.02,0-.03,0,0,.05.09,4.01,2.93,4.07,3.02,0,.02.78-.48.8-.46.06.11.39,5.8.46,5.93,0,.02.78-.48.8-.46.08.14.49,5.32.56,5.45,0,.02.1-.08.11-.06.06.1.88,5.32.94,5.43,0,.02.79-.48.8-.46.08.14.31,5.74.39,5.88,0,.02.79-.48.8-.46.09.15,0,5.77.08,5.88,0,.02.82-.5.83-.48.1.17-3.2,7.64-3.07,7.86,0,.02,5.4-3.15,5.42-3.13.1.16-3.06,7.34-2.97,7.5,0,.02.9-.55.92-.53.14.24-5.07,7.96-4.95,8.18.02.03,1.48-.89,1.49-.86.11.18-4.33,8.47-4.19,8.7.03.05,1.1-.68,1.12-.65"/>
      <path class="cls-5" d="M21.76,165.71c.05.08,3.42-2.09,3.47-2,.1.18-1.92,7.15-1.82,7.32.01.02.73-.44.74-.43.07.13,2.11,4.53,2.18,4.65.01.02.75-.46.76-.44.06.1,2.58,4.47,2.65,4.6,0,.02.76-.46.77-.45.07.11,2.51,4.09,2.58,4.2,0,.02.77-.47.78-.45.07.12,1.11,5.06,1.19,5.2,0,.02,5.55-3.23,5.56-3.21.09.16-.16,6.08-.09,6.21,0,.02.78-.48.79-.46.09.15-.86,6.44-.78,6.58,0,.02,4.91-2.86,4.92-2.84.06.1.14,5.63.21,5.75,0,.02.33-.22.34-.2.07.12,2.81,3.75,2.88,3.87,0,.02,7.37-4.28,7.38-4.26.08.14-1.7,6.04-1.63,6.16,0,.02,2.35-1.38,2.36-1.36.07.11.2,5.81.27,5.94.02.03,4.81-2.8,4.82-2.78.15.26-8.7,10.39-8.56,10.64.02.03,5.83-3.4,5.85-3.38.14.24-4.32,8.26-4.21,8.45.02.03,1.02-.63,1.04-.6.11.19-2.78,6.91-2.68,7.07.02.03,1.07-.66,1.09-.63.1.17-3.47,7.52-3.35,7.73.02.03,1.16-.71,1.17-.68.12.2-3.78,7.3-3.66,7.51.02.03,1.12-.68,1.13-.65.11.19-5.05,8.16-4.94,8.36,0,.02.62-.39.63-.37.06.11,1.03,5.35,1.12,5.49,0,.02.89-.54.9-.52.09.16-.72,6.26-.62,6.43,0,.02.83-.5.84-.48.11.19-3.53,7.41-3.41,7.62,0,.02,1.6-.94,1.61-.93.07.12,3.13,3.46,3.18,3.56,0,.02.76-.47.78-.45.1.17-2.95,6.89-2.87,7.03,0,.02,1.68-1,1.7-.98.07.11,4.46,3.2,4.52,3.31,0,.02.75-.46.76-.44.06.1,2.31,4.21,2.38,4.33,0,.02.78-.47.79-.46.07.12,4.23,3.76,4.28,3.86.01.02.97-.59.98-.57.08.14,3.58,3.68,3.64,3.79.02.03,4.95-2.89,4.96-2.87.09.15,6.06,1.9,6.16,2.06.02.04,1.03-.63,1.05-.6.08.13,4.81,2.89,4.88,3.03.02.03,6.78-3.96,6.8-3.92.07.12,4.53,2.6,4.58,2.7.03.05,1.73-1.05,1.75-1.01.08.14,6.28,1.52,6.36,1.66.03.06,8.35-4.89,8.38-4.84.08.14,7.36.99,7.47,1.18.02.04.98-.62,1-.58.09.15,7.16,1.74,7.25,1.9.02.03,2.02-1.2,2.03-1.17.06.11,1.76,4.99,1.82,5.09.02.03,5.89-3.44,5.91-3.41.06.11,2.79,4.38,2.85,4.48.02.03,5.66-3.3,5.68-3.28.06.11,1.05,4.89,1.13,5.02,0,.02.46-.3.48-.28.1.17,6.56,1.54,6.64,1.68.02.03.65-.42.67-.39"/>
      <path class="cls-5" d="M23.27,165.86s5.76-3.37,5.78-3.34c.05.1,3.84,3.64,3.91,3.76.02.03.98-.6,1-.58.08.15,5.46,2.47,5.55,2.62.02.03.27-.18.28-.16.08.15,5.04,2.84,5.1,2.96,0,.02.92-.57.94-.54.07.12,1.23,5.16,1.31,5.29.02.03,1.06-.64,1.07-.62.08.13,5.53,1.96,5.59,2.07,0,.02,4.8-2.81,4.82-2.78.06.11.98,5.25,1.05,5.37.02.03,2.65-1.58,2.67-1.54"/>
      <path class="cls-5" d="M84.01,104.94c.23.41,10.86-6.85,11.11-6.41.37.64-24.74,19.02-24.29,19.8.02.03,3.2-1.91,3.22-1.86.16.28-7.22,9.61-7.09,9.84.02.04,1.31-.8,1.33-.77.08.13-.43,5.74-.35,5.88.02.03,4.2-2.46,4.22-2.43.17.3-9.3,10.17-9.11,10.5.02.03,5.33-3.11,5.34-3.09.14.24-6.38,9.27-6.26,9.48.02.03,4.01-2.35,4.02-2.32.12.21-4.5,8.09-4.37,8.31.02.03,4.68-2.74,4.7-2.71.09.15-3.81,7.58-3.72,7.75.02.03.91-.56.92-.53.1.17-2.83,6.79-2.73,6.95,0,.02,6.15-3.58,6.17-3.56.12.21-6.77,9.15-6.63,9.39,0,.03.43-.28.44-.26.08.14-.88,5.65-.8,5.79,0,.02,4.43-2.59,4.44-2.56"/>
      <path class="cls-5" d="M94.9,99.66c.06.11,8.93-5.27,8.98-5.19"/>
      <path class="cls-5" d="M113.62,80.14c.07.12.62-.48.67-.39.1.17-5.16,8.03-5.06,8.21.01.03.91-.56.92-.53.07.12.08,5.36.15,5.49,0,.02,2.32-1.36,2.32-1.34"/>
    </g>
    <path class="cls-5" d="M125.59,124.62c.12.21,12.4-7.37,12.49-7.21.26.45-13.96,12.93-13.67,13.43s19.15-11.69,19.43-11.22c.33.57-19.61,16.29-19.31,16.82.32.56,27.61-16.83,27.99-16.16.47.81-31.73,22.82-31.32,23.53.47.82,33.66-20.52,34.13-19.7"/>
    <path class="cls-5" d="M83.33,126.13c.16.27,5.68-3.55,5.8-3.35.15.26-9.66,10.51-9.51,10.78.38.65,20.43-12.67,20.81-12.01.42.72-27.24,20.3-26.81,21.06.38.66,31.05-18.78,31.42-18.14.4.69-30.25,21.61-29.78,22.42.4.69,31.97-19.72,32.51-18.77.52.9-35.91,25.2-35.26,26.31.52.9,36.88-22.56,37.43-21.61s-40.02,27.72-39.49,28.63,34.79-21.13,35.24-20.35-34.41,24.25-33.96,25.03,34.09-20.84,34.59-19.97c.46.8-30.37,22.48-29.82,23.44.43.74,35.71-21.61,36.14-20.87.52.9-39.88,27.56-39.23,28.69,1.14,1.98,82.61-49.93,83.58-48.25,1.21,2.09-84.97,52.28-83.94,54.06,1.35,2.33,84.1-50.86,85.09-49.13,1.09,1.88-89.58,54.32-88.35,56.45,1.08,1.87,90.83-54.91,91.9-53.06,1.19,2.07-88.75,54.44-87.41,56.76,1.17,2.02,85.14-51.96,86.36-49.86,1.44,2.5-90.13,54.86-88.68,57.36s85.65-52.22,86.85-50.14c1.09,1.88-90.63,55.82-89.4,57.95s93.3-57.29,94.78-54.72-97.43,58.47-95.98,60.97,95.78-58.37,97.11-56.07c1.19,2.07-102.08,61.59-100.64,64.09s93.59-57.55,95.11-54.91c1.34,2.32-94.62,57.43-93.36,59.61,1.41,2.44,97.61-60.3,99.32-57.34,1.52,2.63-107.95,65.39-106.56,67.79,1.71,2.96,98.61-60.12,99.99-57.73s-103.76,62.6-102.3,65.14,106.67-65.13,108.2-62.47c1.31,2.26-108.41,65.44-107.01,67.85,1.29,2.24,103.66-63.58,105.28-60.78,1.27,2.2-100.52,60.05-98.94,62.78,1.73,2.99,100.93-61.46,102.31-59.07,1.56,2.71-102.94,62.42-101.69,64.58s99.14-60.64,100.61-58.09c1.22,2.12-97.82,59.33-96.55,61.55s97.28-59.13,98.56-56.9c1.78,3.09-101.74,61.5-100.3,63.99,1.19,2.07,95.7-59.13,97.38-56.22,1.16,2.01-97.9,58.84-96.47,61.3,1.16,2,93.03-56.49,94.23-54.41,1.42,2.46-91.55,55.11-90.19,57.48,1.22,2.11,96.67-58.9,98.01-56.58,1.09,1.88-91.47,55.42-90.05,57.88,1.32,2.29,86.06-52.79,87.4-50.46,1.06,1.83-80.11,49.19-78.72,51.61,1.02,1.77,81.27-49.35,82.32-47.53,1.13,1.96-67.91,43.23-67.01,44.79.84,1.45,65.73-40.51,66.84-38.59.85,1.48-64.53,40.93-63.68,42.41.8,1.39,65.74-40.14,66.69-38.5.77,1.33-58.95,37.49-58.19,38.8.64,1.11,58.55-35.55,59.3-34.24s-50.73,33.41-49.98,34.72c.51.89,44.37-27.3,45.09-26.04.41.71-29.59,21.56-29.15,22.34s33.65-20.63,34.17-19.73c.41.71-30.03,22.2-29.56,23.01.29.49,26.84-16.2,27.15-15.67"/>
    <g>
      <path class="cls-6" d="M87.96,137.64c.06.11,8.99-5.3,9.04-5.22.08.14-.52,5.63-.43,5.78.04.06,2.02-1.25,2.06-1.19.06.11,1.89,4.44,1.95,4.54.03.06,3.57-2.15,3.61-2.09"/>
      <path class="cls-6" d="M83.42,136.87c.13.23,4.43-2.79,4.53-2.61.14.23-8.54,9.89-8.4,10.13.04.07,2.51-1.55,2.55-1.47"/>
    </g>
    <g>
      <path class="cls-6" d="M135.85,137.64c.06.11,8.99-5.3,9.04-5.22.08.14-.52,5.63-.43,5.78.04.06,2.02-1.25,2.06-1.19.06.11,1.89,4.44,1.95,4.54.03.06,3.57-2.15,3.61-2.09"/>
      <path class="cls-6" d="M131.3,136.87c.13.23,4.43-2.79,4.53-2.62.14.23-8.54,9.89-8.4,10.14.04.07,2.51-1.55,2.55-1.47"/>
    </g>
    <g>
      <path class="cls-2" d="M103.61,151.1c.05.08,2.59-1.58,2.63-1.52.05.08,3.25,3.3,3.3,3.38.16.27,7.05-4.44,7.21-4.16.15.26-7.4,9.5-7.25,9.77.18.31,15.22-9.19,15.4-8.89"/>
      <path class="cls-6" d="M104.13,151.91c.05.09,8.35-4.91,8.39-4.85.07.12,4.3,2.86,4.38,3,.05.08,2.59-1.59,2.63-1.52.07.13,4.9,2.68,4.96,2.8.03.06,3.44-2.08,3.48-2.01"/>
      <path class="cls-6" d="M102.68,150.49c.06.1,3.17-1.93,3.21-1.86.07.12-1.89,6.21-1.82,6.34.03.05,1.6-.99,1.63-.94.06.1,1.89,4.35,1.95,4.46.02.04,3.31-1.96,3.33-1.92.06.1,4.27,2.61,4.33,2.72.12.2,9.27-5.72,9.43-5.44"/>
    </g>
  </g>
</svg>