<?xml version="1.0" encoding="UTF-8"?>
<svg id="Outline" xmlns="http://www.w3.org/2000/svg" width="240.01" height="338" xmlns:xlink="http://www.w3.org/1999/xlink" viewBox="0 0 240.01 338">
  <defs>
    <style>
      .cls-1 {
        fill: #fff;
      }

      .cls-2 {
        fill: #c4afe5;
      }

      .cls-3 {
        fill: #b0bec5;
      }

      .cls-4 {
        fill: #fbae00;
      }

      .cls-5 {
        fill: none;
        stroke: #939598;
        stroke-miterlimit: 10;
        stroke-width: 5px;
      }

      .cls-6 {
        fill: #939598;
      }

      .cls-7 {
        fill: #414042;
      }

      .cls-8 {
        fill: url(#linear-gradient);
      }
    </style>
    <linearGradient id="linear-gradient" x1="5" y1="-94.34" x2="235" y2="-94.34" gradientTransform="translate(0 288.34)" gradientUnits="userSpaceOnUse">
      <stop offset="0" stop-color="#4682e4"/>
      <stop offset="1" stop-color="#1e90ff"/>
    </linearGradient>
  </defs>
  <path class="cls-6" d="M5,0h230.01c2.76,0,5,2.23,5,4.99v328.02c0,2.75-2.24,4.99-5,4.99H5c-2.76,0-5-2.23-5-4.99V4.99C0,2.23,2.24,0,5,0Z"/>
  <rect class="cls-8" x="5" y="55" width="230" height="278"/>
  <rect class="cls-1" x="5" y="5.5" width="230" height="49"/>
  <path class="cls-6" d="M200,5h36v16h-34.47c-.85,0-1.53-1.36-1.53-3.05V5h0Z"/>
  <line class="cls-5" x1="2.5" y1="54" x2="237.5" y2="54"/>
  <g>
    <path class="cls-1" d="M209.34,15.73l-2.03-3.71h-.57v3.71h-2.38V5.9h3.99c.77,0,1.42.14,1.96.41s.95.64,1.21,1.11c.27.47.4,1,.4,1.58,0,.65-.18,1.24-.55,1.75-.37.51-.91.88-1.62,1.09l2.25,3.89h-2.68.02ZM206.74,10.32h1.47c.44,0,.76-.11.98-.32s.33-.52.33-.91-.11-.67-.33-.88-.54-.32-.98-.32h-1.47v2.44h0Z"/>
    <path class="cls-1" d="M213.4,9.69c.3-.61.71-1.07,1.23-1.4s1.1-.49,1.74-.49c.55,0,1.03.11,1.44.34.41.23.73.52.95.88v-1.11h2.37v7.81h-2.37v-1.11c-.23.36-.55.66-.97.88s-.89.34-1.44.34c-.63,0-1.2-.17-1.72-.5s-.93-.8-1.23-1.41-.45-1.32-.45-2.12.15-1.51.45-2.11ZM218.26,10.41c-.33-.35-.73-.52-1.2-.52s-.87.17-1.2.51-.49.81-.49,1.41.17,1.07.49,1.42c.33.35.73.52,1.2.52s.87-.17,1.2-.52.49-.82.49-1.41-.17-1.07-.49-1.41Z"/>
    <path class="cls-1" d="M226.27,8.2c.42-.25.88-.37,1.39-.37v2.53h-.65c-.59,0-1.04.13-1.33.38-.3.26-.44.71-.44,1.35v3.63h-2.38v-7.81h2.38v1.3c.28-.43.62-.77,1.04-1.02h0Z"/>
    <path class="cls-1" d="M236.06,12.39h-5.38c.04.49.19.86.47,1.11.27.26.61.39,1.01.39.59,0,1-.25,1.24-.76h2.53c-.13.51-.36.98-.7,1.39s-.76.73-1.27.97-1.08.35-1.71.35c-.76,0-1.44-.16-2.03-.49s-1.06-.79-1.39-1.4-.5-1.32-.5-2.13.17-1.52.49-2.13c.33-.61.79-1.07,1.38-1.4s1.27-.49,2.04-.49,1.42.16,2,.48,1.04.77,1.37,1.36.49,1.27.49,2.06c0,.22,0,.46-.04.7h0ZM233.67,11.06c0-.41-.14-.74-.42-.98s-.62-.36-1.04-.36-.73.12-1.01.35c-.27.23-.44.56-.51.99h2.98Z"/>
  </g>
  <g>
    <g>
      <path class="cls-4" d="M73.29,308.17c-.14,0-.26-.03-.4-.07-.39-.1-.74-.36-.94-.71-.72-1.25-.76-1.33,8.04-8.67-8.25,5-8.39,4.97-9.2,4.76-.39-.1-.74-.37-.94-.72-.67-1.17-.72-1.26,5.86-7.62-7.5,4.59-7.52,4.58-8.35,4.37-.39-.1-.74-.36-.94-.71-.59-1-.66-1.11,3.55-5.6-.71.43-1.42.86-2.1,1.27-10.78,6.51-10.84,6.5-11.71,6.27-.39-.1-.74-.37-.94-.73-.62-1.11-.68-1.23,4.97-6.54-3.3,2-3.52,1.95-4.16,1.79-.39-.1-.75-.36-.96-.71-.49-.83-.5-.85,2.16-5.29-.4-.1-.76-.38-.96-.74-.4-.73-.13-1.64.59-2.04.13-.07.27-.12.41-.15.31-.17.95-.59,1.35-.85,1.56-1.01,1.92-1.25,2.65-1.06.41.1.76.38.96.75.43.77.45.81-1.85,4.66.72-.44,1.44-.89,2.1-1.3,6.95-4.33,7.27-4.45,8.13-4.23.39.1.76.37.96.72.66,1.14.71,1.22-5.45,7,.06-.04.13-.08.19-.11,10.65-6.44,10.71-6.43,11.58-6.2.39.1.74.36.94.71.58.98.64,1.07-3.43,5.39,8.69-5.31,8.85-5.27,9.68-5.06.39.1.75.37.95.72.69,1.18.7,1.2-6.15,7.81.42-.25.83-.51,1.24-.75,11.4-6.93,11.52-6.91,12.4-6.68.39.1.74.37.95.71.71,1.24.78,1.35-7.69,8.42,3.55-2.12,3.73-2.07,4.35-1.92.39.1.73.35.94.7.42.71.19,1.63-.52,2.06-.16.09-.33.16-.5.19-.93.44-4.71,2.74-7.77,4.6-7.89,4.8-9.25,5.58-9.98,5.58ZM89.49,297.31h0s0,0,0,0ZM89.49,297.31s0,0,0,0c0,0,0,0,0,0ZM89.49,297.3s0,0,0,0h0ZM89.49,297.3s0,0,0,0c0,0,0,0,0,0ZM89.49,297.3s0,0,0,0c0,0,0,0,0,0ZM89.49,297.29h0s0,0,0,0ZM89.48,297.29s0,0,0,0t0,0ZM58.64,286.74s.04.04.06.06h0s-.04-.04-.06-.06Z"/>
      <path class="cls-1" d="M92.07,299.03c-.71,0-1.1-.52-1.2-.67-.44-.76-.46-.79.93-4.45-.83.48-1.68.97-2.38,1.38-.72.42-1.63.17-2.05-.54-.42-.72-.17-1.63.54-2.05q6.46-3.76,7.11-3.56c.36.11.67.35.86.68q.42.71-1.08,4.64c-.24.63-.54,1.42-.79,2.09.34.66.14,1.49-.49,1.92-.07.05-.15.09-.23.13l-.08.05c-.45.29-.83.39-1.15.39Z"/>
      <path class="cls-1" d="M79.88,309.21c-.12,0-.25-.02-.4-.06-.15-.04-.29-.1-.42-.17-.3-.14-1.48-.63-2.35-.99-1-.42-1.7-.7-2.19-.92-.16.09-.33.2-.51.3-1.45.86-1.67.99-2.36.73-.33-.12-.61-.36-.79-.67-.4-.7-.4-.72,1.3-4.84-1.61.93-1.7.9-2.24.74-.34-.11-.64-.33-.83-.64q-.34-.55.23-4.47c-.44.26-.87.53-1.25.76q-3.39,2.07-4.09,1.89c-.09-.02-.18-.06-.27-.1-.43-.13-2-.48-3.07-.72-1.14-.26-1.92-.43-2.46-.57-.24.14-.52.31-.81.47-1.55.91-1.87,1.1-2.63.66-.21-.12-.39-.29-.52-.49-.06-.1-1.07-1.75-1.8-2.94-.57.22-1.27.26-1.8-.51-.03-.04-.05-.07-.07-.11q-.59-1.05,4.56-6.92c.33-.38.68-.78,1.04-1.19-.08-.09-.16-.19-.22-.3-.4-.72-.14-1.64.59-2.04.13-.07.27-.12.41-.15.3-.17.92-.57,1.31-.82,1.54-1,1.91-1.24,2.62-1.08.4.09.75.35.96.69q.62,1.07-4.46,6.86c-.91,1.03-2,2.27-2.84,3.26.37.61.98,1.61,1.47,2.41,1.74-1.02,1.79-1.04,2.41-.85.06.02.12.04.18.06.37.11,1.72.41,2.71.64,1.4.32,2.3.52,2.91.68.56-.32,1.53-.92,2.29-1.38,4.11-2.51,4.27-2.61,5.04-2.42.39.1.73.35.94.69q.31.51-.19,3.93c-.02.15-.04.3-.07.46,2.75-1.6,2.78-1.58,3.43-1.35.33.12.62.36.79.67q.4.71-1.41,5.09c-.05.13-.11.26-.17.4.18.04.35.13.51.28.47.21,1.61.68,2.47,1.04.86.36,1.47.61,1.92.8.14-.09.3-.18.46-.28,1.3-.79,2.42-1.47,3.21-.16.43.71.21,1.63-.5,2.06-.08.05-.15.08-.23.12-.19.1-.55.33-.92.55-1.11.67-1.49.91-1.91.91ZM63.05,300.16c.09.16.2.28.3.37-.12-.11-.22-.23-.3-.37ZM57.53,299.29h0s0,0,0,0Z"/>
    </g>
    <g>
      <path class="cls-4" d="M177.22,304.99c-.14,0-.27-.03-.42-.07-.39-.1-.74-.36-.94-.71-.59-1.06-.64-1.16,3.69-5.91-.03.02-.06.04-.1.06-10.41,6.26-10.47,6.25-11.32,6.04-.39-.1-.73-.35-.94-.69-.42-.71-.19-1.63.52-2.06.16-.09.33-.16.5-.19,1.09-.5,6.03-3.47,9.68-5.67q8.37-5.03,9.16-4.83c.39.1.73.35.93.69.61,1.04.66,1.12-3.63,5.82,1.65-.96,1.85-.94,2.37-.81.39.09.73.34.94.68.43.71.21,1.63-.5,2.06-.14.08-.29.15-.44.18-.6.3-2.62,1.54-4.12,2.45-4.01,2.45-4.83,2.95-5.39,2.95ZM169.77,302.17s0,0,0,0c0,0,0,0,0,0ZM169.16,301.61c.24.12.45.31.6.56-.16-.27-.37-.45-.6-.56ZM185.12,298.92s.06.09.09.13c-.03-.04-.06-.09-.09-.13ZM185.12,298.92s0,0,0,0c0,0,0,0,0,0ZM185.11,298.92s0,0,0,0t0,0ZM185.11,298.92s0,0,0,0t0,0ZM185.11,298.91h0s0,0,0,0Z"/>
      <path class="cls-4" d="M156.09,309.08c-.15,0-.27-.03-.4-.07-.39-.1-.75-.37-.95-.72-.78-1.36.11-2.06,4.38-5.38.82-.63,1.72-1.33,2.69-2.07-11.57,6.98-11.77,6.91-12.63,6.7-.39-.1-.75-.37-.95-.72-.68-1.2-.75-1.34,6.09-7.17-2.75,1.63-3,1.56-3.58,1.42-.39-.1-.76-.37-.96-.72q-.13-.23-.74-2.6c-.04-.15-.08-.3-.11-.45-1.42.87-1.67.98-2.29.81-.4-.1-.74-.37-.93-.73-.4-.72-.14-1.64.58-2.04.08-.05.17-.08.26-.11.26-.14.87-.52,1.25-.75,1.55-.95,1.79-1.1,2.45-.93.39.1.73.36.93.71q.12.19.78,2.74c.04.17.08.33.13.49,1.56-.9,4.14-2.5,6.17-3.77,8.23-5.12,8.36-5.08,9.23-4.87.39.1.76.37.96.72.73,1.25.79,1.34-7.1,8.06,1.07-.65,2.14-1.29,3.16-1.91,15.43-9.34,15.58-9.31,16.51-9.07.39.1.74.37.95.71.7,1.19.81,1.39-6.66,7.06,8.85-5.34,9.57-5.5,10.41-5.29.39.1.76.38.97.73.42.72.17,1.63-.54,2.05-.24.14-.5.2-.75.2-1.71.67-9.73,5.58-15.64,9.2-11.06,6.77-12.8,7.76-13.64,7.76ZM147.4,295.21c.38.1.71.35.92.72-.22-.4-.57-.62-.92-.72ZM184.14,291.48s0,0,0,0h0ZM184.08,291.39s.04.06.06.09c-.02-.03-.04-.06-.06-.09ZM184.08,291.39s0,0,0,0c0,0,0,0,0,0ZM184.08,291.39s0,0,0,0c0,0,0,0,0,0ZM184.08,291.38s0,0,0,0c0,0,0,0,0,0ZM184.08,291.38s0,0,0,0c0,0,0,0,0,0ZM184.08,291.38h0s0,0,0,0Z"/>
      <path class="cls-1" d="M185.24,297.28c-.3,0-.54-.09-.67-.16-.26-.13-.48-.34-.62-.58-.1-.17-.46-.77-1.86-3.13-.3.06-.63.04-.99-.17-.25-.14-.45-.34-.59-.59-.09-.17-.1-.19-1.04-3.08-.05-.17-.11-.33-.16-.49-1.16.67-2.76,1.6-3.9,2.27-.71.41-1.63.18-2.05-.54-.42-.71-.18-1.63.54-2.05l2.75-1.6c.69-.4,1.38-.8,1.9-1.1,1.02-.58,2.07-1.19,2.86-.02.02.04.05.07.07.11q.09.17.85,2.49c.13.41.28.87.42,1.3.11,0,.23.03.35.07.36.11.67.35.87.68.08.14,1.55,2.62,2.22,3.75.24.15.43.37.55.62.35.73.05,1.59-.65,1.97-.3.2-.59.26-.84.26Z"/>
      <path class="cls-1" d="M174.95,307.48c-.14,0-.27-.04-.45-.09-.39-.11-.71-.37-.9-.73-.08-.13-1-1.46-1.74-2.55-.08-.12-.16-.24-.24-.35-.62.18-1.33-.06-1.69-.65-.44-.7-.22-1.63.49-2.06,1.08-.67,1.48-.92,2.21-.65.32.12.59.34.77.64.04.06.46.67.95,1.39.45.66.79,1.16,1.05,1.54.1-.06.2-.12.3-.18,2.28-1.35,3.13-1.86,3.92-.56.43.71.21,1.63-.5,2.06-.07.04-.15.08-.23.11-.27.14-1.09.63-1.65.97-1.47.87-1.89,1.12-2.26,1.12Z"/>
      <path class="cls-1" d="M167,304.78c-.52,0-1.02-.27-1.3-.74-.42-.72-.18-1.63.54-2.05l3.3-1.92c.83-.48,1.66-.96,2.28-1.32,1.25-.72,2.24-1.29,3.03-.12.46.69.29,1.62-.4,2.08-.07.05-.15.09-.23.13-.52.28-4.21,2.43-6.47,3.75-.24.14-.5.21-.76.21Z"/>
      <path class="cls-1" d="M160.41,311.6c-.14,0-.25-.03-.4-.07-.25-.06-.47-.19-.66-.36-.27-.21-1.42-1-2.2-1.53-.54-.37-.95-.65-1.26-.87-.47.27-1.03.53-1.71.14-.12-.07-.23-.15-.33-.25-.21-.18-1.13-.91-1.8-1.44-.44-.35-.79-.62-1.06-.84-.13.08-.27.16-.41.24-1.45.85-1.79,1.06-2.56.62-.21-.12-.39-.29-.53-.5q-.15-.23-.97-3.01c-.06-.19-.11-.37-.16-.55-.2-.01-.41-.07-.63-.19-.25-.14-.45-.34-.58-.59q-.3-.55.47-4.04c.05-.23.11-.49.16-.74-.2-.12-.37-.29-.5-.5-.43-.71-.2-1.63.5-2.06,1.37-.83,2.12-1.29,2.98-.44.1.1.19.22.26.35q.29.55-.48,4.04c-.07.33-.15.69-.23,1.05.09.08.17.18.25.3.03.04.05.08.08.12q.1.19.76,2.41c.07.25.16.53.24.81,1.24-.72,1.36-.73,1.93-.56.23.07.45.2.62.37.21.18.96.77,1.71,1.37.48.38.86.68,1.15.91.62-.31,1.38-.53,1.98.13.3.22,1.16.81,1.81,1.25.76.52,1.3.89,1.69,1.17,1.07-.6,3.13-1.85,4.74-2.82q6.28-3.78,7.05-3.58c.39.1.73.35.93.7.42.71.19,1.63-.53,2.05-.13.08-.26.13-.4.16-.7.35-3.46,2.01-5.51,3.24-4.91,2.96-5.84,3.52-6.42,3.52ZM170.68,304.16c.05.09.11.17.18.24-.07-.07-.13-.15-.18-.24ZM170.68,304.16s0,0,0,0c0,0,0,0,0,0ZM170.68,304.16s0,0,0,0c0,0,0,0,0,0Z"/>
    </g>
    <path class="cls-2" d="M142.39,298.14c-.15,0-.28-.03-.41-.07-.39-.1-.76-.37-.96-.72-.95-1.65-1.06-1.84,21-16.57-25.68,15.61-27.21,16.22-28.42,15.91-.39-.1-.77-.38-.97-.73-.83-1.44.62-2.5,2.83-4.12,1.56-1.14,3.83-2.7,6.94-4.76,1.55-1.03,3.25-2.14,5.05-3.31-13.13,7.9-14.11,8.19-15.05,7.94-.39-.1-.76-.38-.97-.73-.83-1.43-.63-2.09,9.54-8.87,2.51-1.67,5.43-3.58,8.55-5.6-19.79,11.99-22.43,13.26-23.66,12.94-.39-.1-.78-.39-.98-.74-.84-1.45.65-2.52,2.72-4.01,1.5-1.08,3.68-2.55,6.68-4.5.35-.23.71-.46,1.08-.7-18.46,11.1-19.78,11.55-20.84,11.27-.39-.1-.77-.38-.97-.73-.96-1.66-1.24-2.15,23.57-17.93-29.32,17.86-33.15,19.8-34.67,19.41-.39-.1-.8-.4-1-.75-.52-.9-.83-1.45,2.99-4.21-12.31,7.28-16.3,9.15-17.64,8.79-.45-.11-.82-.39-1.05-.78-.81-1.41-1.13-1.97,14.35-11.59-13.39,7.91-17.66,9.93-19.01,9.58-.44-.11-.81-.39-1.03-.78-.54-.93-.89-1.54,3.43-4.65-7.67,4.38-10.41,5.5-11.46,5.24-.44-.11-.81-.39-1.03-.78-.63-1.09-1.01-1.76,6.47-6.75-9.95,5.77-13.47,7.3-14.7,7-.45-.12-.82-.39-1.05-.78-.49-.85-.84-1.45,2.43-3.93-3.2,1.59-4.93,2.14-5.73,1.95-.46-.12-.85-.4-1.08-.8-.59-1.01-.98-1.69,5.1-5.85-6.75,3.69-10,5.06-11.03,4.79-.45-.12-.82-.39-1.04-.78-.63-1.09-.49-2.22,5.26-6.28-1.25.46-2.07.61-2.53.49-.47-.12-.85-.41-1.09-.81-.64-1.1-.21-2.06,2.42-4.06-4.79,2.54-7.16,3.45-8,3.24-.44-.11-.81-.39-1.03-.77-.61-1.06-1.03-1.79,6.09-6.56-2.88,1.42-4.41,1.91-5.07,1.74-.44-.11-.81-.39-1.03-.77-.6-1.04-1.02-1.76,5.5-6.2-1.61.63-2.64.85-3.19.71-.48-.12-.88-.42-1.12-.83-.88-1.52.26-2.74,6.41-6.85.28-.19.56-.38.86-.57-4.44,2.29-6.78,3.12-7.71,2.89-.47-.12-.86-.41-1.09-.81-.73-1.28-.58-2.37,8.56-8.3-2.65,1.24-4.17,1.7-4.87,1.52-.46-.12-.85-.4-1.08-.8-.62-1.08-1-1.73,6.38-6.63-5.41,2.98-7.46,3.76-8.3,3.55-.39-.1-.81-.41-1.01-.76-.78-1.35-1.19-2.07,12.76-10.74-1.99.88-3.17,1.19-3.75,1.05-.45-.12-.83-.4-1.06-.79-.89-1.53.41-2.78,5.32-6.13-1.93.86-3.06,1.15-3.63,1-.46-.12-.83-.4-1.06-.79-.64-1.11-1.02-1.77,7.51-7.36-4.36,2.28-6.57,3.08-7.46,2.86-.46-.12-.84-.4-1.07-.79-.87-1.5.18-2.66,5.9-6.54.68-.46,1.42-.96,2.23-1.48-1.04.37-1.69.47-2.1.36-.45-.12-.82-.39-1.05-.78-.65-1.13-1.04-1.81,7.22-7.23-1.94.85-3.1,1.15-3.68,1.01-.46-.12-.84-.4-1.07-.79-.89-1.54.53-2.71,4.51-5.43,1.43-.98,3.23-2.16,5.43-3.55-10.47,6.06-13.92,7.62-15.03,7.33-.43-.11-.79-.38-1.01-.76-1.21-2.1-1.43-2.48,55.67-36.41,19.61-11.65,42.43-25.22,55.99-33.87-13.83,7.87-36.15,21.44-55.34,33.12-46.67,28.39-55.84,33.67-57.81,33.16-.39-.1-.8-.4-1-.75-.51-.88-.58-1.7,2.36-4.03-2.51,1.18-3.95,1.6-4.62,1.43-.46-.12-.85-.4-1.08-.8-.57-.99-.97-1.67,4.47-5.5-4.27,2.25-6.11,2.88-6.88,2.68-.44-.11-.8-.38-1.02-.77-.87-1.51.42-2.77,5.04-5.91-1.06.36-1.79.47-2.22.36-.48-.12-.87-.41-1.1-.82-.67-1.13-.72-1.23,5.94-7.31-.2.12-.41.25-.61.37-12.22,7.44-12.33,7.41-13.25,7.18-.39-.1-.75-.37-.95-.72-.72-1.25-.78-1.35,6.85-7.97-9.07,5.5-9.2,5.47-10.03,5.26-.39-.1-.74-.37-.94-.72-.68-1.21-.71-1.26,7.05-8.12-9.04,5.46-9.17,5.43-9.99,5.21-.39-.1-.74-.37-.94-.72-.74-1.26.16-2.03,3.13-4.58.62-.53,1.32-1.12,2.07-1.75-3.22,1.87-3.44,1.81-4.02,1.66-.39-.1-.74-.37-.94-.72-.5-.88-.52-.93,2.35-5.32-.23.14-.45.28-.67.41-6.42,3.96-6.49,3.94-7.3,3.74-.39-.1-.74-.37-.95-.72-.55-.97-.56-.99,3.33-5.92-4.47,2.71-4.49,2.7-5.2,2.52-.39-.1-.73-.36-.93-.71-.46-.82-.47-.84,1.94-5.49-.07-.01-.14-.03-.21-.05-.4-.1-.74-.37-.94-.73-.4-.73-.14-1.64.59-2.04.08-.04.16-.08.24-.11.25-.14.83-.5,1.24-.75,1.81-1.12,2.8-1.73,3.64-.48q.52.85-1.69,5.13c.11-.07.22-.13.32-.19,6.16-3.74,6.19-3.73,6.98-3.53.39.1.73.36.94.71.55.94.6,1.02-3.19,5.83,5.8-3.57,5.87-3.56,6.65-3.36.39.1.74.36.94.71.52.89.53.91-2.49,5.53,1.57-.94,3.3-1.98,4.79-2.89q8.05-4.87,8.86-4.67c.39.1.73.35.93.69.74,1.26-.1,1.98-2.9,4.38-.84.72-1.84,1.55-2.91,2.45,6.92-4.18,7.03-4.15,7.8-3.95.39.1.74.36.94.7.71,1.2.77,1.31-6.8,8.02,9.47-5.75,9.59-5.71,10.42-5.51.39.1.74.36.94.7.73,1.27.77,1.34-7.21,8.24,11.84-7.21,11.95-7.18,12.85-6.96.39.1.74.36.95.71q.7,1.24-7.63,8.83c-.8.73-1.67,1.52-2.54,2.32,11.99-6.26,39.2-22.97,61.96-36.95,45.51-27.94,55.14-33.48,57.3-32.94.44.11.81.39,1.03.77.52.91.55,1.75-3,4.44,4.14-2.16,6.01-2.8,6.78-2.6.44.11.81.39,1.03.77.67,1.17,1.06,1.83-8.59,8.01,1.77-.76,2.85-1.03,3.41-.88.46.12.84.4,1.07.8.49.85.57,1.63-2.02,3.75,3.5-1.75,5.4-2.39,6.16-2.19.45.12.83.4,1.05.79.75,1.3.45,2.56-9.74,9.24,3.33-1.69,4.9-2.19,5.6-2.01.44.11.81.39,1.03.77.61,1.06.56,2.05-4.51,5.7,6.78-3.79,9.45-4.85,10.45-4.6.45.11.82.39,1.04.78.63,1.08,1.03,1.78-6.21,6.64,3.09-1.55,4.53-1.99,5.21-1.82.44.11.81.39,1.03.77.72,1.24,1.12,1.93-9.94,8.92,1.39-.56,2.25-.74,2.73-.61.46.12.83.4,1.06.79.64,1.12,1.03,1.77-7.47,7.35,4.31-2.26,6.49-3.05,7.38-2.82.46.12.83.4,1.06.79.68,1.18,1.06,1.83-8.38,7.87,3.83-2.02,5.43-2.56,6.15-2.37.43.11.79.38,1.01.76.66,1.14.49,2.27-6.03,6.79,2.09-.92,3.35-1.26,3.94-1.11.46.12.84.4,1.07.8.59,1.03.97,1.68-5.53,6.08,3.46-1.77,5.04-2.26,5.79-2.08.45.11.82.39,1.04.78.46.8.53,1.59-1.61,3.48,16.88-9.93,24.25-13.58,26.18-13.09.49.12.89.42,1.13.83.67,1.15.19,2.15-2.68,4.32,8.98-5,13.37-6.91,14.77-6.55.48.12.88.42,1.12.83.65,1.13,1.09,1.88-6.98,7.23,1.18-.41,1.96-.54,2.41-.43.48.12.87.42,1.11.82.87,1.51.02,2.68-7.3,7.54-.54.36-1.12.74-1.72,1.13.67-.18,1.16-.23,1.47-.15.47.12.85.41,1.08.81.58,1.01.98,1.7-5.03,5.81,1.7-.71,2.75-.95,3.29-.81.46.12.85.4,1.08.8.79,1.37,1.23,2.13-13.29,11.09,1.34-.55,2.11-.7,2.54-.58.44.11.8.38,1.02.76.92,1.6.27,3.06-19.27,15.04.41-.08.73-.09.96-.03.47.12.85.4,1.09.81.64,1.11.15,2.03-2.02,3.7,3.21-1.59,4.98-2.16,5.75-1.97.46.12.84.4,1.08.8.69,1.2,1.09,1.89-8.69,8.24,3.27-1.65,4.83-2.12,5.57-1.93.45.11.83.39,1.05.78.58,1.01.93,1.6-4.62,5.39,6.39-3.59,8.79-4.53,9.73-4.3.44.11.8.38,1.02.76.87,1.51-.39,2.73-4.87,5.88-.83.58-1.78,1.23-2.84,1.94,4.73-2.57,6.67-3.26,7.55-3.03.45.11.82.39,1.04.78.65,1.13.99,1.72-7,6.97,2.29-1.12,3.23-1.33,3.79-1.19.39.1.81.41,1.01.76.96,1.67,1.16,2-23.37,17.54,20.03-12.04,23.01-13.44,24.26-13.12.39.1.78.39.99.74.85,1.48-.72,2.61-2.89,4.19-.81.58-1.8,1.28-3,2.08,7.11-4.13,8.6-4.65,9.46-4.42.39.1.78.39.99.74.83,1.44.65,2.03-9.22,8.61-1.65,1.1-3.49,2.31-5.45,3.58,11.48-6.83,13.55-7.67,14.58-7.41.39.1.79.39.99.74.84,1.45,1.05,1.8-14.57,11.92,11.5-6.86,12.6-7.15,13.51-6.92.39.1.77.39.97.74.88,1.53,1.04,1.8-16.75,13.72,8.17-4.84,9.02-5.01,9.85-4.8.39.1.77.39.97.74.76,1.31.85,1.47-9.7,9.11,5.45-3.24,5.73-3.18,6.42-3,.39.1.75.37.95.73q.69,1.22-7.54,8.88c.11,0,.22.03.34.06.4.1.75.36.95.71.42.72.17,1.63-.55,2.05-.15.09-.32.15-.49.18-.61.31-2.44,1.46-3.81,2.32-4.83,3.03-5.17,3.2-6,3-.39-.1-.75-.36-.96-.71-.69-1.21-.72-1.26,7.18-8.6-1.24.76-2.49,1.52-3.68,2.25-14.21,8.68-14.38,8.63-15.34,8.4-.39-.1-.75-.37-.96-.72-.82-1.4.05-2.11,5.46-6.15,1.66-1.24,3.62-2.67,5.69-4.18-.75.46-1.49.91-2.21,1.34-17.62,10.75-20.12,12.11-21.14,12.11ZM176.59,288.38c.07.12.16.23.25.32-.09-.09-.18-.2-.25-.32ZM176.59,288.37h0s0,0,0,0ZM119.11,245.3c-20.78,12.1-41.98,24.56-54.6,32.57,13.33-7.56,34.88-20.59,54.6-32.57ZM107.59,246.78c-15.28,8.95-29.96,17.64-39.99,23.88,10.3-5.87,24.98-14.72,39.99-23.88ZM115.63,225.27c-21.72,12.73-43.9,25.79-56.38,33.69,12.92-7.16,34.98-20.58,56.38-33.69ZM93.68,232.02c-12.17,7.16-23.92,14.13-32.5,19.44,8.59-4.94,20.13-11.89,32.5-19.44ZM156.66,236.78c-4.07,2.44-8.41,5.06-12.85,7.76,4.42-2.66,8.77-5.28,12.85-7.76ZM108.35,205.73c-13.11,7.76-26.47,15.71-36.51,21.91,10.23-5.96,23.57-14.03,36.51-21.91ZM202.13,182.2c-15.35,8.24-46.63,27.23-74.61,44.29,27.65-16.04,59.78-34.71,74.61-44.29ZM189.7,195.01c-10.92,6.19-26.38,15.45-42.4,25.15,16.07-9.38,31.66-18.55,42.4-25.15ZM192.25,176.04c-14.27,7.76-41.99,24.75-66.43,39.78,24.62-14.42,52.72-30.91,66.43-39.78ZM90.77,204.77c-5.58,3.32-10.88,6.51-15.62,9.4,4.81-2.86,10.12-6.06,15.62-9.4ZM203.96,175.5c-12.13,6.7-32.53,19.06-52.9,31.53,21.19-12.35,41.36-24.23,52.9-31.53ZM159.08,189.73c-7.41,4.37-16.54,9.89-26,15.66,9.61-5.69,18.73-11.15,26-15.66ZM152.82,187.44c-8.13,4.77-17.76,10.56-27.58,16.52,9.72-5.77,19.43-11.56,27.58-16.52ZM87.27,178.18c-6.2,3.7-12.08,7.23-17.26,10.4,5.26-3.12,11.15-6.68,17.26-10.4ZM157.14,150.9c-11.2,6.56-25.93,15.49-39.44,23.7,13.68-8.1,28.45-16.88,39.44-23.7ZM22.51,164.54c.31.07.59.23.81.47,0,0,0,0,0,0-.23-.26-.52-.41-.81-.47Z"/>
    <path class="cls-2" d="M64.38,174.69c-.12,0-.23-.01-.32-.04-.45-.11-.81-.39-1.04-.78-.82-1.43.44-2.63,3.82-4.99-3.3,1.69-4.81,2.15-5.53,1.97-.45-.11-.81-.39-1.04-.78-.89-1.55.64-2.84,4.62-5.64,1.76-1.23,4.04-2.76,6.92-4.61-6.86,3.92-9.2,4.87-10.13,4.63-.39-.1-.81-.41-1.01-.76-.81-1.4-1.2-2.08,14-11.74-5.44,3.01-7.54,3.8-8.41,3.58-.44-.11-.8-.38-1.02-.76-.57-1-.91-1.59,4.35-5.26-4.87,2.67-6.8,3.37-7.62,3.16-.44-.11-.8-.38-1.02-.76-.9-1.56.82-2.9,3.71-4.95.86-.61,1.88-1.31,3.08-2.11-3.43,1.81-4.87,2.27-5.58,2.09-.39-.1-.81-.41-1.01-.76-.68-1.17-.97-1.68,7.71-7.31-2.81,1.44-3.88,1.7-4.51,1.54-.44-.11-.8-.38-1.02-.76-.88-1.53.75-2.79,3.7-4.9,1.45-1.03,3.35-2.32,5.76-3.89-2.34,1.18-3.19,1.35-3.74,1.21-.39-.1-.79-.4-.99-.75-.77-1.36-1.04-1.83,12.55-10.44-5.74,3.28-6.99,3.68-7.72,3.49-.39-.1-.77-.38-.97-.73-.84-1.46.65-2.53,2.92-4.16,1.62-1.16,3.98-2.75,7.22-4.86.56-.37,1.14-.74,1.74-1.13-7.11,4.13-8.62,4.64-9.49,4.43-.39-.1-.79-.39-.99-.74-.75-1.31-.88-1.54,8.08-8.33-1.29.66-1.52.6-1.93.5-.39-.1-.74-.36-.94-.71-.42-.72-.17-1.63.54-2.05.17-.1.35-.16.53-.19,1.18-.53,6.61-3.8,10.62-6.22q9.18-5.53,10.01-5.31c.39.1.73.37.93.72.79,1.36-.23,2.16-4.04,5.13-2.27,1.77-5.25,4.01-8.42,6.39,5.63-3.37,12.14-7.34,18.01-10.93,28.14-17.18,31.31-18.84,32.71-18.48.39.1.78.39.98.74.86,1.49-.72,2.63-3.11,4.36-1.59,1.15-3.83,2.67-6.86,4.65,11.83-6.99,14.04-7.88,15.08-7.62.39.1.79.4.99.75.7,1.22,1.03,1.78-8.6,8.07,3.38-1.81,4.44-2.07,5.09-1.91.39.1.79.4,1,.75.88,1.52-.78,2.68-3.28,4.45-1.67,1.17-4.03,2.74-7.2,4.76,3.53-1.9,4.91-2.35,5.64-2.16.39.1.81.41,1.01.76.86,1.49-.6,2.61-3.71,4.8-.31.22-.64.45-.99.69,7.93-4.6,9.73-5.23,10.67-4.99.39.1.8.4,1,.75.89,1.54-.79,2.85-3.62,4.85-1.19.85-2.7,1.87-4.57,3.08,6.37-3.65,7.86-4.13,8.67-3.92.39.1.79.39.99.74.69,1.2,1.01,1.75-8.03,7.59,13.51-8.03,15.96-9.06,17.05-8.78.39.1.79.4.99.75.8,1.4,1.16,2.01-14.15,11.66,10.11-5.88,13.58-7.42,14.77-7.11.45.11.81.39,1.04.77.78,1.35,1.13,1.94-12.51,10.53,14.53-8.62,19.12-10.8,20.58-10.43.45.11.83.39,1.05.78.61,1.05.98,1.69-5.25,5.91,3.51-1.83,5.05-2.33,5.75-2.16.44.11.8.38,1.02.76.42.72.17,1.63-.54,2.05-.33.19-.7.24-1.05.17-3.67,1.05-28.16,16.01-49.82,29.25-41.57,25.41-52.38,31.64-55.14,31.64ZM168.33,113.09h0ZM81.13,107.14s0,0,0,0c0,0,0,0,0,0ZM81.13,107.14s0,0,0,0c0,0,0,0,0,0ZM81.13,107.14s0,0,0,0c0,0,0,0,0,0ZM81.13,107.13h0,0ZM81.13,107.13h0,0Z"/>
    <path class="cls-3" d="M110.93,94.66c-.14,0-.26-.03-.4-.07-.39-.1-.73-.35-.93-.7-.61-1.07-.65-1.13,4.21-6.48-.11.02-.26-.02-.41-.06-.4-.1-.75-.36-.95-.72q-.27-.45.05-3.68c.05-.54.12-1.19.17-1.7-.01-.02-.02-.04-.03-.05-.39-.73-.12-1.64.6-2.03h0c.33-.27.69-.39,1.1-.35.47.04.92.31,1.17.71q.3.49-.02,3.66c.29-.18.58-.37.84-.53,3.36-2.12,3.8-2.39,4.61-2.18.4.1.75.37.95.73.58,1.01.62,1.07-3.91,6.06,6.26-3.77,6.29-3.77,7.06-3.57.39.1.73.36.93.71.41.72.17,1.64-.55,2.05-.13.07-.26.13-.4.16-.78.38-3.98,2.31-6.34,3.74-6.04,3.64-7.11,4.29-7.75,4.29ZM123.38,85.93c.07.12.15.23.24.31-.09-.09-.17-.2-.24-.31ZM123.38,85.92s0,0,0,0c0,0,0,0,0,0ZM123.38,85.92s0,0,0,0c0,0,0,0,0,0Z"/>
    <path class="cls-1" d="M182.17,283.18c-.12,0-.24-.01-.37-.05-.39-.09-.73-.34-.94-.68q-.51-.84,2.22-6.21c.21-.42.45-.89.69-1.35-.06-.06-.11-.14-.17-.22-.03-.04-.05-.08-.07-.12q-.48-.89,2.42-5.44c.46-.71,1.03-1.62,1.51-2.38-.28-.56-.14-.91,1.4-4.59-2.43,1.41-2.48,1.38-3.18.97-.22-.13-.41-.31-.54-.54q-.45-.76,1.59-5.66c.21-.52.46-1.12.69-1.66-.28-.39-.28-.55-.28-3.62,0-.38,0-.83,0-1.27-.03-.01-.05-.03-.08-.04-.23-.13-.43-.33-.56-.56q-.22-.38-.39-3.61c-.02-.36-.04-.78-.06-1.17-.06-.02-.11-.05-.17-.08-.25-.14-.45-.34-.58-.59q-.15-.28-.62-3.15c-.11-.69-.26-1.55-.35-2.1-.03-.04-.06-.09-.08-.14-.17-.32-.18-.36-.43-3.16-.03-.35-.07-.74-.1-1.11-.08-.03-.15-.07-.23-.11-.25-.14-.45-.35-.59-.6q-.19-.35-.42-3.72c-.02-.33-.05-.7-.07-1.06-.06-.03-.12-.05-.18-.09-.1-.06-.19-.12-.28-.2-.22-.17-1.01-.75-1.82-1.34-1.19-.87-1.78-1.3-2.1-1.56-.1-.07-.2-.16-.28-.25-.06-.06-.09-.11-.12-.16-.02-.03-.04-.06-.05-.09-.4-.63-.35-.78,1.13-5.14.03-.1.07-.2.1-.31-.24,0-.46-.06-.73-.22-.23-.13-.41-.31-.55-.54q-.76-1.29,7.87-9.63c.88-.86,1.85-1.79,2.73-2.65-.68-1.18-.3-1.51,9.5-10.16,1.06-.93,2.19-1.93,3.28-2.89-.04-.05-.08-.11-.11-.16-.7-1.17-.73-1.21,5.59-7.53,0,0-.02,0-.02,0-.37-.11-.68-.35-.87-.68q-.66-1.13,5.39-7.74c1.14-1.25,2.53-2.76,3.58-3.94-.2-.52.06-1.1,1.57-4.63.19-.43.4-.93.62-1.43-2.19.7-5.85,2-8.98,3.1-8.3,2.93-11.47,4.05-12.87,4.14-.7.37-2.3,1.4-3.41,2.12-3.68,2.37-4.18,2.66-5.02,2.45-.09-.02-.18-.05-.26-.09-.53-.12-2.34-.38-3.69-.58-2-.29-3.21-.47-3.96-.63-.34.2-.81.48-1.27.75-2.2,1.29-2.34,1.37-3.1.93-.22-.12-.4-.3-.53-.51q-.61-.98,3.14-6.17c.32-.45.67-.94,1.02-1.42-.1-.1-.19-.21-.26-.34q-.28-.5.19-3.52c.05-.34.11-.73.17-1.11-.15-.1-.29-.25-.43-.44q-.38-.62.35-4.26c.09-.43.19-.95.29-1.44-.14-.11-.27-.25-.36-.41q-.27-.45-.08-3.35c0-.09.01-.18.02-.28-1.63.95-1.82,1-2.53.59-.23-.13-.43-.33-.56-.56q-.53-.94,3.36-6.46c.25-.36.52-.74.79-1.13-.23-.13-.41-.32-.54-.55-.06-.09-.75-1.06-1.43-2.02-.28-.39-.5-.71-.68-.96-.34.1-.71.11-1.14-.13-.22-.12-.4-.3-.54-.51q-.43-.69,1.15-5.2c.17-.47.36-1.01.53-1.52-.05-.06-.09-.13-.13-.2q-.19-.36-.32-3.34c-.02-.38-.04-.82-.06-1.25-.05-.02-.09-.04-.14-.07-.24-.13-.43-.33-.57-.56q-.18-.31-.67-3.54c-.05-.34-.11-.72-.17-1.09-.1-.03-.2-.07-.3-.13-.24-.14-.44-.34-.58-.58q-.13-.24-.68-2.64c-.07-.32-.16-.68-.23-1.02-.13-.03-.27-.08-.42-.16-.23-.13-.42-.31-.55-.53q-.12-.19-.94-2.67c-.1-.31-.2-.62-.3-.9-.18-.02-.37-.08-.57-.19-.23-.13-.42-.32-.56-.55q-.29-.49,0-4.19c0-.09.01-.18.02-.27-.34.2-.69.4-1.01.59q-3.58,2.08-4.34,1.64c-.23-.13-.42-.32-.55-.55q-.25-.44-.13-3.73c.02-.41.03-.91.05-1.38-.06-.03-.12-.07-.17-.11-.29-.18-1.46-.81-2.33-1.27-1.11-.6-1.86-1-2.37-1.28-.15.09-.3.18-.46.27-1.39.81-1.76,1.03-2.52.6-.25-.14-.45-.35-.58-.6q-.33-.63.91-4.7s.03-.1.04-.15c-3.72,2.17-3.74,2.16-4.49,1.73-.26-.15-.46-.37-.6-.63q-.09-.19-.81-2.82c-.08-.29-.16-.59-.24-.87-.33.19-.65.38-.92.53-2.1,1.23-2.23,1.3-2.99.86-.24-.14-.44-.34-.57-.59-.35-.65-.37-.68.95-4.01-2.71,1.57-2.76,1.55-3.47,1.14-.23-.13-.42-.32-.55-.54q-.21-.36-.42-3.54c-.02-.25-.04-.52-.05-.8-.22.13-.44.26-.67.39l-2.65,1.54c-1.56.91-2.51,1.46-3.29.24q-.69-1.16,4.55-7.12c.66-.75,1.42-1.62,2.1-2.4-.1-.27-.26-.83-.73-2.47-.07-.23-.13-.46-.2-.68-.16-.02-.33-.08-.51-.18-.24-.13-.44-.33-.57-.57-.34-.6-.35-.62.6-3.97-2.2,1.28-5.31,3.15-7.83,4.67-10.7,6.43-10.72,6.43-11.59,6.21-.23-.06-.44-.17-.61-.32-.24-.18-1.28-.85-2.05-1.35-.93-.6-1.56-1.01-1.98-1.3-.16.02-.33,0-.51-.04-.39-.1-.73-.36-.93-.72-.38-.68-.4-.72,1.08-4.23-.32.19-.64.37-.91.53-.72.42-1.63.18-2.05-.54-.42-.72-.18-1.63.54-2.05q5.23-3.05,5.88-2.85c.36.11.66.35.85.66q.44.73-1.28,4.8c-.27.64-.59,1.4-.85,2.03.52.35,1.26.82,1.81,1.19.7.45,1.2.78,1.57,1.02,1.63-.88,5.94-3.47,9.5-5.61,11.16-6.71,11.2-6.71,12.08-6.49.39.1.73.35.93.7q.35.65-.63,4.12c-.12.41-.25.9-.38,1.36.07.08.13.16.18.26q.11.2.78,2.52c.05.18.1.35.15.53.74-.35,1.51-.48,2.09.41.63,1.08.67,1.15-3.36,5.75.28-.08.43-.03.67.04.37.11.68.36.87.69q.21.37.44,3.83c.01.16.02.33.03.5.18-.1.36-.21.54-.31q3.6-2.1,4.29-1.83c.31.12.58.34.75.63.4.66.43.71-.89,4.05.87-.47,1.73-.77,2.41.21.03.04.06.09.08.14q.11.21.89,3.04c.06.23.13.46.19.68.53-.31,1.1-.64,1.61-.94q3.46-2.01,4.1-1.82c.36.11.67.35.86.68q.38.65-.93,4.94c-.03.1-.06.2-.09.3.1.01.21.04.33.08.19.06.36.15.51.27.35.22,1.83,1.01,2.82,1.55.82.44,1.4.75,1.82.98.37-.19.71-.29,1.17-.16.37.1.69.34.89.68q.28.46.14,4.02c0,.08,0,.16,0,.24.17-.1.35-.2.53-.31q3.98-2.31,4.62-2.12c.37.11.68.36.87.7q.27.48,0,3.93c-.04.45-.08.99-.12,1.5.18.12.34.28.46.48q.12.19.94,2.67c.1.31.21.62.3.9.08.01.17.03.26.05.37.11.68.35.87.68q.15.26.79,3.02c.05.23.1.45.15.66.25.05.5.17.75.42.09.09.17.19.23.3q.18.31.63,3.28c.06.42.14.89.21,1.34.21.06.42.17.63.37.09.09.17.19.24.3q.25.4.39,3.74c.01.28.03.6.04.9.31.13.57.35.73.64q.38.66-1.01,4.63c-.21.59-.46,1.31-.68,1.95.05.06.1.13.14.2.06.09.71,1,1.36,1.93.29.41.53.74.72,1.01h0q2.48-1.45,3.17-1.2c.33.12.61.35.78.65q.56.95-3.48,6.69c-.14.2-.29.4-.43.62.13.08.27.21.42.36.08.08.15.17.2.26q.3.48.06,3.95c-.01.17-.02.35-.04.54.24.13.44.32.58.55q.34.58-.45,4.5c-.07.34-.14.71-.22,1.08.06.05.11.1.17.16.09.09.17.19.23.3.29.51.3.53-.18,3.69.41-.16.61-.11.98.03.33.13.61.37.78.68q.54.98-3.32,6.33c-.07.09-.14.19-.21.29.61.13,2.52.41,3.95.62,1.95.29,3.09.46,3.8.61.67-.37,2.11-1.29,3.11-1.94,3.73-2.4,4.4-2.79,5.2-2.64,1.41-.3,7.33-2.38,11.7-3.93,6.75-2.38,9.8-3.46,11.3-3.72.46-.28,1.69-.99,2.49.18.02.03.04.07.06.1q.43.76-1.73,5.79c-.14.32-.29.67-.44,1.02.1.09.19.2.28.33.02.03.04.06.06.09.65,1.12.66,1.14-5.13,7.47.54-.1,1.02.05,1.41.69q.69,1.2-5.71,7.58c-.39.39-.81.81-1.24,1.23.17.12.32.28.43.47q.76,1.3-8.84,9.77c-1.86,1.64-4.08,3.6-5.84,5.19.49.96.01,1.42-6.3,7.53-1.45,1.41-3.3,3.19-4.78,4.67.3.55.19.87-1.15,4.84-.31.93-.71,2.08-.96,2.85.4.29.89.65,1.3.95.5.37.89.65,1.18.86.51-.23,1.14-.33,1.74.27.1.1.19.21.25.34q.19.34.4,3.43c.03.42.06.9.09,1.35.16.07.33.17.49.32.11.1.2.22.27.35q.2.35.48,3.45c.06.63.13,1.41.18,1.92,0,.02.02.04.03.05q.13.22.63,3.2c.05.32.11.67.17,1.01h.03c.37.12.69.37.88.7q.22.38.39,3.61c.02.37.04.78.06,1.17.3.12.55.34.72.62q.26.43.26,3.85c0,.3,0,.63,0,.96.28.13.51.34.66.6q.42.72-1.3,4.87c-.04.1-.09.21-.13.32,2.73-1.57,2.83-1.48,3.55-.76.08.08.15.17.21.26q.46.74-1.41,5.22c-.22.52-.47,1.12-.7,1.68.03.04.05.08.08.12q.53.91-2.61,5.83c-.28.44-.59.93-.9,1.41.01.02.02.03.03.05q.49.8-1.86,5.41c-.39.76-.87,1.71-1.28,2.54.01.02.02.03.03.05.46.69.27,1.62-.42,2.08-.07.05-.14.09-.22.12-.07.04-.17.1-.27.17-.62.39-.99.62-1.44.62ZM187.97,177.4h0s0,0,0,0ZM179.52,175.98h0,0ZM193.42,174.27s.01.02.02.03c0,0-.01-.02-.02-.03ZM217.12,166.58v.02h.01v-.02ZM217.12,166.58s0,0,0,0c0,0,0,0,0,0ZM122.05,87.6s.02.03.02.04c0-.01-.02-.03-.02-.04ZM121.64,87.17c.07.06.13.1.18.15-.06-.05-.12-.1-.18-.15Z"/>
    <path class="cls-1" d="M153.36,299.69c-.22,0-.43-.05-.6-.13-.35-.11-1.76-.44-2.81-.68-1.48-.34-2.43-.57-3.06-.74-.34.15-.82.27-1.37-.03-.23-.12-.42-.31-.56-.53q-.18-.29-.84-3.33c-.01-.05-.02-.11-.03-.16-.24.14-.5.29-.76.44l-2.14,1.25c-1.19.69-2.21,1.28-3.01.11-.09-.14-.49-.76-.97-1.52-.5-.78-.87-1.36-1.14-1.79-.52.3-1.14.67-1.7.99l-2.03,1.18c-1.1.63-2.13,1.24-2.92.07q-.15-.25-1.12-3c-.09-.25-.18-.5-.26-.73-.77.43-1.46.68-2.04.27-.6-.17-2.12-.54-3.27-.82-1.43-.35-2.36-.58-2.98-.75-.54.34-.96.57-1.59.4-.06-.02-.12-.04-.18-.06-.53-.12-2.47-.38-3.78-.56-1.36-.19-2.26-.31-2.87-.42-.72.41-2.21,1.28-3.46,2.02q-4.91,2.88-5.58,2.68c-.08-.02-.15-.05-.22-.09-.4-.12-1.83-.47-2.89-.73-1.24-.3-2.07-.5-2.64-.66-.06.04-.12.07-.18.11-1.15.7-1.46.89-2.1.73-.21-.05-.41-.15-.58-.28-.26-.17-1.26-.74-2-1.16-.75-.43-1.3-.74-1.69-.98-.74.43-1.92,1.12-2.87,1.67l-2.17,1.26c-1.03.6-2.01,1.16-2.77.34-.39-.25-1.54-.95-2.32-1.42-.68-.41-1.18-.71-1.55-.94-.5.29-.88.43-1.42.28-.12-.03-.23-.08-.34-.14-.4-.15-1.87-.62-2.86-.93-1.14-.36-1.9-.6-2.43-.78-.37.22-.88.51-1.42.83l-1.96,1.15c-1.08.63-2.11,1.22-2.89.16-.2-.22-.87-.9-1.57-1.62-.5-.51-.88-.9-1.17-1.2-.37.18-.69.25-1.13.12-.27-.08-.5-.23-.68-.43-.21-.21-1.23-1.11-1.98-1.77-.62-.55-1.07-.95-1.41-1.25-.39.16-.81.21-1.31-.07-.23-.13-.42-.32-.56-.55-.03-.06-.57-1.03-1.13-2.05-.21-.38-.42-.76-.6-1.1-.26.03-.54-.02-.85-.19-.11-.06-.21-.13-.29-.22-.26-.2-1.37-1-2.2-1.6-.61-.44-1.07-.77-1.41-1.01-.04.02-.08.05-.12.07-.96.57-1.44.85-2.21.42-.23-.13-.43-.33-.56-.56q-.41-.72,1.25-4.57c.25-.59.57-1.32.84-1.97-.26-.29-.84-.93-1.41-1.57-.32-.35-.57-.63-.78-.86-.93.54-1.36.71-2.04.32-.23-.13-.42-.33-.56-.56q-.45-.79,1.71-5.33c.27-.57.58-1.23.86-1.81-.29-.5-.29-.55.14-4.25.04-.35.08-.74.13-1.11-.2-.12-.37-.28-.49-.48q-.21-.32-.88-3.77c-.05-.26-.1-.52-.15-.76-.06-.03-.13-.05-.19-.09-.25-.14-.45-.34-.59-.59q-.48-.87,2.53-5.74c.39-.63.84-1.37,1.25-2.02-.42-.76-.28-1.01,1.85-5.14.24-.46.51-.98.76-1.48-.01-.02-.02-.03-.03-.05q-.5-.86,1.68-5.61c.2-.44.43-.93.64-1.4-.02-.02-.03-.05-.05-.07q-.49-.78,1.12-4.77c.19-.47.41-1.03.63-1.56-.04-.05-.08-.11-.12-.17q-.51-.88,1.85-5.36s.04-.08.06-.12l-.51.3c-1.2.7-2.25,1.31-3.03.11-.02-.03-.04-.06-.06-.1q-.57-1.03,4.35-6.9c.06-.08.13-.15.2-.23-.27-.08-.52-.28-.75-.63-.03-.04-.05-.08-.07-.12q-.2-.37-.31-3.62c0-.16-.01-.33-.02-.5-.8.43-1.14.47-1.72.14-.23-.13-.42-.32-.55-.54-.35-.59-.36-.61.55-3.82-.32.18-.63.37-.93.54q-4.06,2.36-4.82,1.92c-.23-.13-.41-.32-.55-.54-.06-.08-.7-.93-1.35-1.79-.38-.5-.66-.88-.87-1.16-.14-.03-.28-.08-.42-.16-.24-.13-.45-.33-.59-.57q-.23-.39-.32-3.76c0-.07,0-.14,0-.21-.19.11-.38.22-.57.33q-2.93,1.7-3.69,1.27c-.23-.13-.42-.33-.56-.56q-.29-.51.19-4.1c.07-.49.14-1.04.21-1.56-.18-.13-.32-.3-.43-.5q-.22-.41-.13-3.56c0-.23.01-.49.02-.75-.28.16-.56.33-.82.48q-3.2,1.86-3.96,1.42c-.23-.13-.42-.33-.56-.56q-.15-.27-.79-3.15c-.06-.27-.13-.58-.19-.87-.14-.03-.28-.08-.42-.17-.22-.12-.4-.3-.53-.51-.03-.05-.6-.98-1.2-1.96-.23-.38-.47-.77-.68-1.11-.28.05-.59.01-.93-.18-.25-.14-.45-.34-.58-.59-.08-.15-1.19-2.08-1.94-3.38-.17.02-.35,0-.56-.05-.37-.11-.69-.35-.88-.68-.06-.1-.07-.13-1.32-2.81-.11-.23-.21-.45-.31-.67-.13,0-.26-.02-.4-.06-.37-.11-.68-.35-.88-.68q-.37-.63.75-4.78c.02-.07.04-.15.06-.23-1.13.6-1.83.69-2.44-.27-.44-.7-.23-1.63.47-2.07.1-.06.2-.11.3-.15.26-.14.94-.55,1.4-.84,2.09-1.28,2.26-1.38,2.95-1.2.4.1.73.37.93.73q.34.62-.78,4.81c-.15.57-.33,1.23-.49,1.82.08.08.14.18.19.28.03.06.48,1,.96,2.04.22.46.44.95.64,1.37.14.01.28.02.43.06.37.1.68.35.88.67.01.02,1.19,2.06,1.98,3.44.38-.06.81.02,1.21.42.08.08.15.16.2.25.04.06.74,1.2,1.4,2.28.17.27.33.54.48.79.19-.03.39-.02.61.04.38.1.7.35.9.69q.15.26.73,2.91c.05.23.11.49.16.74.23-.13.46-.27.7-.41q3.65-2.12,4.28-1.93c.37.11.69.36.88.7q.25.45.15,4.18c0,.31-.02.66-.03,1,.23.13.42.31.56.54q.32.53-.2,4.4c0,.05-.01.1-.02.16,2.88-1.67,2.91-1.66,3.52-1.48.35.11.65.34.84.66q.23.39.31,3.45c.02.59.03,1.29.05,1.86.07.08.14.17.2.26.06.08.7.93,1.35,1.79.26.35.47.63.65.87.59-.34,1.36-.79,2.15-1.25q4.6-2.67,5.23-2.49c.38.11.69.36.89.7.34.6.35.62-.61,4.02.16,0,.29.04.48.09.34.1.63.33.82.63q.26.4.37,3.73c0,.16.01.33.02.5.25-.15.5-.29.73-.43q2.5-1.46,3.14-1.27c.37.11.68.36.87.69.58,1,.6,1.04-3.98,6.5.36,0,.7.1,1.04.46.09.09.16.18.22.29q.5.85-2.25,6.07c-.29.55-.62,1.19-.93,1.77.44.76.4.85-1.29,5.05-.15.36-.31.76-.46,1.15.05.06.09.12.14.19q.49.82-1.44,5.03c-.26.56-.57,1.24-.85,1.87.06.06.11.13.15.21q.49.82-1.77,5.18c-.26.49-.55,1.06-.82,1.59.02.04.05.07.07.11q.5.87-2.47,5.67c-.54.87-1.19,1.93-1.68,2.74.07.3.19.89.46,2.29.09.46.2,1.01.3,1.52.07.01.14.03.21.05.38.11.7.36.89.7q.28.5-.12,4c-.05.43-.11.94-.16,1.42.2.13.37.3.49.51q.45.78-1.59,5.07c-.17.36-.37.78-.57,1.2.03.03.06.06.1.09.06.06.11.12.16.18.16.2.83.93,1.5,1.67.34.38.62.68.84.93.46-.15,1-.14,1.5.37.08.09.16.18.22.29q.44.75-1.46,5.15c-.06.13-.11.26-.17.4.06.05.13.1.19.16.25.19,1.27.92,2.02,1.47.7.5,1.22.87,1.59,1.15.32-.15.65-.21,1.07-.09.36.11.66.34.86.66.03.05.68,1.24,1.31,2.37.15.27.3.54.43.79.38-.06.8.02,1.21.42.02.02.04.04.05.06.22.21,1.28,1.16,2.07,1.85.56.5.98.87,1.3,1.16.39-.2.72-.29,1.18-.16.31.09.59.27.78.52.2.22,1.15,1.2,1.85,1.92.36.37.65.67.88.91.57-.33,1.3-.76,1.87-1.09q2.6-1.53,3.24-1.33c.11.03.21.08.31.13.37.14,1.72.57,2.72.88,1.22.38,2.03.64,2.58.83.45-.27,1.45-.79,2.19-.05.34.22,1.31.8,2.04,1.24.85.51,1.45.87,1.89,1.14.62-.36,1.53-.89,2.32-1.35q4.2-2.45,4.85-2.25c.19.06.36.15.51.27.28.18,1.43.84,2.2,1.28.63.36,1.11.63,1.47.85.05-.03.1-.06.15-.09.99-.6,1.32-.81,1.98-.62.08.02.16.05.24.09.4.12,1.82.47,2.88.72,1.27.31,2.11.51,2.68.67.82-.47,2.49-1.45,3.79-2.21,1.01-.59,2-1.18,2.75-1.61,1.12-.65,2.01-1.16,2.71-.78.57.1,1.83.27,2.8.4,1.85.25,3,.41,3.73.55.57-.36.99-.6,1.63-.42.09.02.17.06.25.09.43.13,2.04.53,3.23.82,1.56.38,2.55.62,3.21.81.15-.09.32-.19.48-.29,1.25-.74,1.54-.92,2.23-.66.34.12.62.37.79.68.08.15.09.16.97,2.66.12.33.23.66.34.97.45-.26.94-.55,1.39-.81l2.03-1.18c1.09-.64,2.13-1.24,2.92-.07.03.04.05.08.08.12.08.13,1.07,1.68,1.85,2.9.06.1.12.19.18.29.59-.34,1.3-.75,1.89-1.1l1.75-1.02c1.01-.59,1.75-1.01,2.57-.23.11.11.21.23.29.37q.13.24.63,2.56c.1.46.23,1.04.34,1.55.01,0,.02.01.04.02.5.15,2.1.52,3.19.77,1.19.28,1.99.46,2.55.61,1.22-.63,1.87.05,2.1.39.46.69.29,1.62-.4,2.08-.08.05-.15.09-.23.13-.04.03-.08.05-.13.08l-.26.17c-.32.19-.62.27-.89.27ZM147.92,295.62s.06.08.09.13c-.03-.05-.06-.09-.09-.13ZM147.92,295.62h0ZM76.03,291.33h0s.04.07.06.1c-.02-.03-.04-.06-.06-.1ZM125.56,290.87c.04.08.1.15.15.21-.05-.06-.1-.13-.15-.21ZM120.75,287.24s.07.1.1.15h0c-.03-.05-.07-.1-.1-.15Z"/>
    <path class="cls-1" d="M59.5,181.42c-.4,0-.76-.2-1.08-.69q-.21-.36-.79-3.42c-.03-.14-.05-.29-.08-.44-.44.26-.9.52-1.27.74-2.46,1.44-2.47,1.44-3.22,1.01-.33-.13-1.53-.56-2.42-.87-1.07-.38-1.81-.64-2.32-.83-.65.38-1.72.86-2.44-.23q-.19-.31-.91-3.3c-.06-.25-.12-.52-.19-.78-.2,0-.41-.07-.64-.19-.07-.04-.14-.08-.2-.14-.28-.18-1.36-.78-2.16-1.23-1.04-.58-1.72-.97-2.19-1.24-.12,0-.24,0-.37-.02-.21-.04-.41-.13-.59-.25-.33-.17-1.57-.74-2.49-1.15-.98-.44-1.66-.75-2.15-.98-.57.32-1.53.69-2.21-.18-.23-.24-1.16-1.11-1.85-1.77-.49-.46-.86-.82-1.15-1.09-1.2.69-3.33,1.93-4.78,2.78-.71.42-1.63.18-2.05-.54-.42-.71-.18-1.63.54-2.05l2.89-1.68c.72-.42,1.45-.84,1.99-1.15,1-.58,2.04-1.17,2.82-.16.24.24,1.14,1.09,1.8,1.72.51.48.89.84,1.19,1.12.47-.23,1.07-.37,1.65.07.37.19,1.61.75,2.54,1.17,1.04.47,1.73.78,2.2,1.01.17-.02.35-.02.56.03.22.06.43.16.6.3.33.21,1.64.95,2.52,1.44.72.4,1.25.7,1.65.93.64-.33,1.54-.58,2.17.38q.19.32.82,2.95c.08.33.17.69.25,1.04.15,0,.3.01.47.06.12.03.24.08.34.15.36.15,1.75.64,2.68.97.92.33,1.57.55,2.04.73.3-.17.68-.39,1.09-.63l2.06-1.2c1.21-.7,2.25-1.3,3.04-.11.02.04.05.07.07.11q.14.26.64,2.94c.05.25.1.52.15.79,1.33-.78,1.45-.8,2.03-.62l-.89,2.86.47-1.43.62,1.36c-.18.09-.75.43-1.29.76-.88.52-1.58.94-2.17.94Z"/>
    <path class="cls-1" d="M60.05,176.24c-.22,0-.4-.1-.67-.25-.23-.13-.42-.33-.56-.56q-.3-.53.22-3.87c.07-.47.16-1.03.23-1.51-.03-.04-.06-.09-.09-.13-.53-.9-.57-.97,2.72-5.43-1.04.54-1.2.44-1.71.15-.21-.12-.39-.3-.52-.51q-.46-.74,1.24-4.82c.2-.47.42-1.01.63-1.51-.01-.02-.02-.03-.03-.05-.03-.04-.06-.09-.08-.14-.39-.73-.41-.77,1.57-4.7-.79.44-1.76.85-2.47-.2-.53-.9-.55-.93,1.93-5.4-.76.27-1.14.08-1.59-.6-.57-.99-.58-1,2.8-5.89-.72.29-1.35.3-1.87-.49-.02-.03-.04-.06-.06-.09q-.64-1.12,4.92-7.21c.11-.12.22-.25.34-.37-.11-.11-.21-.24-.32-.4q-.32-.55-.07-3.89c.01-.18.03-.38.04-.57-.04,0-.07-.02-.11-.03-.38-.11-.7-.36-.9-.71q-.55-.97,3.39-6.18c.29-.38.61-.81.94-1.25-.14-.11-.27-.26-.4-.45-.02-.03-.04-.06-.05-.09-.8-1.39.29-2.26,4.36-5.53,2.49-2,5.82-4.57,9.05-7.07.11-.08.21-.16.32-.25-.23-.14-.43-.33-.56-.56-.41-.72-.15-1.64.57-2.04.17-.1.36-.16.54-.18.74-.36,3.06-1.82,4.79-2.9,5.73-3.6,6.01-3.7,6.85-3.49.4.1.76.37.96.73.76,1.31-.1,2-3.74,4.9-2.12,1.69-4.93,3.87-7.91,6.17-2.98,2.3-6.62,5.11-9.24,7.22.32.75-.19,1.42-4.1,6.6-.55.73-1.19,1.57-1.74,2.32.16.37.12.91-.08,3.58,0,.05,0,.1-.01.15,2.49-1.46,3.05-1.72,3.81-.57.02.03.04.06.05.09q.62,1.09-4.54,6.75c.32.12.59.35.76.65q.54.94-3.23,6.43c.07.02.15.05.23.08.32.12.6.36.77.66.47.81.48.84-1.92,5.16.73-.37,1.58-.59,2.2.35q.5.84-1.73,5.28c-.32.63-.69,1.37-1.01,2.03.39.67.4.75-1.05,4.22,3.42-1.98,3.5-1.91,4.25-1.16.09.09.18.2.24.32q.54.95-3.24,6.07c-.91,1.24-2.06,2.79-2.75,3.77,0,.44-.12,1.22-.4,2.98,2.38-1.38,2.45-1.36,3.07-1.12l-1.11,2.79.57-1.39.65,1.35c-.21.11-1.66.96-2.62,1.51-1.57.92-2.14,1.25-2.55,1.25ZM85.31,104.2s0,0,0,0c0,0,0,0,0,0ZM85.31,104.2s0,0,0,0c0,0,0,0,0,0ZM85.31,104.19s0,0,0,0c0,0,0,0,0,0ZM85.15,103.97c.06.07.11.14.16.23-.05-.08-.1-.16-.16-.23Z"/>
    <path class="cls-1" d="M94.88,101.18c-.13,0-.24-.03-.38-.07-.39-.11-.73-.37-.92-.73-.4-.73-.13-1.64.6-2.04.08-.04.15-.07.23-.1.55-.28,2.93-1.69,4.69-2.74,1.03-.61,2.04-1.21,2.78-1.64,1.44-.84,2.48-1.45,3.27-.19.44.7.22,1.63-.48,2.07-.08.05-.17.09-.25.13-.44.23-2.29,1.33-3.79,2.22-4.36,2.58-5.22,3.09-5.75,3.09Z"/>
    <path class="cls-1" d="M110.25,94.45c-.22,0-.43-.08-.69-.23-.24-.14-.44-.34-.58-.59q-.21-.39-.25-3.43c0-.26,0-.55-.01-.83-.34-.12-.62-.37-.79-.68q-.49-.88,2.61-5.69c.52-.81,1.14-1.78,1.62-2.54-.13-.62.14-1.27.71-1.6.07-.04.14-.08.22-.1.3-.24.78-.61,1.48-.47.44.08.82.37,1.04.75q.5.85-2.55,5.59c-.47.73-1.02,1.58-1.48,2.31.11.31.12.86.15,3.23,0,.07,0,.14,0,.21.77-.41,1.07-.41,1.64-.09l-1.52,2.59.77-1.29.68,1.34c-.12.07-.6.35-1.08.63-1.06.62-1.55.91-1.97.91Z"/>
    <path class="cls-1" d="M121.27,145.35c-.15,0-.28-.03-.41-.07-.39-.1-.76-.38-.96-.73-.76-1.32-.86-1.49,9.9-9.23-4.75,2.81-4.98,2.75-5.62,2.58-.39-.1-.74-.37-.94-.72-.7-1.23-.76-1.35,7.09-7.87-5.34,3.22-5.55,3.17-6.25,2.99-.39-.1-.75-.36-.95-.71-.67-1.15-.74-1.28,4.93-6.56-2.14,1.23-2.31,1.18-2.83,1.05-.39-.1-.73-.36-.93-.71-.41-.72-.16-1.64.56-2.05.12-.07.24-.12.36-.15.77-.38,4.07-2.35,6.51-3.8q6.03-3.6,6.75-3.41c.39.1.73.36.92.72.66,1.15.71,1.23-5.32,6.84,9.17-5.61,9.27-5.57,10.12-5.37.39.1.74.36.95.7.73,1.26.81,1.39-7.27,8.1,13.91-8.43,14.08-8.38,15.01-8.14.39.1.75.38.95.73.83,1.42-.13,2.14-5.46,6.08-1.09.81-2.32,1.71-3.62,2.65,9.83-5.93,10.13-5.85,10.94-5.64.39.1.76.38.96.73.41.72.16,1.64-.56,2.05-.22.12-.45.19-.68.2-1.66.68-9.78,5.63-16.35,9.63-14.62,8.91-16.83,10.11-17.78,10.11ZM154.03,124.86c.07.12.16.23.25.32-.09-.09-.18-.2-.25-.32ZM154.03,124.86s0,0,0,0c0,0,0,0,0,0ZM126.89,123.87s0,0,0,0c0,0,0,0,0,0ZM126.6,123.51c.11.1.21.22.29.36-.08-.14-.18-.26-.29-.36Z"/>
    <path class="cls-1" d="M125.29,283.83c-.15,0-.27-.03-.41-.07-.39-.1-.75-.37-.96-.72-.82-1.43-.38-2.02,8.06-7.78,3.11-2.13,6.98-4.7,11.05-7.38-26.07,15.76-26.38,15.69-27.47,15.41-.39-.1-.76-.38-.96-.72-.76-1.32-1-1.72,10.42-9.15-15.74,9.46-16.94,9.84-17.95,9.58-.39-.1-.77-.38-.97-.73-.86-1.5-1.08-1.87,17.03-13.48-16.11,9.78-18.11,10.67-19.21,10.39-.39-.1-.77-.38-.98-.73-.83-1.44.61-2.48,2.79-4.05,1.54-1.11,3.78-2.63,6.88-4.65,5.74-3.75,13.4-8.6,21.52-13.73.85-.54,1.73-1.09,2.61-1.65-2.14,1.29-4.25,2.58-6.31,3.83-36,21.84-40.3,24.12-41.81,23.73-.39-.1-.78-.39-.98-.74-.85-1.48.53-2.7,3.89-5.13,1.84-1.33,4.38-3.05,7.7-5.22-14.12,8.46-17.93,10.28-19.26,9.96-.44-.11-.8-.38-1.02-.76-.73-1.27-1.12-1.95,10.21-9.32-13.52,8-16.06,9.05-17.18,8.77-.39-.1-.79-.4-1-.75-.89-1.54.73-2.77,3.92-4.98.59-.41,1.25-.86,1.98-1.34-6.49,3.67-8.12,4.21-8.94,4-.39-.1-.79-.39-.99-.74-.69-1.19-1.07-1.85,8.08-7.85-5.77,3.28-7.2,3.72-8,3.52-.39-.1-.79-.4-1-.75-.89-1.54.76-2.79,3.99-5.03,2.3-1.59,5.68-3.78,10.33-6.68.49-.3.98-.61,1.49-.92-9.65,5.6-12.07,6.56-13.07,6.29-.39-.1-.8-.41-1-.76-.74-1.29-1.09-1.91,11.96-10.21-10.86,6.39-13.93,7.78-15.02,7.5-.39-.1-.8-.4-1-.75-.7-1.2-1.03-1.79,8.85-8.11-5.2,2.81-7.47,3.64-8.41,3.39-.46-.12-.83-.4-1.06-.79-.65-1.12-1.05-1.81,6.61-6.95-8.38,4.86-10.96,5.95-11.95,5.7-.39-.1-.8-.4-1-.75-.76-1.31-1.13-1.95,12.2-10.42-8.42,4.83-11.33,6.08-12.38,5.81-.44-.11-.8-.38-1.02-.77-.72-1.25-1.1-1.92,9.89-9.01-3.88,2.01-5.7,2.61-6.52,2.4-.46-.12-.83-.4-1.06-.79-.87-1.5-1.22-2.11,19.13-14.71-7.39,4.25-9.87,5.27-10.87,5.02-.44-.11-.8-.38-1.02-.76-.69-1.2-1.04-1.8,8.43-7.93-5.97,3.36-8.22,4.24-9.15,3.99-.44-.11-.81-.39-1.03-.77-.72-1.26-1.11-1.93,10.88-9.67-3.89,2.05-5.57,2.62-6.33,2.42-.44-.11-.8-.38-1.03-.76-.91-1.57.8-2.86,4.16-5.18,1.09-.76,2.42-1.64,4-2.67-3.78,2.04-5.26,2.53-5.96,2.35-.39-.1-.8-.4-1-.75-.79-1.37-1.14-1.97,14.52-11.97-7.21,4.1-9.88,5.2-10.93,4.94-.44-.11-.81-.39-1.04-.77-.9-1.56.8-2.87,3.89-5.06,2.25-1.59,5.54-3.76,10.07-6.63.15-.1.31-.2.46-.29-8.3,4.81-10.16,5.47-11.1,5.23-.39-.1-.8-.4-1-.75-.9-1.56-1.26-2.18,20.16-15.62-19.36,11.55-22.45,12.97-23.66,12.66-.39-.1-.78-.39-.98-.74-.67-1.16-1.02-1.77,7.98-7.66-2.07.97-3.14,1.24-3.69,1.1-.44-.11-.8-.38-1.02-.77-.75-1.29-1.04-1.8,10.58-9.19-6.53,3.69-8.37,4.35-9.22,4.13-.39-.1-.8-.4-1-.75-.82-1.42-.17-2.1,6.99-7.26,1.88-1.36,4.06-2.89,6.37-4.52-8.29,4.94-8.57,4.86-9.32,4.67-.39-.1-.75-.37-.95-.71-.79-1.38,0-2.13,5.26-6.19,2.1-1.63,4.7-3.58,7.41-5.6-15.33,9.34-15.55,9.28-16.49,9.04-.39-.1-.75-.37-.95-.72-.74-1.29-.88-1.52,9.1-8.62-8.29,4.96-8.63,4.86-9.41,4.67-.39-.1-.76-.37-.96-.72-.83-1.43-.15-1.99,6.33-6.62,2.03-1.45,4.48-3.17,7.09-4.98-9.28,5.59-9.6,5.51-10.41,5.3-.39-.1-.76-.37-.96-.72-.81-1.39-.17-2.09,6.26-6.81,1.79-1.31,3.87-2.81,6.09-4.39-7.65,4.63-7.89,4.57-8.64,4.37-.39-.1-.75-.37-.95-.72-.83-1.44.21-2.22,5.26-5.96.69-.51,1.44-1.06,2.22-1.63-7.19,4.28-7.45,4.21-8.18,4.03-.39-.1-.75-.37-.95-.72-.79-1.4.23-2.19,4.53-5.51,1.22-.94,2.65-2.03,4.18-3.17-1.08.53-1.33.47-1.74.36-.39-.1-.76-.37-.96-.72-.6-1.08-.62-1.11,4.56-6.75-.35-.11-.66-.36-.85-.67-.42-.71-.19-1.63.52-2.06.16-.1.34-.16.52-.19.51-.26,1.85-1.11,2.68-1.64,2.68-1.7,2.96-1.88,3.71-1.7.39.09.74.35.95.69.59,1.02.63,1.1-3.7,5.83.85-.53,1.69-1.05,2.48-1.53,10.2-6.32,10.64-6.46,11.57-6.23.39.1.76.37.96.73.8,1.37-.09,2.06-4.37,5.36-1.46,1.12-3.23,2.46-5.12,3.88,12.1-7.3,12.29-7.25,13.15-7.03.39.1.74.37.95.72.71,1.22.84,1.45-7.23,7.3,7.46-4.46,8.18-4.59,8.99-4.38.39.1.77.39.97.74.83,1.44-.22,2.21-5.28,5.91-2.36,1.72-5.33,3.83-8.55,6.11,13.26-8.05,14.05-8.29,15.02-8.05.39.1.76.38.96.73.84,1.44.03,2.1-6.55,6.8-1.93,1.38-4.21,2.98-6.65,4.68,6.98-4.18,7.27-4.1,8-3.92.39.1.75.37.95.72.75,1.3.88,1.53-9.28,8.75,7.87-4.69,8.2-4.61,8.95-4.41.39.1.76.38.96.73.8,1.39-.23,2.18-4.55,5.51-2.48,1.91-5.73,4.33-9.2,6.91,17.97-10.87,18.14-10.83,19.12-10.58.39.1.75.37.95.71.85,1.46-.17,2.19-5.81,6.24-3.36,2.41-7.85,5.53-12.61,8.84-1.68,1.16-3.47,2.41-5.29,3.68,8.13-4.81,17.98-10.79,26.79-16.14,34.94-21.21,38.83-23.29,40.3-22.91.39.1.78.39.98.74.73,1.26,1.08,1.87-10.59,9.39,8.29-4.85,9.89-5.42,10.76-5.2.39.1.78.39.98.74.71,1.22,1.02,1.76-9.35,8.39,9.06-5.24,11.01-5.98,11.91-5.75.39.1.78.39.98.74.93,1.62,1.21,2.1-21.5,16.25,15.11-9.01,18.22-10.41,19.44-10.1.39.1.8.4,1,.75.9,1.56-.8,2.87-3.88,5.05-2.25,1.59-5.53,3.76-10.05,6.62-.41.26-.82.52-1.24.78,8.75-5.14,11.31-6.25,12.34-5.99.39.1.8.4,1,.75.89,1.53,1.16,1.99-19.85,15.15,17.57-10.51,22.7-13.08,24.2-12.69.44.11.81.39,1.03.77.87,1.51-.55,2.7-4.25,5.27-.66.46-1.4.96-2.23,1.51,4.17-2.25,5.84-2.83,6.6-2.64.39.1.81.41,1.01.76.78,1.37,1.1,1.92-14.18,11.47,4.78-2.6,6.74-3.29,7.61-3.07.45.11.82.39,1.04.78.59,1.02.94,1.63-4.79,5.58,6.12-3.38,8.67-4.37,9.68-4.1.46.12.83.4,1.06.79.83,1.43,1.23,2.12-16.27,13.1,5.73-3.23,7.81-4.02,8.69-3.8.44.11.8.38,1.02.76.75,1.3,1.11,1.93-11.45,9.92,11.43-6.67,15.08-8.33,16.33-8.02.44.11.8.39,1.03.77.75,1.28,1.1,1.89-11.79,10.06,5.73-3.13,8.08-4.01,9.02-3.77.45.11.82.39,1.04.78.73,1.27,1.07,1.86-10,8.86,8.57-4.99,11.32-6.17,12.36-5.91.43.11.79.38,1.01.76.68,1.18,1.08,1.88-8.3,8.06,3.77-1.96,5.45-2.53,6.2-2.34.44.11.8.39,1.02.77.74,1.28,1.08,1.87-11.51,9.86,9.19-5.31,11.53-6.23,12.52-5.97.39.1.8.41,1,.76.73,1.27.55,2.38-8.4,8.32,2.47-1.16,3.76-1.51,4.42-1.34.46.12.83.4,1.06.79.75,1.3,1.07,1.85-11.2,9.57,5.51-3.06,7.17-3.63,7.97-3.43.39.1.79.4,1,.75.9,1.56-.75,2.82-3.99,5.08,7.25-4.11,9.84-5.18,10.8-4.94.39.1.81.41,1.01.76.81,1.39,1.1,1.89-14.52,11.65,7.3-4.19,9.85-5.25,10.85-4.99.44.11.8.38,1.02.77,1.06,1.84,1.21,2.09-31.78,22.52,29.13-17.62,32.95-19.55,34.39-19.19.39.1.79.39.99.74.77,1.34,1.11,1.92-11.48,10.19,7.36-4.24,9.36-4.99,10.3-4.75.39.1.81.41,1.01.76.76,1.33,1.02,1.77-11.51,9.92,10.52-6.21,12.53-7,13.53-6.75.39.1.79.39.99.74.69,1.19.95,1.64-7.88,7.49,6.43-3.69,7.29-3.85,8.03-3.66.39.1.77.39.97.74.82,1.43.38,2.02-8.05,7.78-1.43.98-3.02,2.05-4.71,3.18,5.36-3.07,6.18-3.21,6.89-3.02.39.1.78.39.98.74.76,1.31.86,1.48-9.27,8.91,12.11-7.34,12.43-7.25,13.32-7.03.39.1.76.38.96.73.81,1.4.86,1.49-11.58,10.73,7.29-4.35,7.49-4.29,8.23-4.11.39.1.74.36.94.71.42.71.18,1.63-.54,2.05-.18.1-.37.17-.56.19-1.36.6-8.01,4.6-13.39,7.84-13.36,8.05-13.43,8.02-14.32,7.8-.39-.1-.73-.36-.94-.7-.81-1.39.02-2.08,5.14-6.01,1.89-1.45,4.2-3.18,6.62-4.98-14.29,8.71-14.49,8.66-15.43,8.42-.39-.1-.75-.38-.96-.73-.79-1.41.21-2.16,5.01-5.79,2-1.51,4.5-3.35,7.1-5.25-2.19,1.33-4.36,2.66-6.38,3.89-16.92,10.32-19.3,11.66-20.3,11.66ZM171.64,266.96c.14.24.32.41.51.52-.21-.12-.38-.3-.51-.52ZM109.49,226.5c-7.37,4.43-14.87,8.96-21.53,13.06,6.7-4.01,14.18-8.56,21.53-13.06ZM84.62,125.36s0,0,0,0c0,0,0,0,0,0ZM84.62,125.36s0,0,0,0c0,0,0,0,0,0ZM84.61,125.35s0,0,0,0c0,0,0,0,0,0ZM84.44,125.12c.06.07.12.15.18.23-.05-.09-.11-.17-.18-.23Z"/>
    <g>
      <path class="cls-7" d="M100.62,143.08c-.14,0-.28-.04-.46-.09-.36-.11-.67-.34-.87-.67-.08-.13-.09-.14-1.18-2.7-.07-.16-.13-.31-.2-.46-.95.56-1.89.93-2.6-.13q-.34-.56-.03-3.91c-.52.31-1.06.63-1.57.93q-5.46,3.23-6.16,3.04c-.39-.11-.73-.37-.92-.73-.4-.73-.13-1.64.6-2.04.08-.04.15-.07.23-.1.55-.28,2.95-1.7,4.72-2.75,1.04-.62,2.05-1.21,2.8-1.65,1.45-.84,2.49-1.46,3.28-.19q.3.53.01,3.7c0,.08-.02.17-.02.25.59-.18,1.15-.09,1.61.59.03.04.05.08.07.12.05.1.06.11.93,2.15.14.32.28.65.41.96.09-.06.18-.11.27-.16,2.29-1.38,3.07-1.84,3.88-.62.46.69.27,1.62-.42,2.08-.1.06-.2.12-.3.15-.27.15-1.07.63-1.62.96-1.63.98-2.09,1.26-2.49,1.26Z"/>
      <path class="cls-7" d="M79.59,145.9c-.13,0-.26-.02-.41-.06-.39-.1-.73-.36-.93-.71q-.6-1.04,4.41-6.84s.05-.06.08-.09c-.26-.14-.48-.34-.62-.6-.41-.72-.15-1.64.57-2.04.15-.08.3-.14.45-.17.41-.22,1.36-.83,1.96-1.21,2.14-1.37,2.47-1.58,3.21-1.39.4.1.75.37.95.73q.61,1-4.34,6.73c-.49.57-1.04,1.21-1.58,1.83.03.05.07.11.09.16.37.74.07,1.64-.67,2.01-.06.03-.12.06-.18.08-.22.12-.62.37-1.02.62-1.13.69-1.54.95-1.98.95ZM81.89,144.41c.17.02.34.02.5-.01-.17.03-.34.04-.5.01ZM80.8,143.66c.05.09.11.17.17.24h0c-.06-.07-.12-.15-.17-.24h0Z"/>
    </g>
    <g>
      <path class="cls-7" d="M148.51,143.08c-.14,0-.28-.04-.45-.09-.37-.11-.68-.35-.87-.67-.08-.13-.08-.14-1.15-2.64-.07-.17-.15-.35-.22-.51-.95.56-1.89.93-2.6-.13q-.34-.56-.03-3.91c-.52.31-1.06.63-1.57.93q-5.46,3.23-6.16,3.04c-.39-.11-.73-.37-.92-.72-.4-.73-.14-1.64.59-2.04.08-.04.16-.08.24-.1.55-.28,2.95-1.71,4.73-2.75,1.04-.62,2.05-1.21,2.8-1.65,1.45-.85,2.49-1.45,3.28-.19q.3.53.01,3.7c0,.08-.02.17-.02.25.6-.18,1.16-.09,1.62.61.02.03.04.07.06.1.06.1.06.12.96,2.21.13.31.26.62.39.91.09-.06.18-.11.27-.16,2.29-1.38,3.06-1.84,3.88-.62.46.69.27,1.62-.42,2.08-.1.06-.2.12-.3.15-.27.15-1.07.63-1.62.96-1.64.98-2.09,1.26-2.49,1.26Z"/>
      <path class="cls-7" d="M127.47,145.9c-.13,0-.26-.02-.41-.06-.39-.1-.73-.36-.93-.71q-.59-1.06,4.45-6.9l.03-.04c-.25-.14-.47-.34-.61-.59-.41-.72-.15-1.64.57-2.04.14-.08.3-.14.45-.17.41-.22,1.39-.84,2-1.23,2.11-1.35,2.43-1.56,3.16-1.38.4.1.75.35.95.71q.62,1.03-4.28,6.71c-.51.59-1.07,1.25-1.62,1.88.04.05.07.11.1.17.37.74.07,1.64-.67,2.01-.06.03-.12.06-.18.08-.22.12-.62.37-1.02.62-1.13.69-1.54.95-1.97.95ZM129.77,144.41c.17.02.34.02.5-.01-.17.03-.33.04-.5.01ZM128.69,143.69c.05.08.1.15.16.22h0c-.06-.07-.11-.14-.16-.22h0Z"/>
    </g>
    <g>
      <path class="cls-4" d="M109.54,160.1c-.14,0-.26-.03-.4-.07-.39-.1-.73-.36-.93-.71-.53-.95-.57-1.02,2.82-5.38-1.03.58-1.33.6-1.82.49-.31-.07-.59-.25-.8-.49-.14-.15-.86-.89-1.59-1.62-.35-.35-.62-.63-.84-.86-.04.03-.09.05-.13.08-1.62,1-2.69,1.65-3.51.35-.44-.7-.23-1.63.47-2.07.1-.06.21-.11.32-.15.24-.13.79-.47,1.14-.69,1.29-.8,2.33-1.43,3.14-.35.2.21.88.9,1.55,1.58.38.39.68.69.91.92.69-.41,1.7-1.04,2.44-1.51,3.63-2.29,3.99-2.49,4.79-2.29.4.1.75.37.95.72.54.94.57,1-3.04,5.64.51-.31,1.01-.61,1.48-.89q7.93-4.79,8.76-4.59c.39.1.73.35.93.69.43.71.2,1.63-.51,2.06-.15.09-.3.15-.46.18-.86.41-4.49,2.61-7.17,4.23-6.67,4.03-7.83,4.72-8.5,4.72ZM110.55,151.85c.18.19.21.24.26.32-.07-.12-.16-.23-.26-.32ZM123.62,150.46c.19.31.45.5.71.61-.29-.12-.54-.33-.71-.61ZM104.88,150.3s0,0,0,0c0,0,0,0,0,0ZM104.55,149.93c.13.1.24.22.33.37-.09-.15-.21-.27-.33-.37Z"/>
      <path class="cls-7" d="M104.11,153.42c-.13,0-.23-.03-.37-.07l.39-1.45,1.31-.73-1.31.73-.57-1.38c.37-.18,2.79-1.61,4.56-2.65.95-.56,1.85-1.09,2.53-1.49,1.2-.7,2.17-1.27,2.94-.4.31.22,1.17.79,1.82,1.23.71.47,1.22.82,1.6,1.07.17-.11.35-.22.5-.31,1.46-.9,1.73-1.06,2.39-.89.21.05.4.15.56.28.3.19,1.46.82,2.32,1.29.77.42,1.32.72,1.73.95.26-.16.56-.33.81-.49,2.31-1.39,2.36-1.42,3.02-1.24.39.1.73.36.93.71.41.72.16,1.64-.56,2.05-.08.04-.15.08-.23.11-.28.15-1.07.63-1.61.95-2.05,1.24-2.13,1.29-2.81,1.09-.18-.05-.35-.14-.5-.26-.29-.18-1.4-.78-2.22-1.23-.83-.45-1.42-.77-1.84-1.01-.13.08-.27.17-.42.26-1.42.88-2.48,1.53-3.27.58-.36-.26-1.37-.93-2.07-1.4-.57-.38-.99-.66-1.32-.88-.72.42-1.82,1.07-2.78,1.63-4.2,2.48-5.02,2.96-5.54,2.96Z"/>
      <path class="cls-7" d="M115.37,160.82c-.14,0-.26-.03-.41-.07-.23-.06-.43-.16-.61-.31-.26-.18-1.36-.85-2.1-1.31-.57-.35-1-.61-1.32-.81-.26.15-.55.33-.85.5q-2.19,1.3-2.84,1.11c-.38-.11-.71-.37-.9-.72-.05-.09-.06-.11-.93-2.12-.13-.3-.27-.61-.39-.9-.51.29-.81.36-1.28.25-.39-.09-.73-.34-.93-.68-.35-.65-.37-.68.62-3.93-.47.22-.7.22-1.07.13-.39-.09-.73-.34-.94-.69-.43-.71-.2-1.63.51-2.06.1-.06.21-.11.33-.15.29-.16,1.03-.61,1.49-.9,1.7-1.05,1.88-1.15,2.53-.99.39.1.73.36.93.71q.36.62-.77,4.31c-.04.14-.09.3-.14.45.29.12.53.33.69.6.08.14.09.15,1.17,2.64.07.16.14.32.2.47.06-.04.13-.08.19-.11q2.21-1.31,2.86-1.11c.19.06.37.15.53.28.24.16,1.19.74,1.89,1.17.71.44,1.23.75,1.6.99.78-.45,2.11-1.27,3.25-1.96,5.61-3.43,5.66-3.42,6.43-3.21.39.1.74.36.94.72.41.72.16,1.64-.56,2.05-.15.09-.31.14-.47.17-.71.35-3.14,1.83-4.79,2.84-3.6,2.21-4.34,2.66-4.86,2.66ZM123.44,154.6c.06.1.13.2.21.28-.08-.08-.15-.18-.21-.28ZM123.44,154.6s0,0,0,0c0,0,0,0,0,0ZM123.44,154.6s0,0,0,0c0,0,0,0,0,0ZM103.96,149.71s0,0,0,0c0,0,0,0,0,0ZM103.52,149.25c.17.12.33.27.44.46-.12-.2-.28-.35-.44-.46Z"/>
    </g>
  </g>
  <g>
    <path d="M46.45,41.94h-5.43l-9.08-13.86v13.86h-5.43v-22.46h5.43l9.08,13.92v-13.92h5.43v22.46Z"/>
    <path d="M68.48,24.09l-11.11,26.34h-5.84l4.06-9.09-7.21-17.25h6.06l4.1,11.17,4.06-11.17h5.87Z"/>
    <path d="M73.52,41.4c-1.21-.53-2.16-1.26-2.86-2.19-.7-.93-1.09-1.97-1.17-3.12h5.37c.06.62.35,1.12.86,1.5.51.38,1.13.58,1.87.58.68,0,1.2-.13,1.57-.4s.56-.61.56-1.04c0-.51-.26-.89-.79-1.14-.53-.25-1.39-.52-2.57-.82-1.27-.3-2.33-.61-3.17-.94-.85-.33-1.58-.85-2.19-1.57-.61-.71-.92-1.68-.92-2.9,0-1.02.28-1.96.84-2.8.56-.84,1.39-1.51,2.48-2,1.09-.49,2.39-.74,3.89-.74,2.22,0,3.97.55,5.25,1.66,1.28,1.11,2.02,2.58,2.21,4.42h-5.02c-.08-.62-.35-1.11-.81-1.47s-1.05-.54-1.79-.54c-.63,0-1.12.12-1.46.37-.34.25-.51.58-.51,1.01,0,.51.27.9.81,1.15.54.26,1.38.51,2.52.77,1.31.34,2.38.68,3.21,1.01.83.33,1.55.86,2.17,1.6s.95,1.72.97,2.96c0,1.05-.29,1.98-.87,2.8-.58.82-1.42,1.47-2.51,1.94-1.09.47-2.35.7-3.79.7-1.54,0-2.92-.27-4.13-.8Z"/>
    <path d="M91.24,41.4c-1.21-.53-2.16-1.26-2.86-2.19-.7-.93-1.09-1.97-1.17-3.12h5.37c.06.62.35,1.12.86,1.5.51.38,1.13.58,1.87.58.68,0,1.2-.13,1.57-.4s.56-.61.56-1.04c0-.51-.26-.89-.79-1.14-.53-.25-1.39-.52-2.57-.82-1.27-.3-2.33-.61-3.17-.94-.85-.33-1.58-.85-2.19-1.57-.61-.71-.92-1.68-.92-2.9,0-1.02.28-1.96.84-2.8.56-.84,1.39-1.51,2.48-2,1.09-.49,2.39-.74,3.89-.74,2.22,0,3.97.55,5.25,1.66,1.28,1.11,2.02,2.58,2.21,4.42h-5.02c-.08-.62-.35-1.11-.81-1.47s-1.05-.54-1.79-.54c-.63,0-1.12.12-1.46.37-.34.25-.51.58-.51,1.01,0,.51.27.9.81,1.15.54.26,1.38.51,2.52.77,1.31.34,2.38.68,3.21,1.01.83.33,1.55.86,2.17,1.6s.95,1.72.97,2.96c0,1.05-.29,1.98-.87,2.8-.58.82-1.42,1.47-2.51,1.94-1.09.47-2.35.7-3.79.7-1.54,0-2.92-.27-4.13-.8Z"/>
    <path d="M105.82,28.15c.69-1.39,1.62-2.45,2.81-3.2,1.19-.75,2.51-1.12,3.97-1.12,1.25,0,2.34.26,3.29.77.94.51,1.67,1.18,2.17,2.02v-2.53h5.43v17.86h-5.43v-2.53c-.53.83-1.26,1.5-2.21,2.02-.94.51-2.04.77-3.29.77-1.44,0-2.75-.38-3.94-1.14-1.18-.76-2.12-1.83-2.81-3.23-.69-1.4-1.03-3.01-1.03-4.85s.34-3.44,1.03-4.83ZM116.93,29.78c-.75-.79-1.67-1.18-2.75-1.18s-2,.39-2.75,1.17-1.13,1.85-1.13,3.22.38,2.45,1.13,3.25c.75.8,1.67,1.2,2.75,1.2s1.99-.39,2.75-1.18c.75-.79,1.13-1.87,1.13-3.23s-.38-2.44-1.13-3.23Z"/>
  </g>
</svg>