<?xml version="1.0" encoding="UTF-8"?>
<svg xmlns="http://www.w3.org/2000/svg" version="1.1" xmlns:xlink="http://www.w3.org/1999/xlink" viewBox="0 0 240 338">
  <defs>
    <style>
      .cls-1 {
        stroke: #b0bec5;
      }

      .cls-1, .cls-2, .cls-3, .cls-4, .cls-5 {
        fill: none;
      }

      .cls-1, .cls-2, .cls-3, .cls-5 {
        stroke-linecap: round;
        stroke-linejoin: round;
        stroke-width: 3px;
      }

      .cls-2 {
        stroke: #fbae00;
      }

      .cls-6 {
        fill: #fff;
      }

      .cls-3 {
        stroke: #fff;
      }

      .cls-4 {
        stroke: #939598;
        stroke-miterlimit: 10;
        stroke-width: 5px;
      }

      .cls-7 {
        fill: #939598;
      }

      .cls-5 {
        stroke: #414042;
      }

      .cls-8 {
        fill: url(#linear-gradient);
      }
    </style>
    <linearGradient id="linear-gradient" x1="5" y1="-94.3" x2="235" y2="-94.3" gradientTransform="translate(0 288.3)" gradientUnits="userSpaceOnUse">
      <stop offset="0" stop-color="#4682e4"/>
      <stop offset="1" stop-color="#1e90ff"/>
    </linearGradient>
  </defs>
  <!-- Generator: Adobe Illustrator 28.7.1, SVG Export Plug-In . SVG Version: 1.2.0 Build 142)  -->
  <g>
    <g id="Outline">
      <path class="cls-7" d="M5,0h230c2.8,0,5,2.2,5,5v328c0,2.8-2.2,5-5,5H5c-2.8,0-5-2.2-5-5V5C0,2.2,2.2,0,5,0Z"/>
      <rect class="cls-8" x="5" y="55" width="230" height="278"/>
      <rect class="cls-6" x="5" y="5.5" width="230" height="49"/>
      <path class="cls-7" d="M200,5h36v16h-34.5c-.9,0-1.5-1.4-1.5-3V5h0Z"/>
      <line class="cls-4" x1="2.5" y1="54" x2="237.5" y2="54"/>
      <g>
        <path d="M34.7,41.9l-4.6-8.5h-1.3v8.5h-5.4v-22.5h9.1c1.8,0,3.2.3,4.5.9s2.2,1.5,2.8,2.5c.6,1.1.9,2.3.9,3.6s-.4,2.8-1.2,4c-.8,1.2-2.1,2-3.7,2.5l5.1,8.9h-6.1,0ZM28.8,29.6h3.4c1,0,1.7-.2,2.2-.7s.8-1.2.8-2.1-.2-1.5-.8-2c-.5-.5-1.2-.7-2.2-.7h-3.4v5.6h0Z"/>
        <path d="M44,28.1c.7-1.4,1.6-2.5,2.8-3.2,1.2-.8,2.5-1.1,4-1.1s2.3.3,3.3.8c.9.5,1.7,1.2,2.2,2v-2.5h5.4v17.9h-5.4v-2.5c-.5.8-1.3,1.5-2.2,2-.9.5-2,.8-3.3.8s-2.8-.4-3.9-1.1-2.1-1.8-2.8-3.2c-.7-1.4-1-3-1-4.8s.3-3.4,1-4.8h0ZM55.1,29.8c-.8-.8-1.7-1.2-2.8-1.2s-2,.4-2.8,1.2-1.1,1.9-1.1,3.2.4,2.5,1.1,3.2,1.7,1.2,2.8,1.2,2-.4,2.8-1.2c.8-.8,1.1-1.9,1.1-3.2s-.4-2.4-1.1-3.2h0Z"/>
        <path d="M71,18.3v23.7h-5.4v-23.7s5.4,0,5.4,0Z"/>
        <path d="M82.6,24.6c.9-.5,2-.8,3.3-.8s2.8.4,4,1.1,2.1,1.8,2.8,3.2c.7,1.4,1,3,1,4.8s-.3,3.5-1,4.8c-.7,1.4-1.6,2.5-2.8,3.2s-2.5,1.1-4,1.1-2.3-.3-3.2-.8c-.9-.5-1.7-1.2-2.2-2v11h-5.4v-26.4h5.4v2.5c.5-.8,1.3-1.5,2.2-2ZM87,29.8c-.8-.8-1.7-1.2-2.8-1.2s-2,.4-2.8,1.2c-.8.8-1.1,1.9-1.1,3.2s.4,2.4,1.1,3.2,1.7,1.2,2.8,1.2,2-.4,2.8-1.2,1.1-1.9,1.1-3.2-.4-2.4-1.1-3.2h0Z"/>
        <path d="M112.3,25.9c1.2,1.4,1.8,3.2,1.8,5.6v10.4h-5.4v-9.7c0-1.2-.3-2.1-.9-2.8-.6-.7-1.4-1-2.5-1s-1.9.3-2.5,1c-.6.7-.9,1.6-.9,2.8v9.7h-5.4v-23.7h5.4v8.2c.6-.8,1.3-1.4,2.2-1.9s2-.7,3.2-.7c2,0,3.7.7,4.9,2h0Z"/>
      </g>
      <g>
        <path class="cls-6" d="M209.3,15.7l-2-3.7h-.6v3.7h-2.4V5.9h4c.8,0,1.4.1,2,.4s.9.6,1.2,1.1c.3.5.4,1,.4,1.6s-.2,1.2-.6,1.8c-.4.5-.9.9-1.6,1.1l2.2,3.9h-2.7,0ZM206.7,10.3h1.5c.4,0,.8-.1,1-.3s.3-.5.3-.9-.1-.7-.3-.9-.5-.3-1-.3h-1.5v2.4h0Z"/>
        <path class="cls-6" d="M213.4,9.7c.3-.6.7-1.1,1.2-1.4s1.1-.5,1.7-.5,1,.1,1.4.3c.4.2.7.5.9.9v-1.1h2.4v7.8h-2.4v-1.1c-.2.4-.6.7-1,.9s-.9.3-1.4.3-1.2-.2-1.7-.5-.9-.8-1.2-1.4-.4-1.3-.4-2.1.1-1.5.4-2.1ZM218.3,10.4c-.3-.4-.7-.5-1.2-.5s-.9.2-1.2.5-.5.8-.5,1.4.2,1.1.5,1.4c.3.4.7.5,1.2.5s.9-.2,1.2-.5.5-.8.5-1.4-.2-1.1-.5-1.4Z"/>
        <path class="cls-6" d="M226.3,8.2c.4-.2.9-.4,1.4-.4v2.5h-.6c-.6,0-1,.1-1.3.4-.3.3-.4.7-.4,1.4v3.6h-2.4v-7.8h2.4v1.3c.3-.4.6-.8,1-1h0Z"/>
        <path class="cls-6" d="M236.1,12.4h-5.4c0,.5.2.9.5,1.1.3.3.6.4,1,.4.6,0,1-.2,1.2-.8h2.5c-.1.5-.4,1-.7,1.4s-.8.7-1.3,1-1.1.4-1.7.4-1.4-.2-2-.5-1.1-.8-1.4-1.4-.5-1.3-.5-2.1.2-1.5.5-2.1c.3-.6.8-1.1,1.4-1.4s1.3-.5,2-.5,1.4.2,2,.5,1,.8,1.4,1.4.5,1.3.5,2.1,0,.5,0,.7h0ZM233.7,11.1c0-.4-.1-.7-.4-1s-.6-.4-1-.4-.7.1-1,.4c-.3.2-.4.6-.5,1h3Z"/>
      </g>
      <g>
        <g>
          <path class="cls-2" d="M57.6,287.8c.1.2,3.2-2.1,3.3-1.9,0,.2-4.7,7.7-4.5,7.9.3.5,13.6-8.5,13.9-8,.2.4-14,13.1-13.8,13.5s20.8-12.5,21-12.1c.2.3-10,10.6-9.8,10.9.2.4,16.7-10.3,17-9.8.2.4-13.9,13.3-13.6,13.8s21.7-13.2,22-12.7-20.2,16.8-19.9,17.3c.2.4,17.3-10.5,17.5-10.1"/>
          <path class="cls-3" d="M88.7,294s5.9-3.4,5.9-3.4c0,.2-2.6,6.8-2.5,7,0,0,.5-.4.6-.3"/>
          <path class="cls-3" d="M57.3,287.4c.1.2,3.2-2,3.3-1.9.1.2-8.8,10-8.7,10.3,0,0,1.1-.7,1.1-.6,0,.1,2.5,4,2.5,4.1,0,0,2.5-1.5,2.5-1.5,0,.1,6.3,1.4,6.4,1.5s6.7-4.1,6.8-4c0,.1-.9,6.3-.8,6.4,0,0,4.8-2.8,4.8-2.8,0,.2-3.1,7.4-3,7.5,0,0,2.3-1.3,2.3-1.3,0,.1,5.3,2.2,5.4,2.3,0,0,2.3-1.4,2.3-1.3"/>
        </g>
        <g>
          <path class="cls-2" d="M168.5,302.9c.2.4,18.1-10.8,18.2-10.5.2.3-9.8,10.7-9.6,11,.1.2,9.1-5.6,9.2-5.3"/>
          <path class="cls-2" d="M147,296.7c0,0,2.8-1.7,2.9-1.6,0,0,1.2,4.5,1.2,4.6.3.5,15.8-9.8,16.1-9.3s-17.9,15.2-17.6,15.8c.4.7,30.8-18.6,31.1-18,.3.6-25,18.8-24.6,19.4.4.6,28.8-17.8,29.3-16.9"/>
          <path class="cls-3" d="M174.6,290s5.5-3.2,5.5-3.2c0,0,1.6,4.9,1.7,5.1,0,0,.8-.5.8-.5,0,.1,2.5,4.2,2.6,4.3,0,0,.1-.1.1,0"/>
          <path class="cls-3" d="M171.2,302.3s.9-.5.9-.5c0,.1,2.8,4,2.8,4.1,0,0,3.4-2,3.4-2"/>
          <path class="cls-3" d="M167,303.3s6.6-3.9,6.6-3.8"/>
          <path class="cls-3" d="M146.6,296.3s1.1-.7,1.1-.7c0,.1-1.3,5.9-1.2,6,0,0,.8-.5.9-.5,0,.1,1.4,4.6,1.4,4.8,0,0,2.4-1.4,2.4-1.4,0,0,3.7,2.9,3.8,3,0,0,1.1-.6,1.1-.6,0,.1,4.3,3,4.4,3.1.1.2,11.5-6.9,11.6-6.7"/>
        </g>
        <g>
          <path class="cls-1" d="M22.2,166c0,0,3.1-1.9,3.1-1.8.1.2-4.1,7.8-4,8.1.1.2,10.3-6.3,10.4-6,.2.3-7.8,9.9-7.6,10.1.2.4,11.9-7.3,12-7,.1.2-5.6,8.6-5.5,8.9.2.4,17.4-10.5,17.6-10.2.3.5-18.2,15-17.8,15.5.3.5,20.5-12.4,20.8-12,.3.5-17.1,15.2-16.9,15.6.3.5,21.2-12.9,21.5-12.4.3.5-17.7,15.2-17.3,15.8s23.6-14.4,23.9-13.8c.2.4-15.3,13.9-15,14.3,2.2,3.8,123.5-75.2,125.2-72.3,1.9,3.4-128.8,75.3-126.9,78.6,1.6,2.9,130-79,131.7-76,1.6,2.8-130.1,76.4-128.3,79.6,2,3.5,122.1-75.1,124.1-71.7s-122.8,71.6-120.8,75.1c1.4,2.5,124.1-76,126-72.7,2,3.5-125,74.9-123.5,77.5s118.8-72.3,120.4-69.5c2,3.5-115.9,69.1-114.3,71.9,1.9,3.4,119.5-73.1,121.3-70s-125.4,74.1-123.7,77c1.8,3.2,122.1-74.3,123.8-71.4S51.7,223.8,53.6,227.1s120.7-74.1,122.6-70.8c1.5,2.6-123.1,73.5-121.6,76.1,1.9,3.2,120.7-74.1,122.6-70.8,1.5,2.7-125.1,73.4-123.2,76.7s120.5-73,122-70.4c2.2,3.8-131.7,77.8-129.9,80.9,1.5,2.6,126.9-77.9,128.9-74.4,1.6,2.8-127.6,75.5-126,78.3,2,3.5,125.5-76.5,127.3-73.5,2.3,3.9-131.9,77.6-129.9,81.1,2.4,4.1,153-94.4,155.6-89.8,2.2,3.8-156.1,91.6-154.1,95.2,2.6,4.6,164.6-101.2,167.3-96.6,2.2,3.8-170.6,99.2-168.5,102.9,1.9,3.4,162.4-99.7,165-95.3,2.3,4-167.1,97.2-165,100.9,1.9,3.4,156.2-95.6,158.5-91.5,1.9,3.4-154,89.5-151.9,93.1,2.3,4,149-91.2,151.2-87.3,1.9,3.4-155.3,89.8-152.9,93.9,1.9,3.3,141.4-85.6,143.1-82.6,2,3.4-138,81.3-136.2,84.5,2,3.4,116.9-72.2,118.9-68.7,1.7,2.9-116.2,68.6-114.6,71.5,1.8,3.1,117.4-72.3,119.4-68.9,1.6,2.8-111.7,66.7-110.1,69.5s106.3-65.3,108-62.4c1.3,2.3-100.4,60-99,62.5,1.6,2.7,103.6-63.3,105.1-60.7,1.7,2.9-100.7,61.3-99.4,63.5,1.6,2.8,98.7-60.6,100.3-57.9,1.2,2-85.7,52.1-84.6,54.1s81.2-49.6,82.4-47.6c1,1.7-71.4,44.9-70.3,46.8.8,1.4,71.2-43.4,72.2-41.7s-61.8,38.8-60.8,40.4,64.5-39.4,65.4-37.8c1,1.7-59.9,38.3-58.9,40,.7,1.2,58.8-36.1,59.8-34.5.8,1.4-59.4,38-58.6,39.5.8,1.4,57.7-35.1,58.5-33.8.7,1.3-50.8,33.9-50.1,35.1.6,1,43.5-26.6,44.1-25.5.4.7-31.1,22.3-30.6,23.1.4.7,27.9-17,28.2-16.3.2.4-15.7,14.6-15.4,15,.2.4,9-5.6,9.2-5.3"/>
          <path class="cls-1" d="M79.8,107.9c.2.4,19.8-11.9,20-11.6.4.8-25.7,19.3-25.2,20.1.9,1.6,63.6-38.8,64.5-37.2,1,1.8-66.8,42.1-65.9,43.7.8,1.5,71-43.3,72-41.6,1.1,1.9-76.8,47.6-75.9,49.2,1,1.8,72.3-44.2,73.3-42.3,1.1,1.9-79.4,48.4-78.1,50.7,1.2,2.1,73.1-44.8,74.2-42.8s-77.4,47.7-76.4,49.4c1.2,2.1,82.2-50.2,83.4-48.1,1.4,2.5-85,51.3-83.6,53.9,1.3,2.2,84-51,85-49.1s-82,49.8-80.8,52c1.3,2.3,89.6-54.4,90.8-52.4,1.3,2.3-96.8,58.8-95.3,61.3,1.3,2.3,95.5-58.6,97-56,1.3,2.3-99,59.6-97.4,62.4s104.8-64.5,106.5-61.5c1.5,2.6-105.4,62.6-103.8,65.3s103.8-63.3,105.3-60.8"/>
          <path class="cls-1" d="M113.9,80.5c0,.1.2-.2.3-.2,0,0-.5,5.5-.5,5.6.2.3,6.7-4.2,6.8-3.9.2.3-9.9,10.8-9.7,11.2.2.3,13.6-8.2,13.8-8"/>
          <path class="cls-3" d="M113.7,81.1s4.7-2.7,4.7-2.7c0,.2-2.9,6.8-2.8,7,0,0,.3-.2.3-.2,0,.2,4.7,3.1,4.8,3.2.2.4,21.2-12.7,21.4-12.3,0,.1-1.7,6-1.6,6.2,0,0,.8-.5.8-.4,0,.1,1.3,4.5,1.3,4.6,0,0,1.7-1,1.7-1,.2.3-8.7,9.9-8.5,10.2,0,0,6.6-3.9,6.7-3.8,0,.1.4,5.9.5,6.1,0,0,5.6-3.3,5.6-3.2,0,.2-2.6,6.6-2.5,6.7,0,0,4.1-2.4,4.1-2.3,0,.1,1.4,5.2,1.5,5.3,0,0,6.2-3.6,6.2-3.6.1.2-2.2,7.1-2.1,7.3,0,0,2.2-1.3,2.3-1.3,0,.2,5.5,3,5.6,3.1,0,0,.8-.5.8-.4,0,.2-.2,6-.1,6.1,0,0,6.3-3.6,6.3-3.6,0,.2-.5,6.2-.4,6.4,0,0,.8-.5.8-.4,0,0,1.5,4.6,1.6,4.7,0,0,.8-.5.8-.4,0,.1,1.1,4.7,1.1,4.8,0,0,.8-.5.8-.4,0,.1.9,5.6.9,5.8,0,0,.8-.5.8-.5,0,.1.2,5.6.3,5.7,0,0,.8-.5.8-.5,0,.1-2.5,7.1-2.4,7.3,0,0,.9-.5.9-.5,0,.1,2.9,4.1,2.9,4.2,0,0,3.1-1.8,3.1-1.8.1.2-6.8,9.7-6.7,9.9,0,0,3.4-2,3.4-2,0,.1-.4,5.4-.3,5.5,0,0,.9-.5.9-.5,0,.1-1.3,6.4-1.2,6.6,0,0,.9-.6.9-.5,0,.1-.9,5.6-.8,5.7,0,0,2.4-1.4,2.4-1.4.2.3-6.5,9-6.3,9.2,0,0,3.4-2,3.4-2,.1.2,8.4,1.2,8.5,1.4.2.4,7.8-5.1,8-4.6.3.6,23.4-8.2,23.7-7.7,0,0,.8-.5.8-.4.1.2-3.4,7.9-3.3,8.1,0,0,1.4-.9,1.5-.8.2.4-10.8,11.8-10.6,12.2,0,0,6.9-4,6.9-4,.2.4-11.9,11.8-11.6,12.2,0,0,5.1-3,5.1-2.9.3.5-17.9,15.8-17.6,16.3,0,0,2.8-1.7,2.8-1.6.2.4-13.8,13.3-13.5,13.8,0,0,2.5-1.5,2.5-1.4.1.2-2.6,7.5-2.4,7.7,0,0,0,0,0,0,0,0,4,2.9,4.1,3,0,0,.8-.5.8-.5,0,.1.4,5.8.5,5.9,0,0,.8-.5.8-.5,0,.1.5,5.3.6,5.4,0,0,.1,0,.1,0,0,.1.9,5.3.9,5.4,0,0,.8-.5.8-.5,0,.1.3,5.7.4,5.9,0,0,.8-.5.8-.5,0,.1,0,5.8,0,5.9,0,0,.8-.5.8-.5.1.2-3.2,7.6-3.1,7.9,0,0,5.4-3.1,5.4-3.1.1.2-3.1,7.3-3,7.5,0,0,.9-.5.9-.5.1.2-5.1,8-4.9,8.2,0,0,1.5-.9,1.5-.9.1.2-4.3,8.5-4.2,8.7,0,0,1.1-.7,1.1-.6"/>
          <path class="cls-3" d="M21.8,165.7c0,0,3.4-2.1,3.5-2,.1.2-1.9,7.1-1.8,7.3,0,0,.7-.4.7-.4,0,.1,2.1,4.5,2.2,4.6,0,0,.8-.5.8-.4,0,.1,2.6,4.5,2.6,4.6,0,0,.8-.5.8-.4,0,.1,2.5,4.1,2.6,4.2,0,0,.8-.5.8-.4,0,.1,1.1,5.1,1.2,5.2,0,0,5.5-3.2,5.6-3.2,0,.2-.2,6.1,0,6.2,0,0,.8-.5.8-.5,0,.1-.9,6.4-.8,6.6,0,0,4.9-2.9,4.9-2.8,0,.1.1,5.6.2,5.8,0,0,.3-.2.3-.2,0,.1,2.8,3.8,2.9,3.9,0,0,7.4-4.3,7.4-4.3,0,.1-1.7,6-1.6,6.2,0,0,2.3-1.4,2.4-1.4,0,.1.2,5.8.3,5.9,0,0,4.8-2.8,4.8-2.8.2.3-8.7,10.4-8.6,10.6,0,0,5.8-3.4,5.8-3.4.1.2-4.3,8.3-4.2,8.4,0,0,1-.6,1-.6.1.2-2.8,6.9-2.7,7.1,0,0,1.1-.7,1.1-.6,0,.2-3.5,7.5-3.3,7.7,0,0,1.2-.7,1.2-.7.1.2-3.8,7.3-3.7,7.5,0,0,1.1-.7,1.1-.6.1.2-5,8.2-4.9,8.4,0,0,.6-.4.6-.4,0,.1,1,5.3,1.1,5.5,0,0,.9-.5.9-.5,0,.2-.7,6.3-.6,6.4,0,0,.8-.5.8-.5.1.2-3.5,7.4-3.4,7.6,0,0,1.6-.9,1.6-.9,0,.1,3.1,3.5,3.2,3.6,0,0,.8-.5.8-.5,0,.2-3,6.9-2.9,7,0,0,1.7-1,1.7-1,0,.1,4.5,3.2,4.5,3.3,0,0,.8-.5.8-.4,0,.1,2.3,4.2,2.4,4.3,0,0,.8-.5.8-.5,0,.1,4.2,3.8,4.3,3.9,0,0,1-.6,1-.6,0,.1,3.6,3.7,3.6,3.8,0,0,4.9-2.9,5-2.9,0,.1,6.1,1.9,6.2,2.1,0,0,1-.6,1.1-.6,0,.1,4.8,2.9,4.9,3,0,0,6.8-4,6.8-3.9,0,.1,4.5,2.6,4.6,2.7,0,0,1.7-1,1.8-1,0,.1,6.3,1.5,6.4,1.7,0,0,8.3-4.9,8.4-4.8,0,.1,7.4,1,7.5,1.2,0,0,1-.6,1-.6,0,.1,7.2,1.7,7.2,1.9,0,0,2-1.2,2-1.2,0,.1,1.8,5,1.8,5.1,0,0,5.9-3.4,5.9-3.4,0,.1,2.8,4.4,2.9,4.5,0,0,5.7-3.3,5.7-3.3,0,.1,1.1,4.9,1.1,5,0,0,.5-.3.5-.3.1.2,6.6,1.5,6.6,1.7,0,0,.6-.4.7-.4"/>
          <path class="cls-3" d="M23.3,165.9s5.8-3.4,5.8-3.3c0,.1,3.8,3.6,3.9,3.8,0,0,1-.6,1-.6,0,.1,5.5,2.5,5.5,2.6,0,0,.3-.2.3-.2,0,.1,5,2.8,5.1,3,0,0,.9-.6.9-.5,0,.1,1.2,5.2,1.3,5.3,0,0,1.1-.6,1.1-.6,0,.1,5.5,2,5.6,2.1,0,0,4.8-2.8,4.8-2.8,0,.1,1,5.2,1,5.4,0,0,2.7-1.6,2.7-1.5"/>
          <path class="cls-3" d="M84,104.9c.2.4,10.9-6.8,11.1-6.4.4.6-24.7,19-24.3,19.8,0,0,3.2-1.9,3.2-1.9.2.3-7.2,9.6-7.1,9.8,0,0,1.3-.8,1.3-.8,0,.1-.4,5.7-.3,5.9,0,0,4.2-2.5,4.2-2.4.2.3-9.3,10.2-9.1,10.5,0,0,5.3-3.1,5.3-3.1.1.2-6.4,9.3-6.3,9.5,0,0,4-2.4,4-2.3.1.2-4.5,8.1-4.4,8.3,0,0,4.7-2.7,4.7-2.7,0,.1-3.8,7.6-3.7,7.8,0,0,.9-.6.9-.5,0,.2-2.8,6.8-2.7,6.9,0,0,6.1-3.6,6.2-3.6.1.2-6.8,9.1-6.6,9.4,0,0,.4-.3.4-.3,0,.1-.9,5.6-.8,5.8,0,0,4.4-2.6,4.4-2.6"/>
          <path class="cls-3" d="M94.9,99.7c0,.1,8.9-5.3,9-5.2"/>
          <path class="cls-3" d="M113.6,80.1c0,.1.6-.5.7-.4,0,.2-5.2,8-5.1,8.2,0,0,.9-.6.9-.5,0,.1,0,5.4.2,5.5,0,0,2.3-1.4,2.3-1.3"/>
        </g>
        <path class="cls-3" d="M125.6,124.6c.1.2,12.4-7.4,12.5-7.2.3.4-14,12.9-13.7,13.4s19.1-11.7,19.4-11.2c.3.6-19.6,16.3-19.3,16.8.3.6,27.6-16.8,28-16.2.5.8-31.7,22.8-31.3,23.5.5.8,33.7-20.5,34.1-19.7"/>
        <path class="cls-3" d="M83.3,126.1c.2.3,5.7-3.6,5.8-3.3.2.3-9.7,10.5-9.5,10.8.4.6,20.4-12.7,20.8-12,.4.7-27.2,20.3-26.8,21.1.4.7,31-18.8,31.4-18.1.4.7-30.2,21.6-29.8,22.4.4.7,32-19.7,32.5-18.8.5.9-35.9,25.2-35.3,26.3.5.9,36.9-22.6,37.4-21.6s-40,27.7-39.5,28.6,34.8-21.1,35.2-20.4-34.4,24.2-34,25,34.1-20.8,34.6-20c.5.8-30.4,22.5-29.8,23.4.4.7,35.7-21.6,36.1-20.9.5.9-39.9,27.6-39.2,28.7,1.1,2,82.6-49.9,83.6-48.2,1.2,2.1-85,52.3-83.9,54.1,1.3,2.3,84.1-50.9,85.1-49.1,1.1,1.9-89.6,54.3-88.3,56.4,1.1,1.9,90.8-54.9,91.9-53.1,1.2,2.1-88.8,54.4-87.4,56.8,1.2,2,85.1-52,86.4-49.9,1.4,2.5-90.1,54.9-88.7,57.4s85.7-52.2,86.8-50.1c1.1,1.9-90.6,55.8-89.4,57.9s93.3-57.3,94.8-54.7-97.4,58.5-96,61,95.8-58.4,97.1-56.1c1.2,2.1-102.1,61.6-100.6,64.1s93.6-57.6,95.1-54.9c1.3,2.3-94.6,57.4-93.4,59.6,1.4,2.4,97.6-60.3,99.3-57.3,1.5,2.6-107.9,65.4-106.6,67.8,1.7,3,98.6-60.1,100-57.7s-103.8,62.6-102.3,65.1,106.7-65.1,108.2-62.5c1.3,2.3-108.4,65.4-107,67.9,1.3,2.2,103.7-63.6,105.3-60.8,1.3,2.2-100.5,60.1-98.9,62.8,1.7,3,100.9-61.5,102.3-59.1,1.6,2.7-102.9,62.4-101.7,64.6s99.1-60.6,100.6-58.1c1.2,2.1-97.8,59.3-96.6,61.5s97.3-59.1,98.6-56.9c1.8,3.1-101.7,61.5-100.3,64,1.2,2.1,95.7-59.1,97.4-56.2,1.2,2-97.9,58.8-96.5,61.3,1.2,2,93-56.5,94.2-54.4,1.4,2.5-91.6,55.1-90.2,57.5,1.2,2.1,96.7-58.9,98-56.6,1.1,1.9-91.5,55.4-90.1,57.9,1.3,2.3,86.1-52.8,87.4-50.5,1.1,1.8-80.1,49.2-78.7,51.6,1,1.8,81.3-49.4,82.3-47.5,1.1,2-67.9,43.2-67,44.8.8,1.5,65.7-40.5,66.8-38.6.9,1.5-64.5,40.9-63.7,42.4.8,1.4,65.7-40.1,66.7-38.5.8,1.3-58.9,37.5-58.2,38.8.6,1.1,58.6-35.6,59.3-34.2s-50.7,33.4-50,34.7c.5.9,44.4-27.3,45.1-26,.4.7-29.6,21.6-29.1,22.3s33.6-20.6,34.2-19.7c.4.7-30,22.2-29.6,23,.3.5,26.8-16.2,27.1-15.7"/>
        <g>
          <path class="cls-5" d="M88,137.6c0,.1,9-5.3,9-5.2,0,.1-.5,5.6-.4,5.8,0,0,2-1.2,2.1-1.2,0,.1,1.9,4.4,1.9,4.5,0,0,3.6-2.1,3.6-2.1"/>
          <path class="cls-5" d="M83.4,136.9c.1.2,4.4-2.8,4.5-2.6.1.2-8.5,9.9-8.4,10.1,0,0,2.5-1.6,2.6-1.5"/>
        </g>
        <g>
          <path class="cls-5" d="M135.9,137.6c0,.1,9-5.3,9-5.2,0,.1-.5,5.6-.4,5.8,0,0,2-1.2,2.1-1.2,0,.1,1.9,4.4,1.9,4.5,0,0,3.6-2.1,3.6-2.1"/>
          <path class="cls-5" d="M131.3,136.9c.1.2,4.4-2.8,4.5-2.6.1.2-8.5,9.9-8.4,10.1,0,0,2.5-1.6,2.5-1.5"/>
        </g>
        <g>
          <path class="cls-2" d="M103.6,151.1c0,0,2.6-1.6,2.6-1.5,0,0,3.2,3.3,3.3,3.4.2.3,7.1-4.4,7.2-4.2.2.3-7.4,9.5-7.2,9.8.2.3,15.2-9.2,15.4-8.9"/>
          <path class="cls-5" d="M104.1,151.9c0,0,8.3-4.9,8.4-4.9,0,.1,4.3,2.9,4.4,3,0,0,2.6-1.6,2.6-1.5,0,.1,4.9,2.7,5,2.8,0,0,3.4-2.1,3.5-2"/>
          <path class="cls-5" d="M102.7,150.5c0,.1,3.2-1.9,3.2-1.9,0,.1-1.9,6.2-1.8,6.3,0,0,1.6-1,1.6-.9,0,.1,1.9,4.4,1.9,4.5,0,0,3.3-2,3.3-1.9,0,.1,4.3,2.6,4.3,2.7.1.2,9.3-5.7,9.4-5.4"/>
        </g>
      </g>
    </g>
  </g>
</svg>