<?xml version="1.0" encoding="UTF-8"?>
<svg id="Outline" xmlns="http://www.w3.org/2000/svg" width="244.38" height="338.83" xmlns:xlink="http://www.w3.org/1999/xlink" viewBox="0 0 244.38 338.83">
  <defs>
    <style>
      .cls-1 {
        stroke-dasharray: 1 1;
      }

      .cls-1, .cls-2, .cls-3, .cls-4, .cls-5 {
        stroke-miterlimit: 10;
      }

      .cls-1, .cls-2, .cls-4, .cls-5 {
        stroke: #231f20;
      }

      .cls-1, .cls-6, .cls-4, .cls-5, .cls-7 {
        stroke-width: 2px;
      }

      .cls-1, .cls-3, .cls-4, .cls-8, .cls-5 {
        fill: none;
      }

      .cls-9 {
        fill: #603913;
      }

      .cls-2 {
        fill: #8b5e3c;
      }

      .cls-10, .cls-6 {
        fill: #fff;
      }

      .cls-11, .cls-6, .cls-12 {
        stroke: #fff;
      }

      .cls-11, .cls-6, .cls-12, .cls-8, .cls-7 {
        stroke-linecap: round;
        stroke-linejoin: round;
      }

      .cls-11, .cls-7 {
        fill: #fbb040;
      }

      .cls-12 {
        fill: #231f20;
      }

      .cls-3 {
        stroke: #939598;
        stroke-width: 5px;
      }

      .cls-13 {
        fill: #939598;
      }

      .cls-8 {
        stroke-width: 3px;
      }

      .cls-8, .cls-7 {
        stroke: #414042;
      }

      .cls-5 {
        stroke-dasharray: .89 .89;
      }

      .cls-14 {
        fill: url(#linear-gradient);
      }
    </style>
    <linearGradient id="linear-gradient" x1="8.18" y1="194.01" x2="238.78" y2="194.01" gradientUnits="userSpaceOnUse">
      <stop offset="0" stop-color="gold"/>
      <stop offset="0" stop-color="gold"/>
      <stop offset="1" stop-color="#ffb14e"/>
    </linearGradient>
  </defs>
  <rect class="cls-13" x="3.37" width="240.21" height="338.83" rx="5" ry="5"/>
  <rect class="cls-14" x="8.18" y="54.96" width="230.6" height="278.1"/>
  <path class="cls-11" d="M94.33,308.76c.11.31,1.93,6.01-1.81,10.46-2.73,3.25-6.55,3.61-7.32,3.67-1.34.14-3.94.22-6.79-1.03-4.91-2.17-6.79-6.67-7.19-7.7-.51.48-3.52,3.27-8.13,3.04-4.81-.25-7.57-3.59-7.99-4.12.22-1.37.77-3.66,2.35-6.01,2.41-3.58,5.71-5.08,7.05-5.6"/>
  <path class="cls-11" d="M150.09,311.33c-.11.31-1.93,6.01,1.81,10.46,2.73,3.25,6.55,3.61,7.32,3.67,1.34.14,3.94.22,6.79-1.03,4.91-2.17,6.79-6.67,7.19-7.7.51.48,3.52,3.27,8.13,3.04,4.81-.25,7.57-3.59,7.99-4.12-.22-1.37-.77-3.66-2.35-6.01-2.41-3.58-5.71-5.08-7.05-5.6"/>
  <path class="cls-12" d="M183.42,231.13c1.86,8.28,3.43,15.13,4.57,19.98,3.17,13.61,4.05,16.95,4.23,22.88.19,6.22.3,12.6-3.23,19.44-2.72,5.29-6.5,8.68-9.06,10.6-2.31,1.98-6.78,5.27-13.3,7.02-7.35,1.98-13.51.98-16.53.28-10.21-2.7-20.43-5.4-30.64-8.1-4.65,1.46-10.5,2.88-17.33,3.57-6.33.65-11.31.4-15.45.2-3.33-.15-7.25-.35-12.36-1.22-5.16-.87-9.44-2.06-12.63-3.1-6.85-7.58-9.26-14.86-10.35-19.18-3.12-12.4.06-22.6,1.48-26.46,2.42-6.01,4.78-13.3,6.39-21.74.85-4.47,1.37-8.68,1.67-12.55-26.28-24.29-38.12-38.27-35.53-41.92,2.26-3.19,15.49,1.47,39.7,13.97.3-10.47.94-18.96,1.51-24.99.5-5.26.86-7.76,1.11-9.43.52-3.46,2.22-14.24,5.44-20.66.25-.49,1.79-3.52,3.9-7.42.93-1.73,1.87-3.44,2.15-3.92,3.23-5.65,10.5-9.71,13.5-11.34,4.28-2.33,11.4-5.57,21.16-7.15-.34-.68-2.51-5.2-.41-10.06,1.32-3.07,3.66-4.68,4.64-5.27,3.07,2.95,6.14,5.89,9.21,8.84,1.86-2.09,4.65-4.68,8.53-6.82,1.64-.9,3.21-1.59,4.64-2.09,1.15.33,1.84.9,2.21,1.28,1.64,1.67,1.91,4.57.74,7.35-.98,2.35-1.97,4.69-2.95,7.03,4.53,1.07,19.81,5.29,30.63,20.05,7.09,9.66,9.04,19.44,9.68,24.5,1.04,6.11,1.82,13.89,1.41,22.88-.39,8.54-1.74,15.88-3.23,21.68,4.02-2.23,9.36-5.11,15.72-8.31,15.92-8,23.94-11.96,26.77-9.91,5.67,4.11-33.24,48-37.99,50.08Z"/>
  <path class="cls-6" d="M76.89,172.08c1.53,16.28.5,29.3-.76,38.28-1.22,8.72-2.48,11.67-4.99,21.41-.48,1.87-2.98,10.54-4.67,20.26-.73,4.21-1.45,9.38-1.9,15.35.55,4.63,2.65,16.89,11.94,23.53,5.12,3.66,10.85,5.27,17.81,5.58,5.53.25,11.09.51,16.68.8,6.16.31,12.29.65,18.38,1,6.98.16,17.88.27,25.39-.4.41-.04.94-.09,1.59-.18,0,0,.65-.1,1.25-.22,1.04-.21,5.29-2.95,10.61-7.38,2.23-4.58,4.43-10.84,4.55-18.34.07-4.45-.73-7.2-2.46-16.95-1.14-6.45-2.27-12.9-3.41-19.34-1.3-7.34-2.88-18.07-3.79-31.9,1.46-8.09,2.81-21.41-.57-37.09-2.17-10.08-5.66-18.14-8.72-23.93-2.89-3.25-5.85-4.83-7.58-5.58-2.41-1.05-7.75-3.38-12.89-.8-2.6,1.31-4.15,3.37-4.93,4.59-1.25,2.4-2.5,5.19-3.6,8.37-2.29,6.64-3.09,12.67-3.33,17.32-2.17-.32-4.35-.64-6.52-.97h-3.41c-.06-3.72-.42-8.28-1.52-13.36-.84-3.91-1.93-7.32-3.03-10.17-1.05-.91-4.43-3.58-9.48-3.79-4.85-.21-8.32,1.99-9.48,2.79-2.27,1.95-5.76,5.48-8.34,10.97-4.11,8.74-3.32,16.93-2.84,20.14Z"/>
  <path class="cls-8" d="M83.3,158.94c.34-1.15,1.33-3.94,4.05-6.02.72-.55,5.06-3.88,9.45-1.88,3.18,1.44,5.16,5.11,4.84,9.11"/>
  <path class="cls-8" d="M131.93,159.8c.34-1.15,1.33-3.94,4.05-6.02.72-.55,5.06-3.88,9.45-1.88,3.18,1.44,5.16,5.11,4.84,9.11"/>
  <path class="cls-7" d="M125.92,166.26c-.16-.77-.87-.92-11.02-1.02-7.05-.07-8.18-.02-8.43,1.02-.53,2.28,3.48,8.33,8.1,9.2,6,1.13,11.86-6.66,11.34-9.2Z"/>
  <rect class="cls-10" x="8.18" y="5.78" width="230.6" height="49.18"/>
  <path class="cls-13" d="M196.21,5.17h43.8v15.76h-40.8c-1.66,0-3-1.34-3-3V5.17h0Z"/>
  <g>
    <path d="M50.48,20.84h11.14c2.42,0,4.38.65,5.89,1.95,1.51,1.3,2.27,2.87,2.27,4.72,0,2.56-1.43,4.45-4.28,5.67,1.25.53,2.44,1.96,3.57,4.28,1.13,2.32,2.22,4.51,3.27,6.57h-6.81c-.41-.76-1.12-2.22-2.13-4.37-1.01-2.15-1.88-3.52-2.6-4.13-.72-.61-1.49-.91-2.31-.91h-1.78v9.41h-6.21v-23.19ZM56.69,25.09v5.28h3.28c1.05,0,1.88-.23,2.49-.69.61-.46.92-1.11.92-1.97,0-1.75-1.18-2.62-3.55-2.62h-3.14Z"/>
    <path d="M91.83,40.17v2.74c-1.76.95-3.41,1.43-4.96,1.43-1.67,0-2.65-.59-2.96-1.76-1.84,1.17-3.69,1.76-5.55,1.76-1.31,0-2.42-.39-3.34-1.16s-1.37-1.67-1.37-2.69c0-1.36.47-2.46,1.42-3.3.95-.84,3.81-1.92,8.59-3.23.12-1.75-.86-2.62-2.93-2.62-2.25,0-4.32.87-6.21,2.62v-4.02c2.21-1.27,4.65-1.91,7.3-1.91,4.76,0,7.14,1.59,7.14,4.77v7.15c0,.73.29,1.1.87,1.1.44,0,1.11-.29,2-.88ZM83.65,40.23v-3.8c-1.77.58-2.99,1.1-3.65,1.56s-.99,1.05-.99,1.76c0,.46.17.85.5,1.17.33.33.74.49,1.21.49,1,0,1.97-.39,2.93-1.18Z"/>
    <path d="M99.43,20.84v23.19h-5.3v-23.19h5.3Z"/>
    <path d="M109.12,28.36v1.36c1.42-1.13,3.02-1.69,4.82-1.69,2.19,0,4.04.77,5.55,2.31s2.27,3.43,2.27,5.67c0,2.52-.76,4.53-2.28,6.05-1.52,1.52-3.52,2.28-6.02,2.28-1.55,0-2.99-.36-4.34-1.08v8.6h-5.3v-23.49h5.3ZM109.12,32.8v7.21c1,.69,2.02,1.03,3.07,1.03,1.28,0,2.3-.43,3.06-1.29.75-.86,1.13-2.02,1.13-3.48s-.35-2.66-1.04-3.49c-.7-.83-1.67-1.25-2.94-1.25-1.06,0-2.15.42-3.28,1.26Z"/>
    <path d="M130.6,20.84v9.81h.07c1.47-1.75,3.25-2.62,5.33-2.62,1.8,0,3.28.53,4.44,1.59s1.74,2.53,1.74,4.41v10h-5.3v-8.96c0-2.28-.91-3.42-2.73-3.42-1.2,0-2.38.79-3.55,2.38v10.01h-5.3v-23.19h5.3Z"/>
  </g>
  <g>
    <path class="cls-10" d="M205.44,6.85h3.92c.85,0,1.54.23,2.07.69s.8,1.01.8,1.67c0,.9-.5,1.57-1.51,2,.44.19.86.69,1.25,1.51s.78,1.59,1.15,2.32h-2.4c-.14-.27-.39-.78-.75-1.54s-.66-1.24-.91-1.46-.52-.32-.81-.32h-.63v3.32h-2.18V6.85ZM207.62,8.35v1.86h1.16c.37,0,.66-.08.88-.24.22-.16.32-.39.32-.69,0-.62-.42-.93-1.25-.93h-1.1Z"/>
    <path class="cls-10" d="M219.98,13.67v.97c-.62.34-1.2.5-1.75.5-.58,0-.93-.21-1.04-.62-.65.41-1.3.62-1.95.62-.46,0-.85-.14-1.17-.41s-.48-.59-.48-.95c0-.48.17-.87.5-1.17s1.34-.68,3.02-1.14c.04-.62-.3-.93-1.03-.93-.79,0-1.52.31-2.18.93v-1.42c.78-.45,1.63-.67,2.57-.67,1.67,0,2.51.56,2.51,1.68v2.52c0,.26.1.39.31.39.16,0,.39-.1.7-.31ZM217.11,13.69v-1.34c-.62.2-1.05.39-1.28.55s-.35.37-.35.62c0,.16.06.3.18.41.12.12.26.17.43.17.35,0,.69-.14,1.03-.42Z"/>
    <path class="cls-10" d="M222.67,9.5v1.58h.02c.54-1.13,1.17-1.7,1.89-1.7.34,0,.75.17,1.24.5l-.51,1.54c-.46-.27-.83-.41-1.1-.41-.43,0-.79.25-1.09.75-.29.5-.44.79-.44.87v2.39h-1.86v-5.53h1.86Z"/>
    <path class="cls-10" d="M232.04,13.32v1.1c-.71.48-1.59.73-2.64.73s-1.88-.26-2.5-.78c-.62-.52-.94-1.21-.94-2.07s.29-1.54.88-2.08,1.33-.82,2.24-.82,1.66.29,2.24.86c.58.57.86,1.34.82,2.3h-4.25c.04.5.23.89.57,1.16.34.27.8.41,1.38.41.7,0,1.43-.26,2.2-.79ZM227.93,11.63h2.57c-.1-.8-.53-1.21-1.29-1.21s-1.2.4-1.29,1.21Z"/>
  </g>
  <line class="cls-3" x1="5.96" y1="54.96" x2="243.59" y2="54.96"/>
  <ellipse class="cls-2" cx="123.48" cy="122.7" rx="56.63" ry="7.93"/>
  <path class="cls-2" d="M157.84,117.54c-9.75,2.04-22.2,3.75-36.66,3.55-12.43-.17-23.26-1.71-32.05-3.55,2.84-16.62,5.67-33.25,8.51-49.87,1.3-.5,3.41-1.17,6.04-1.3,10.41-.52,13.17,8.15,21.43,7.94,8-.2,10.4-8.45,19.92-7.94,2.76.15,4.96.97,6.34,1.6,2.16,16.52,4.32,33.05,6.48,49.57Z"/>
  <g>
    <path class="cls-9" d="M93.23,102.78c6.93,2.16,16.64,4.39,28.37,4.64,13.8.29,25.09-2.28,32.64-4.64l.48-9.02c-7.56,2.36-18.84,4.92-32.64,4.64-11.73-.24-21.44-2.47-28.37-4.64l-.48,9.02Z"/>
    <g>
      <path class="cls-4" d="M93.26,102.28l-.03.5c.16.05.32.1.48.15"/>
      <path class="cls-1" d="M94.67,103.22c6.81,2.02,15.99,3.97,26.94,4.2,13.23.28,24.15-2.07,31.69-4.34"/>
      <path class="cls-4" d="M153.77,102.93c.16-.05.32-.1.47-.15l.03-.5"/>
      <line class="cls-5" x1="154.32" y1="101.39" x2="154.67" y2="94.71"/>
      <path class="cls-4" d="M154.7,94.26l.03-.5c-.16.05-.32.1-.47.15"/>
      <path class="cls-1" d="M153.3,94.2c-7.52,2.23-18.26,4.47-31.22,4.2-11.2-.23-20.56-2.27-27.41-4.34"/>
      <path class="cls-4" d="M94.19,93.91c-.16-.05-.32-.1-.48-.15l-.03.5"/>
      <line class="cls-5" x1="93.64" y1="95.15" x2="93.28" y2="101.84"/>
    </g>
  </g>
</svg>