<?xml version="1.0" encoding="UTF-8"?>
<svg id="Outline" xmlns="http://www.w3.org/2000/svg" width="244.38" height="338.83" xmlns:xlink="http://www.w3.org/1999/xlink" viewBox="0 0 244.38 338.83">
  <defs>
    <style>
      .cls-1 {
        stroke: #b0bec5;
      }

      .cls-1, .cls-2, .cls-3, .cls-4, .cls-5 {
        fill: none;
      }

      .cls-1, .cls-2, .cls-3, .cls-5 {
        stroke-linecap: round;
        stroke-linejoin: round;
        stroke-width: 3px;
      }

      .cls-2 {
        stroke: #fbae00;
      }

      .cls-6 {
        fill: #fff;
      }

      .cls-3 {
        stroke: #fff;
      }

      .cls-4 {
        stroke: #939598;
        stroke-miterlimit: 10;
        stroke-width: 5px;
      }

      .cls-7 {
        fill: #939598;
      }

      .cls-5 {
        stroke: #414042;
      }

      .cls-8 {
        fill: url(#linear-gradient);
      }
    </style>
    <linearGradient id="linear-gradient" x1="8.18" y1="194.01" x2="238.78" y2="194.01" gradientUnits="userSpaceOnUse">
      <stop offset="0" stop-color="#4682e4"/>
      <stop offset=".33" stop-color="#3d84e9"/>
      <stop offset=".85" stop-color="#268df9"/>
      <stop offset="1" stop-color="#1e90ff"/>
    </linearGradient>
  </defs>
  <rect class="cls-7" x="3.37" width="240.21" height="338.83" rx="5" ry="5"/>
  <rect class="cls-8" x="8.18" y="54.96" width="230.6" height="278.1"/>
  <g>
    <g>
      <path class="cls-2" d="M60.43,286.97c.11.2,3.25-2.07,3.33-1.92.09.16-4.65,7.74-4.55,7.91.27.46,13.64-8.5,13.91-8.03.24.41-13.99,13.09-13.75,13.52s20.76-12.54,21-12.12c.16.27-10.01,10.57-9.82,10.89.21.36,16.74-10.33,17.03-9.83.23.39-13.87,13.31-13.59,13.8s21.72-13.23,22.02-12.71-20.2,16.84-19.92,17.33c.25.43,17.31-10.49,17.53-10.12"/>
      <path class="cls-3" d="M91.52,293.17s5.92-3.44,5.93-3.42c.1.17-2.59,6.77-2.48,6.96.02.03.54-.35.56-.32"/>
      <path class="cls-3" d="M60.11,286.59c.11.2,3.2-2.05,3.29-1.9.14.24-8.82,10.05-8.68,10.3.02.03,1.08-.67,1.1-.64.06.1,2.45,4.02,2.52,4.13.01.02,2.49-1.47,2.5-1.45.07.12,6.28,1.41,6.36,1.55s6.73-4.15,6.85-3.95c.08.13-.93,6.27-.83,6.43.01.02,4.76-2.78,4.77-2.75.09.16-3.06,7.39-2.97,7.55.01.03,2.26-1.34,2.28-1.31.06.11,5.33,2.21,5.39,2.31.03.05,2.29-1.39,2.32-1.34"/>
    </g>
    <g>
      <path class="cls-2" d="M171.33,302.11c.22.37,18.06-10.79,18.22-10.52.2.34-9.76,10.66-9.55,11.04.14.24,9.1-5.56,9.24-5.33"/>
      <path class="cls-2" d="M149.86,295.83c.05.09,2.82-1.72,2.86-1.65.05.08,1.16,4.5,1.21,4.59.3.52,15.75-9.8,16.06-9.27s-17.91,15.22-17.61,15.75c.38.66,30.75-18.6,31.12-17.96.34.58-25,18.75-24.61,19.43.36.63,28.83-17.79,29.33-16.93"/>
      <path class="cls-3" d="M177.5,289.22s5.49-3.21,5.51-3.18c.05.09,1.6,4.93,1.67,5.06.01.02.83-.51.84-.49.07.12,2.49,4.22,2.57,4.34.01.02.13-.1.14-.08"/>
      <path class="cls-3" d="M174.05,301.49s.89-.55.9-.52c.06.1,2.75,4.02,2.82,4.15.02.04,3.37-2.01,3.4-1.96"/>
      <path class="cls-3" d="M169.85,302.45s6.59-3.85,6.61-3.82"/>
      <path class="cls-3" d="M149.42,295.51s1.12-.68,1.14-.66c.06.11-1.3,5.89-1.24,6,.01.02.84-.52.86-.49.06.11,1.37,4.64,1.44,4.75.01.02,2.36-1.39,2.37-1.37.05.09,3.71,2.94,3.77,3.04.01.02,1.05-.65,1.07-.62.06.11,4.32,2.95,4.4,3.09.12.21,11.46-6.91,11.59-6.69"/>
    </g>
    <g>
      <path class="cls-1" d="M25.05,165.18c.05.09,3.09-1.91,3.15-1.82.11.18-4.08,7.83-3.95,8.06.11.19,10.3-6.29,10.45-6.03.17.29-7.77,9.92-7.64,10.15.2.35,11.86-7.29,12.05-6.96.14.24-5.63,8.6-5.49,8.85.24.42,17.42-10.46,17.6-10.16.3.51-18.17,14.98-17.84,15.54.27.47,20.52-12.39,20.76-11.98.29.49-17.11,15.19-16.88,15.6.28.49,21.16-12.87,21.45-12.38.3.52-17.66,15.23-17.33,15.8s23.59-14.36,23.91-13.81c.21.37-15.28,13.9-15.05,14.29,2.2,3.81,123.49-75.19,125.17-72.27,1.94,3.36-128.81,75.32-126.89,78.64,1.64,2.85,129.98-78.99,131.69-76.03,1.59,2.75-130.12,76.39-128.26,79.61,2.01,3.48,122.15-75.14,124.15-71.68s-122.82,71.6-120.81,75.08c1.44,2.49,124.13-75.98,126-72.74,2,3.46-124.99,74.91-123.5,77.5s118.76-72.32,120.38-69.5c2.01,3.48-115.91,69.09-114.28,71.91,1.94,3.35,119.51-73.06,121.27-70.02s-125.41,74.14-123.74,77.04c1.82,3.16,122.11-74.31,123.76-71.45S54.5,222.98,56.43,226.31s120.71-74.07,122.6-70.79c1.53,2.65-123.09,73.46-121.58,76.08,1.87,3.24,120.65-74.07,122.56-70.76,1.54,2.66-125.06,73.45-123.19,76.68s120.47-73.02,121.97-70.42c2.19,3.79-131.68,77.85-129.92,80.9,1.53,2.64,126.88-77.92,128.9-74.42,1.63,2.83-127.56,75.51-125.97,78.26,2.04,3.53,125.51-76.53,127.27-73.48,2.26,3.92-131.87,77.62-129.89,81.06,2.36,4.08,152.97-94.37,155.59-89.83,2.19,3.8-156.14,91.57-154.06,95.17,2.64,4.58,164.6-101.19,167.27-96.57,2.18,3.77-170.6,99.18-168.46,102.89,1.94,3.35,162.43-99.72,165-95.26,2.31,4-167.09,97.21-164.99,100.85,1.94,3.35,156.17-95.59,158.52-91.52,1.94,3.36-154,89.5-151.9,93.12,2.31,4,148.99-91.21,151.24-87.32,1.94,3.36-155.29,89.75-152.88,93.92,1.93,3.34,141.42-85.64,143.15-82.65,1.99,3.45-138.01,81.32-136.17,84.49,1.98,3.43,116.92-72.18,118.95-68.67,1.7,2.94-116.22,68.61-114.58,71.46,1.78,3.09,117.42-72.33,119.39-68.93,1.59,2.75-111.67,66.74-110.11,69.46s106.33-65.33,108.04-62.37c1.32,2.28-100.43,60.05-98.98,62.55,1.57,2.73,103.62-63.26,105.11-60.69,1.69,2.93-100.68,61.28-99.42,63.47,1.61,2.79,98.73-60.63,100.3-57.91,1.18,2.04-85.74,52.13-84.6,54.11s81.2-49.65,82.4-47.57c.98,1.7-71.44,44.86-70.3,46.84.83,1.44,71.21-43.36,72.18-41.68s-61.75,38.8-60.85,40.35,64.49-39.35,65.41-37.76c.98,1.69-59.88,38.27-58.86,40.03.71,1.23,58.84-36.06,59.75-34.5.79,1.36-59.42,37.98-58.55,39.48.78,1.35,57.69-35.09,58.46-33.75.73,1.27-50.79,33.87-50.06,35.14.55.95,43.47-26.64,44.13-25.48.4.69-31.06,22.31-30.57,23.15.41.71,27.85-17.01,28.25-16.31.22.39-15.69,14.56-15.45,14.98.21.36,9.03-5.63,9.21-5.32"/>
      <path class="cls-1" d="M82.69,107.07c.25.43,19.85-11.88,20.03-11.56.44.76-25.72,19.26-25.24,20.1.94,1.62,63.6-38.78,64.49-37.24,1.01,1.75-66.83,42.1-65.9,43.71.85,1.47,71-43.31,72-41.57,1.08,1.87-76.8,47.6-75.86,49.25,1.04,1.8,72.3-44.15,73.34-42.34,1.13,1.95-79.37,48.38-78.06,50.66,1.2,2.08,73.07-44.84,74.22-42.85s-77.36,47.72-76.4,49.38c1.24,2.15,82.2-50.16,83.37-48.13,1.43,2.47-85.04,51.31-83.57,53.86,1.29,2.24,83.97-50.97,85.05-49.1s-81.98,49.84-80.76,51.96c1.33,2.31,89.63-54.39,90.77-52.41,1.34,2.33-96.83,58.76-95.35,61.33,1.32,2.28,95.49-58.64,97.01-56.01,1.31,2.26-98.99,59.62-97.4,62.39s104.81-64.48,106.53-61.51c1.5,2.6-105.37,62.56-103.79,65.31s103.85-63.31,105.31-60.8"/>
      <path class="cls-1" d="M116.8,79.66c.06.11.23-.24.28-.16.06.1-.54,5.46-.48,5.56.15.26,6.68-4.21,6.83-3.94.18.31-9.88,10.85-9.69,11.18.16.27,13.64-8.22,13.79-7.96"/>
      <path class="cls-3" d="M116.58,80.3s4.68-2.73,4.69-2.71c.09.15-2.88,6.81-2.79,6.97.01.02.33-.22.34-.2.09.15,4.74,3.09,4.81,3.21.21.37,21.16-12.74,21.39-12.35.07.13-1.71,6.01-1.63,6.15.01.02.76-.47.77-.45.06.11,1.28,4.46,1.34,4.56.02.03,1.72-1.04,1.74-1.01.18.31-8.73,9.91-8.53,10.25.02.03,6.65-3.87,6.66-3.85.08.14.4,5.95.47,6.07.01.03,5.59-3.26,5.6-3.23.09.15-2.58,6.56-2.51,6.69.01.02,4.06-2.38,4.08-2.35.06.11,1.41,5.15,1.47,5.27.01.03,6.19-3.6,6.2-3.58.1.17-2.18,7.13-2.09,7.3.01.02,2.25-1.32,2.26-1.3.09.16,5.5,2.97,5.58,3.1.01.02.77-.47.78-.45.09.15-.22,5.98-.14,6.12.01.02,6.26-3.64,6.27-3.62.09.16-.5,6.22-.4,6.39.01.02.75-.46.76-.44.06.1,1.54,4.63,1.6,4.73,0,.02.75-.46.76-.44.07.12,1.09,4.74,1.15,4.85,0,.02.76-.46.77-.45.07.12.86,5.64.94,5.78.01.02.78-.47.79-.46.08.13.25,5.59.32,5.72.01.02.81-.49.82-.47.08.14-2.52,7.14-2.42,7.3.01.02.86-.52.87-.5.07.12,2.87,4.05,2.94,4.17.01.02,3.08-1.81,3.09-1.78.14.24-6.82,9.7-6.69,9.93.01.02,3.4-1.99,3.42-1.97.08.13-.36,5.43-.3,5.53.01.02.88-.53.89-.51.09.15-1.29,6.42-1.21,6.55.02.03.91-.56.93-.54.08.14-.85,5.62-.79,5.73.01.02,2.35-1.39,2.36-1.36.16.29-6.46,8.97-6.3,9.23.01.03,3.42-2.01,3.43-1.98.12.21,8.35,1.24,8.46,1.43.21.37,7.81-5.05,8.04-4.64.34.59,23.4-8.21,23.7-7.69,0,.02.75-.47.77-.44.12.21-3.38,7.91-3.29,8.07.02.04,1.44-.87,1.46-.84.22.38-10.81,11.82-10.6,12.18.03.06,6.87-4.04,6.9-3.99.2.35-11.85,11.79-11.61,12.19.03.06,5.06-2.98,5.08-2.93.28.48-17.95,15.8-17.64,16.32.04.07,2.78-1.69,2.82-1.63.2.35-13.81,13.26-13.52,13.75.01.02,2.49-1.47,2.5-1.44.1.17-2.55,7.5-2.44,7.67.01.02,0-.03,0,0,.05.09,4.01,2.93,4.07,3.02,0,.02.78-.48.8-.46.06.11.39,5.8.46,5.93.01.02.78-.48.8-.46.08.14.49,5.32.56,5.45.01.02.1-.08.11-.06.06.1.88,5.32.94,5.43.01.02.79-.48.8-.46.08.14.31,5.74.39,5.88.01.02.79-.48.8-.46.09.15.01,5.77.08,5.88.01.02.82-.5.83-.48.1.17-3.2,7.64-3.07,7.86.01.02,5.4-3.15,5.42-3.13.1.16-3.06,7.34-2.97,7.5.01.02.9-.55.92-.53.14.24-5.07,7.96-4.95,8.18.02.03,1.48-.89,1.49-.86.11.18-4.33,8.47-4.19,8.7.03.05,1.1-.68,1.12-.65"/>
      <path class="cls-3" d="M24.61,164.88c.05.08,3.42-2.09,3.47-2,.1.18-1.92,7.15-1.82,7.32.01.02.73-.44.74-.43.07.13,2.11,4.53,2.18,4.65.01.02.75-.46.76-.44.06.1,2.58,4.47,2.65,4.6.01.02.76-.46.77-.45.07.11,2.51,4.09,2.58,4.2,0,.02.77-.47.78-.45.07.12,1.11,5.06,1.19,5.2.01.02,5.55-3.23,5.56-3.21.09.16-.16,6.08-.09,6.21.01.02.78-.48.79-.46.09.15-.86,6.44-.78,6.58.01.02,4.91-2.86,4.92-2.84.06.1.14,5.63.21,5.75,0,.02.33-.22.34-.2.07.12,2.81,3.75,2.88,3.87.01.02,7.37-4.28,7.38-4.26.08.14-1.7,6.04-1.63,6.16.01.02,2.35-1.38,2.36-1.36.07.11.2,5.81.27,5.94.02.03,4.81-2.8,4.82-2.78.15.26-8.7,10.39-8.56,10.64.02.03,5.83-3.4,5.85-3.38.14.24-4.32,8.26-4.21,8.45.02.03,1.02-.63,1.04-.6.11.19-2.78,6.91-2.68,7.07.02.03,1.07-.66,1.09-.63.1.17-3.47,7.52-3.35,7.73.02.03,1.16-.71,1.17-.68.12.2-3.78,7.3-3.66,7.51.02.03,1.12-.68,1.13-.65.11.19-5.05,8.16-4.94,8.36.01.02.62-.39.63-.37.06.11,1.03,5.35,1.12,5.49.01.02.89-.54.9-.52.09.16-.72,6.26-.62,6.43,0,.02.83-.5.84-.48.11.19-3.53,7.41-3.41,7.62.01.02,1.6-.94,1.61-.93.07.12,3.13,3.46,3.18,3.56.01.02.76-.47.78-.45.1.17-2.95,6.89-2.87,7.03,0,.02,1.68-1,1.7-.98.07.11,4.46,3.2,4.52,3.31,0,.02.75-.46.76-.44.06.1,2.31,4.21,2.38,4.33.01.02.78-.47.79-.46.07.12,4.23,3.76,4.28,3.86.01.02.97-.59.98-.57.08.14,3.58,3.68,3.64,3.79.02.03,4.95-2.89,4.96-2.87.09.15,6.06,1.9,6.16,2.06.02.04,1.03-.63,1.05-.6.08.13,4.81,2.89,4.88,3.03.02.03,6.78-3.96,6.8-3.92.07.12,4.53,2.6,4.58,2.7.03.05,1.73-1.05,1.75-1.01.08.14,6.28,1.52,6.36,1.66.03.06,8.35-4.89,8.38-4.84.08.14,7.36.99,7.47,1.18.02.04.98-.62,1-.58.09.15,7.16,1.74,7.25,1.9.02.03,2.02-1.2,2.03-1.17.06.11,1.76,4.99,1.82,5.09.02.03,5.89-3.44,5.91-3.41.06.11,2.79,4.38,2.85,4.48.02.03,5.66-3.3,5.68-3.28.06.11,1.05,4.89,1.13,5.02.01.02.46-.3.48-.28.1.17,6.56,1.54,6.64,1.68.02.03.65-.42.67-.39"/>
      <path class="cls-3" d="M26.12,165.03s5.76-3.37,5.78-3.34c.05.1,3.84,3.64,3.91,3.76.02.03.98-.6,1-.58.08.15,5.46,2.47,5.55,2.62.02.03.27-.18.28-.16.08.15,5.04,2.84,5.1,2.96.01.02.92-.57.94-.54.07.12,1.23,5.16,1.31,5.29.02.03,1.06-.64,1.07-.62.08.13,5.53,1.96,5.59,2.07.01.02,4.8-2.81,4.82-2.78.06.11.98,5.25,1.05,5.37.02.03,2.65-1.58,2.67-1.54"/>
      <path class="cls-3" d="M86.86,104.11c.23.41,10.86-6.85,11.11-6.41.37.64-24.74,19.02-24.29,19.8.02.03,3.2-1.91,3.22-1.86.16.28-7.22,9.61-7.09,9.84.02.04,1.31-.8,1.33-.77.08.13-.43,5.74-.35,5.88.02.03,4.2-2.46,4.22-2.43.17.3-9.3,10.17-9.11,10.5.02.03,5.33-3.11,5.34-3.09.14.24-6.38,9.27-6.26,9.48.02.03,4.01-2.35,4.02-2.32.12.21-4.5,8.09-4.37,8.31.02.03,4.68-2.74,4.7-2.71.09.15-3.81,7.58-3.72,7.75.02.03.91-.56.92-.53.1.17-2.83,6.79-2.73,6.95.01.02,6.15-3.58,6.17-3.56.12.21-6.77,9.15-6.63,9.39.01.03.43-.28.44-.26.08.14-.88,5.65-.8,5.79.01.02,4.43-2.59,4.44-2.56"/>
      <path class="cls-3" d="M97.75,98.83c.06.11,8.93-5.27,8.98-5.19"/>
      <path class="cls-3" d="M116.47,79.31c.07.12.62-.48.67-.39.1.17-5.16,8.03-5.06,8.21.01.03.91-.56.92-.53.07.12.08,5.36.15,5.49,0,.02,2.32-1.36,2.32-1.34"/>
    </g>
    <path class="cls-3" d="M128.44,123.79c.12.21,12.4-7.37,12.49-7.21.26.45-13.96,12.93-13.67,13.43s19.15-11.69,19.43-11.22c.33.57-19.61,16.29-19.31,16.82.32.56,27.61-16.83,27.99-16.16.47.81-31.73,22.82-31.32,23.53.47.82,33.66-20.52,34.13-19.7"/>
    <path class="cls-3" d="M86.18,125.3c.16.27,5.68-3.55,5.8-3.35.15.26-9.66,10.51-9.51,10.78.38.65,20.43-12.67,20.81-12.01.42.72-27.24,20.3-26.81,21.06.38.66,31.05-18.78,31.42-18.14.4.69-30.25,21.61-29.78,22.42.4.69,31.97-19.72,32.51-18.77.52.9-35.91,25.2-35.26,26.31.52.9,36.88-22.56,37.43-21.61s-40.02,27.72-39.49,28.63,34.79-21.13,35.24-20.35-34.41,24.25-33.96,25.03,34.09-20.84,34.59-19.97c.46.8-30.37,22.48-29.82,23.44.43.74,35.71-21.61,36.14-20.87.52.9-39.88,27.56-39.23,28.69,1.14,1.98,82.61-49.93,83.58-48.25,1.21,2.09-84.97,52.28-83.94,54.06,1.35,2.33,84.1-50.86,85.09-49.13,1.09,1.88-89.58,54.32-88.35,56.45,1.08,1.87,90.83-54.91,91.9-53.06,1.19,2.07-88.75,54.44-87.41,56.76,1.17,2.02,85.14-51.96,86.36-49.86,1.44,2.5-90.13,54.86-88.68,57.36s85.65-52.22,86.85-50.14c1.09,1.88-90.63,55.82-89.4,57.95s93.3-57.29,94.78-54.72-97.43,58.47-95.98,60.97,95.78-58.37,97.11-56.07c1.19,2.07-102.08,61.59-100.64,64.09s93.59-57.55,95.11-54.91c1.34,2.32-94.62,57.43-93.36,59.61,1.41,2.44,97.61-60.3,99.32-57.34,1.52,2.63-107.95,65.39-106.56,67.79,1.71,2.96,98.61-60.12,99.99-57.73s-103.76,62.6-102.3,65.14,106.67-65.13,108.2-62.47c1.31,2.26-108.41,65.44-107.01,67.85,1.29,2.24,103.66-63.58,105.28-60.78,1.27,2.2-100.52,60.05-98.94,62.78,1.73,2.99,100.93-61.46,102.31-59.07,1.56,2.71-102.94,62.42-101.69,64.58s99.14-60.64,100.61-58.09c1.22,2.12-97.82,59.33-96.55,61.55s97.28-59.13,98.56-56.9c1.78,3.09-101.74,61.5-100.3,63.99,1.19,2.07,95.7-59.13,97.38-56.22,1.16,2.01-97.9,58.84-96.47,61.3,1.16,2,93.03-56.49,94.23-54.41,1.42,2.46-91.55,55.11-90.19,57.48,1.22,2.11,96.67-58.9,98.01-56.58,1.09,1.88-91.47,55.42-90.05,57.88,1.32,2.29,86.06-52.79,87.4-50.46,1.06,1.83-80.11,49.19-78.72,51.61,1.02,1.77,81.27-49.35,82.32-47.53,1.13,1.96-67.91,43.23-67.01,44.79.84,1.45,65.73-40.51,66.84-38.59.85,1.48-64.53,40.93-63.68,42.41.8,1.39,65.74-40.14,66.69-38.5.77,1.33-58.95,37.49-58.19,38.8.64,1.11,58.55-35.55,59.3-34.24s-50.73,33.41-49.98,34.72c.51.89,44.37-27.3,45.09-26.04.41.71-29.59,21.56-29.15,22.34s33.65-20.63,34.17-19.73c.41.71-30.03,22.2-29.56,23.01.29.49,26.84-16.2,27.15-15.67"/>
    <g>
      <path class="cls-5" d="M90.81,136.81c.06.11,8.99-5.3,9.04-5.22.08.14-.52,5.63-.43,5.78.04.06,2.02-1.25,2.06-1.19.06.11,1.89,4.44,1.95,4.54.03.06,3.57-2.15,3.61-2.09"/>
      <path class="cls-5" d="M86.27,136.04c.13.23,4.43-2.79,4.53-2.61.14.23-8.54,9.89-8.4,10.13.04.07,2.51-1.55,2.55-1.47"/>
    </g>
    <g>
      <path class="cls-5" d="M138.7,136.81c.06.11,8.99-5.3,9.04-5.22.08.14-.52,5.63-.43,5.78.04.06,2.02-1.25,2.06-1.19.06.11,1.89,4.44,1.95,4.54.03.06,3.57-2.15,3.61-2.09"/>
      <path class="cls-5" d="M134.15,136.04c.13.23,4.43-2.79,4.53-2.62.14.23-8.54,9.89-8.4,10.14.04.07,2.51-1.55,2.55-1.47"/>
    </g>
    <g>
      <path class="cls-2" d="M106.46,150.27c.05.08,2.59-1.58,2.63-1.52.05.08,3.25,3.3,3.3,3.38.16.27,7.05-4.44,7.21-4.16.15.26-7.4,9.5-7.25,9.77.18.31,15.22-9.19,15.4-8.89"/>
      <path class="cls-5" d="M106.98,151.08c.05.09,8.35-4.91,8.39-4.85.07.12,4.3,2.86,4.38,3,.05.08,2.59-1.59,2.63-1.52.07.13,4.9,2.68,4.96,2.8.03.06,3.44-2.08,3.48-2.01"/>
      <path class="cls-5" d="M105.53,149.66c.06.1,3.17-1.93,3.21-1.86.07.12-1.89,6.21-1.82,6.34.03.05,1.6-.99,1.63-.94.06.1,1.89,4.35,1.95,4.46.02.04,3.31-1.96,3.33-1.92.06.1,4.27,2.61,4.33,2.72.12.2,9.27-5.72,9.43-5.44"/>
    </g>
  </g>
  <rect class="cls-6" x="8.18" y="5.78" width="230.6" height="49.18"/>
  <path class="cls-7" d="M192.35,5.17h47.66v15.76h-44.66c-1.66,0-3-1.34-3-3V5.17h0Z"/>
  <line class="cls-4" x1="5.96" y1="54.96" x2="243.59" y2="54.96"/>
  <g>
    <path d="M38.38,42.62l-4.2-7.8h-.63v7.8h-5.88v-21.15h9.27c1.7,0,3.14.3,4.32.88,1.18.59,2.07,1.4,2.67,2.43.6,1.03.9,2.19.9,3.46,0,1.44-.4,2.71-1.19,3.79-.79,1.09-1.95,1.87-3.46,2.33l4.77,8.25h-6.57ZM33.55,30.8h2.91c.8,0,1.4-.19,1.8-.57.4-.38.6-.93.6-1.65,0-.68-.21-1.21-.62-1.6-.41-.39-1-.58-1.78-.58h-2.91v4.41Z"/>
    <path d="M47.49,29.63c.63-1.3,1.49-2.3,2.58-3,1.09-.7,2.3-1.05,3.65-1.05,1.16,0,2.16.23,3,.69.84.46,1.49,1.08,1.95,1.86v-2.34h5.88v16.83h-5.88v-2.34c-.46.78-1.12,1.4-1.96,1.86-.85.46-1.85.69-2.98.69-1.34,0-2.56-.35-3.65-1.05-1.09-.7-1.95-1.71-2.58-3.02-.63-1.31-.94-2.83-.94-4.58s.31-3.26.94-4.56ZM57.78,31.64c-.59-.62-1.32-.93-2.18-.93s-1.61.31-2.19.92c-.58.61-.87,1.47-.87,2.56s.29,1.94.87,2.56c.58.63,1.31.95,2.19.95s1.58-.31,2.18-.93c.59-.62.88-1.48.88-2.58s-.29-1.93-.88-2.55Z"/>
    <path d="M73.78,20.42v22.2h-5.88v-22.2h5.88Z"/>
    <path d="M84.97,26.27c.84-.46,1.83-.69,2.97-.69,1.34,0,2.55.35,3.65,1.05,1.09.7,1.95,1.7,2.58,3,.63,1.3.94,2.82.94,4.56s-.31,3.27-.94,4.58c-.63,1.31-1.49,2.31-2.58,3.02-1.09.7-2.31,1.05-3.65,1.05-1.14,0-2.13-.23-2.96-.69-.83-.46-1.48-1.08-1.96-1.86v10.38h-5.88v-24.87h5.88v2.34c.46-.78,1.11-1.4,1.95-1.86ZM88.26,31.62c-.59-.61-1.32-.92-2.17-.92s-1.59.31-2.18.93c-.59.62-.88,1.47-.88,2.55s.29,1.96.88,2.58c.59.62,1.31.93,2.18.93s1.58-.31,2.17-.95c.59-.63.89-1.48.89-2.56s-.3-1.95-.89-2.56Z"/>
    <path d="M113.19,27.57c1.13,1.29,1.69,3.04,1.69,5.23v9.81h-5.88v-9.03c0-.96-.25-1.71-.75-2.27-.5-.55-1.17-.83-2.01-.83s-1.57.28-2.07.83c-.5.55-.75,1.3-.75,2.27v9.03h-5.88v-22.2h5.88v7.77c.52-.76,1.22-1.37,2.11-1.84.89-.47,1.92-.71,3.08-.71,1.92,0,3.44.65,4.58,1.94Z"/>
  </g>
  <g>
    <path class="cls-6" d="M204.65,16.9l-2.38-4.42h-.36v4.42h-3.33V4.91h5.25c.96,0,1.78.17,2.45.5.67.33,1.17.79,1.51,1.38.34.58.51,1.24.51,1.96,0,.82-.22,1.53-.67,2.15-.45.62-1.1,1.06-1.96,1.32l2.7,4.67h-3.72ZM201.91,10.2h1.65c.45,0,.79-.11,1.02-.32s.34-.53.34-.94c0-.39-.12-.69-.35-.91-.23-.22-.57-.33-1.01-.33h-1.65v2.5Z"/>
    <path class="cls-6" d="M209.81,9.54c.36-.74.84-1.3,1.46-1.7.62-.4,1.31-.59,2.07-.59.66,0,1.22.13,1.7.39.48.26.84.61,1.11,1.05v-1.33h3.33v9.54h-3.33v-1.33c-.26.44-.63.79-1.11,1.05-.48.26-1.04.39-1.69.39-.76,0-1.45-.2-2.07-.6-.62-.4-1.1-.97-1.46-1.71-.36-.74-.54-1.61-.54-2.59s.18-1.85.54-2.58ZM215.64,10.68c-.33-.35-.75-.53-1.23-.53s-.91.17-1.24.52-.49.83-.49,1.45.16,1.1.49,1.45c.33.36.74.54,1.24.54s.9-.18,1.23-.53c.33-.35.5-.84.5-1.46s-.17-1.09-.5-1.45Z"/>
    <path class="cls-6" d="M226.06,7.75c.53-.32,1.11-.48,1.72-.48v3.55h-.94c-.73,0-1.26.14-1.62.42-.35.28-.53.78-.53,1.48v4.17h-3.33V7.36h3.33v1.68c.37-.54.83-.97,1.36-1.29Z"/>
    <path class="cls-6" d="M238.03,12.8h-6.31c.03.52.18.91.43,1.16s.58.38.98.38c.55,0,.95-.25,1.19-.75h3.55c-.15.66-.43,1.24-.86,1.76-.43.52-.96.92-1.61,1.22-.65.29-1.36.44-2.14.44-.94,0-1.78-.2-2.51-.6-.73-.4-1.3-.96-1.72-1.7s-.62-1.6-.62-2.6.2-1.86.61-2.59c.41-.73.98-1.29,1.71-1.69.73-.4,1.57-.59,2.52-.59s1.77.19,2.5.58c.73.39,1.29.94,1.7,1.66s.61,1.57.61,2.54c0,.26-.02.52-.05.78ZM234.68,11.19c0-.41-.14-.73-.41-.96-.27-.23-.61-.35-1.02-.35s-.74.11-1,.33c-.26.22-.43.55-.51.98h2.94Z"/>
  </g>
</svg>